<svg width="182" height="35" viewBox="0 0 182 35" fill="none" xmlns="http://www.w3.org/2000/svg">
<path fill-rule="evenodd" clip-rule="evenodd" d="M79.631 4.571C74.6437 5.19152 70.8956 9.46583 70.8956 14.511C70.8956 19.5561 74.6437 23.8304 79.631 24.451C80.0415 24.5011 80.4519 24.528 80.8663 24.528C81.2806 24.528 81.6911 24.5011 82.1016 24.451C87.0888 23.8304 90.8369 19.5561 90.8369 14.511C90.8369 9.46583 87.0888 5.19152 82.1016 4.571C81.6911 4.52089 81.2806 4.49391 80.8663 4.49391C80.4519 4.49391 80.0415 4.52089 79.631 4.571ZM73.9493 27.9621C73.7805 27.8388 73.6156 27.7116 73.4506 27.5806C73.3662 27.5112 73.2396 27.5266 73.1706 27.6114L70.9416 30.3941C70.8726 30.4789 70.8879 30.61 70.9723 30.6755C73.2588 32.5255 76.0018 33.6933 78.9174 34.0556C79.5619 34.1366 80.2141 34.1751 80.8663 34.1751C81.5184 34.1751 82.1668 34.1327 82.8151 34.0556C85.7308 33.6933 88.4737 32.5294 90.7602 30.6755C90.8446 30.6061 90.8599 30.4789 90.7909 30.3941L88.562 27.6114C88.4929 27.5266 88.3663 27.5112 88.2819 27.5806C88.1208 27.7116 87.952 27.8388 87.7832 27.9621C86.1719 29.13 84.3036 29.8661 82.3318 30.1089C81.8445 30.1706 81.3573 30.2014 80.8663 30.2014C80.3752 30.2014 79.888 30.1706 79.4008 30.1089C77.4289 29.8661 75.5606 29.13 73.9493 27.9621ZM81.9366 8.56395C84.7985 9.07656 86.8817 11.5934 86.8817 14.511C86.8817 17.4286 84.7563 19.9878 81.8599 20.4696C81.53 20.5235 81.2 20.5505 80.8663 20.5505C80.5325 20.5505 80.2026 20.5235 79.8727 20.4696L79.7883 20.4542C76.9302 19.9377 74.8509 17.4248 74.8509 14.5071C74.8509 11.5895 76.9762 9.03031 79.8727 8.54853C80.1987 8.49457 80.5325 8.46759 80.8663 8.46759C81.2 8.46759 81.53 8.49457 81.8599 8.54853L81.9366 8.56009V8.56395ZM92.9853 9.45427C92.8548 9.45427 92.7244 9.46583 92.6016 9.4851C92.0607 4.73673 86.9967 1.00586 80.8509 1.00586C74.7051 1.00586 69.6411 4.74058 69.1002 9.4851C68.9774 9.46583 68.8508 9.45427 68.7166 9.45427C67.6692 9.45427 66.8214 10.1249 66.8214 10.9536V15.6171C66.8214 16.4458 67.6692 17.1164 68.7166 17.1164C69.7639 17.1164 70.6117 16.4458 70.6117 15.6171V10.3253C70.6117 5.86601 75.2038 2.2392 80.8509 2.2392C86.498 2.2392 91.0901 5.86601 91.0901 10.3253V15.6171C91.0901 16.4458 91.938 17.1164 92.9853 17.1164C94.0326 17.1164 94.8804 16.4458 94.8804 15.6171V10.9536C94.8804 10.1249 94.0288 9.45427 92.9814 9.45427H92.9853ZM84.9788 24.5319C83.8087 24.5319 82.8573 25.4839 82.8573 26.6633C82.8573 27.8427 83.8049 28.7946 84.9788 28.7946C86.1528 28.7946 87.1003 27.8427 87.1003 26.6633C87.1003 25.4839 86.1528 24.5319 84.9788 24.5319Z" fill="url(#paint0_linear_130_4648)"/>
<path fill-rule="evenodd" clip-rule="evenodd" d="M79.631 4.571C74.6437 5.19152 70.8956 9.46583 70.8956 14.511C70.8956 19.5561 74.6437 23.8304 79.631 24.451C80.0415 24.5011 80.4519 24.528 80.8663 24.528C81.2806 24.528 81.6911 24.5011 82.1016 24.451C87.0888 23.8304 90.8369 19.5561 90.8369 14.511C90.8369 9.46583 87.0888 5.19152 82.1016 4.571C81.6911 4.52089 81.2806 4.49391 80.8663 4.49391C80.4519 4.49391 80.0415 4.52089 79.631 4.571ZM73.9493 27.9621C73.7805 27.8388 73.6156 27.7116 73.4506 27.5806C73.3662 27.5112 73.2396 27.5266 73.1706 27.6114L70.9416 30.3941C70.8726 30.4789 70.8879 30.61 70.9723 30.6755C73.2588 32.5255 76.0018 33.6933 78.9174 34.0556C79.5619 34.1366 80.2141 34.1751 80.8663 34.1751C81.5184 34.1751 82.1668 34.1327 82.8151 34.0556C85.7308 33.6933 88.4737 32.5294 90.7602 30.6755C90.8446 30.6061 90.8599 30.4789 90.7909 30.3941L88.562 27.6114C88.4929 27.5266 88.3663 27.5112 88.2819 27.5806C88.1208 27.7116 87.952 27.8388 87.7832 27.9621C86.1719 29.13 84.3036 29.8661 82.3318 30.1089C81.8445 30.1706 81.3573 30.2014 80.8663 30.2014C80.3752 30.2014 79.888 30.1706 79.4008 30.1089C77.4289 29.8661 75.5606 29.13 73.9493 27.9621ZM81.9366 8.56395C84.7985 9.07656 86.8817 11.5934 86.8817 14.511C86.8817 17.4286 84.7563 19.9878 81.8599 20.4696C81.53 20.5235 81.2 20.5505 80.8663 20.5505C80.5325 20.5505 80.2026 20.5235 79.8727 20.4696L79.7883 20.4542C76.9302 19.9377 74.8509 17.4248 74.8509 14.5071C74.8509 11.5895 76.9762 9.03031 79.8727 8.54853C80.1987 8.49457 80.5325 8.46759 80.8663 8.46759C81.2 8.46759 81.53 8.49457 81.8599 8.54853L81.9366 8.56009V8.56395ZM92.9853 9.45427C92.8548 9.45427 92.7244 9.46583 92.6016 9.4851C92.0607 4.73673 86.9967 1.00586 80.8509 1.00586C74.7051 1.00586 69.6411 4.74058 69.1002 9.4851C68.9774 9.46583 68.8508 9.45427 68.7166 9.45427C67.6692 9.45427 66.8214 10.1249 66.8214 10.9536V15.6171C66.8214 16.4458 67.6692 17.1164 68.7166 17.1164C69.7639 17.1164 70.6117 16.4458 70.6117 15.6171V10.3253C70.6117 5.86601 75.2038 2.2392 80.8509 2.2392C86.498 2.2392 91.0901 5.86601 91.0901 10.3253V15.6171C91.0901 16.4458 91.938 17.1164 92.9853 17.1164C94.0326 17.1164 94.8804 16.4458 94.8804 15.6171V10.9536C94.8804 10.1249 94.0288 9.45427 92.9814 9.45427H92.9853ZM84.9788 24.5319C83.8087 24.5319 82.8573 25.4839 82.8573 26.6633C82.8573 27.8427 83.8049 28.7946 84.9788 28.7946C86.1528 28.7946 87.1003 27.8427 87.1003 26.6633C87.1003 25.4839 86.1528 24.5319 84.9788 24.5319Z" fill="url(#paint1_linear_130_4648)"/>
<path fill-rule="evenodd" clip-rule="evenodd" d="M79.631 4.571C74.6437 5.19152 70.8956 9.46583 70.8956 14.511C70.8956 19.5561 74.6437 23.8304 79.631 24.451C80.0415 24.5011 80.4519 24.528 80.8663 24.528C81.2806 24.528 81.6911 24.5011 82.1016 24.451C87.0888 23.8304 90.8369 19.5561 90.8369 14.511C90.8369 9.46583 87.0888 5.19152 82.1016 4.571C81.6911 4.52089 81.2806 4.49391 80.8663 4.49391C80.4519 4.49391 80.0415 4.52089 79.631 4.571ZM73.9493 27.9621C73.7805 27.8388 73.6156 27.7116 73.4506 27.5806C73.3662 27.5112 73.2396 27.5266 73.1706 27.6114L70.9416 30.3941C70.8726 30.4789 70.8879 30.61 70.9723 30.6755C73.2588 32.5255 76.0018 33.6933 78.9174 34.0556C79.5619 34.1366 80.2141 34.1751 80.8663 34.1751C81.5184 34.1751 82.1668 34.1327 82.8151 34.0556C85.7308 33.6933 88.4737 32.5294 90.7602 30.6755C90.8446 30.6061 90.8599 30.4789 90.7909 30.3941L88.562 27.6114C88.4929 27.5266 88.3663 27.5112 88.2819 27.5806C88.1208 27.7116 87.952 27.8388 87.7832 27.9621C86.1719 29.13 84.3036 29.8661 82.3318 30.1089C81.8445 30.1706 81.3573 30.2014 80.8663 30.2014C80.3752 30.2014 79.888 30.1706 79.4008 30.1089C77.4289 29.8661 75.5606 29.13 73.9493 27.9621ZM81.9366 8.56395C84.7985 9.07656 86.8817 11.5934 86.8817 14.511C86.8817 17.4286 84.7563 19.9878 81.8599 20.4696C81.53 20.5235 81.2 20.5505 80.8663 20.5505C80.5325 20.5505 80.2026 20.5235 79.8727 20.4696L79.7883 20.4542C76.9302 19.9377 74.8509 17.4248 74.8509 14.5071C74.8509 11.5895 76.9762 9.03031 79.8727 8.54853C80.1987 8.49457 80.5325 8.46759 80.8663 8.46759C81.2 8.46759 81.53 8.49457 81.8599 8.54853L81.9366 8.56009V8.56395ZM92.9853 9.45427C92.8548 9.45427 92.7244 9.46583 92.6016 9.4851C92.0607 4.73673 86.9967 1.00586 80.8509 1.00586C74.7051 1.00586 69.6411 4.74058 69.1002 9.4851C68.9774 9.46583 68.8508 9.45427 68.7166 9.45427C67.6692 9.45427 66.8214 10.1249 66.8214 10.9536V15.6171C66.8214 16.4458 67.6692 17.1164 68.7166 17.1164C69.7639 17.1164 70.6117 16.4458 70.6117 15.6171V10.3253C70.6117 5.86601 75.2038 2.2392 80.8509 2.2392C86.498 2.2392 91.0901 5.86601 91.0901 10.3253V15.6171C91.0901 16.4458 91.938 17.1164 92.9853 17.1164C94.0326 17.1164 94.8804 16.4458 94.8804 15.6171V10.9536C94.8804 10.1249 94.0288 9.45427 92.9814 9.45427H92.9853ZM84.9788 24.5319C83.8087 24.5319 82.8573 25.4839 82.8573 26.6633C82.8573 27.8427 83.8049 28.7946 84.9788 28.7946C86.1528 28.7946 87.1003 27.8427 87.1003 26.6633C87.1003 25.4839 86.1528 24.5319 84.9788 24.5319Z" fill="url(#paint2_linear_130_4648)"/>
<path d="M14.5129 21.337C13.2086 22.1502 11.7814 22.5587 10.2354 22.5587C9.11135 22.5587 8.06019 22.3468 7.08576 21.9228C6.11133 21.4988 5.25199 20.9207 4.50774 20.1807C3.76349 19.4446 3.18036 18.5812 2.75836 17.5907C2.33637 16.6002 2.12537 15.5441 2.12537 14.411C2.12537 13.2778 2.33637 12.2526 2.75836 11.2621C3.18036 10.2754 3.76349 9.40436 4.50774 8.65664C5.25199 7.90893 6.11133 7.32309 7.08576 6.89913C8.06019 6.47516 9.11135 6.26318 10.2354 6.26318C11.3594 6.26318 12.3837 6.47516 13.3697 6.89913C14.3518 7.32309 15.2188 7.90893 15.9631 8.65664C16.7073 9.40436 17.2904 10.2716 17.7124 11.2621C18.1344 12.2526 18.3454 13.301 18.3454 14.411V22.1926H15.0308V14.4302C15.0308 13.7673 14.9042 13.1468 14.6549 12.5725C14.4017 11.9982 14.0564 11.4895 13.6152 11.0462C13.174 10.603 12.6676 10.2561 12.0922 10.0056C11.5206 9.75509 10.9029 9.6279 10.2392 9.6279C9.57555 9.6279 8.9579 9.75509 8.38628 10.0056C7.81466 10.2561 7.30443 10.603 6.86325 11.0424C6.42207 11.4856 6.07296 11.9905 5.8236 12.5609C5.5704 13.1314 5.44764 13.748 5.44764 14.411C5.44764 15.0739 5.57424 15.6944 5.8236 16.2764C6.07296 16.8584 6.42207 17.3633 6.86325 17.795C7.30443 18.2266 7.81083 18.5658 8.38628 18.8163C8.9579 19.0668 9.57555 19.194 10.2392 19.194C10.6804 19.194 11.1024 19.1401 11.5052 19.0283C11.908 18.9165 12.2878 18.7624 12.6485 18.5581L14.5168 21.3331L14.5129 21.337Z" fill="#313131"/>
<path d="M20.7509 22.1961V12.1751C20.7509 11.3696 20.9005 10.6026 21.2035 9.87419C21.5066 9.14574 21.9209 8.52136 22.4542 7.99719C22.9874 7.47302 23.6051 7.05291 24.3071 6.74072C25.0092 6.42853 25.7726 6.27051 26.5974 6.27051C27.4223 6.27051 28.2202 6.43238 28.9338 6.75614C29.6473 7.07989 30.265 7.51156 30.7867 8.05886C31.3085 7.51541 31.9261 7.07989 32.6397 6.75614C33.3532 6.43238 34.132 6.27051 34.976 6.27051C35.82 6.27051 36.5374 6.42853 37.251 6.74072C37.9645 7.05291 38.586 7.47302 39.1193 7.99719C39.6525 8.52136 40.0668 9.14574 40.3699 9.87419C40.673 10.6026 40.8226 11.3696 40.8226 12.1751V22.1961H37.508V12.1983C37.508 11.4929 37.2625 10.8878 36.7714 10.3868C36.2804 9.88189 35.6819 9.63137 34.9799 9.63137C34.2778 9.63137 33.6793 9.88189 33.1883 10.3868C32.6972 10.8917 32.4517 11.4929 32.4517 12.1983V22.1961H29.1371V12.1096C29.1371 11.4043 28.8916 10.8146 28.4005 10.3444C27.9095 9.87033 27.311 9.63523 26.609 9.63523C25.9069 9.63523 25.3084 9.88575 24.8174 10.3906C24.3263 10.8955 24.0808 11.4968 24.0808 12.2021V22.1999H20.7662L20.7509 22.1961Z" fill="#313131"/>
<path d="M43.3239 3.57683C43.3239 3.11433 43.5042 2.70964 43.8648 2.36661C44.2254 2.02359 44.6397 1.854 45.1001 1.854C45.5604 1.854 45.9633 2.02744 46.3047 2.36661C46.6461 2.70964 46.8149 3.11433 46.8149 3.57683C46.8149 4.03934 46.6423 4.45559 46.3047 4.81788C45.9633 5.18018 45.5604 5.36133 45.1001 5.36133C44.6397 5.36133 44.2254 5.18018 43.8648 4.81788C43.5042 4.45559 43.3239 4.03934 43.3239 3.57683ZM43.5349 6.5754H46.8495V22.1965H43.5349V6.5754Z" fill="#313131"/>
<path d="M56.8547 19.2286C57.2958 19.2286 57.7178 19.1747 58.1207 19.0629C58.5235 18.9511 58.9033 18.797 59.2639 18.5927L61.1322 21.3677C59.8278 22.181 58.4007 22.5895 56.8547 22.5895C55.7306 22.5895 54.6795 22.3775 53.705 21.9536C52.7306 21.5296 51.8713 20.9515 51.127 20.2115C50.3828 19.4753 49.7996 18.612 49.3776 17.6214C48.9556 16.6309 48.7446 15.5749 48.7446 14.4417C48.7446 13.3086 48.9556 12.2834 49.3776 11.2928C49.7996 10.3023 50.3828 9.43512 51.127 8.6874C51.8713 7.93969 52.7306 7.35385 53.705 6.92989C54.6795 6.50593 55.7306 6.29395 56.8547 6.29395C57.9787 6.29395 59.003 6.50593 59.989 6.92989C60.9711 7.35385 61.8381 7.93969 62.5823 8.6874C63.3266 9.43512 63.9097 10.3023 64.3317 11.2928C64.7537 12.2834 64.9647 13.3317 64.9647 14.4417V22.6473C64.9647 23.476 64.8151 24.2468 64.512 24.9637C64.2089 25.6806 63.7946 26.3011 63.2614 26.8253C62.7281 27.3494 62.1066 27.7696 61.3931 28.0817C60.6795 28.3939 59.9199 28.552 59.1181 28.552C58.3163 28.552 57.5299 28.3939 56.8278 28.0779C56.1258 27.7618 55.5119 27.3302 54.9902 26.779L57.3994 24.4627C57.8406 24.9483 58.4122 25.1911 59.1181 25.1911C59.824 25.1911 60.4186 24.9406 60.9097 24.4434C61.4007 23.9462 61.6463 23.3449 61.6463 22.6473V14.461C61.6463 13.7981 61.5197 13.1775 61.2703 12.6033C61.0171 12.029 60.6718 11.5202 60.2306 11.077C59.7895 10.6338 59.2831 10.2869 58.7076 10.0364C58.136 9.78585 57.5183 9.65866 56.8547 9.65866C56.191 9.65866 55.5733 9.78585 55.0017 10.0364C54.4301 10.2869 53.9199 10.6338 53.4787 11.0732C53.0375 11.5164 52.6884 12.0213 52.439 12.5917C52.1858 13.1621 52.0631 13.7788 52.0631 14.4417C52.0631 15.1047 52.1897 15.7252 52.439 16.3072C52.6884 16.8891 53.0375 17.394 53.4787 17.8257C53.9199 18.2574 54.4263 18.5966 55.0017 18.8471C55.5733 19.0976 56.191 19.2248 56.8547 19.2248V19.2286Z" fill="#313131"/>
<path d="M99.3114 15.093C98.8472 14.9736 98.4329 14.7808 98.0608 14.5188C97.6887 14.2567 97.3664 13.9445 97.0979 13.5822C96.8255 13.2199 96.6145 12.8113 96.4649 12.3604C96.3153 11.9095 96.2385 11.4392 96.2385 10.9575C96.2385 10.3524 96.3536 9.7858 96.5838 9.25006C96.814 8.71818 97.1324 8.25182 97.5314 7.86255C97.9342 7.46942 98.3945 7.15723 98.9163 6.92598C99.438 6.69473 100.002 6.5791 100.604 6.5791H109.132V9.93997H100.512C100.232 9.98236 99.9981 10.1018 99.8178 10.3023C99.6375 10.5027 99.5455 10.7339 99.5455 10.996C99.5455 11.2196 99.6107 11.42 99.7411 11.6011C99.8715 11.7823 100.037 11.894 100.24 11.9326L106.597 13.5629C107.099 13.6631 107.571 13.8404 108.012 14.0909C108.453 14.3415 108.837 14.6614 109.159 15.0429C109.482 15.4245 109.735 15.86 109.927 16.3418C110.118 16.8236 110.214 17.34 110.214 17.8835C110.214 18.4886 110.099 19.0513 109.869 19.5755C109.639 20.0996 109.328 20.5583 108.933 20.9476C108.542 21.3407 108.085 21.649 107.563 21.8687C107.042 22.0884 106.489 22.2002 105.906 22.2002H97.2283V18.8393H106.029C106.271 18.8008 106.474 18.689 106.647 18.5079C106.815 18.3267 106.904 18.107 106.904 17.8449C106.904 17.5828 106.823 17.3554 106.662 17.1666C106.501 16.9739 106.309 16.8583 106.09 16.8197L99.3114 15.0969V15.093Z" fill="#313131"/>
<path d="M111.427 14.4144C111.427 13.3044 111.638 12.256 112.06 11.2655C112.482 10.2788 113.065 9.40778 113.809 8.66006C114.553 7.91235 115.413 7.32651 116.387 6.90254C117.361 6.47858 118.413 6.2666 119.537 6.2666C120.661 6.2666 121.685 6.47858 122.671 6.90254C123.653 7.32651 124.52 7.91235 125.264 8.66006C126.009 9.40778 126.592 10.275 127.014 11.2655C127.436 12.256 127.647 13.3044 127.647 14.4144C127.647 15.5244 127.436 16.6036 127.014 17.5941C126.592 18.5846 126.009 19.4441 125.264 20.1841C124.52 20.9203 123.657 21.5023 122.671 21.9262C121.685 22.3502 120.642 22.5622 119.537 22.5622C118.432 22.5622 117.361 22.3502 116.387 21.9262C115.413 21.5023 114.553 20.9241 113.809 20.1841C113.065 19.448 112.482 18.5846 112.06 17.5941C111.638 16.6036 111.427 15.5475 111.427 14.4144ZM114.741 14.4144C114.741 15.0773 114.868 15.6978 115.117 16.2798C115.367 16.8618 115.716 17.3667 116.157 17.7984C116.598 18.23 117.104 18.5692 117.68 18.8197C118.251 19.0703 118.869 19.1974 119.533 19.1974C120.197 19.1974 120.814 19.0703 121.386 18.8197C121.957 18.5692 122.464 18.23 122.909 17.7984C123.35 17.3667 123.695 16.8618 123.948 16.2798C124.198 15.6978 124.324 15.0773 124.324 14.4144C124.324 13.7515 124.198 13.1348 123.948 12.5644C123.695 11.9939 123.35 11.4852 122.909 11.0458C122.468 10.6064 121.961 10.2596 121.386 10.009C120.814 9.75851 120.197 9.63132 119.533 9.63132C118.869 9.63132 118.251 9.75851 117.68 10.009C117.108 10.2596 116.598 10.6064 116.157 11.0458C115.716 11.489 115.367 11.9939 115.117 12.5644C114.864 13.1348 114.741 13.7515 114.741 14.4144Z" fill="#313131"/>
<path d="M129.446 6.5752H132.761V14.669C132.761 15.2741 132.876 15.8484 133.106 16.3918C133.336 16.9353 133.654 17.4132 134.053 17.8256C134.456 18.238 134.928 18.5618 135.469 18.793C136.01 19.0243 136.585 19.1399 137.188 19.1399C137.79 19.1399 138.362 19.0243 138.906 18.793C139.447 18.5618 139.927 18.238 140.337 17.8256C140.748 17.4132 141.07 16.9353 141.3 16.3918C141.53 15.8484 141.645 15.2741 141.645 14.669V6.5752H144.96V14.6883C144.96 15.7598 144.753 16.7657 144.342 17.7138C143.932 18.662 143.372 19.4906 142.67 20.1959C141.968 20.9013 141.143 21.464 140.199 21.8764C139.255 22.2888 138.25 22.4969 137.188 22.4969C136.125 22.4969 135.12 22.2888 134.176 21.8764C133.232 21.464 132.408 20.9013 131.706 20.1959C131.003 19.4906 130.451 18.662 130.048 17.7138C129.645 16.7657 129.446 15.7559 129.446 14.6883V6.5752Z" fill="#313131"/>
<path d="M150.27 22.1961H146.955V14.083C146.955 13.0154 147.155 12.0056 147.557 11.0575C147.96 10.1093 148.513 9.28069 149.215 8.57537C149.917 7.87005 150.742 7.30734 151.685 6.89494C152.629 6.48254 153.634 6.27441 154.697 6.27441C155.759 6.27441 156.765 6.48254 157.708 6.89494C158.652 7.30734 159.477 7.87005 160.179 8.57537C160.881 9.28069 161.441 10.1093 161.852 11.0575C162.262 12.0056 162.469 13.0154 162.469 14.083V22.1961H159.155V14.1023C159.155 13.4972 159.04 12.9268 158.809 12.3795C158.579 11.836 158.257 11.3581 157.846 10.9457C157.436 10.5333 156.956 10.2096 156.416 9.9783C155.875 9.74705 155.299 9.63142 154.697 9.63142C154.095 9.63142 153.523 9.74705 152.978 9.9783C152.437 10.2096 151.962 10.5333 151.563 10.9457C151.16 11.3581 150.845 11.836 150.615 12.3795C150.385 12.9229 150.27 13.4972 150.27 14.1023V22.1961Z" fill="#313131"/>
<path d="M175.252 10.2675C174.891 10.0671 174.508 9.90906 174.109 9.79729C173.706 9.68552 173.284 9.63156 172.843 9.63156C172.179 9.63156 171.561 9.75875 170.99 10.0093C170.418 10.2598 169.908 10.6028 169.467 11.0306C169.025 11.4623 168.676 11.9672 168.427 12.5492C168.174 13.1312 168.051 13.7517 168.051 14.4146C168.051 15.0775 168.178 15.6942 168.427 16.2646C168.676 16.8351 169.025 17.3438 169.467 17.7832C169.908 18.2264 170.414 18.5695 170.99 18.82C171.561 19.0705 172.179 19.1977 172.843 19.1977C173.506 19.1977 174.124 19.0705 174.696 18.82C175.267 18.5695 175.774 18.2187 176.219 17.7755C176.66 17.3323 177.005 16.8235 177.258 16.2492C177.508 15.6749 177.634 15.0544 177.634 14.3915V1.00586H180.949V14.4185C180.949 15.5478 180.738 16.6038 180.316 17.5828C179.894 18.5617 179.311 19.4251 178.566 20.1728C177.822 20.9205 176.959 21.5064 175.973 21.9303C174.987 22.3543 173.944 22.5663 172.839 22.5663C171.734 22.5663 170.664 22.3543 169.689 21.9303C168.715 21.5064 167.855 20.9205 167.111 20.1728C166.367 19.4251 165.784 18.5617 165.362 17.5828C164.94 16.6038 164.729 15.5516 164.729 14.4185C164.729 13.2853 164.94 12.2293 165.362 11.2388C165.784 10.2521 166.367 9.38875 167.111 8.64874C167.855 7.91259 168.715 7.3306 169.689 6.90664C170.664 6.48268 171.711 6.2707 172.839 6.2707C174.385 6.2707 175.812 6.67924 177.116 7.49248L175.248 10.2675H175.252Z" fill="#313131"/>
<defs>
<linearGradient id="paint0_linear_130_4648" x1="66.8214" y1="17.5866" x2="94.8843" y2="17.5866" gradientUnits="userSpaceOnUse">
<stop stop-color="#F3275A"/>
<stop offset="0.2" stop-color="#F54C4F"/>
<stop offset="0.75" stop-color="#FCAD32"/>
<stop offset="1" stop-color="#FED427"/>
</linearGradient>
<linearGradient id="paint1_linear_130_4648" x1="66.8214" y1="17.5866" x2="94.8843" y2="17.5866" gradientUnits="userSpaceOnUse">
<stop stop-color="#F3275A"/>
<stop offset="0.2" stop-color="#F54C4F"/>
<stop offset="0.75" stop-color="#FCAD32"/>
<stop offset="1" stop-color="#FED427"/>
</linearGradient>
<linearGradient id="paint2_linear_130_4648" x1="66.8214" y1="17.5866" x2="94.8843" y2="17.5866" gradientUnits="userSpaceOnUse">
<stop stop-color="#F3275A"/>
<stop offset="0.2" stop-color="#F54C4F"/>
<stop offset="0.75" stop-color="#FCAD32"/>
<stop offset="1" stop-color="#FED427"/>
</linearGradient>
</defs>
</svg>
