<svg id="Flat" height="512" viewBox="0 0 512 512" width="512" xmlns="http://www.w3.org/2000/svg"><path d="m176 152v32h32v-32a96 96 0 0 1 96-96 96 96 0 0 1 96 96v32h32v-32a128 128 0 0 0 -128-128 128 128 0 0 0 -128 128z" fill="#c7312e"/><path d="m427.192 488h-246.384a32 32 0 0 1 -31.824-28.65l-28.984-275.35h368l-28.984 275.35a32 32 0 0 1 -31.824 28.65z" fill="#a82a27"/><path d="m277.444 488h-218.888a32 32 0 0 1 -31.906-34.454l11.077-144a32 32 0 0 1 31.906-29.546h196.734a32 32 0 0 1 31.906 29.546l11.077 144a32 32 0 0 1 -31.906 34.454z" fill="#eb423f"/><path d="m277.44 488h-218.88a32 32 0 0 1 -31.91-34.45l2.27-29.55h278.16l2.27 29.55a32 32 0 0 1 -31.91 34.45z" fill="#c7312e"/><g fill="#f7b030"><path d="m144 280h48v32h-48z"/><path d="m280 216h48v32h-48z"/><path d="m96 280h-72v-32h32l40 16z"/></g><path d="m216 248h-48v-64l24-16 24 16z" fill="#eb423f"/><path d="m360 328 40-32h48l40 32v160h-128z" fill="#499154"/><path d="m424 400a8 8 0 1 1 8-8 8 8 0 0 0 16 0 24.039 24.039 0 0 0 -16-22.624v-9.376a8 8 0 0 0 -16 0v9.376a24 24 0 0 0 8 46.624 8 8 0 1 1 -8 8 8 8 0 0 0 -16 0 24.039 24.039 0 0 0 16 22.624v9.376a8 8 0 0 0 16 0v-9.376a24 24 0 0 0 -8-46.624z" fill="#b1bd70"/><circle cx="424" cy="328" fill="#e9eef2" r="8"/><path d="m440 248h-48v-64l24-16 24 16z" fill="#eb423f"/></svg>