<svg id="Capa_1" enable-background="new 0 0 512 512" height="512" viewBox="0 0 512 512" width="512" xmlns="http://www.w3.org/2000/svg"><g><path d="m409.6 349.867v-76.8c0-18.851 15.282-34.133 34.133-34.133h11.133v110.933z" fill="#f2d0ac"/><path d="m476.908 187.747c-18.592.51-33.174 16.231-33.174 34.831v89.201c-5.022-2.906-10.847-4.578-17.066-4.578-9.598 0-18.265 3.967-24.467 10.345l-67.494 67.498c-6.432 6.208-10.44 14.912-10.44 24.558v93.866c0 4.713 3.82 8.534 8.534 8.534h102.4c4.713 0 8.533-3.82 8.533-8.534v-11.461c0-9.053 3.596-17.734 9.997-24.136l43.273-43.273c9.602-9.602 14.996-22.625 14.996-36.204v-166.527c0-19.17-15.803-34.649-35.092-34.12z" fill="#f6e2c1"/><g><path d="m392.533 0h-273.066c-18.851 0-34.133 15.282-34.133 34.133v136.533c0 18.851 15.282 34.133 34.133 34.133h97.833c2.853 0 5.518 1.426 7.1 3.8l24.5 36.75c3.378 5.066 10.823 5.066 14.2 0l24.5-36.75c1.583-2.374 4.247-3.8 7.1-3.8h97.833c18.851 0 34.133-15.282 34.133-34.133v-136.532c.001-18.852-15.281-34.134-34.133-34.134z" fill="#edf6ff"/><path d="m375.467 34.134h-33.651c-9.339 0-17.311 7.297-17.543 16.633-.113 4.557 1.563 8.714 4.374 11.831 3.013 3.34 2.807 8.48-.374 11.661l-38.139 38.139-56.199-56.198c-6.665-6.665-17.471-6.665-24.135 0l-85.333 85.333c-6.666 6.665-6.666 17.471 0 24.135 3.332 3.332 7.7 4.999 12.068 4.999s8.735-1.667 12.068-4.999l73.265-73.265 56.199 56.198c6.665 6.665 17.471 6.665 24.136 0l50.207-50.207c3.181-3.181 8.32-3.386 11.661-.374 3.117 2.811 7.275 4.488 11.832 4.374 9.336-.232 16.633-8.204 16.633-17.543v-33.651c-.002-9.425-7.643-17.066-17.069-17.066z" fill="#c1e3a0"/><g fill="#d8e2f3"><path d="m263.906 208.6-19.753 29.63 4.747 7.12c3.378 5.066 10.822 5.066 14.2 0l24.5-36.75c1.583-2.374 4.247-3.8 7.1-3.8h-23.694c-2.853 0-5.517 1.426-7.1 3.8z"/><path d="m392.533 0h-23.694c18.851 0 34.133 15.282 34.133 34.133v136.533c0 18.852-15.282 34.133-34.133 34.133h23.694c18.852 0 34.133-15.282 34.133-34.133v-136.532c.001-18.852-15.281-34.134-34.133-34.134z"/></g></g><g fill="#f2d0ac"><path d="m443.734 295.335v16.444c8.896 4.253 15.056 13.339 15.056 23.839 0 7.186-2.843 13.908-8.004 18.928-.026.025-.052.05-.078.077l-43.797 43.8c-3.017 3.017-3.017 7.909.001 10.927 1.508 1.508 3.485 2.263 5.463 2.263 1.977 0 3.955-.755 5.464-2.264l43.761-43.764c8.154-7.951 12.643-18.59 12.643-29.966 0-19.149-12.928-35.323-30.509-40.284z"/><path d="m476.908 187.747c-3.809.105-7.446.857-10.827 2.132 12.977 4.833 22.226 17.327 22.226 31.988v166.526c0 13.579-5.394 26.602-14.996 36.204l-43.273 43.273c-6.401 6.401-9.997 15.083-9.997 24.136v11.461c0 4.713-3.821 8.534-8.533 8.534h23.692c4.713 0 8.533-3.82 8.533-8.534v-11.461c0-9.053 3.596-17.734 9.997-24.136l43.273-43.273c9.602-9.602 14.996-22.625 14.996-36.204v-166.526c.001-19.17-15.802-34.649-35.091-34.12z"/><path d="m102.4 349.867v-76.8c0-18.851-15.282-34.133-34.133-34.133h-11.134v110.933z"/></g><path d="m35.093 187.747c18.592.51 33.174 16.231 33.174 34.831v89.201c5.022-2.906 10.847-4.578 17.067-4.578 9.598 0 18.265 3.967 24.467 10.345l67.494 67.498c6.432 6.208 10.44 14.912 10.44 24.558v93.866c0 4.713-3.82 8.534-8.533 8.534h-102.402c-4.713 0-8.533-3.82-8.533-8.534v-11.461c0-9.053-3.596-17.734-9.997-24.136l-43.273-43.273c-9.603-9.603-14.997-22.626-14.997-36.205v-166.526c0-19.17 15.803-34.649 35.093-34.12z" fill="#f6e2c1"/><path d="m68.267 295.335v16.444c-8.896 4.253-15.056 13.339-15.056 23.839 0 7.186 2.843 13.908 8.004 18.928.026.025.052.05.077.077l43.797 43.8c3.017 3.017 3.017 7.909-.001 10.927-1.508 1.508-3.485 2.263-5.463 2.263-1.977 0-3.955-.755-5.464-2.264l-43.761-43.766c-8.154-7.951-12.643-18.59-12.643-29.966.001-19.147 12.928-35.321 30.51-40.282z" fill="#f2d0ac"/></g></svg>