<svg id="Capa_1" enable-background="new 0 0 512.185 512.185" height="512" viewBox="0 0 512.185 512.185" width="512" xmlns="http://www.w3.org/2000/svg"><g><g><g><path d="m460.062 436.83h-30v-45.237h-132.775v-30h147.774c8.284 0 15 6.716 15 15v60.237z" fill="#00a78e"/></g><g><path d="m180.863 368.295h30v68.511h-30z" fill="#8ee26b"/></g><g><path d="m60.219 346.349h-30v-60.188c0-8.284 6.716-15 15-15h87.106v30h-72.106z" fill="#fe6e63"/></g><g><path d="m143.874 210.855h-98.655c-8.284 0-15-6.716-15-15v-60.237h30v45.237h83.655z" fill="#18c2fb"/></g><g><g><path d="m436.612 150.593h-139.325v-30h124.325v-45.238h30v60.237c0 8.285-6.716 15.001-15 15.001z" fill="#ff326c"/></g></g><g><path d="m383.357 241.093h53.255v30h-53.255z" fill="#18c2fb"/></g><g><path d="m241.05 75.355h30v53.431h-30z" fill="#78e3f5"/></g><g><path d="m256.05 90.431c-24.906 0-45.169-20.263-45.169-45.169s20.263-45.169 45.169-45.169 45.168 20.263 45.168 45.169-20.262 45.169-45.168 45.169z" fill="#ffc178"/></g><g><path d="m195.813 512.093c-24.906 0-45.168-20.263-45.168-45.169s20.263-45.169 45.168-45.169c24.906 0 45.169 20.263 45.169 45.169s-20.263 45.169-45.169 45.169z" fill="#ffc178"/></g><g><path d="m45.219 150.768c-24.906 0-45.168-20.263-45.168-45.169 0-24.905 20.263-45.168 45.168-45.168 24.906 0 45.169 20.263 45.169 45.168 0 24.906-20.263 45.169-45.169 45.169z" fill="#ffc178"/></g><g><path d="m45.169 421.686c-24.906 0-45.169-20.262-45.169-45.168s20.263-45.169 45.169-45.169 45.168 20.263 45.168 45.169-20.262 45.168-45.168 45.168z" fill="#ffc178"/></g><g><path d="m436.612 90.505c-24.906 0-45.168-20.263-45.168-45.168 0-24.906 20.263-45.169 45.168-45.169 24.906 0 45.169 20.263 45.169 45.169 0 24.905-20.262 45.168-45.169 45.168z" fill="#ffc178"/></g><g><path d="m445.062 512.018c-24.906 0-45.169-20.263-45.169-45.169 0-24.905 20.263-45.168 45.169-45.168s45.168 20.263 45.168 45.168c0 24.906-20.263 45.169-45.168 45.169z" fill="#ffc178"/></g><g><path d="m466.781 301.262c-24.906 0-45.168-20.263-45.168-45.169s20.263-45.169 45.168-45.169c24.906 0 45.169 20.263 45.169 45.169s-20.262 45.169-45.169 45.169z" fill="#ffc178"/></g><circle cx="256.05" cy="256.093" fill="#ffe278" r="127.307"/><path d="m257.308 128.802v254.582c69.729-.676 126.049-57.402 126.049-127.291s-56.32-126.615-126.049-127.291z" fill="#ffc178"/><g><g><path d="m319.407 228.417c0-23.531-19.145-42.675-42.676-42.675h-33.153c-.595-7.739-7.049-13.838-14.941-13.838s-14.346 6.099-14.941 13.838h-6.153c-8.284 0-15 6.716-15 15 0 7.892 6.099 14.346 13.838 14.941v40.41 40.41c-7.739.595-13.838 7.049-13.838 14.941 0 8.284 6.716 15 15 15h6.153c.595 7.739 7.05 13.837 14.941 13.837s14.346-6.098 14.941-13.837h33.153c23.531 0 42.676-19.144 42.676-42.676 0-10.554-3.859-20.218-10.23-27.675 6.371-7.458 10.23-17.122 10.23-27.676zm-30 0c0 6.989-5.687 12.676-12.676 12.676h-40.351v-25.351h40.351c6.99 0 12.676 5.686 12.676 12.675zm-12.675 68.027h-40.351v-25.351h40.351c6.989 0 12.676 5.686 12.676 12.675s-5.687 12.676-12.676 12.676z" fill="#ffc178"/></g></g><g><g><path d="m319.407 228.417c0-14.504-7.279-27.334-18.37-35.049v-6.465c0-8.284-6.716-15-15-15-7.892 0-14.346 6.099-14.941 13.838h-13.788v30h19.424c6.989 0 12.676 5.686 12.676 12.675s-5.687 12.676-12.676 12.676h-19.424v30h19.424c6.989 0 12.676 5.686 12.676 12.675s-5.687 12.676-12.676 12.676h-19.424v30h13.788c.595 7.739 7.049 13.838 14.941 13.838 8.284 0 15-6.716 15-15v-6.464c11.091-7.715 18.37-20.545 18.37-35.049 0-10.554-3.859-20.218-10.23-27.675 6.371-7.458 10.23-17.122 10.23-27.676z" fill="#ff936b"/></g></g><path d="m256.05 398.399c-78.468 0-142.307-63.839-142.307-142.307s63.839-142.307 142.307-142.307 142.307 63.839 142.307 142.307-63.838 142.307-142.307 142.307zm0-254.613c-61.926 0-112.307 50.381-112.307 112.307s50.381 112.307 112.307 112.307 112.307-50.381 112.307-112.307-50.38-112.307-112.307-112.307z" fill="#ffc178"/><g fill="#ff936b"><path d="m257.308 113.802v30c61.348.678 111.049 50.785 111.049 112.291s-49.701 111.613-111.049 112.291v30c77.89-.679 141.049-64.243 141.049-142.291s-63.159-141.612-141.049-142.291z"/><path d="m257.308.125v90.274c24.325-.67 43.911-20.652 43.911-45.137s-19.586-44.467-43.911-45.137z"/><path d="m438.106.125v90.274c24.325-.67 43.911-20.652 43.911-45.137s-19.586-44.467-43.911-45.137z"/><path d="m468.275 210.956v90.274c24.325-.67 43.911-20.652 43.911-45.137s-19.587-44.467-43.911-45.137z"/><path d="m45.219 60.431v90.337c24.906 0 45.169-20.263 45.169-45.169s-20.263-45.168-45.169-45.168z"/><path d="m45.219 331.349v90.337c24.906 0 45.169-20.263 45.169-45.169 0-24.905-20.263-45.168-45.169-45.168z"/><path d="m195.863 421.756v90.335c24.883-.028 45.119-20.278 45.119-45.168s-20.236-45.139-45.119-45.167z"/><path d="m445.715 421.756v90.335c24.883-.028 45.119-20.278 45.119-45.168s-20.236-45.139-45.119-45.167z"/></g></g></g></svg>