<?xml version="1.0"?>
<svg xmlns="http://www.w3.org/2000/svg" id="Capa_1" enable-background="new 0 0 512 512" height="512px" viewBox="0 0 512 512" width="512px"><g><g><path d="m450.113 346.561-19.129-26.821c-1.877-2.631-4.909-4.193-8.142-4.193h-31.676c8.074-18.228 12.57-38.378 12.57-59.561 0-21.172-4.493-41.313-12.563-59.533h31.668c3.233 0 6.268-1.563 8.144-4.196l19.123-26.834c5.322 2.712 11.16 4.075 17.002 4.075 9.569 0 19.143-3.641 26.429-10.921 7.069-7.064 10.96-16.455 10.953-26.441-.007-9.973-3.9-19.341-10.953-26.37-14.572-14.562-38.286-14.564-52.858 0-12.454 12.444-14.242 31.583-5.384 45.98l-17.608 24.708h-37.279c-11.534-17.949-26.849-33.251-44.813-44.776v-37.267l24.692-17.583c14.404 8.874 33.574 7.078 46.048-5.386 7.069-7.064 10.959-16.455 10.952-26.441-.007-9.973-3.899-19.341-10.952-26.371-14.575-14.562-38.288-14.562-52.859 0-11.716 11.707-14.002 29.342-6.856 43.377l-26.826 19.103c-2.635 1.876-4.199 4.911-4.199 8.146v31.674c-15.352-6.791-32.068-11.04-49.615-12.218v-35.362c15.77-4.38 27.375-18.859 27.375-35.996-.001-20.597-16.767-37.354-37.376-37.354s-37.375 16.757-37.375 37.354c0 17.137 11.605 31.616 27.375 35.996v35.36c-17.396 1.174-34.134 5.389-49.587 12.2v-31.655c0-3.236-1.565-6.272-4.202-8.148l-26.826-19.087c2.667-5.205 4.076-11.004 4.072-17.02-.007-9.973-3.9-19.341-10.953-26.37-7.061-7.056-16.445-10.941-26.426-10.941-9.985 0-19.366 3.889-26.395 10.931-7.061 7.039-10.955 16.407-10.962 26.38-.007 9.987 3.884 19.377 10.943 26.432 7.049 7.061 16.429 10.95 26.414 10.95 7.04 0 13.785-1.934 19.626-5.55l24.709 17.581v37.212c-17.892 11.43-33.286 26.67-44.911 44.828h-37.209l-17.595-24.69c3.62-5.843 5.561-12.585 5.556-19.628-.007-9.973-3.9-19.341-10.953-26.37-14.571-14.562-38.283-14.564-52.858 0-14.553 14.541-14.557 38.228 0 52.812 7.286 7.281 16.857 10.921 26.429 10.921 5.842 0 11.68-1.364 17.002-4.075l19.123 26.834c1.876 2.633 4.91 4.196 8.144 4.196h31.641c-1.624 3.685-3.109 7.455-4.441 11.309-1.805 5.22.964 10.914 6.184 12.718 5.22 1.805 10.914-.963 12.719-6.184 2.776-8.03 6.303-15.648 10.486-22.788.005-.009.01-.017.016-.026 22.594-38.542 64.315-63.117 110.257-63.117 70.444 0 127.755 57.25 127.755 127.62 0 70.385-57.311 127.648-127.755 127.648-45.824 0-87.441-24.458-110.091-62.843-.082-.152-.177-.295-.267-.441-4.169-7.131-7.686-14.739-10.455-22.757-1.803-5.221-7.501-7.991-12.716-6.188-5.221 1.803-7.991 7.496-6.188 12.716 1.345 3.895 2.846 7.703 4.488 11.425h-31.63c-3.232 0-6.265 1.562-8.142 4.193l-19.13 26.821c-14.039-7.135-31.691-4.861-43.435 6.843-14.537 14.563-14.537 38.258.009 52.831 7.287 7.282 16.856 10.922 26.43 10.922 9.569 0 19.143-3.642 26.429-10.922 7.063-7.057 10.953-16.44 10.953-26.42 0-7.034-1.94-13.768-5.555-19.604l17.591-24.664h37.21c11.631 18.157 27.024 33.396 44.913 44.825v37.187l-24.725 17.592c-14.403-8.856-33.562-7.064-46.015 5.379-7.063 7.057-10.953 16.44-10.953 26.42s3.89 19.363 10.943 26.411c7.048 7.062 16.429 10.951 26.414 10.951 9.98 0 19.365-3.886 26.426-10.941 7.063-7.057 10.953-16.44 10.953-26.42 0-6.008-1.41-11.8-4.073-16.998l26.827-19.088c2.637-1.876 4.202-4.912 4.202-8.148v-31.628c15.454 6.812 32.192 11.027 49.587 12.202v35.36c-15.77 4.38-27.375 18.859-27.375 35.996 0 20.597 16.767 37.354 37.375 37.354s37.375-16.757 37.375-37.354c0-17.137-11.605-31.616-27.375-35.996v-35.362c17.547-1.178 34.263-5.429 49.615-12.22v31.648c0 3.233 1.563 6.266 4.195 8.143l26.826 19.125c-7.14 14.017-4.855 31.648 6.859 43.386 7.287 7.282 16.856 10.921 26.43 10.921 9.57 0 19.144-3.641 26.43-10.921 7.069-7.064 10.959-16.455 10.952-26.441-.007-9.973-3.899-19.341-10.952-26.371-12.475-12.464-31.642-14.258-46.045-5.388l-24.695-17.606v-37.246c17.96-11.524 33.272-26.825 44.805-44.771h37.29l17.605 24.684c-8.846 14.391-7.06 33.535 5.385 46.004 7.287 7.282 16.856 10.922 26.43 10.922 9.569 0 19.143-3.642 26.429-10.922 7.063-7.057 10.953-16.44 10.953-26.42s-3.89-19.363-10.963-26.429c-11.733-11.69-29.384-13.959-43.42-6.824zm4.704-226.648c6.779-6.772 17.808-6.773 24.595.01 3.272 3.261 5.077 7.604 5.08 12.227.003 4.636-1.805 8.998-5.09 12.28-6.774 6.769-17.799 6.773-24.579.006-6.757-6.774-6.76-17.774-.006-24.523zm-87.203-87.136c6.779-6.772 17.808-6.773 24.595.009 3.273 3.262 5.077 7.604 5.08 12.227.003 4.637-1.804 8.998-5.089 12.28-6.748 6.742-17.706 6.772-24.49.095-.063-.064-.126-.128-.189-.19-6.658-6.781-6.627-17.705.093-24.421zm-223.16 24.411c-.068.065-.135.132-.2.2-3.273 3.221-7.598 4.994-12.194 4.994-4.636 0-8.989-1.804-12.268-5.089-3.285-3.282-5.093-7.644-5.09-12.28.003-4.623 1.808-8.965 5.1-12.246 3.269-3.275 7.622-5.079 12.258-5.079 4.641 0 9.005 1.807 12.299 5.098 3.272 3.261 5.077 7.604 5.08 12.227.002 4.588-1.766 8.905-4.985 12.175zm-87.308 87.241c-6.779 6.773-17.807 6.772-24.576.009-6.761-6.773-6.765-17.775-.009-24.526 3.389-3.386 7.837-5.079 12.289-5.079 4.454 0 8.911 1.696 12.306 5.088 3.272 3.261 5.077 7.604 5.08 12.227.002 4.637-1.805 8.998-5.09 12.281zm181.46-107.075c0-9.569 7.794-17.354 17.375-17.354s17.375 7.785 17.375 17.354-7.794 17.354-17.375 17.354-17.375-7.785-17.375-17.354zm-181.46 354.733c-6.779 6.773-17.807 6.773-24.576.009-6.76-6.772-6.76-17.791-.019-24.545 3.392-3.38 7.847-5.07 12.303-5.07 4.455 0 8.91 1.69 12.302 5.07 3.276 3.278 5.08 7.633 5.08 12.263-.001 4.635-1.808 8.994-5.09 12.273zm87.203 87.136c-3.284 3.282-7.648 5.089-12.289 5.089-4.636 0-8.989-1.804-12.268-5.089-3.282-3.28-5.09-7.638-5.09-12.272s1.808-8.993 5.09-12.272c3.379-3.376 7.821-5.064 12.268-5.064 4.409 0 8.82 1.66 12.202 4.979.064.065.128.129.193.193 3.215 3.267 4.983 7.581 4.983 12.165 0 4.632-1.807 8.991-5.089 12.271zm129.007-4.577c0 9.569-7.794 17.354-17.375 17.354s-17.375-7.785-17.375-17.354 7.794-17.354 17.375-17.354 17.375 7.785 17.375 17.354zm94.155-19.836c.066-.064.132-.13.197-.197 6.785-6.68 17.745-6.648 24.501.102 3.273 3.262 5.077 7.604 5.08 12.227.003 4.637-1.804 8.998-5.089 12.28-6.779 6.773-17.809 6.773-24.576.009-6.726-6.738-6.765-17.662-.113-24.421zm111.891-62.723c-6.779 6.773-17.808 6.773-24.575.009-6.756-6.769-6.76-17.779-.012-24.552 6.785-6.753 17.815-6.75 24.587-.001 3.282 3.279 5.09 7.638 5.09 12.272s-1.807 8.993-5.09 12.272z" data-original="#000000" class="active-path" data-old_color="#000000" fill="#47B475"/><path d="m219.061 310.501h-16.383c-5.522 0-10 4.477-10 10s4.478 10 10 10h17.659v9.389c0 5.523 4.478 10 10 10s10-4.477 10-10v-9.389h26.693v9.389c0 5.523 4.478 10 10 10s10-4.477 10-10v-10.593c18.503-4.503 32.283-21.195 32.283-41.053 0-12.919-5.837-24.497-15.008-32.254 9.171-7.752 15.008-19.322 15.008-32.233 0-19.858-13.78-36.55-32.283-41.053v-10.621c0-5.523-4.478-10-10-10s-10 4.477-10 10v9.417h-26.693v-9.417c0-5.523-4.478-10-10-10s-10 4.477-10 10v9.417h-17.659c-5.522 0-10 4.477-10 10s4.478 10 10 10h16.383v54.487zm20-109.002h37.97c12.287 0 22.283 9.984 22.283 22.257 0 12.257-9.996 22.229-22.283 22.229h-37.97zm0 64.487h37.97c12.287 0 22.283 9.985 22.283 22.258s-9.996 22.257-22.283 22.257h-37.97z" data-original="#000000" class="active-path" data-old_color="#000000" fill="#47B475"/><path d="m128.255 255.958c0-5.523-4.478-10-10-10s-10 4.477-10 10v.028c0 5.523 4.478 9.986 10 9.986s10-4.492 10-10.014z" data-original="#000000" class="active-path" data-old_color="#000000" fill="#47B475"/></g></g> </svg>
