<svg xmlns="http://www.w3.org/2000/svg" viewBox="0 0 480 480"><path d="M456 208H296c-13.255 0-24 10.745-24 24v224c0 13.255 10.745 24 24 24h160c13.255 0 24-10.745 24-24V232c0-13.255-10.745-24-24-24zm-88 256h-72a8 8 0 0 1-8-8v-56h80v64zm0-80h-80v-64h80v64zm96 72a8 8 0 0 1-8 8h-72v-64h80v56zm0-72h-80v-64h80v64zm0-80H288v-72a8 8 0 0 1 8-8h160a8 8 0 0 1 8 8v72zm-24-64H312a8 8 0 0 0-8 8v32a8 8 0 0 0 8 8h128a8 8 0 0 0 8-8v-32a8 8 0 0 0-8-8zm-8 32H320v-16h112v16zm-96 72v-16h-16v16h-16v16h16v16h16v-16h16v-16zm64 0h48v16h-48zm-49.376 77.656l-11.312-11.312L328 421.656l-11.312-11.312-11.312 11.312 11.312 11.312-11.312 11.312 11.312 11.312L328 444.28l11.312 11.312 11.312-11.312-11.312-11.312zM400 424h48v16h-48zm16 20h16v8h-16zm0-32h16v8h-16zM320 0H88v.072c-2.112-.025-4.148.793-5.656 2.272l-80 80C.863 83.85.045 85.887.072 88H0v376c0 8.837 7.163 16 16 16h240v-16h-48v-24h16a8 8 0 0 0 8-8v-40a8 8 0 0 0-8-8h-16v-24h16a8 8 0 0 0 8-8v-40a8 8 0 0 0-8-8h-.208A79.84 79.84 0 0 0 256 240c.086-44.183-35.662-80.07-79.844-80.155S96.086 195.507 96 239.7a80 80 0 0 0 32.208 64.3H64a8 8 0 0 0-8 8v32H40a8 8 0 0 0-8 8v40a8 8 0 0 0 8 8h16v24H40a8 8 0 0 0-8 8v32H16V96h64c8.837 0 16-7.163 16-16V16h224v176h16V16c0-8.837-7.163-16-16-16zM216 400v24H72v-24h144zM112 240c0-35.346 28.654-64 64-64s64 28.654 64 64-28.654 64-64 64c-35.33-.04-63.96-28.67-64-64zm-40 80h144v24H72v-24zm-24 64v-24h144v24H48zm0 56h144v24H48v-24zM80 80H27.312L80 27.312V80zm96 136h24v-16h-16v-8h-16v9.472a23.95 23.95 0 0 0-14.63 30.54c3.38 9.596 12.455 16 22.63 16a8 8 0 1 1 0 16h-24v16h16v8h16v-9.472A23.95 23.95 0 0 0 198.63 248c-3.38-9.596-12.455-16-22.63-16a8 8 0 1 1 0-16zM448 40h-16a8 8 0 0 0-8-8h-8V8a8 8 0 0 0-8-8h-32a8 8 0 0 0-8 8v24h-8a8 8 0 0 0-8 8v152h16V48h48v144h16V56h16v104h16V56c0-8.837-7.163-16-16-16zm-48-8h-16V16h16v16zM120 64h136v16H120zm-88 48h272v16H32zm0 32h96v16H32zm200 0h72v16h-72z"/></svg>