<?xml version="1.0"?>
<svg xmlns="http://www.w3.org/2000/svg" xmlns:xlink="http://www.w3.org/1999/xlink" xmlns:svgjs="http://svgjs.com/svgjs" version="1.1" width="512" height="512" x="0" y="0" viewBox="0 0 512 512" style="enable-background:new 0 0 512 512" xml:space="preserve" class=""><g><g xmlns="http://www.w3.org/2000/svg"><path d="m256 58.416c16.105 0 29.208-13.103 29.208-29.208s-13.103-29.208-29.208-29.208-29.208 13.103-29.208 29.208 13.103 29.208 29.208 29.208zm0-43.416c7.834 0 14.208 6.374 14.208 14.208s-6.374 14.208-14.208 14.208-14.208-6.374-14.208-14.208 6.374-14.208 14.208-14.208z" fill="#03b787" data-original="#000000" style="" class=""/><path d="m416.366 66.426c-7.801 0-15.136 3.038-20.653 8.555-11.388 11.389-11.388 29.918 0 41.307 5.517 5.517 12.852 8.555 20.653 8.555 7.802 0 15.137-3.038 20.653-8.556v.001c11.388-11.389 11.388-29.918 0-41.306-5.516-5.518-12.851-8.556-20.653-8.556zm10.047 39.254c-2.684 2.684-6.251 4.162-10.046 4.162s-7.363-1.479-10.046-4.162c-5.54-5.539-5.54-14.553 0-20.092 2.684-2.684 6.251-4.162 10.046-4.162s7.363 1.479 10.046 4.162c5.539 5.539 5.539 14.553 0 20.092z" fill="#03b787" data-original="#000000" style="" class=""/><path d="m482.792 226.792c-16.105 0-29.208 13.103-29.208 29.208s13.103 29.208 29.208 29.208 29.208-13.103 29.208-29.208-13.103-29.208-29.208-29.208zm0 43.416c-7.834 0-14.208-6.374-14.208-14.208s6.374-14.208 14.208-14.208 14.208 6.374 14.208 14.208-6.374 14.208-14.208 14.208z" fill="#03b787" data-original="#000000" style="" class=""/><path d="m416.366 387.158c-7.801 0-15.136 3.038-20.653 8.555-11.388 11.389-11.388 29.918 0 41.307 5.517 5.517 12.852 8.555 20.653 8.555 7.802 0 15.137-3.038 20.653-8.555 11.388-11.389 11.388-29.918 0-41.306-5.516-5.518-12.851-8.556-20.653-8.556zm10.047 39.255c-2.684 2.683-6.251 4.161-10.046 4.161s-7.363-1.479-10.046-4.162c-5.54-5.539-5.54-14.553 0-20.092 2.684-2.684 6.251-4.162 10.046-4.162s7.363 1.479 10.046 4.162c5.539 5.539 5.539 14.553 0 20.093z" fill="#03b787" data-original="#000000" style="" class=""/><path d="m384.856 346.996c0-4.143-3.358-7.5-7.5-7.5s-7.5 3.357-7.5 7.5v11.743l-34.42-34.419c14.654-17.051 23.619-38.495 25.274-61.18h49.001l-8.976 9.384c-2.863 2.993-2.757 7.741.236 10.604 1.453 1.39 3.319 2.08 5.183 2.08 1.975 0 3.948-.775 5.421-2.315l21.108-22.067c2.773-2.898 2.723-7.648-.117-10.488l-21.108-21.108c-2.929-2.928-7.678-2.928-10.606 0-2.929 2.93-2.929 7.678 0 10.607l8.304 8.304h-48.417c-1.62-23.389-10.893-44.705-25.333-61.449l34.332-34.332.289 12.983c.091 4.084 3.43 7.333 7.495 7.333.057 0 .113-.001.17-.002 4.141-.092 7.424-3.523 7.332-7.665l-.674-30.352c.011-4.12-3.464-7.56-7.588-7.511h-29.766c-4.142 0-7.5 3.357-7.5 7.5s3.358 7.5 7.5 7.5h11.744l-33.906 33.907c-16.757-14.642-38.169-24.08-61.693-25.772v-47.99l9.384 8.976c1.453 1.39 3.319 2.08 5.183 2.08 1.975 0 3.948-.775 5.421-2.315 2.863-2.994 2.757-7.741-.236-10.604l-22.068-21.108c-2.901-2.774-7.645-2.723-10.487.116l-21.108 21.108c-2.929 2.93-2.929 7.678 0 10.607 2.929 2.928 7.678 2.928 10.606 0l8.305-8.305v47.417c-23.639 1.637-45.159 11.094-61.984 25.799l-33.799-33.799 12.983-.288c4.141-.092 7.423-3.523 7.332-7.664-.091-4.142-3.528-7.4-7.665-7.332l-30.53.678c-4.049.099-7.379 3.514-7.333 7.581v29.769c0 4.143 3.358 7.5 7.5 7.5s7.5-3.357 7.5-7.5v-11.743l33.44 33.44c-14.582 16.915-23.892 38.492-25.369 62.159h-47.926l8.976-9.384c2.863-2.993 2.757-7.741-.236-10.604-2.993-2.862-7.741-2.758-10.604.235l-21.108 22.067c-2.773 2.898-2.723 7.648.117 10.488l21.108 21.108c1.464 1.464 3.384 2.196 5.303 2.196s3.839-.732 5.303-2.196c2.929-2.93 2.929-7.678 0-10.607l-8.304-8.304h47.487c1.851 23.496 11.435 44.847 26.199 61.513l-34.268 34.269-.289-12.983c-.092-4.141-3.536-7.396-7.665-7.331-4.141.092-7.424 3.523-7.332 7.665l.674 30.348c-.012 4.126 3.46 7.552 7.581 7.515h29.773c4.142 0 7.5-3.357 7.5-7.5s-3.358-7.5-7.5-7.5h-11.745l33.983-33.982c16.833 14.317 38.201 23.449 61.617 24.911v48.926l-9.384-8.976c-2.993-2.863-7.741-2.759-10.604.235s-2.757 7.741.236 10.604l22.068 21.108c2.899 2.772 7.651 2.719 10.487-.116l21.108-21.108c2.929-2.93 2.929-7.678 0-10.607-2.929-2.928-7.678-2.928-10.606 0l-8.305 8.305v-48.498c6.535-.514 12.997-1.616 19.293-3.322 3.998-1.084 6.361-5.203 5.277-9.201-1.083-3.997-5.2-6.361-9.2-5.277-7.692 2.085-15.676 3.142-23.73 3.142-49.902 0-90.5-40.598-90.5-90.5s40.598-90.5 90.5-90.5 90.5 40.598 90.5 90.5c0 29.327-14.313 56.965-38.289 73.931-3.381 2.393-4.182 7.073-1.79 10.454s7.073 4.183 10.455 1.79c2.963-2.097 5.792-4.342 8.495-6.706l34.771 34.771-12.983.288c-4.141.092-7.423 3.523-7.332 7.664.09 4.085 3.43 7.334 7.495 7.334.057 0 .113-.001.17-.002l30.363-.674c4.113 0 7.547-3.464 7.5-7.584v-29.772z" fill="#03b787" data-original="#000000" style="" class=""/><path d="m256 453.584c-16.105 0-29.208 13.103-29.208 29.208s13.103 29.208 29.208 29.208 29.208-13.103 29.208-29.208-13.103-29.208-29.208-29.208zm0 43.416c-7.834 0-14.208-6.374-14.208-14.208s6.374-14.208 14.208-14.208 14.208 6.374 14.208 14.208-6.374 14.208-14.208 14.208z" fill="#03b787" data-original="#000000" style="" class=""/><path d="m95.634 387.158c-7.802 0-15.137 3.038-20.653 8.556v-.001c-11.388 11.389-11.388 29.918 0 41.306 5.516 5.518 12.851 8.556 20.653 8.556 7.801 0 15.136-3.038 20.653-8.555 11.388-11.389 11.388-29.918 0-41.307-5.517-5.517-12.852-8.555-20.653-8.555zm10.046 39.254c-2.684 2.684-6.251 4.162-10.046 4.162s-7.363-1.479-10.046-4.162c-5.54-5.539-5.54-14.553 0-20.092v-.001c2.684-2.683 6.251-4.161 10.046-4.161s7.363 1.479 10.046 4.162c5.54 5.539 5.54 14.553 0 20.092z" fill="#03b787" data-original="#000000" style="" class=""/><path d="m29.208 226.792c-16.105 0-29.208 13.103-29.208 29.208s13.103 29.208 29.208 29.208 29.208-13.103 29.208-29.208-13.103-29.208-29.208-29.208zm0 43.416c-7.834 0-14.208-6.374-14.208-14.208s6.374-14.208 14.208-14.208 14.208 6.374 14.208 14.208-6.374 14.208-14.208 14.208z" fill="#03b787" data-original="#000000" style="" class=""/><path d="m95.634 124.842c7.801 0 15.136-3.038 20.653-8.555 11.388-11.389 11.388-29.918 0-41.307-5.517-5.517-12.852-8.555-20.653-8.555-7.802 0-15.137 3.038-20.653 8.555-11.388 11.389-11.388 29.918 0 41.306 5.516 5.518 12.851 8.556 20.653 8.556zm-10.047-39.255c2.684-2.683 6.251-4.161 10.046-4.161s7.363 1.479 10.046 4.162c5.54 5.539 5.54 14.553 0 20.092-2.684 2.684-6.251 4.162-10.046 4.162s-7.363-1.479-10.046-4.162c-5.539-5.539-5.539-14.553 0-20.093z" fill="#03b787" data-original="#000000" style="" class=""/><path d="m219.926 206.595c3.346-2.441 4.079-7.133 1.638-10.479s-7.132-4.082-10.479-1.638c-19.465 14.202-31.085 37.013-31.085 61.022 0 41.631 33.869 75.5 75.5 75.5s75.5-33.869 75.5-75.5-33.869-75.5-75.5-75.5c-4.216 0-8.448.353-12.577 1.049-4.084.688-6.837 4.558-6.149 8.642.688 4.085 4.557 6.839 8.642 6.149 3.308-.558 6.7-.84 10.084-.84 33.36 0 60.5 27.141 60.5 60.5s-27.14 60.5-60.5 60.5-60.5-27.141-60.5-60.5c0-19.234 9.318-37.518 24.926-48.905z" fill="#03b787" data-original="#000000" style="" class=""/></g></g></svg>
