<?xml version="1.0" encoding="iso-8859-1"?>
<!-- Generator: Adobe Illustrator 19.0.0, SVG Export Plug-In . SVG Version: 6.00 Build 0)  -->
<svg xmlns="http://www.w3.org/2000/svg" xmlns:xlink="http://www.w3.org/1999/xlink" version="1.1" id="Layer_1" x="0px" y="0px" viewBox="0 0 512 512" style="enable-background:new 0 0 512 512;" xml:space="preserve" width="512" height="512">
<g>
	<g>
		<g>
			<path style="fill:#88DBFD;" d="M482.588,38.416H288.769c-16.122,0-29.191,13.069-29.191,29.191V177.24     c0,16.122,13.069,29.191,29.191,29.191h68.942l-11.142,44.976c-1.452,5.86,5.293,10.272,10.081,6.595l67.136-51.57h58.802     c16.122,0,29.191-13.069,29.191-29.191V67.607C511.779,51.485,498.71,38.416,482.588,38.416z"/>
			<g>
				<path style="fill:#5ABFE9;" d="M355.188,216.618l-8.618,34.789c-1.452,5.86,5.293,10.272,10.081,6.595l67.136-51.57h-55.337      L355.188,216.618z"/>
				<path style="fill:#5ABFE9;" d="M482.588,38.416h-55.337c16.122,0,29.191,13.069,29.191,29.191V177.24      c0,16.122-13.069,29.191-29.191,29.191h55.337c16.122,0,29.191-13.069,29.191-29.191V67.607      C511.779,51.485,498.71,38.416,482.588,38.416z"/>
			</g>
			<g>
				<g>
					<path style="fill:#F2F2F2;" d="M341.983,122.105l24.236-15.743c0.477-0.382,1.145-0.477,1.813-0.477       c2.862,0,6.488,3.053,6.488,6.965c0,1.623-0.668,3.053-1.717,3.721l-16.794,10.877l16.794,10.877       c1.049,0.668,1.717,2.1,1.717,3.721c0,3.912-3.626,6.966-6.488,6.966c-0.668,0-1.336-0.096-1.813-0.477l-24.236-15.743       c-2.194-1.432-2.958-3.721-2.958-5.344C339.025,125.826,339.789,123.536,341.983,122.105z"/>
					<path style="fill:#F2F2F2;" d="M428.146,85.274c0,0.572-0.096,1.24-0.381,1.813l-33.587,68.796       c-0.668,1.431-2.481,2.385-4.294,2.385c-3.244,0-5.344-2.672-5.344-5.057c0-0.572,0.191-1.24,0.478-1.813l33.491-68.795       c0.763-1.623,2.29-2.385,4.007-2.385C425.188,80.217,428.146,82.22,428.146,85.274z"/>
					<path style="fill:#F2F2F2;" d="M470.704,132.792l-24.235,15.743c-0.477,0.381-1.145,0.477-1.813,0.477       c-2.863,0-6.489-3.053-6.489-6.966c0-1.622,0.668-3.053,1.718-3.721l16.793-10.877l-16.793-10.877       c-1.05-0.668-1.718-2.099-1.718-3.721c0-3.911,3.626-6.965,6.489-6.965c0.668,0,1.336,0.095,1.813,0.477l24.235,15.743       c2.195,1.432,2.958,3.721,2.958,5.343C473.662,129.07,472.899,131.36,470.704,132.792z"/>
				</g>
			</g>
		</g>
		<g>
			<g>
				<g>
					<g>
						<g>
							<g>
								<g>
									<g>
										<g>
											<g>
												<g>
													<g>
														<path style="fill:#FCC18B;" d="M407.315,384.195c-1.453-24.77-17.179-44.958-40.584-55.916h0                c-28.648-13.413-106.665-33.709-106.665-33.709c-7.539-1.4-13.007-7.978-13.007-15.646v-44.598h-42.409h0h0H162.24                v44.598c0,7.668-5.468,14.245-13.007,15.646c0,0-78.017,20.296-106.665,33.709h0                c-23.405,10.958-39.131,31.146-40.584,55.916L0.222,490.518C0.08,502.34,9.624,512,21.447,512h366.404                c11.823,0,21.367-9.66,21.225-21.482L407.315,384.195z"/>
													</g>
												</g>
											</g>
											<g>
												<path style="fill:#EAAB65;" d="M407.315,384.195c-1.453-24.77-17.179-44.958-40.584-55.916h0              c-28.648-13.413-106.665-33.709-106.665-33.709c-7.539-1.4-13.007-7.978-13.007-15.646v-44.598h-42.409h0h0h-12.927              v71.344c0,7.668,5.468,14.245,13.007,15.646c0,0,78.017,20.296,106.665,33.709h0              c23.405,10.958,39.131,31.146,40.584,55.916L353.652,512h34.199c11.823,0,21.367-9.66,21.225-21.482L407.315,384.195z"/>
											</g>
											<g>
												<g>
													<g>
														<g>
															<path style="fill:#EAAB65;" d="M116.72,121.427h-11.135c-4.034,0-7.749,1.362-10.711,3.652                 c-5.144,3.976-7.401,10.663-6.239,17.06l4.373,24.077c3.394,17.845,23.738,9.691,23.738,9.691L116.72,121.427z"/>
															<path style="fill:#FCC18B;" d="M292.578,121.427h11.135c4.034,0,7.749,1.362,10.711,3.652                 c5.144,3.976,7.401,10.663,6.239,17.06l-4.373,24.077c-3.394,17.845-23.738,9.691-23.738,9.691L292.578,121.427z"/>
														</g>
													</g>
												</g>
											</g>
										</g>
									</g>
								</g>
							</g>
						</g>
						<path style="fill:#FCC18B;" d="M266.365,29.923c-14.479-13.388-34.831-25.073-61.716-25.395        c-26.885,0.322-47.237,12.007-61.716,25.395c-18.468,17.076-28.473,42.434-28.473,68.604l0.025,91.246        c0,43.137,56.071,87.812,90.165,87.812s90.165-44.675,90.165-87.812l0.024-91.246        C294.838,72.358,284.833,46.999,266.365,29.923z"/>
						<path style="fill:#EAAB65;" d="M266.365,29.923c-14.479-13.388-34.831-25.073-61.716-25.395        c-10.141,0.122-19.351,1.861-27.668,4.698c13.733,4.683,25.03,12.359,34.048,20.697        c18.468,17.076,28.473,42.435,28.473,68.604l-0.024,91.246c0,32.64-32.102,66.155-62.496,80.536        c9.774,4.625,19.372,7.276,27.668,7.276c34.093,0,90.165-44.675,90.165-87.812l0.024-91.246        C294.838,72.358,284.833,46.999,266.365,29.923z"/>
						<path style="fill:#426175;" d="M260.44,0h-55.791h-55.791c-28.711,0-51.985,23.275-51.985,51.985v71.731        c0,0,14.315-0.324,23.514,8.78c1.916,1.896,5.171,0.511,5.171-2.185v-56.22c0-12.69,10.288-22.978,22.978-22.978h20.879        c5.476,0,10.784,1.893,15.023,5.359l2.048,1.674c5.126,4.19,11.543,6.48,18.163,6.48c6.621,0,13.038-2.289,18.163-6.48        l2.048-1.674c4.24-3.466,9.547-5.359,15.023-5.359h20.879c12.69,0,22.978,10.288,22.978,22.978v56.22        c0,2.695,3.256,4.08,5.171,2.185c9.199-9.104,23.514-8.78,23.514-8.78V51.985C312.425,23.275,289.151,0,260.44,0z"/>
						<g>
							<path style="fill:#2C4456;" d="M260.44,0h-19.3c9.713,11.433,15.803,28.604,15.958,51.115h3.664         c12.69,0,22.978,10.288,22.978,22.978v56.22c0,2.695,3.256,4.08,5.171,2.185c9.199-9.104,23.514-8.78,23.514-8.78V51.985         C312.425,23.275,289.151,0,260.44,0z"/>
						</g>
					</g>
					<path style="fill:#33BCA5;" d="M366.731,328.28L366.731,328.28c-16.671-7.805-50.056-17.94-75.06-25.051l-5.409,2.049       c-52.585,19.919-110.64,19.919-163.225,0l-5.409-2.049c-25.004,7.111-58.389,17.246-75.06,25.051h0       c-23.405,10.958-39.131,31.146-40.584,55.916L0.222,490.518C0.08,502.34,9.624,512,21.447,512h366.404       c11.823,0,21.367-9.66,21.225-21.482l-1.761-106.322C405.862,359.426,390.135,339.237,366.731,328.28z"/>
				</g>
				<g>
					<path style="fill:#F2F2F2;" d="M334.732,485.357H70.693c-8.031,0-14.697-6.207-15.268-14.219l-10.8-151.515       c-0.632-8.86,6.386-16.395,15.268-16.395h285.638c8.882,0,15.9,7.535,15.268,16.395L350,471.139       C349.429,479.15,342.764,485.357,334.732,485.357z"/>
					<path style="fill:#CDD6DF;" d="M345.532,303.229H289.79c8.882,0,15.9,7.535,15.268,16.395l-11.813,165.733h41.487       c8.031,0,14.697-6.207,15.268-14.219l10.8-151.515C361.431,310.764,354.414,303.229,345.532,303.229z"/>
					<path style="fill:#CDD6DF;" d="M353.668,512H55.631c-7.357,0-13.321-5.964-13.321-13.321v0c0-7.357,5.964-13.321,13.321-13.321       h298.037c7.357,0,13.321,5.964,13.321,13.321v0C366.989,506.036,361.025,512,353.668,512z"/>
				</g>
			</g>
			<circle style="fill:#FFFFFF;" cx="204.649" cy="400.404" r="21.32"/>
		</g>
	</g>
</g>















</svg>
