<?xml version="1.0"?>
<svg xmlns="http://www.w3.org/2000/svg" xmlns:xlink="http://www.w3.org/1999/xlink" xmlns:svgjs="http://svgjs.com/svgjs" version="1.1" width="512" height="512" x="0" y="0" viewBox="0 0 512 512" style="enable-background:new 0 0 512 512" xml:space="preserve" class=""><g transform="matrix(0.7999999999999999,0,0,0.7999999999999999,51.20000000000002,51.200097656249966)"><g xmlns="http://www.w3.org/2000/svg"><path d="m407.422 458.326v29.584l43.892 10h55.51c2.859 0 5.176-2.318 5.176-5.176v-29.231c0-2.859-2.318-5.176-5.176-5.176h-99.402z" fill="#5392f9" data-original="#5392f9" style=""/><path d="m0 251.787v29.694c0 1.235.45 2.427 1.265 3.354l37.52 42.691c.815.927 1.265 2.12 1.265 3.354v43.978c0 2.806 2.275 5.081 5.081 5.081h44.609c2.806 0 5.081-2.275 5.081-5.081v-43.978c0-1.235.45-2.427 1.265-3.354l37.52-42.691c.815-.927 1.265-2.12 1.265-3.354v-29.694c0-2.806-2.275-5.081-5.081-5.081h-124.709c-2.806-.001-5.081 2.274-5.081 5.081z" fill="#91dafa" data-original="#91dafa" style=""/><path d="m129.788 246.705h-26.785c2.806 0 5.081 2.275 5.081 5.081v29.694c0 1.235-.449 2.427-1.264 3.354l-37.52 42.691c-.815.927-1.265 2.12-1.265 3.354v43.978c0 2.806-2.275 5.081-5.081 5.081h26.786c2.806 0 5.081-2.275 5.081-5.081v-43.978c0-1.235.45-2.427 1.265-3.354l37.52-42.691c.815-.927 1.265-2.12 1.265-3.354v-29.694c-.001-2.806-2.276-5.081-5.083-5.081z" fill="#6cbff8" data-original="#6cbff8" style=""/><path d="m120.306 426.586v-52.673c0-4.126-3.345-7.47-7.47-7.47h-90.803c-4.126 0-7.47 3.345-7.47 7.47v109.314c0 8.11 6.575 14.685 14.685 14.685h121.31l54.008-20v-41.588h-74.522c-5.378-.001-9.738-4.361-9.738-9.738z" fill="#5392f9" data-original="#5392f9" style=""/><path d="m300.931 294.48c-83.049 0-150.373 67.324-150.373 150.383v53.047h300.756v-53.047c0-83.059-67.324-150.383-150.383-150.383z" fill="#f7f3f1" data-original="#f7f3f1" style=""/><path d="m300.931 294.48c-4.69 0-9.326.226-13.907.646 76.537 7.019 136.475 71.368 136.475 149.737v53.047h27.815v-53.047c0-83.059-67.324-150.383-150.383-150.383z" fill="#ebe1dc" data-original="#ebe1dc" style=""/><path d="m300.93 338.37c-19.697 0-38.14 5.355-53.965 14.679.241-.139.484-.279.722-.417l.972 15.811 15.468 12.669c-.101.059-.188.126-.288.186 10.893-6.37 23.56-10.037 37.091-10.037 13.42 0 25.988 3.591 36.818 9.851l14.468-14.667 1.972-13.813c-15.67-9.071-33.858-14.262-53.258-14.262z" fill="#e9a52d" data-original="#e9a52d" style=""/><path d="m402.297 444.861h-22.917c-2.615 0-4.822-2.014-4.984-4.624-1.568-25.291-15.903-47.128-36.648-59.126l16.44-28.48c8.075 4.669 15.485 10.374 22.038 16.938 18.136 18.126 29.759 42.757 31.071 70.102.135 2.832-2.164 5.19-5 5.19z" fill="#de5791" data-original="#de5791" style="" class=""/><g><circle cx="172.433" cy="93.931" fill="#e9a52d" r="79.842" data-original="#e9a52d" style=""/><path d="m172.433 14.089c-4.747 0-9.388.438-13.907 1.232 37.462 6.584 65.934 39.261 65.934 78.61s-28.473 72.025-65.934 78.61c4.519.794 9.161 1.232 13.907 1.232 44.096 0 79.842-35.747 79.842-79.842s-35.746-79.842-79.842-79.842z" fill="#e38523" data-original="#e38523" style="" class=""/></g><circle cx="429.439" cy="93.931" fill="#91dafa" r="79.842" data-original="#91dafa" style=""/><path d="m429.439 14.089c-4.747 0-9.388.438-13.907 1.232 37.462 6.584 65.934 39.261 65.934 78.61s-28.473 72.025-65.934 78.61c4.519.794 9.161 1.232 13.907 1.232 44.096 0 79.842-35.747 79.842-79.842s-35.747-79.842-79.842-79.842z" fill="#6cbff8" data-original="#6cbff8" style=""/><path d="m300.934 434.76c-4.143 0-7.5-3.358-7.5-7.5v-25.973c0-4.142 3.357-7.5 7.5-7.5s7.5 3.358 7.5 7.5v25.973c0 4.142-3.358 7.5-7.5 7.5z" fill="#6dc17d" data-original="#6dc17d" style="" class=""/><path d="m182.562 87.428-3.011-1.109c-8.04-2.957-12.076-4.441-15.811-6.476-2.275-1.239-2.398-3.515-2.27-4.762.26-2.516 2.066-5.664 6.356-6.956 10.148-3.056 19.45 4.335 19.678 4.52 3.171 2.634 7.877 2.216 10.533-.944 2.665-3.171 2.255-7.902-.916-10.567-.42-.353-7.27-5.994-17.189-8.03v-6.597c0-4.142-3.358-7.5-7.5-7.5s-7.5 3.358-7.5 7.5v6.865c-.476.12-.952.246-1.433.391-9.346 2.815-15.999 10.578-16.95 19.775-.847 8.189 2.991 15.653 10.016 19.479 4.7 2.56 9.081 4.171 17.807 7.381l2.999 1.104c3.226 1.19 10.616 4.585 9.577 10.402-.753 4.217-5.783 8.579-12.896 8.579-7.05 0-13.846-2.854-18.177-7.633-2.78-3.068-7.523-3.303-10.594-.521-3.069 2.781-3.302 7.524-.521 10.594 5.166 5.7 12.344 9.723 20.171 11.513v6.92c0 4.142 3.358 7.5 7.5 7.5s7.5-3.358 7.5-7.5v-6.437c11.159-2.091 19.931-10.01 21.782-20.379 1.625-9.093-2.553-20.99-19.151-27.112z" fill="#f7f3f1" data-original="#f7f3f1" style=""/><g fill="#5392f9"><path d="m383.34 215.558c-.851 0-1.717-.146-2.563-.454-3.893-1.416-5.899-5.72-4.483-9.612l1.057-2.905c1.416-3.891 5.717-5.899 9.612-4.483 3.893 1.416 5.899 5.72 4.483 9.612l-1.057 2.905c-1.109 3.045-3.985 4.937-7.049 4.937z" fill="#5392f9" data-original="#5392f9" style=""/><path d="m371.623 247.75c-.851 0-1.717-.146-2.563-.454-3.893-1.416-5.899-5.72-4.483-9.612l1.057-2.905c1.416-3.891 5.716-5.901 9.612-4.483 3.893 1.416 5.899 5.72 4.483 9.612l-1.057 2.905c-1.109 3.045-3.984 4.937-7.049 4.937z" fill="#5392f9" data-original="#5392f9" style=""/><path d="m359.906 279.941c-.852 0-1.717-.146-2.563-.454-3.893-1.417-5.899-5.72-4.483-9.612l1.057-2.904c1.416-3.892 5.717-5.902 9.612-4.483 3.893 1.417 5.899 5.72 4.483 9.612l-1.057 2.904c-1.108 3.045-3.984 4.937-7.049 4.937z" fill="#5392f9" data-original="#5392f9" style=""/></g><g fill="#5392f9"><path d="m218.531 215.556c-3.063 0-5.939-1.891-7.048-4.937l-1.057-2.904c-1.417-3.892.589-8.196 4.482-9.613 3.892-1.42 8.196.589 9.613 4.482l1.057 2.904c1.417 3.892-.589 8.196-4.482 9.613-.846.309-1.713.455-2.565.455z" fill="#5392f9" data-original="#5392f9" style=""/><path d="m230.248 247.748c-3.064 0-5.94-1.892-7.048-4.938l-1.057-2.905c-1.417-3.892.591-8.196 4.483-9.612 3.896-1.418 8.197.591 9.612 4.483l1.057 2.905c1.417 3.892-.591 8.196-4.483 9.612-.847.309-1.713.455-2.564.455z" fill="#5392f9" data-original="#5392f9" style=""/><path d="m241.965 279.94c-3.064 0-5.94-1.892-7.048-4.938l-1.057-2.905c-1.417-3.892.591-8.196 4.483-9.612 3.895-1.416 8.197.592 9.612 4.483l1.057 2.905c1.417 3.892-.591 8.196-4.483 9.612-.847.309-1.713.455-2.564.455z" fill="#5392f9" data-original="#5392f9" style=""/></g><path d="m429.438 101.431c-4.143 0-7.5-3.358-7.5-7.5v-46.848c0-4.142 3.357-7.5 7.5-7.5s7.5 3.358 7.5 7.5v46.848c0 4.142-3.357 7.5-7.5 7.5z" fill="#ddebfd" data-original="#ddebfd" style="" class=""/><ellipse cx="300.934" cy="444.86" fill="#5392f9" rx="20" ry="20" transform="matrix(.16 -.987 .987 .16 -186.386 670.649)" data-original="#5392f9" style=""/><path d="m264.127 381.112c-20.746 11.998-35.086 33.826-36.653 59.125-.162 2.61-2.369 4.624-4.984 4.624h-22.92c-2.872 0-5.136-2.414-4.996-5.284 1.817-37.19 22.71-69.366 53.113-86.946z" fill="#91dafa" data-original="#91dafa" style=""/><path d="m456.252 101.431h-26.813c-4.143 0-7.5-3.358-7.5-7.5s3.357-7.5 7.5-7.5h26.813c4.143 0 7.5 3.358 7.5 7.5s-3.357 7.5-7.5 7.5z" fill="#ddebfd" data-original="#ddebfd" style="" class=""/></g></g></svg>
