<?xml version="1.0"?>
<svg xmlns="http://www.w3.org/2000/svg" id="Layer_5" enable-background="new 0 0 64 64" height="512px" viewBox="0 0 64 64" width="512px"><g><g><path d="m48.618 18c.404 0 .81-.096 1.171-.276l6.764-3.382c.892-.446 1.447-1.344 1.447-2.342s-.555-1.896-1.447-2.342l-6.764-3.382c-.361-.18-.767-.276-1.171-.276-1.443 0-2.618 1.174-2.618 2.618v6.764c0 1.444 1.175 2.618 2.618 2.618zm-.618-9.382c0-.341.277-.618.618-.618.096 0 .191.022.276.065l6.764 3.382c.211.106.342.317.342.553s-.131.447-.342.553l-6.764 3.382c-.386.196-.894-.117-.894-.553z" data-original="#000000" class="active-path" data-old_color="#000000" fill="#47B475"/><path d="m47 52c0 2.757 2.243 5 5 5s5-2.243 5-5-2.243-5-5-5-5 2.243-5 5zm8 0c0 1.654-1.346 3-3 3s-3-1.346-3-3 1.346-3 3-3 3 1.346 3 3z" data-original="#000000" class="active-path" data-old_color="#000000" fill="#47B475"/><path d="m63 27c0-1.546-1.689-2.734-5.25-3.724-.158-.538-.331-1.072-.519-1.601 3.433-1.864 5.769-5.502 5.769-9.675 0-6.065-4.935-11-11-11-3.662 0-6.903 1.806-8.904 4.566-3.492-1.696-7.218-2.566-11.096-2.566-4.629 0-9.039 1.28-12.915 3.548-6.47.653-14.085 2.128-14.085 5.452 0 1.669 1.914 2.871 4.654 3.74-1.212 1.921-2.219 4.015-2.987 6.26h-2.667c-1.654 0-3 1.346-3 3v2c0 .771.301 1.468.78 2-.479.532-.78 1.229-.78 2v2c0 .771.301 1.468.78 2-.479.532-.78 1.229-.78 2v2c0 1.654 1.346 3 3 3h2.671c.767 2.246 1.772 4.342 2.982 6.264-2.726.866-4.653 2.067-4.653 3.736 0 3.321 7.597 4.795 14.063 5.45 3.877 2.27 8.293 3.55 12.937 3.55 3.773 0 7.528-.857 10.955-2.488l3.19 3.19 2.315-1.158.819 2.456h5.441l.818-2.456 2.315 1.158 3.848-3.848-1.157-2.314 2.456-.819v-5.441l-2.455-.819 1.157-2.314-3.848-3.848-.752.376c1.254-3.386 1.898-6.963 1.898-10.675 0-.547-.018-1.091-.046-1.634 2.409-.83 4.046-1.923 4.046-3.366zm-6.168 1.909c-2.93.763-7.476 1.495-13.843 1.862-.073-4.819-.572-9.298-1.403-13.193.306-.026.601-.056.899-.085 1.903 3.286 5.451 5.507 9.515 5.507 1.182 0 2.319-.193 3.387-.539.729 2.082 1.213 4.239 1.445 6.448zm-13.377 26.631-.315.63c-2.127 1.147-4.354 1.954-6.663 2.402 1.901-2.178 3.507-5.714 4.649-10.176.673.056 1.328.118 1.968.186l-2.094.697v5.441zm-24.969-6.914c.535.825 1.46 1.374 2.514 1.374.807 0 1.538-.324 2.077-.844 1.122 4.088 2.642 7.338 4.424 9.391-5.729-1.124-10.857-4.353-14.558-9.06 1.503-.319 3.336-.616 5.543-.861zm1.514-1.626c0-.551.448-1 1-1s1 .449 1 1-.448 1-1 1-1-.449-1-1zm4.881 1.136c.436-.02.883-.035 1.33-.051.436 1.118 1.518 1.915 2.789 1.915 1.3 0 2.398-.836 2.814-1.994.809.005 1.604.016 2.382.033.425 1.141 1.516 1.961 2.804 1.961.661 0 1.268-.222 1.765-.586-1.774 6.006-4.347 9.586-6.765 9.586-2.584 0-5.346-4.092-7.119-10.864zm3.119-1.136c0-.551.448-1 1-1s1 .449 1 1-.448 1-1 1-1-.449-1-1zm8 0c0-.551.448-1 1-1s1 .449 1 1-.448 1-1 1-1-.449-1-1zm3.689-1.304c-.487-1-1.504-1.696-2.689-1.696-1.316 0-2.424.857-2.828 2.038-.77-.017-1.555-.028-2.355-.032-.412-1.165-1.513-2.006-2.817-2.006-1.334 0-2.453.88-2.842 2.086-.592.021-1.175.044-1.749.072-.715-3.295-1.204-7.112-1.357-11.327.3.102.615.169.948.169 1.302 0 2.402-.839 2.816-2h2.369c.414 1.161 1.514 2 2.816 2s2.402-.839 2.816-2h.183c.736 0 1.456-.011 2.177-.022.409 1.173 1.513 2.022 2.823 2.022.333 0 .648-.067.948-.168-.145 4.019-.597 7.676-1.259 10.864zm-20.257-30.222c-2.626-.261-4.768-.594-6.479-.956 3.688-4.682 8.786-7.905 14.474-9.046-1.655 1.914-3.095 4.895-4.205 8.794-.375-.168-.786-.266-1.222-.266-1.095 0-2.044.596-2.568 1.474zm19.173-1.413c-.196-.04-.398-.061-.605-.061-1.278 0-2.364.806-2.795 1.934-.781.024-1.579.041-2.394.051-.418-1.154-1.514-1.985-2.811-1.985-1.282 0-2.37.812-2.799 1.945-.797-.022-1.576-.05-2.337-.085 1.734-6.708 4.448-10.86 7.136-10.86 2.346 0 4.838 3.373 6.605 9.061zm.395 2.939c0 .551-.448 1-1 1s-1-.449-1-1 .448-1 1-1 1 .449 1 1zm-8 0c0 .551-.448 1-1 1s-1-.449-1-1 .448-1 1-1 1 .449 1 1zm-9-1c.552 0 1 .449 1 1s-.448 1-1 1-1-.449-1-1 .448-1 1-1zm2.151 3.084c.329-.339.568-.758.708-1.222.752.034 1.522.062 2.309.083.398 1.19 1.51 2.055 2.832 2.055 1.307 0 2.41-.846 2.82-2.015.797-.01 1.578-.026 2.344-.049.396 1.194 1.511 2.064 2.836 2.064.719 0 1.371-.265 1.888-.688.553 2.944.93 6.254 1.06 9.856-.3-.101-.615-.168-.948-.168-1.294 0-2.389.828-2.809 1.978-.725.011-1.45.022-2.191.022h-.184c-.414-1.161-1.514-2-2.816-2s-2.402.839-2.816 2h-2.369c-.414-1.161-1.514-2-2.816-2-.329 0-.64.066-.937.164.132-3.528.498-6.96 1.089-10.08zm16.849 12.916c0 .551-.448 1-1 1s-1-.449-1-1 .448-1 1-1 1 .449 1 1zm-8 0c0 .551-.448 1-1 1s-1-.449-1-1 .448-1 1-1 1 .449 1 1zm-8 0c0 .551-.448 1-1 1s-1-.449-1-1 .448-1 1-1 1 .449 1 1zm27-29c4.963 0 9 4.038 9 9s-4.037 9-9 9-9-4.038-9-9 4.037-9 9-9zm-10.395 12.567c-.158.014-.319.027-.478.04-1.141-4.459-2.745-7.993-4.643-10.172 1.922.375 3.789.997 5.59 1.856-.681 1.43-1.074 3.023-1.074 4.709 0 1.25.22 2.447.605 3.567zm-34.605-3.567c0-.594 2.253-2.006 8.558-2.988-1.751 1.444-3.337 3.116-4.719 4.99-2.754-.779-3.839-1.582-3.839-2.002zm4.675 4.29c2.282.536 4.879.906 7.371 1.158.217 1.431 1.438 2.535 2.926 2.549-.574 3.444-.9 7.187-.949 11.003h-2.023c0-.771-.301-1.468-.78-2 .48-.532.78-1.229.78-2v-2c0-1.654-1.346-3-3-3h-7.211c.757-2.051 1.728-3.963 2.886-5.71zm-8.675 16.71v-2c0-.551.448-1 1-1h12c.552 0 1 .449 1 1v2c0 .551-.448 1-1 1h-12c-.552 0-1-.449-1-1zm0-8c0-.551.448-1 1-1h12c.552 0 1 .449 1 1v2c0 .551-.448 1-1 1h-12c-.552 0-1-.449-1-1zm0 14v-2c0-.551.448-1 1-1h12c.552 0 1 .449 1 1v2c0 .551-.448 1-1 1h-12c-.552 0-1-.449-1-1zm5.786 3h7.214c1.654 0 3-1.346 3-3v-2c0-.771-.301-1.468-.78-2 .48-.532.78-1.229.78-2h2.009c.049 4.003.392 7.776.975 11.179-.31-.108-.637-.179-.984-.179-1.538 0-2.795 1.168-2.966 2.661-2.143.243-4.369.581-6.366 1.052-1.156-1.747-2.126-3.66-2.882-5.713zm-1.786 10c0-.408 1.084-1.213 3.838-1.996 1.378 1.87 2.956 3.54 4.701 4.981-6.291-.981-8.539-2.391-8.539-2.985zm52.269-5.459-1.081 2.162.194.433c.056.125.105.251.155.379l.169.441 2.294.765v2.559l-2.294.765-.169.441c-.05.128-.1.255-.155.379l-.194.433 1.081 2.162-1.809 1.809-2.162-1.081-.433.194c-.123.055-.248.105-.375.153l-.445.168-.766 2.297h-2.559l-.766-2.298-.445-.168c-.127-.048-.252-.098-.375-.153l-.433-.194-2.162 1.081-1.809-1.809 1.081-2.162-.194-.433c-.056-.125-.105-.251-.155-.379l-.169-.441-2.293-.765v-2.559l2.294-.765.169-.441c.05-.128.1-.255.155-.379l.194-.433-1.081-2.162 1.809-1.809 2.162 1.081.433-.194c.123-.055.248-.105.375-.153l.445-.168.766-2.297h2.559l.766 2.298.445.168c.127.048.252.098.375.153l.433.194 2.162-1.081zm-2.269-14.541c0 3.566-.634 6.997-1.868 10.235l-.411-1.235h-5.441l-.818 2.456-2.315-1.158-3.848 3.848.179.358c-.292-.028-.595-.051-.893-.077.857-4.018 1.361-8.657 1.409-13.648 3.76-.214 9.584-.71 13.984-1.83.011.35.022.699.022 1.051zm1.779-3.678c-.111-.939-.263-1.87-.458-2.79 2.447.817 2.677 1.461 2.681 1.461-.074.345-.806.823-2.223 1.329z" data-original="#000000" class="active-path" data-old_color="#000000" fill="#47B475"/></g></g> </svg>
