<svg id="Capa_1" enable-background="new 0 0 512 512" height="512" viewBox="0 0 512 512" width="512" xmlns="http://www.w3.org/2000/svg"><g><g><path d="m358.18 25v50c0 8.28-6.707 15-14.971 15h-87.209c-8.264 0-14.971-6.72-14.971-15l3.386-49.134c0-8.28 3.322-15.866 11.586-15.866h87.209c8.263 0 14.97 6.72 14.97 15z" fill="#ff4d4d"/></g><path d="m270.971 15v119.35h-29.942v-119.35c0-8.28 6.707-15 14.971-15s14.971 6.72 14.971 15z" fill="#607882"/><path d="m270.971 15v119.35h-14.971v-134.35c8.264 0 14.971 6.72 14.971 15z" fill="#495959"/><g><g><g><path d="m481 278.7v218.3c0 8.28-6.707 15-14.971 15h-420.059c-8.264 0-14.97-6.72-14.97-15v-218.3c0-8.29 6.707-15 14.971-15h420.059c8.264 0 14.97 6.71 14.97 15z" fill="#e6ecf2"/></g></g></g><path d="m481 278.7v218.3c0 8.28-6.707 15-14.971 15h-210.029v-248.3h210.03c8.264 0 14.97 6.71 14.97 15z" fill="#b9c9d9"/><g><g><g><path d="m512 228.35v40.85c0 8.28-6.707 15-14.971 15h-482.058c-8.264 0-14.971-6.72-14.971-15v-40.85c0-6.25 3.872-11.85 9.711-14.04l.329-.13 240.71-90.36c3.573-1.353 7.614-1.205 10.679.07l240.85 90.41c5.849 2.2 9.721 7.8 9.721 14.05z" fill="#b9c9d9"/></g></g></g><path d="m512 228.35v40.85c0 8.28-6.707 15-14.971 15h-241.029v-161.33c1.966-.01 3.842.36 5.429 1.02l240.85 90.41c5.849 2.2 9.721 7.8 9.721 14.05z" fill="#8fa7bf"/><g><g><g><path d="m293.696 210.24c0 20.927-16.902 37.99-37.772 38.219h-.424c-21.064 0-38.195-17.148-38.195-38.219 0-21.063 17.131-38.219 38.195-38.219h.424c20.87.229 37.772 17.3 37.772 38.219z" fill="#8fa7bf"/></g></g></g><path d="m255.925 248.459v-76.438c20.869.229 37.772 17.3 37.772 38.219-.001 20.927-16.903 37.99-37.772 38.219z" fill="#607882"/><path d="m135.489 353.697h-.008c-16.569 0-30 13.431-30 30v128.303h60.008v-128.303c0-16.569-13.432-30-30-30z" fill="#8fa7bf"/><path d="m376.519 353.697h-.008c-16.569 0-30 13.431-30 30v128.303h60.008v-128.303c0-16.569-13.432-30-30-30z" fill="#607882"/><path d="m285.502 353.4v158.6h-60.002v-158.6c0-16.57 13.404-30 29.942-30h.12c.15 0 .299 0 .439.01 16.337.23 29.501 13.57 29.501 29.99z" fill="#8fa7bf"/><path d="m285.502 353.4v158.6h-29.502v-188.59c16.338.23 29.502 13.57 29.502 29.99z" fill="#607882"/></g></svg>