<svg id="Capa_1" enable-background="new 0 0 511.261 511.261" height="512" viewBox="0 0 511.261 511.261" width="512" xmlns="http://www.w3.org/2000/svg"><g><ellipse cx="288.43" cy="156.63" fill="#f66" rx="156.63" ry="156.63" transform="matrix(.707 -.707 .707 .707 -26.275 249.827)"/><path d="m289.825.018v313.225c85.725-.754 155.235-70.713 155.235-156.612 0-85.901-69.51-155.86-155.235-156.613z" fill="#e62e6b"/><g><path d="m244.044 132.706c10.087 0 19.751-8.87 19.284-19.284-.468-10.448-8.473-19.284-19.284-19.284-10.087 0-19.751 8.87-19.284 19.284.468 10.448 8.473 19.284 19.284 19.284z" fill="#ffe666"/></g><g><path d="m332.816 220.506c10.087 0 19.751-8.87 19.284-19.284-.468-10.448-8.473-19.284-19.284-19.284-10.087 0-19.751 8.87-19.284 19.284.467 10.448 8.473 19.284 19.284 19.284z" fill="#ffe666"/></g><path d="m328.162 63.499c-7.639-3.205-16.429.387-19.636 8.026l-65.73 156.62c-3.206 7.639.388 16.43 8.026 19.636 1.896.796 3.863 1.173 5.798 1.173 5.861 0 11.428-3.457 13.838-9.199l65.73-156.62c3.207-7.639-.387-16.43-8.026-19.636z" fill="#ffe666"/><path d="m328.162 63.499c-7.639-3.205-16.429.387-19.636 8.026l-18.701 44.561v77.521l46.364-110.473c3.206-7.638-.388-16.429-8.027-19.635z" fill="#fabe2c"/><path d="m93.605 363.837h-63.133c-8.284 0-15 6.716-15 15v117.424c0 8.284 6.716 15 15 15h48.133l30-15v-117.424c0-8.284-6.716-15-15-15z" fill="#9ee2f8"/><g><path d="m491.395 362.813c-28.074-28.075-73.756-28.076-101.829 0l-44.87 44.869h.001l-18.521 18.521c-7.35 7.35-17.319 11.479-27.714 11.479h-109.609c-8.077 0-15.027-6.207-15.407-14.275-.406-8.614 6.458-15.725 14.983-15.725h105.373c23.397 0 43.498-19.125 43.882-42.518.007-.406.01-.812.01-1.219.001-8.287-6.713-15.012-15-15.012h-49.806c-16.277 0-31.908-7.384-48.457-15.202-17.358-8.199-35.307-16.679-56.294-18.074-18.355-1.223-36.754.787-54.685 5.965-20.456 5.906-34.785 24.883-34.847 46.192v143.446h258.04c17.743 0 34.425-6.91 46.974-19.457l107.777-107.777c5.857-5.857 5.857-15.355-.001-21.213z" fill="#ffbda9"/></g><g fill="#f9a58d"><path d="m389.566 362.813-44.87 44.869h.001l-18.521 18.521c-7.35 7.35-17.319 11.479-27.714 11.479h-10.052v73.578h48.234c17.743 0 34.425-6.91 46.974-19.457l107.777-107.777c5.858-5.857 5.858-15.355 0-21.213-28.074-28.075-73.756-28.076-101.829 0z"/><path d="m337.685 365.165c.007-.406.01-.812.01-1.219.001-8.287-6.713-15.012-15-15.012h-34.284v58.749h5.392c23.707 0 43.492-18.814 43.882-42.518z"/></g></g></svg>