<svg id="Capa_1" enable-background="new 0 0 512 512" height="512" viewBox="0 0 512 512" width="512" xmlns="http://www.w3.org/2000/svg"><g><path d="m69 68.995v374h374v-374zm344 344h-314v-314h314z" fill="#00358f"/><path d="m443 68.995v374h-187v-30h157v-314h-157v-30z" fill="#012453"/><g><path d="m178.877 46.738-6.796 1.764v96.996l83.999 48.497 83.999-48.497v-96.996l-6.796-1.764z" fill="#00b3fe"/><path d="m256.08 46.738v147.257l83.999-48.497v-96.996l-6.796-1.764z" fill="#0274f9"/><path d="m340.079 48.502v.004l-83.999 48.475-83.999-48.475v-.004l83.999-48.497z" fill="#01f5ff"/><path d="m340.079 48.502v.004l-83.999 48.475v-96.976z" fill="#00b3fe"/></g><g><path d="m178.877 364.738-6.796 1.765v96.994l83.999 48.498 83.999-48.498v-96.994l-6.796-1.765z" fill="#00b3fe"/><path d="m256.08 364.738v147.257l83.999-48.498v-96.994l-6.796-1.765z" fill="#0274f9"/><path d="m340.079 366.503v.003l-83.999 48.475-83.999-48.475v-.003l83.999-48.498z" fill="#01f5ff"/><path d="m340.079 366.503v.003l-83.999 48.475v-96.976z" fill="#00b3fe"/></g><g><path d="m6.796 205.733-6.796 1.764v96.995l83.999 48.498 83.998-48.498v-96.995l-6.795-1.764z" fill="#00b3fe"/><path d="m83.999 205.733v147.257l83.998-48.498v-96.995l-6.795-1.764z" fill="#0274f9"/><path d="m167.997 207.497v.004l-83.998 48.475-83.999-48.475v-.004l83.999-48.497z" fill="#01f5ff"/><path d="m167.997 207.497v.004l-83.998 48.475v-96.976z" fill="#00b3fe"/></g><g><path d="m350.798 205.733-6.795 1.764v96.995l83.998 48.498 83.999-48.498v-96.995l-6.796-1.764z" fill="#00b3fe"/><path d="m428.001 205.733v147.257l83.999-48.498v-96.995l-6.796-1.764z" fill="#0274f9"/><path d="m512 207.497v.004l-83.999 48.475-83.998-48.475v-.004l83.998-48.497z" fill="#01f5ff"/><path d="m512 207.497v.004l-83.999 48.475v-96.976z" fill="#00b3fe"/></g></g></svg>