<svg id="Capa_1" enable-background="new 0 0 512 512" height="512" viewBox="0 0 512 512" width="512" xmlns="http://www.w3.org/2000/svg"><g><g><g><g><g><path d="m77.723 442.004c-1.977 0-3.955-.755-5.463-2.263-3.018-3.017-3.018-7.909 0-10.927l100.526-100.526c3.017-3.017 7.909-3.017 10.927 0s3.018 7.909 0 10.927l-100.527 100.525c-1.508 1.509-3.486 2.264-5.463 2.264z" fill="#4f6d8f"/></g><circle cx="75.902" cy="436.098" fill="#a6d6f8" r="33.481"/><path d="m99.576 412.424c-10.591-10.591-26.511-12.6-39.127-6.034 2.959 1.54 5.738 3.55 8.222 6.034 13.075 13.075 13.075 34.274 0 47.349-2.484 2.484-5.263 4.494-8.222 6.034 12.616 6.567 28.536 4.557 39.127-6.034 13.076-13.075 13.076-34.274 0-47.349z" fill="#8bc9ef"/><g><path d="m23.09 365.516c-1.977 0-3.955-.755-5.463-2.263-3.018-3.017-3.018-7.909 0-10.927l22.317-22.317c3.54-3.54 8.585-5.064 13.491-4.085l46.795 9.359 28.849-28.849c3.017-3.017 7.909-3.017 10.927 0s3.018 7.909 0 10.927l-29.043 29.043c-3.538 3.54-8.584 5.065-13.492 4.086l-46.795-9.359-22.122 22.122c-1.51 1.509-3.487 2.263-5.464 2.263z" fill="#4f6d8f"/></g><g><path d="m154.21 496.637c-1.977 0-3.955-.755-5.463-2.263-3.018-3.017-3.018-7.909 0-10.927l22.122-22.122-9.359-46.795c-.982-4.909.546-9.953 4.086-13.493l29.043-29.042c3.017-3.017 7.909-3.017 10.927 0s3.018 7.909 0 10.927l-28.849 28.849 9.359 46.795c.981 4.908-.545 9.952-4.085 13.491l-22.317 22.317c-1.509 1.508-3.486 2.263-5.464 2.263z" fill="#4f6d8f"/></g><circle cx="152.389" cy="490.732" fill="#a6d6f8" r="21.268"/><path d="m167.428 475.693c-6.961-6.961-17.538-8.065-25.673-3.357 1.571.909 3.06 2.012 4.405 3.357 8.306 8.306 8.306 21.772 0 30.078-1.344 1.344-2.834 2.448-4.405 3.357 8.135 4.708 18.712 3.605 25.673-3.357 8.306-8.306 8.306-21.772 0-30.078z" fill="#8bc9ef"/><circle cx="21.268" cy="359.611" fill="#a6d6f8" r="21.268"/><path d="m36.307 344.572c-6.961-6.961-17.538-8.065-25.673-3.357 1.571.909 3.06 2.012 4.405 3.357 8.306 8.306 8.306 21.772 0 30.078-1.344 1.344-2.834 2.448-4.405 3.357 8.135 4.708 18.712 3.605 25.673-3.357 8.306-8.306 8.306-21.772 0-30.078z" fill="#8bc9ef"/></g><g><g><path d="m333.751 185.975c-1.977 0-3.955-.755-5.463-2.263-3.018-3.017-3.018-7.909 0-10.927l100.526-100.525c3.017-3.017 7.909-3.017 10.927 0s3.018 7.909 0 10.927l-100.527 100.525c-1.508 1.509-3.486 2.263-5.463 2.263z" fill="#4f6d8f"/></g><circle cx="436.098" cy="75.902" fill="#a6d6f8" r="33.481"/><path d="m459.773 52.227c-10.591-10.591-26.511-12.6-39.127-6.034 2.959 1.54 5.738 3.55 8.222 6.034 13.075 13.075 13.075 34.274 0 47.349-2.484 2.484-5.263 4.494-8.222 6.034 12.616 6.567 28.536 4.557 39.127-6.034 13.075-13.075 13.075-34.274 0-47.349z" fill="#8bc9ef"/><g><path d="m377.458 207.828c-1.977 0-3.955-.755-5.463-2.263-3.018-3.017-3.018-7.909 0-10.927l29.043-29.043c3.539-3.539 8.583-5.065 13.492-4.086l46.795 9.359 22.122-22.122c3.017-3.017 7.909-3.017 10.927 0s3.018 7.909 0 10.927l-22.317 22.317c-3.54 3.54-8.582 5.066-13.491 4.085l-46.795-9.359-28.849 28.849c-1.509 1.509-3.486 2.263-5.464 2.263z" fill="#4f6d8f"/></g><g><path d="m311.898 142.268c-1.977 0-3.955-.755-5.463-2.263-3.018-3.017-3.018-7.909 0-10.927l28.849-28.849-9.359-46.795c-.981-4.908.545-9.952 4.085-13.491l22.317-22.317c3.017-3.017 7.909-3.017 10.927 0s3.018 7.909 0 10.927l-22.122 22.122 9.359 46.795c.982 4.909-.546 9.953-4.086 13.493l-29.043 29.042c-1.509 1.509-3.487 2.263-5.464 2.263z" fill="#4f6d8f"/></g><circle cx="359.611" cy="21.268" fill="#a6d6f8" r="21.268"/><path d="m374.65 6.229c-6.961-6.961-17.538-8.065-25.673-3.357 1.571.909 3.06 2.012 4.405 3.357 8.306 8.306 8.306 21.772 0 30.078-1.344 1.344-2.834 2.448-4.405 3.357 8.135 4.708 18.712 3.605 25.673-3.357 8.306-8.306 8.306-21.772 0-30.078z" fill="#8bc9ef"/><circle cx="490.732" cy="152.389" fill="#a6d6f8" r="21.268"/><path d="m505.771 137.35c-6.961-6.961-17.538-8.065-25.673-3.357 1.571.909 3.06 2.012 4.405 3.357 8.306 8.306 8.306 21.772 0 30.078-1.344 1.344-2.834 2.448-4.405 3.357 8.135 4.708 18.712 3.605 25.673-3.357 8.305-8.306 8.305-21.772 0-30.078z" fill="#8bc9ef"/></g></g><g><g><g><path d="m434.277 442.004c-1.977 0-3.955-.755-5.463-2.263l-100.526-100.527c-3.018-3.017-3.018-7.909 0-10.927 3.017-3.017 7.909-3.017 10.927 0l100.525 100.527c3.018 3.017 3.018 7.909 0 10.927-1.508 1.508-3.485 2.263-5.463 2.263z" fill="#4f6d8f"/></g><circle cx="436.098" cy="436.098" fill="#a6d6f8" r="33.481"/><path d="m459.773 412.424c-10.591-10.591-26.511-12.6-39.127-6.034 2.959 1.54 5.738 3.55 8.222 6.034 13.075 13.075 13.075 34.274 0 47.349-2.484 2.484-5.263 4.494-8.222 6.034 12.616 6.567 28.536 4.557 39.127-6.034 13.075-13.075 13.075-34.274 0-47.349z" fill="#8bc9ef"/><g><path d="m357.79 496.637c-1.977 0-3.955-.755-5.463-2.263l-22.317-22.317c-3.54-3.539-5.066-8.583-4.085-13.491l9.359-46.795-28.849-28.849c-3.018-3.017-3.018-7.909 0-10.927 3.017-3.017 7.909-3.017 10.927 0l29.043 29.043c3.54 3.539 5.067 8.582 4.086 13.492l-9.359 46.795 22.122 22.122c3.018 3.017 3.018 7.909 0 10.927-1.51 1.508-3.487 2.263-5.464 2.263z" fill="#4f6d8f"/></g><g><path d="m488.91 365.516c-1.977 0-3.955-.755-5.463-2.263l-22.122-22.122-46.795 9.359c-4.91.982-9.954-.546-13.493-4.086l-29.042-29.043c-3.018-3.017-3.018-7.909 0-10.927 3.017-3.017 7.909-3.017 10.927 0l28.849 28.849 46.795-9.359c4.909-.98 9.952.546 13.491 4.085l22.317 22.317c3.018 3.017 3.018 7.909 0 10.927-1.509 1.509-3.486 2.263-5.464 2.263z" fill="#4f6d8f"/></g><circle cx="490.732" cy="359.611" fill="#a6d6f8" r="21.268"/><path d="m505.771 344.572c-6.961-6.961-17.538-8.065-25.673-3.357 1.571.909 3.06 2.012 4.405 3.357 8.306 8.306 8.306 21.772 0 30.078-1.344 1.344-2.834 2.448-4.405 3.357 8.135 4.708 18.712 3.605 25.673-3.357 8.305-8.306 8.305-21.772 0-30.078z" fill="#8bc9ef"/><circle cx="359.611" cy="490.732" fill="#a6d6f8" r="21.268"/><path d="m374.65 475.693c-6.961-6.961-17.538-8.065-25.673-3.357 1.571.909 3.06 2.012 4.405 3.357 8.306 8.306 8.306 21.772 0 30.078-1.344 1.344-2.834 2.448-4.405 3.357 8.135 4.708 18.712 3.605 25.673-3.357 8.306-8.306 8.306-21.772 0-30.078z" fill="#8bc9ef"/></g><g><g><path d="m178.249 185.975c-1.977 0-3.955-.755-5.463-2.263l-100.526-100.526c-3.018-3.017-3.018-7.909 0-10.927 3.017-3.017 7.909-3.017 10.927 0l100.526 100.526c3.018 3.017 3.018 7.909 0 10.927-1.509 1.509-3.487 2.263-5.464 2.263z" fill="#4f6d8f"/></g><circle cx="75.902" cy="75.902" fill="#a6d6f8" r="33.481"/><path d="m99.576 52.227c-10.591-10.591-26.511-12.6-39.127-6.034 2.959 1.54 5.738 3.55 8.222 6.034 13.075 13.075 13.075 34.274 0 47.349-2.484 2.484-5.263 4.494-8.222 6.034 12.616 6.567 28.536 4.557 39.127-6.034 13.076-13.075 13.076-34.274 0-47.349z" fill="#8bc9ef"/><g><path d="m200.102 142.268c-1.977 0-3.955-.755-5.463-2.263l-29.043-29.043c-3.54-3.539-5.067-8.582-4.086-13.492l9.359-46.795-22.122-22.122c-3.018-3.017-3.018-7.909 0-10.927 3.017-3.017 7.909-3.017 10.927 0l22.317 22.317c3.54 3.539 5.066 8.583 4.085 13.491l-9.359 46.795 28.849 28.849c3.018 3.017 3.018 7.909 0 10.927-1.509 1.509-3.487 2.263-5.464 2.263zm-29.038-91.398h.01z" fill="#4f6d8f"/></g><g><path d="m134.542 207.828c-1.977 0-3.955-.755-5.463-2.263l-28.849-28.849-46.795 9.359c-4.908.98-9.952-.546-13.491-4.085l-22.317-22.317c-3.018-3.017-3.018-7.909 0-10.927 3.017-3.017 7.909-3.017 10.927 0l22.122 22.122 46.795-9.359c4.91-.98 9.954.546 13.493 4.086l29.042 29.043c3.018 3.017 3.018 7.909 0 10.927-1.51 1.509-3.487 2.263-5.464 2.263z" fill="#4f6d8f"/></g><circle cx="21.268" cy="152.389" fill="#a6d6f8" r="21.268"/><path d="m36.307 137.35c-6.961-6.961-17.538-8.065-25.673-3.357 1.571.909 3.06 2.012 4.405 3.357 8.306 8.306 8.306 21.772 0 30.078-1.344 1.344-2.834 2.448-4.405 3.357 8.135 4.708 18.712 3.605 25.673-3.357 8.306-8.306 8.306-21.772 0-30.078z" fill="#8bc9ef"/><circle cx="152.389" cy="21.268" fill="#a6d6f8" r="21.268"/><path d="m167.428 6.229c-6.961-6.961-17.538-8.065-25.673-3.357 1.571.909 3.06 2.012 4.405 3.357 8.306 8.306 8.306 21.772 0 30.078-1.344 1.344-2.834 2.448-4.405 3.357 8.135 4.708 18.712 3.605 25.673-3.357 8.306-8.306 8.306-21.772 0-30.078z" fill="#8bc9ef"/></g></g></g><g><ellipse cx="256" cy="256" fill="#f6df7f" rx="135.34" ry="134.105"/><path d="m256 121.895c-5.226 0-10.38.305-15.453.879 67.376 7.624 119.887 64.458 119.887 133.226s-52.512 125.602-119.887 133.225c5.073.574 10.227.879 15.453.879 74.627 0 135.34-60.159 135.34-134.105s-60.713-134.104-135.34-134.104z" fill="#efd06f"/><ellipse cx="256" cy="256" fill="#fcf7bf" rx="100.79" ry="99.555"/><path d="m267.714 248.273h-3.988v-36.618h3.989c5.429 0 9.845 5.294 9.845 11.8 0 4.267 3.459 7.726 7.726 7.726 4.268 0 7.726-3.459 7.726-7.726 0-15.027-11.348-27.253-25.298-27.253h-3.989v-7.057c0-4.267-3.459-7.726-7.726-7.726-4.268 0-7.726 3.459-7.726 7.726v7.057h-3.989c-13.95 0-25.298 12.226-25.298 27.253v13.018c0 15.027 11.349 27.253 25.299 27.253h3.988v36.618h-3.989c-5.429 0-9.845-5.294-9.845-11.8 0-4.267-3.459-7.726-7.726-7.726s-7.726 3.459-7.726 7.726c0 15.027 11.348 27.253 25.298 27.253h3.989v7.057c0 4.267 3.459 7.726 7.726 7.726 4.268 0 7.726-3.459 7.726-7.726v-7.057h3.989c13.95 0 25.298-12.226 25.298-27.253v-13.019c0-7.128-2.532-13.867-7.13-18.976-4.804-5.337-11.256-8.276-18.169-8.276zm-23.428.001c-5.43 0-9.846-5.294-9.846-11.8v-13.018c0-6.507 4.416-11.8 9.845-11.8h3.989v36.618zm33.274 40.27c0 6.507-4.417 11.8-9.845 11.8h-3.989v-36.619h3.988c2.475 0 4.848 1.122 6.682 3.161 2.04 2.267 3.164 5.335 3.164 8.639z" fill="#f6df7f"/></g></g></svg>