<svg id="color" enable-background="new 0 0 24 24" height="512" viewBox="0 0 24 24" width="512" xmlns="http://www.w3.org/2000/svg"><path d="m21.25 0h-18.5c-1.517 0-2.75 1.233-2.75 2.75v18.5c0 1.517 1.233 2.75 2.75 2.75h18.5c1.517 0 2.75-1.233 2.75-2.75v-18.5c0-1.517-1.233-2.75-2.75-2.75z" fill="#607d8b"/><g fill="#eceff1"><path d="m13.5 20.89c-.414 0-.75-.336-.75-.75v-3.89c0-.414.336-.75.75-.75s.75.336.75.75v3.89c0 .414-.336.75-.75.75z"/><path d="m10.5 14.5c-.414 0-.75-.336-.75-.75v-2c0-1.24 1.009-2.25 2.25-2.25s2.25 1.01 2.25 2.25v1.986c0 .414-.336.75-.75.75s-.75-.336-.75-.75v-1.986c0-.413-.336-.75-.75-.75s-.75.337-.75.75v2c0 .414-.336.75-.75.75z"/><path d="m10.5 20.89c-.414 0-.75-.336-.75-.75v-3.89c0-.414.336-.75.75-.75s.75.336.75.75v3.89c0 .414-.336.75-.75.75z"/><path d="m16.5 19.98c-.414 0-.75-.336-.75-.75v-7.48c0-.432-.072-.854-.215-1.258-.138-.391.066-.818.457-.957.393-.138.82.066.958.457.2.563.301 1.155.301 1.758v7.48c-.001.415-.337.75-.751.75z"/><path d="m15.18 9.32c-.194 0-.387-.074-.534-.224-.284-.287-.613-.525-.98-.708-1.237-.615-2.788-.48-3.906.351-.334.248-.803.179-1.05-.154-.248-.332-.178-.802.154-1.049 1.558-1.159 3.744-1.35 5.47-.491.516.257.981.593 1.381.999.291.295.287.77-.008 1.061-.146.143-.337.215-.527.215z"/><path d="m7.5 19.98c-.414 0-.75-.336-.75-.75v-7.48c0-.818.182-1.602.542-2.328.184-.372.632-.528 1.005-.34.371.183.523.633.34 1.004-.257.518-.387 1.078-.387 1.664v7.48c0 .415-.336.75-.75.75z"/><path d="m19.5 17.84c-.414 0-.75-.336-.75-.75v-5.34c0-1.8-.703-3.493-1.98-4.77-.293-.293-.293-.768 0-1.061s.768-.293 1.061 0c1.561 1.56 2.42 3.63 2.42 5.83v5.34c-.001.415-.337.751-.751.751z"/><path d="m15.491 5.863c-.119 0-.238-.028-.351-.087-1.796-.952-3.981-1.027-5.84-.214-.38.164-.822-.008-.988-.387-.166-.38.007-.821.386-.988 2.259-.987 4.962-.89 7.144.263.366.194.505.647.312 1.014-.135.255-.395.399-.663.399z"/><path d="m4.5 17.84c-.414 0-.75-.336-.75-.75v-5.34c0-2.252.891-4.355 2.509-5.924.296-.288.772-.281 1.061.018.288.297.281.771-.017 1.061-1.324 1.281-2.053 3.003-2.053 4.845v5.34c0 .414-.336.75-.75.75z"/></g><path d="m10.5 20.89c-.414 0-.75-.336-.75-.75v-3.89c0-.414.336-.75.75-.75s.75.336.75.75v3.89c0 .414-.336.75-.75.75zm-3-.91c-.414 0-.75-.336-.75-.75v-7.48c0-.818.182-1.602.542-2.328.131-.265.395-.42.671-.42.112 0 .226.026.334.08.371.183.523.633.34 1.004-.257.518-.387 1.078-.387 1.664v7.48c0 .415-.336.75-.75.75zm-3-2.14c-.414 0-.75-.336-.75-.75v-5.34c0-2.252.891-4.355 2.509-5.924.145-.141.333-.211.521-.211.196 0 .392.076.539.229.288.297.281.771-.017 1.061-1.323 1.281-2.052 3.003-2.052 4.845v5.34c0 .414-.336.75-.75.75zm7.5-17.84h-9.25c-1.517 0-2.75 1.233-2.75 2.75v18.5c0 1.517 1.233 2.75 2.75 2.75h9.25v-13c-.414 0-.75.337-.75.75v2c0 .414-.336.75-.75.75s-.75-.336-.75-.75v-2c0-1.24 1.009-2.25 2.25-2.25v-1.494c-.795.002-1.591.25-2.241.733-.135.1-.292.149-.447.149-.229 0-.455-.105-.602-.303-.248-.332-.178-.802.154-1.049.905-.673 2.021-1.019 3.136-1.024v-1.51c-.001 0-.002 0-.003 0-.922 0-1.844.186-2.698.56-.097.043-.199.063-.299.063-.29 0-.565-.167-.688-.449-.166-.38.007-.821.386-.988 1.034-.452 2.162-.677 3.291-.677h.011z" fill="#546d79"/><path d="m12 9.5c-1.241 0-2.25 1.01-2.25 2.25v2c0 .414.336.75.75.75s.75-.336.75-.75v-2c0-.413.336-.75.75-.75z" fill="#cdd0d2"/><path d="m10.5 15.5c-.414 0-.75.336-.75.75v3.89c0 .414.336.75.75.75s.75-.336.75-.75v-3.89c0-.414-.336-.75-.75-.75z" fill="#cdd0d2"/><path d="m12 6.512c-1.115.004-2.231.351-3.136 1.024-.332.247-.402.717-.154 1.049.147.198.373.303.602.303.156 0 .313-.048.447-.149.65-.483 1.445-.731 2.241-.733z" fill="#cdd0d2"/><path d="m7.963 9.002c-.276 0-.541.155-.671.42-.359.727-.542 1.51-.542 2.328v7.48c0 .414.336.75.75.75s.75-.336.75-.75v-7.48c0-.586.13-1.146.386-1.664.184-.371.031-.821-.34-1.004-.107-.054-.221-.08-.333-.08z" fill="#cdd0d2"/><path d="m11.989 3.51c-1.128 0-2.256.225-3.291.677-.379.167-.552.609-.386.989.123.281.399.449.688.449.1 0 .202-.02.3-.062.854-.373 1.776-.56 2.698-.56h.003v-1.493c-.005 0-.008 0-.012 0z" fill="#cdd0d2"/><path d="m6.78 5.615c-.188 0-.376.07-.521.211-1.618 1.569-2.509 3.672-2.509 5.924v5.34c0 .414.336.75.75.75s.75-.336.75-.75v-5.34c0-1.842.729-3.564 2.053-4.846.298-.289.305-.763.017-1.06-.147-.153-.344-.229-.54-.229z" fill="#cdd0d2"/></svg>