<svg id="Layer_1_1_" enable-background="new 0 0 64 64" height="512" viewBox="0 0 64 64" width="512" xmlns="http://www.w3.org/2000/svg"><path d="m38.164 14.983c1.291 1.503 2.366 3.193 3.168 5.034 4.009.088 7.633 1.736 10.274 4.377l3.536-3.536c-3.591-3.591-10.04-6.802-16.978-5.875z" fill="#47a2de"/><path d="m51.607 45.607 3.535 3.536c3.321-3.321 5.457-7.811 5.79-12.795.03-.448.068-.893.068-1.348h-5c0 4.142-1.679 7.892-4.393 10.607z" fill="#47a2de"/><path d="m41 50v5c5.523 0 10.523-2.239 14.142-5.858l-3.535-3.536c-2.715 2.715-6.465 4.394-10.607 4.394z" fill="#e8eeff"/><path d="m25.681 47.8c4.028 4.517 10.098 7.2 15.319 7.2v-5c-3.789 0-7.24-1.416-9.88-3.733-1.701.757-3.527 1.276-5.439 1.533z" fill="#47a2de"/><path d="m56 35h5c0-5.523-2.239-10.523-5.858-14.142l-3.536 3.536c2.715 2.714 4.394 6.464 4.394 10.606z" fill="#e8eeff"/><path d="m51.607 24.393c-2.641-2.641-6.265-4.288-10.274-4.377 1.067 2.447 1.667 5.144 1.667 7.984 0 8.152-4.884 15.152-11.88 18.267 2.64 2.317 6.091 3.733 9.88 3.733 4.142 0 7.892-1.679 10.607-4.393s4.393-6.465 4.393-10.607-1.679-7.892-4.393-10.607z" fill="#ffecc7"/><path d="m45 34-2.068-4.653c-.266 3.987-1.696 7.645-3.959 10.653h10.027c0-2.649.427-5.281 1.265-7.795l.735-2.205z" fill="#fdb62f"/><path d="m42.948 29.384 2.052 4.616.089-.059c.584-1.878.911-3.87.911-5.941 0-2.679-.536-5.23-1.491-7.565-1.023-.244-2.083-.394-3.176-.418 1.067 2.446 1.667 5.143 1.667 7.983 0 .466-.02.926-.052 1.384z" fill="#e8d7b5"/><path d="m38.984 40c-2.036 2.701-4.736 4.874-7.864 6.267.312.274.638.533.972.781 3.992-1.276 7.436-3.773 9.9-7.048z" fill="#e8d7b5"/><path d="m41.333 20.017c1.092.024 2.153.174 3.176.418-.845-2.065-2.031-3.949-3.48-5.601-.942-.021-1.898.02-2.865.149 1.291 1.502 2.366 3.193 3.169 5.034z" fill="#3e8dc2"/><path d="m41.992 40c1.358-1.806 2.409-3.851 3.097-6.059l-.089.059-2.052-4.616c-.272 3.972-1.707 7.62-3.965 10.616z" fill="#e8a72b"/><path d="m36.229 42h13.771v2h-13.771z" fill="#dea029"/><path d="m33.607 17.393 3.536-3.536c-3.62-3.618-8.62-5.857-14.143-5.857v5c4.142 0 7.892 1.679 10.607 4.393z" fill="#47a2de"/><path d="m33.607 38.607 3.535 3.536c3.321-3.321 5.457-7.811 5.79-12.795.03-.448.068-.893.068-1.348h-5c0 4.142-1.679 7.892-4.393 10.607z" fill="#47a2de"/><path d="m8 28h-5c0 5.523 2.239 10.523 5.858 14.142l3.535-3.536c-2.714-2.714-4.393-6.464-4.393-10.606z" fill="#e8eeff"/><path d="m12.393 17.393-3.536-3.536c-3.618 3.62-5.857 8.62-5.857 14.143h5c0-4.142 1.679-7.892 4.393-10.607z" fill="#47a2de"/><path d="m23 13v-5c-5.523 0-10.523 2.239-14.142 5.858l3.536 3.536c2.714-2.715 6.464-4.394 10.606-4.394z" fill="#e8eeff"/><path d="m23 43c-4.142 0-7.892-1.679-10.607-4.393l-3.535 3.536c3.619 3.618 8.619 5.857 14.142 5.857z" fill="#47a2de"/><path d="m38 28h5c0-5.523-2.239-10.523-5.858-14.142l-3.536 3.536c2.715 2.714 4.394 6.464 4.394 10.606z" fill="#e8eeff"/><path d="m38 28c0-4.142-1.679-7.892-4.393-10.607s-6.465-4.393-10.607-4.393-7.892 1.679-10.607 4.393c-2.714 2.715-4.393 6.465-4.393 10.607s1.679 7.892 4.393 10.607c2.715 2.714 6.465 4.393 10.607 4.393s7.892-1.679 10.607-4.393 4.393-6.465 4.393-10.607z" fill="#ffecc7"/><path d="m23 18-4 9-6-4 .735 2.205c.838 2.514 1.265 5.146 1.265 7.795h16c0-2.649.427-5.281 1.265-7.795l.735-2.205-6 4z" fill="#fdb62f"/><path d="m14 35h18v2h-18z" fill="#dea029"/><path d="m23 43v5c5.523 0 10.523-2.239 14.142-5.858l-3.535-3.536c-2.715 2.715-6.465 4.394-10.607 4.394z" fill="#e8eeff"/></svg>