<?xml version="1.0" encoding="iso-8859-1"?>
<!-- Generator: Adobe Illustrator 19.0.0, SVG Export Plug-In . SVG Version: 6.00 Build 0)  -->
<svg xmlns="http://www.w3.org/2000/svg" xmlns:xlink="http://www.w3.org/1999/xlink" version="1.1" id="Capa_1" x="0px" y="0px" viewBox="0 0 480.001 480.001" style="enable-background:new 0 0 480.001 480.001;" xml:space="preserve" width="512px" height="512px">
<g>
	<g>
		<g>
			<path d="M475.065,0.609c-2.99-1.239-6.432-0.553-8.72,1.736L240.001,228.689l-54.344-54.344c-3.124-3.123-8.188-3.123-11.312,0     L64.001,284.689l-50.344-50.344c-3.125-3.124-8.19-3.123-11.314,0.002c-1.499,1.5-2.342,3.534-2.342,5.654v232     c0,4.418,3.582,8,8,8h464c4.418,0,8-3.582,8-8v-464C480.001,4.766,478.053,1.848,475.065,0.609z M464.001,171.313l-222.656,126.6     l-55.688-55.688c-3.124-3.123-8.188-3.123-11.312,0l-116,116c-3.178,3.07-3.266,8.134-0.196,11.312     c3.069,3.178,8.134,3.266,11.312,0.196c0.067-0.064,0.132-0.13,0.196-0.196l110.344-110.336l54.344,54.344     c2.545,2.541,6.472,3.071,9.6,1.296l220.056-125.088v274.248h-448V259.313l42.344,42.344c3.124,3.123,8.188,3.123,11.312,0     l110.344-110.344l54.344,54.344c3.124,3.123,8.188,3.123,11.312,0L464.001,27.313V171.313z" fill="#47b475"/>
			<path d="M224.001,448.001h32c4.418,0,8-3.582,8-8s-3.582-8-8-8h-32c-4.418,0-8,3.582-8,8S219.582,448.001,224.001,448.001z" fill="#47b475"/>
			<path d="M288.001,448.001h32c4.418,0,8-3.582,8-8s-3.582-8-8-8h-32c-4.418,0-8,3.582-8,8S283.582,448.001,288.001,448.001z" fill="#47b475"/>
			<path d="M160.001,448.001h32c4.418,0,8-3.582,8-8s-3.582-8-8-8h-32c-4.418,0-8,3.582-8,8S155.582,448.001,160.001,448.001z" fill="#47b475"/>
		</g>
	</g>
</g>
<g>
</g>
<g>
</g>
<g>
</g>
<g>
</g>
<g>
</g>
<g>
</g>
<g>
</g>
<g>
</g>
<g>
</g>
<g>
</g>
<g>
</g>
<g>
</g>
<g>
</g>
<g>
</g>
<g>
</g>
</svg>
