<?xml version="1.0" encoding="iso-8859-1"?>
<!-- Generator: Adobe Illustrator 19.0.0, SVG Export Plug-In . SVG Version: 6.00 Build 0)  -->
<svg version="1.1" id="Layer_1" xmlns="http://www.w3.org/2000/svg" xmlns:xlink="http://www.w3.org/1999/xlink" x="0px" y="0px"
	 viewBox="0 0 512 512" style="enable-background:new 0 0 512 512;" xml:space="preserve">
<path style="fill:#145587;" d="M418.423,420.961c-1.025,0-2.056-0.19-3.038-0.576L90.538,292.519
	c-2.97-1.169-5.005-3.938-5.234-7.122c-0.23-3.184,1.388-6.216,4.16-7.798L414.312,92.13c2.567-1.466,5.72-1.454,8.276,0.03
	c2.556,1.484,4.129,4.217,4.129,7.172v313.335c0,2.745-1.357,5.31-3.625,6.855C421.696,420.474,420.066,420.961,418.423,420.961z
	 M112.717,283.424L410.13,400.49V113.619L112.717,283.424z"/>
<circle style="fill:#F9C526;" cx="93.575" cy="284.807" r="93.575"/>
<circle style="fill:#FFFFFF;" cx="93.575" cy="284.807" r="37.466"/>
<circle style="fill:#FB7686;" cx="418.425" cy="99.337" r="93.575"/>
<circle style="fill:#FFE288;" cx="418.425" cy="99.337" r="37.466"/>
<circle style="fill:#54B8AC;" cx="418.425" cy="412.663" r="93.575"/>
<circle style="fill:#FFE288;" cx="418.425" cy="412.663" r="37.466"/>
<g>
</g>
<g>
</g>
<g>
</g>
<g>
</g>
<g>
</g>
<g>
</g>
<g>
</g>
<g>
</g>
<g>
</g>
<g>
</g>
<g>
</g>
<g>
</g>
<g>
</g>
<g>
</g>
<g>
</g>
</svg>
