<?xml version="1.0"?>
<svg xmlns="http://www.w3.org/2000/svg" xmlns:xlink="http://www.w3.org/1999/xlink" xmlns:svgjs="http://svgjs.com/svgjs" version="1.1" width="512" height="512" x="0" y="0" viewBox="0 0 64 64" style="enable-background:new 0 0 512 512" xml:space="preserve"><g><g xmlns="http://www.w3.org/2000/svg"><path d="m63 33v-2h-3.025c-.518-14.645-12.33-26.457-26.975-26.975v-3.025h-2v3.025c-14.645.518-26.457 12.33-26.975 26.975h-3.025v2h3.023c.23 6.473 2.684 12.647 6.977 17.513v11.487c0 .552.448 1 1 1h40c.552 0 1-.448 1-1v-11.487c4.293-4.866 6.747-11.04 6.977-17.513zm-5.025-2h-4.015c-.405-8.934-6.185-16.78-14.673-19.759-1.82-1.237-3.971-2.013-6.287-2.19v-3.026c13.542.516 24.459 11.433 24.975 24.975zm-8.764 11.177c-1.708-1.359-3.864-2.177-6.211-2.177h-5v-2h-.025c1.659-1.243 2.927-2.98 3.564-5h10.424c-.16 3.253-1.098 6.387-2.752 9.177zm-34.422 0c-1.654-2.79-2.592-5.923-2.752-9.177h10.424c.637 2.02 1.905 3.757 3.564 5h-.025v2h-5c-2.347 0-4.503.818-6.211 2.177zm17.211-31.177c6.065 0 11 4.935 11 11v2.142c-.322-.084-.653-.142-1-.142 0-.552-.448-1-1-1-1.565 0-3.061-.748-4-2l-1.2-1.6c-.377-.504-1.223-.504-1.6 0l-1.2 1.6c-.939 1.252-2.434 2-4 2h-6c-.552 0-1 .448-1 1-.347 0-.678.058-1 .142v-2.142c0-6.065 4.935-11 11-11zm10 19v-4c1.103 0 2 .897 2 2s-.897 2-2 2zm-10 15.438-4-4.8v-1.479c1.226.538 2.578.841 4 .841s2.774-.303 4-.841v1.479zm0-7.438c-4.411 0-8-3.589-8-8v-5h5c2.192 0 4.285-1.047 5.6-2.8l.4-.534.4.534c1.113 1.484 2.784 2.462 4.6 2.727v5.073c0 4.411-3.589 8-8 8zm-10-8c-1.103 0-2-.897-2-2s.897-2 2-2zm-3-8v3.382c-.615.703-1 1.612-1 2.618 0 1.2.542 2.266 1.382 3h-7.342c.317-6.35 3.622-12.079 8.753-15.555-1.132 1.927-1.793 4.163-1.793 6.555zm7.532 20 3.892 4.67-3.84 1.92-2.196-6.59zm5.288 11h.361l1.6 8h-3.561zm.562-2h-.764l-1.076-2.153 1.458-.729 1.458.729zm1.194-4.33 3.892-4.67h2.144l-2.196 6.59zm11.042-15.67c.84-.734 1.382-1.8 1.382-3 0-1.005-.385-1.914-1-2.618v-3.382c0-2.392-.661-4.628-1.793-6.556 5.131 3.477 8.436 9.206 8.753 15.556zm-13.618-24.975v3.025c-2.317.178-4.468.954-6.288 2.19-8.487 2.98-14.267 10.826-14.672 19.76h-4.015c.516-13.542 11.433-24.459 24.975-24.975zm-20.963 26.975c.169 3.774 1.294 7.404 3.286 10.602-.975 1.168-1.681 2.563-2.044 4.091-3.213-4.237-5.028-9.354-5.233-14.693zm2.963 17c0-4.411 3.589-8 8-8h1.279l2.772 8.316c.092.275.298.497.566.607.123.052.253.077.383.077.153 0 .307-.035.447-.105l2.305-1.153 1.199 2.399-1.771 8.859h-9.18v-6h-2v6h-4zm38 11h-4v-6h-2v6h-9.18l-1.772-8.859 1.199-2.399 2.305 1.153c.141.07.295.105.448.105.13 0 .26-.025.383-.076.268-.111.474-.333.566-.607l2.772-8.317h1.279c4.411 0 8 3.589 8 8zm1.721-13.307c-.363-1.528-1.069-2.923-2.044-4.091 1.992-3.199 3.117-6.828 3.286-10.602h3.991c-.205 5.339-2.02 10.456-5.233 14.693z" fill="#47b475" data-original="#000000" style=""/></g></g></svg>
