<svg xmlns="http://www.w3.org/2000/svg" viewBox="0 0 512 512"><path d="M405.333 245.333V480a10.67 10.67 0 0 1-10.667 10.667H160A10.67 10.67 0 0 1 149.333 480V362.667H128V480c0 17.673 14.327 32 32 32h234.667c17.673 0 32-14.327 32-32V245.333h-21.334z"/><path d="M202.667 288h-96c-41.216.053-74.614 33.45-74.667 74.667h21.333c.035-29.44 23.893-53.298 53.333-53.333h96c11.782 0 21.333 9.55 21.333 21.333S214.448 352 202.666 352h-96v21.333h96c23.564 0 42.667-19.103 42.667-42.667S226.23 288 202.667 288z"/><path d="M10.667 320A10.67 10.67 0 0 0 0 330.667v10.667h53.333V320H10.667zm96 149.333C77.226 469.298 53.37 445.44 53.333 416H32c.053 41.215 33.45 74.614 74.667 74.667h32v-21.333h-32z"/><path d="M0 437.333V448a10.67 10.67 0 0 0 10.667 10.667h42.667v-21.333H0zm405.333-416h-74.667C307.103 21.333 288 40.436 288 64s19.103 42.667 42.667 42.667h96V85.333h-96c-11.782 0-21.333-9.55-21.333-21.333s9.55-21.333 21.333-21.333h74.667c29.44.035 53.298 23.893 53.333 53.333H480c-.053-41.215-33.45-74.614-74.667-74.667z"/><path d="M501.333 53.333h-42.667v21.333H512V64a10.67 10.67 0 0 0-10.667-10.667zm-42.666 96c-.035 29.44-23.893 53.298-53.333 53.333h-74.667V224h74.667c41.215-.053 74.614-33.45 74.667-74.667h-21.334z"/><path d="M458.667 170.667V192h42.667a10.67 10.67 0 0 0 10.667-10.667v-10.667h-53.334zm-79.5-77.6l-20.523 5.813a106.42 106.42 0 0 1-13.115 86.886c-31.983 49.3-97.884 63.36-147.196 31.376s-63.36-97.884-31.376-147.196S264.84 6.586 314.153 38.57L325.8 20.693A128.02 128.02 0 0 0 256.045 0c-70.693-.012-128 57.285-128.022 127.978S185.308 255.988 256 256a128.09 128.09 0 0 0 34.762-4.832c68.07-19.246 107.652-90.03 88.406-158.1zM234.667 96h42.667V74.667h-42.667c-17.673 0-32 14.327-32 32s14.327 32 32 32h42.667v-21.333h-42.667A10.67 10.67 0 0 1 224 106.667 10.67 10.67 0 0 1 234.667 96z"/><path d="M277.333 117.333h-42.667v21.333h42.667A10.67 10.67 0 0 1 288 149.333 10.67 10.67 0 0 1 277.333 160h-42.667a10.67 10.67 0 0 1-10.667-10.667h-21.333c0 17.673 14.327 32 32 32h42.667c17.673 0 32-14.327 32-32s-14.327-32-32-32z"/><path d="M245.333 170.667h21.333v32h-21.333zm0-117.334h21.333v32h-21.333zM160 224c-17.673 0-32 14.327-32 32v42.667h21.333V256A10.67 10.67 0 0 1 160 245.333h42.667V224H160z"/><path d="M181.333 234.667h21.333v64h-21.333zM256 245.333V320h-21.333v21.333h32a10.67 10.67 0 0 0 10.667-10.667v-85.333H256zM320 448h64v21.333h-64zm0-42.667h64v21.333h-64z"/></svg>