<svg id="Capa_1" enable-background="new 0 0 512 512" height="512" viewBox="0 0 512 512" width="512" xmlns="http://www.w3.org/2000/svg"><g id="XMLID_1079_"><g id="XMLID_2024_"><g id="XMLID_2052_" fill="#b3e9f8"><circle id="XMLID_2077_" cx="313.997" cy="256" r="144.919"/><circle id="XMLID_2076_" cx="313.997" cy="256" r="188.003"/><path id="XMLID_2073_" d=""/><path id="XMLID_2072_" d=""/><path id="XMLID_2071_" d=""/><path id="XMLID_2070_" d=""/></g><g id="XMLID_2032_"><circle id="XMLID_2041_" cx="313.997" cy="256" fill="#fff" r="144.919"/><g id="XMLID_2039_"><path id="XMLID_824_" d="m313.997 266c-2.559 0-5.118-.977-7.071-2.929l-30.594-30.594c-3.905-3.905-3.906-10.237 0-14.143 3.905-3.904 10.237-3.904 14.142 0l30.594 30.594c3.905 3.905 3.906 10.237 0 14.143-1.953 1.952-4.512 2.929-7.071 2.929z" fill="#b3e9f8"/></g><g id="XMLID_2038_"><path id="XMLID_823_" d="m408.944 266h-94.947c-5.523 0-10-4.478-10-10s4.477-10 10-10h94.947c5.523 0 10 4.478 10 10s-4.477 10-10 10z" fill="#b3e9f8"/></g><g id="XMLID_2037_"><path id="XMLID_819_" d="m314 360.95c-2.63 0-5.21-1.07-7.08-2.931-1.86-1.859-2.92-4.439-2.92-7.069 0-2.631 1.06-5.21 2.92-7.07 1.87-1.86 4.44-2.93 7.08-2.93 2.63 0 5.21 1.069 7.07 2.93s2.93 4.439 2.93 7.07c0 2.63-1.07 5.21-2.93 7.069-1.87 1.861-4.44 2.931-7.07 2.931z" fill="#b3e9f8"/></g><g id="XMLID_2036_"><path id="XMLID_818_" d="m314 171.05c-2.63 0-5.21-1.07-7.07-2.93-1.87-1.86-2.93-4.44-2.93-7.07s1.06-5.21 2.93-7.07c1.86-1.859 4.43-2.93 7.07-2.93 2.63 0 5.21 1.07 7.07 2.93s2.93 4.44 2.93 7.07-1.07 5.21-2.93 7.07c-1.86 1.859-4.44 2.93-7.07 2.93z" fill="#b3e9f8"/></g><g id="XMLID_2035_"><path id="XMLID_817_" d="m219.05 266c-2.63 0-5.21-1.07-7.07-2.931-1.86-1.859-2.93-4.439-2.93-7.069s1.07-5.21 2.93-7.07 4.44-2.93 7.07-2.93 5.21 1.069 7.07 2.93c1.86 1.86 2.93 4.44 2.93 7.07s-1.07 5.21-2.93 7.069c-1.86 1.861-4.44 2.931-7.07 2.931z" fill="#b3e9f8"/></g></g><circle id="XMLID_2022_" cx="313.997" cy="256" fill="#ff9eb1" r="20.003"/></g><g id="XMLID_1553_" fill="#80b6ff"><path id="XMLID_1556_" d="m313.997 57.997c-65 0-122.78 31.486-158.903 80.003h-91.094c-5.523 0-10 4.478-10 10s4.477 10 10 10h77.996c-6.152 10.755-11.324 22.139-15.394 34.031-.202-.012-.403-.031-.608-.031h-115.994c-5.523 0-10 4.478-10 10s4.477 10 10 10h110.928c-2.509 11.016-4.102 22.377-4.683 34h-38.243c-5.523 0-10 4.478-10 10s4.477 10 10 10h38.243c1.594 31.886 10.769 61.808 25.751 88h-131.996c-5.523 0-10 4.478-10 10s4.477 10 10 10h145.094c36.122 48.518 93.903 80.003 158.903 80.003 109.179 0 198.003-88.823 198.003-198.003s-88.824-198.003-198.003-198.003zm0 376.006c-98.151 0-178.003-79.852-178.003-178.003s79.851-178.003 178.003-178.003 178.003 79.852 178.003 178.003-79.852 178.003-178.003 178.003z"/><path id="XMLID_1557_" d="m10 320h54c5.523 0 10-4.478 10-10s-4.477-10-10-10h-54c-5.523 0-10 4.478-10 10s4.477 10 10 10z"/></g></g></svg>