<svg id="Layer_1" enable-background="new 0 0 512 512" height="512" viewBox="0 0 512 512" width="512" xmlns="http://www.w3.org/2000/svg"><g><path d="m256 0c-76.368 0-138.499 62.13-138.499 138.499v86.07c0 8.534 6.919 15.453 15.453 15.453s15.453-6.919 15.453-15.453v-86.07c0-59.327 48.267-107.594 107.594-107.594s107.594 48.266 107.594 107.594v86.07c0 8.534 6.919 15.453 15.453 15.453s15.453-6.919 15.453-15.453v-86.07c-.002-76.369-62.133-138.499-138.501-138.499z" fill="#a8d3d8"/><path d="m294.424 512h-76.849c-88.018 0-159.37-71.353-159.37-159.37v-122.9c0-17.069 13.837-30.905 30.905-30.905h333.779c17.069 0 30.905 13.837 30.905 30.905v122.9c.001 88.017-71.352 159.37-159.37 159.37z" fill="#7ca1b1"/><path d="m422.889 198.825h-30.905c17.069 0 30.905 13.837 30.905 30.905v122.9c0 88.018-71.353 159.37-159.37 159.37h30.905c88.018 0 159.37-71.353 159.37-159.37v-122.9c.001-17.068-13.836-30.905-30.905-30.905z" fill="#678d98"/><path d="m298.794 295.626c1.077 17.672-8.561 33.209-23.033 40.742-1.365.71-2.227 2.113-2.227 3.651v74.423c0 9.684-7.85 17.534-17.534 17.534-9.684 0-17.534-7.85-17.534-17.534v-74.424c0-1.531-.851-2.935-2.21-3.641-13.744-7.146-23.133-21.51-23.133-38.067 0-24.686 20.852-44.504 45.907-42.782 21.288 1.463 38.467 18.799 39.764 40.098z" fill="#537983"/></g></svg>