<?xml version="1.0"?>
<svg xmlns="http://www.w3.org/2000/svg" xmlns:xlink="http://www.w3.org/1999/xlink" version="1.1" id="Layer_1" x="0px" y="0px" viewBox="0 0 512.002 512.002" style="enable-background:new 0 0 512.002 512.002;" xml:space="preserve" width="512px" height="512px"><g><g>
	<g>
		<polygon points="207.939,385.237 207.939,369.685 112.365,369.685 112.365,433.21 207.939,433.21 207.939,417.658     127.917,417.658 127.917,385.237   " data-original="#000000" class="active-path" data-old_color="#47b475" fill="#47b475"/>
	</g>
</g><g>
	<g>
		<rect x="152.251" y="393.94" width="32.14" height="15.551" data-original="#000000" class="active-path" data-old_color="#47b475" fill="#47b475"/>
	</g>
</g><g>
	<g>
		<polygon points="375.993,369.685 375.993,385.237 456.167,385.237 456.167,417.658 375.993,417.658 375.993,433.21     471.718,433.21 471.718,369.685   " data-original="#000000" class="active-path" data-old_color="#47b475" fill="#47b475"/>
	</g>
</g><g>
	<g>
		<rect x="400.036" y="393.94" width="32.14" height="15.551" data-original="#000000" class="active-path" data-old_color="#47b475" fill="#47b475"/>
	</g>
</g><g>
	<g>
		<path d="M359.701,393.944l0.156-16.264H224.3v16.264h-32.657v15.551H224.3v15.718h135.101l0.15-15.718h32.185v-15.551H359.701z     M344,409.663H239.852v-16.431h104.305L344,409.663z" data-original="#000000" class="active-path" data-old_color="#47b475" fill="#47b475"/>
	</g>
</g><g>
	<g>
		<rect x="160.545" y="337.955" width="63.242" height="15.551" data-original="#000000" class="active-path" data-old_color="#47b475" fill="#47b475"/>
	</g>
</g><g>
	<g>
		<rect x="359.603" y="337.955" width="64.279" height="15.551" data-original="#000000" class="active-path" data-old_color="#47b475" fill="#47b475"/>
	</g>
</g><g>
	<g>
		<rect x="232.081" y="337.955" width="120.264" height="15.551" data-original="#000000" class="active-path" data-old_color="#47b475" fill="#47b475"/>
	</g>
</g><g>
	<g>
		<polygon points="432.172,337.959 432.172,353.511 496.451,353.511 496.451,449.929 87.967,449.929 87.967,353.511     152.247,353.511 152.247,337.959 72.416,337.959 72.416,465.481 512.002,465.481 512.002,337.959   " data-original="#000000" class="active-path" data-old_color="#47b475" fill="#47b475"/>
	</g>
</g><g>
	<g>
		<path d="M241.765,297.728h-84.565c-18.277,0-33.146,14.868-33.146,33.145h15.551c0-9.701,7.893-17.594,17.595-17.594h84.565    c9.701,0,17.594,7.893,17.594,17.594h15.551C274.91,312.597,260.041,297.728,241.765,297.728z" data-original="#000000" class="active-path" data-old_color="#47b475" fill="#47b475"/>
	</g>
</g><g>
	<g>
		<path d="M427.809,297.728H317.874c-18.276,0-33.145,14.869-33.145,33.145h15.551c0-9.701,7.892-17.594,17.594-17.594H427.81    c9.701,0,17.593,7.892,17.593,17.594h15.551C460.954,312.597,446.085,297.728,427.809,297.728z" data-original="#000000" class="active-path" data-old_color="#47b475" fill="#47b475"/>
	</g>
</g><g>
	<g>
		<path d="M262.148,90.697c-26.114-26.113-68.6-26.113-94.713,0c-26.112,26.112-26.112,68.599,0,94.712    c13.056,13.056,30.206,19.584,47.356,19.584s34.3-6.529,47.357-19.584C288.26,159.298,288.26,116.81,262.148,90.697z     M251.149,174.413c-20.049,20.049-52.671,20.049-72.719,0c-20.047-20.049-20.047-52.672,0.001-72.719    c9.711-9.712,22.624-15.061,36.359-15.061c13.735,0,26.648,5.349,36.359,15.061C271.198,121.743,271.198,154.365,251.149,174.413z    " data-original="#000000" class="active-path" data-old_color="#47b475" fill="#47b475"/>
	</g>
</g><g>
	<g>
		<path d="M279.543,73.3c-35.705-35.705-93.799-35.705-129.504,0c-17.296,17.296-26.82,40.292-26.82,64.752    c0,21.848,7.618,42.515,21.567,59.008l-13.229,13.231l10.997,10.996l13.234-13.234c16.986,14.337,37.988,21.529,59.003,21.529    c23.449,0,46.899-8.925,64.752-26.779c17.296-17.296,26.82-40.292,26.82-64.752C306.363,113.592,296.839,90.597,279.543,73.3z     M268.547,191.808c-14.358,14.358-33.449,22.267-53.755,22.267c-20.306,0-39.397-7.907-53.755-22.267    c-14.359-14.358-22.267-33.449-22.267-53.755c0-20.306,7.907-39.397,22.267-53.756c14.819-14.82,34.287-22.23,53.755-22.23    c19.467,0,38.936,7.411,53.755,22.23C298.188,113.938,298.188,162.167,268.547,191.808z" data-original="#000000" class="active-path" data-old_color="#47b475" fill="#47b475"/>
	</g>
</g><g>
	<g>
		
			<rect x="15.662" y="304.037" transform="matrix(0.7071 -0.7071 0.7071 0.7071 -226.0609 113.0536)" width="15.551" height="50.74" data-original="#000000" class="active-path" data-old_color="#47b475" fill="#47b475"/>
	</g>
</g><g>
	<g>
		<path d="M113.136,204.793l-9.617,9.618v-84.84h8.294v-15.551H87.967v115.943l-69.543,69.544l34.915,34.915l34.628-34.628v29.872    h15.551v-45.425l44.533-44.533L113.136,204.793z M53.339,312.428l-12.922-12.922l72.719-72.72l12.923,12.922L53.339,312.428z" data-original="#000000" class="active-path" data-old_color="#47b475" fill="#47b475"/>
	</g>
</g><g>
	<g>
		<polygon points="311.908,114.019 311.908,129.57 479.863,129.57 479.863,329.665 495.414,329.665 495.414,114.019   " data-original="#000000" class="active-path" data-old_color="#47b475" fill="#47b475"/>
	</g>
</g><g>
	<g>
		
			<rect x="187.516" y="111.378" transform="matrix(0.7071 -0.7071 0.7071 0.7071 -25.8296 175.9492)" width="23.918" height="15.551" data-original="#000000" class="active-path" data-old_color="#47b475" fill="#47b475"/>
	</g>
</g><g>
	<g>
		
			<rect x="190.722" y="132.516" transform="matrix(0.7071 -0.7071 0.7071 0.7071 -34.583 197.0926)" width="59.797" height="15.551" data-original="#000000" class="active-path" data-old_color="#47b475" fill="#47b475"/>
	</g>
</g><g>
	<g>
		<polygon points="432.172,233.247 432.172,273.68 311.908,273.68 311.908,233.247 296.356,233.247 296.356,289.232     447.723,289.232 447.723,233.247   " data-original="#000000" class="active-path" data-old_color="#47b475" fill="#47b475"/>
	</g>
</g><g>
	<g>
		<polygon points="255.923,233.247 255.923,273.68 159.504,273.68 159.504,257.092 143.952,257.092 143.952,289.232     271.474,289.232 271.474,233.247   " data-original="#000000" class="active-path" data-old_color="#47b475" fill="#47b475"/>
	</g>
</g><g>
	<g>
		<path d="M432.172,185.556v-8.294h8.294V161.71H416.62v23.845h-16.588V161.71h-71.536v23.845h-16.588v15.551h128.558v8.294H288.062    v15.551h167.955v-39.397H432.172z M384.481,185.556h-40.434v-8.294h40.434V185.556z" data-original="#000000" class="active-path" data-old_color="#47b475" fill="#47b475"/>
	</g>
</g><g>
	<g>
		<rect x="416.625" y="137.86" width="16.588" height="15.551" data-original="#000000" class="active-path" data-old_color="#47b475" fill="#47b475"/>
	</g>
</g></g> </svg>
