<?xml version="1.0" encoding="iso-8859-1"?>
<!-- Generator: Adobe Illustrator 19.0.0, SVG Export Plug-In . SVG Version: 6.00 Build 0)  -->
<svg version="1.1" id="Capa_1" xmlns="http://www.w3.org/2000/svg" xmlns:xlink="http://www.w3.org/1999/xlink" x="0px" y="0px"
	 viewBox="0 0 480 480" style="enable-background:new 0 0 480 480;" xml:space="preserve">
<path style="fill:#EFE5D3;" d="M206.64,392.008l116.064,0.152c8.512,0.008,16.68-3.368,22.688-9.392l69.488-69.616
	c9.04-9.056,7.968-24.008-2.264-31.68c-7.48-5.608-17.76-5.608-25.24,0L336,320h-8.4c0,0.016,0,0.032,0.008,0.04
	c0-0.016,0-0.032-0.008-0.04c-1.856-9.128-9.92-16-19.6-16h-52l-19.968-13.312c-2.632-1.752-5.72-2.688-8.88-2.688H173.92
	c-3.816,0-7.512,1.368-10.416,3.848L112,336l72,72l11.304-11.304C198.312,393.688,202.392,392,206.64,392.008z M327.28,329.04
	c0.096-0.368,0.248-0.704,0.32-1.08C327.528,328.336,327.376,328.672,327.28,329.04c-0.216,0.832-0.432,1.664-0.76,2.44
	C326.848,330.704,327.064,329.872,327.28,329.04z"/>
<polygon style="fill:#68C9BA;" points="96,320 48,368 152,472 200,424 184,408 112,336 "/>
<g>
	<path style="fill:#F7BA21;" d="M263.432,56.84C255.72,56.296,247.912,56,240,56s-15.72,0.296-23.432,0.84
		C110.272,64.352,25.16,123.288,10.336,224H8v32h464v-32h-2.336C454.84,123.288,369.728,64.352,263.432,56.84z"/>
	<path style="fill:#F7BA21;" d="M263.432,56.84c0.184,0.016,0.384,0.008,0.568,0.024V24c0-8.84-7.16-16-16-16h-16
		c-8.84,0-16,7.16-16,16v32.864c0.184-0.016,0.384-0.008,0.568-0.024C224.28,56.296,232.088,56,240,56
		C247.912,56,255.72,56.296,263.432,56.84z"/>
</g>
<g>
	<path style="fill:#353535;" d="M322.744,400.16c10.552,0,20.864-4.28,28.312-11.736l69.496-69.624
		c5.944-5.952,9.008-14.184,8.416-22.576c-0.6-8.4-4.816-16.104-11.536-21.152c-10.264-7.696-24.584-7.696-34.832,0L333.336,312
		h-0.144c-4.512-9.424-14.064-16-25.192-16h-49.576l-17.944-11.968c-3.96-2.64-8.56-4.032-13.32-4.032h-53.24
		c-5.728,0-11.272,2.048-15.616,5.776l-45.888,39.328l-10.76-10.76c-3.128-3.128-8.184-3.128-11.312,0l-48,48
		c-3.128,3.128-3.128,8.184,0,11.312l104,104c1.56,1.56,3.608,2.344,5.656,2.344s4.096-0.784,5.656-2.344l48-48
		c3.128-3.128,3.128-8.184,0-11.312L195.312,408l5.648-5.648c1.512-1.512,3.52-2.344,5.664-2.344c0,0,0,0,0.008,0l116.064,0.152
		C322.712,400.16,322.728,400.16,322.744,400.16z M152,460.688L59.312,368L96,331.312L188.688,424L152,460.688z M206.624,384.008
		c-6.416,0-12.448,2.496-16.976,7.032L184,396.688l-60.24-60.24l44.944-38.528c1.464-1.24,3.312-1.92,5.216-1.92h53.232
		c1.584,0,3.12,0.464,4.44,1.344l19.968,13.312c1.312,0.872,2.864,1.344,4.44,1.344h52c6.616,0,11.992,5.376,12,11.984
		c0,0.168-0.04,0.328-0.048,0.496c-0.024,0.648-0.064,1.288-0.192,1.912c-1.088,5.48-6.576,9.608-12.792,9.608H232v16h74.968H308
		c8.392,0,15.84-3.784,20.976-9.648c0.048-0.056,0.096-0.12,0.144-0.176c0.936-1.088,1.816-2.216,2.584-3.44
		c0.36-0.56,0.64-1.176,0.96-1.768c0.44-0.832,0.912-1.632,1.264-2.512c0.488-1.192,0.84-2.456,1.16-3.728
		c0.104-0.408,0.272-0.792,0.352-1.208c0.008-0.04,0.024-0.08,0.032-0.12c0.096-0.472,0.168-0.936,0.24-1.408H336
		c1.736,0,3.416-0.56,4.8-1.6l51.392-38.536c4.592-3.456,11.024-3.456,15.632,0c3.024,2.264,4.904,5.72,5.176,9.496
		c0.264,3.768-1.112,7.464-3.784,10.136l-69.496,69.624c-4.464,4.472-10.648,7.04-16.984,7.04c-0.008,0-0.016,0-0.032,0L206.64,384
		C206.64,384.008,206.632,384.008,206.624,384.008z"/>
	<polygon style="fill:#353535;" points="16,48 32,48 32,32 48,32 48,16 32,16 32,0 16,0 16,16 0,16 0,32 16,32 	"/>
	<polygon style="fill:#353535;" points="80,64 96,64 96,48 112,48 112,32 96,32 96,16 80,16 80,32 64,32 64,48 80,48 	"/>
	<path style="fill:#353535;" d="M336,128v16c30.872,0,56,25.12,56,56h16C408,160.304,375.704,128,336,128z"/>
	<path style="fill:#353535;" d="M476.696,217.696C460.376,123.352,381.96,59.792,272,49.504V24c0-13.232-10.768-24-24-24h-16
		c-13.232,0-24,10.768-24,24v25.504C98.04,59.792,19.624,123.352,3.304,217.696C1.352,219.152,0,221.376,0,224v32
		c0,4.416,3.576,8,8,8h464c4.424,0,8-3.584,8-8v-32C480,221.376,478.648,219.152,476.696,217.696z M224,48.376V24
		c0-4.408,3.584-8,8-8h16c4.416,0,8,3.592,8,8v24.376c-0.368-0.016-0.744-0.008-1.112-0.024C249.976,48.144,245.024,48,240,48
		s-9.976,0.144-14.888,0.352C224.744,48.368,224.368,48.36,224,48.376z M217.184,64.824c15.08-1.064,30.56-1.064,45.64,0
		C367.536,72.088,443.032,129.504,460.168,216H19.832C36.968,129.504,112.464,72.088,217.184,64.824z M464,248H16v-16h448V248z"/>
</g>
<g>
</g>
<g>
</g>
<g>
</g>
<g>
</g>
<g>
</g>
<g>
</g>
<g>
</g>
<g>
</g>
<g>
</g>
<g>
</g>
<g>
</g>
<g>
</g>
<g>
</g>
<g>
</g>
<g>
</g>
</svg>
