<svg id="Capa_1" enable-background="new 0 0 512 512" height="512" viewBox="0 0 512 512" width="512" xmlns="http://www.w3.org/2000/svg"><g><path d="m321.893 38.083h-131.786c-12.86 0-23.025 10.9-22.129 23.729l3.486 49.895h169.073l3.486-49.895c.895-12.829-9.27-23.729-22.13-23.729z" fill="#daa985"/><path d="m234.588 38.083h-44.481c-12.86 0-23.025 10.9-22.129 23.729l3.486 49.895h80.053c-17.883-13.377-23.153-56.544-16.929-73.624z" fill="#d2896f"/><path d="m91.762 302.619c50.213 48.845 127.651 48.845 193.149 24.13l140.637-13.519.018-.004c-16.459-36.188-46.349-65.979-83.982-84.155-11.102-5.362-17.146-17.579-14.749-29.673l12.883-65.004h-167.435l12.883 65.004c2.397 12.094-3.647 24.311-14.749 29.673-33.891 16.369-61.503 42.158-78.681 73.555z" fill="#efedff"/><path d="m91.762 302.619c24.392 23.728 55.209 35.927 87.961 39.368 5.049-28.997 15.982-56.074 29.997-76.874 15.661-23.244 19.637-46.394 14.801-65.454-1.271-5.01 2.58-9.834 7.746-9.666 7.661.25 15.598.393 23.733.393 27.827 0 53.36-1.671 73.326-3.558l10.392-52.434h-167.435l12.883 65.004c2.397 12.094-3.647 24.311-14.749 29.673-33.891 16.369-61.503 42.158-78.681 73.555z" fill="#d4d4ff"/><path d="m256 155.386c-42.818 0-79.962-4.146-98.292-6.617-14.811-1.997-25.198-15.622-23.202-30.433 1.997-14.81 15.62-25.193 30.433-23.202 16.986 2.29 51.403 6.132 91.061 6.132 39.659 0 74.075-3.842 91.06-6.132 14.805-1.995 28.435 8.39 30.433 23.202 1.997 14.811-8.391 28.436-23.201 30.433-18.33 2.471-55.473 6.617-98.292 6.617z" fill="#efedff"/><path d="m425.548 313.229-140.637 13.519c-28.765-13.009-60.719-22.875-92.961-27.752-77.468 65.803-63.509 175.73 51.142 205.504h116.994c20.964 0 40.668-10.328 52.325-27.752 18.579-27.77 27.174-62.008 27.174-99.047.001-22.847-5.006-44.617-14.037-64.472z" fill="#8ee2e1"/><g fill="#6ad7d4"><path d="m191.951 298.996c-34.225-5.177-68.776-4.729-100.189 3.623-12.367 22.597-19.348 48.09-19.348 75.083 0 37.039 8.594 71.277 27.174 99.047 11.658 17.424 31.361 27.752 52.325 27.752h91.18c-75.467-48.509-77.409-140.319-51.142-205.505z"/><path d="m424.609 311.162c20.704 41.924-69.849 47.174-139.697 15.586 40.524-29.347 121.428-52.578 139.697-15.586z"/><circle cx="451.922" cy="175.692" r="41.298"/><ellipse cx="49.363" cy="216.99" rx="30.583" ry="30.583" transform="matrix(.927 -.376 .376 .927 -77.896 34.434)"/></g><circle cx="427.615" cy="38.083" fill="#8ee2e1" r="30.583"/><g><g><ellipse cx="176.355" cy="434.316" fill="#fff" rx="29.387" ry="23.403"/><ellipse cx="335.645" cy="434.316" fill="#fff" rx="29.387" ry="23.403"/><path d="m279.694 416.335c0-14.643-10.608-16.019-23.694-16.019-13.085 0-23.693 1.376-23.693 16.019s10.608 26.513 23.693 26.513c13.086 0 23.694-11.87 23.694-26.513z" fill="#565e75"/></g></g><path d="m427.615 76.166c20.999 0 38.083-17.084 38.083-38.083-.001-20.999-17.085-38.083-38.083-38.083-20.999 0-38.083 17.084-38.083 38.083s17.084 38.083 38.083 38.083zm0-61.166c12.728 0 23.083 10.355 23.083 23.083s-10.355 23.083-23.083 23.083-23.083-10.355-23.083-23.083 10.355-23.083 23.083-23.083zm-340.169 201.99c0-20.999-17.084-38.083-38.083-38.083s-38.083 17.084-38.083 38.083 17.084 38.083 38.083 38.083c20.999-.001 38.083-17.085 38.083-38.083zm-38.083 23.082c-12.728 0-23.083-10.355-23.083-23.083s10.355-23.083 23.083-23.083 23.083 10.355 23.083 23.083-10.355 23.083-23.083 23.083zm402.558-113.178c-26.907 0-48.798 21.891-48.798 48.798 0 26.908 21.891 48.798 48.798 48.798 26.908 0 48.798-21.891 48.798-48.798.001-26.908-21.89-48.798-48.798-48.798zm0 82.596c-18.636 0-33.798-15.162-33.798-33.798s15.162-33.798 33.798-33.798 33.798 15.162 33.798 33.798-15.161 33.798-33.798 33.798zm-175.775 186.655c-5.449-2.763-11.994-3.329-20.146-3.329s-14.697.566-20.146 3.329c-5.04 2.556-11.047 8.133-11.047 20.19 0 18.755 13.993 34.013 31.193 34.013s31.193-15.258 31.193-34.013c0-12.057-6.007-17.634-11.047-20.19zm-20.146 39.203c-8.929 0-16.193-8.529-16.193-19.013 0-5.907.655-8.519 16.193-8.519s16.193 2.612 16.193 8.519c0 10.484-7.264 19.013-16.193 19.013zm88.846-213.031c-8.01-3.869-12.392-12.695-10.654-21.462l8.539-43.083c4.815-.558 9.036-1.095 12.564-1.57 18.885-2.547 32.177-19.983 29.631-38.867-2.379-17.645-17.763-30.404-35.173-29.928l1.752-25.073c1.197-17.149-12.421-31.751-29.611-31.751h-104.138c-4.142 0-7.5 3.358-7.5 7.5s3.358 7.5 7.5 7.5h104.138c8.47 0 15.245 7.157 14.647 15.706l-1.945 27.846c-51.79 5.994-102.65 6.312-157.19 0l-1.945-27.845c-.452-6.476 3.309-12.395 9.36-14.73 3.865-1.491 5.789-5.833 4.297-9.697-1.491-3.865-5.836-5.789-9.697-4.297-12.233 4.72-19.838 16.683-18.925 29.77l1.752 25.073c-17.415-.475-32.794 12.286-35.174 29.927-2.546 18.884 10.747 36.32 29.632 38.867 3.527.476 7.749 1.013 12.564 1.57l8.539 43.083c1.737 8.767-2.644 17.593-10.654 21.462-63.064 30.46-102.24 89.999-102.24 155.385 0 40.283 9.568 75.011 28.44 103.217 13.021 19.461 34.912 31.08 58.558 31.08h188.578c4.142 0 7.5-3.358 7.5-7.5s-3.358-7.5-7.5-7.5h-188.578c-18.629 0-35.86-9.13-46.092-24.422-17.19-25.695-25.907-57.616-25.907-94.876 0-24.202 5.929-47.544 16.846-68.603 53.112-13.098 121.986-4.041 185.06 24.482 26.049 11.781 56.941 19.345 84.756 20.755 19.146.969 46.907-.574 60.709-13.909 3.145 12.05 4.799 24.541 4.799 37.274 0 37.261-8.716 69.182-25.907 94.876-7.505 11.218-18.918 19.266-32.137 22.661-4.012 1.03-6.429 5.118-5.398 9.13 1.03 4.011 5.117 6.429 9.13 5.398 16.797-4.314 31.312-14.559 40.872-28.848 18.872-28.207 28.44-62.934 28.44-103.217.001-65.385-39.174-124.925-102.238-155.384zm-186.136-80.981c-10.688-1.442-18.212-11.31-16.771-21.997 1.323-9.805 9.742-16.947 19.378-16.947.865 0 1.74.058 2.62.176 61.021 8.228 123.105 8.228 184.124 0 10.689-1.438 20.557 6.083 21.999 16.771 1.441 10.688-6.083 20.556-16.771 21.998-63.846 8.605-129.451 8.778-194.579-.001zm259.176 173.15c2.687 5.446 3.51 10.492-.654 14.8-7.16 7.408-26.275 11.266-49.896 10.07-21.559-1.092-45.105-6.156-66.432-14.138 34.646-20.741 77.056-29.276 98.548-23.956 14.928 3.694 17.55 12.183 18.434 13.224zm-133.808 3.696c-54.163-23.736-119.118-36.702-176.665-26.645 16.096-23.046 38.681-42.39 66.265-55.713 14.16-6.839 21.91-22.418 18.845-37.885l-7.635-38.523c48.264 4.587 93.378 4.642 142.225 0l-7.635 38.523c-3.065 15.467 4.685 31.045 18.845 37.885 25.424 12.28 46.609 29.67 62.375 50.362-33.641-6.951-85.065 10.565-116.62 31.996zm39.154 76.194v12c0 4.142 3.358 7.5 7.5 7.5s7.5-3.358 7.5-7.5v-12c0-4.142-3.358-7.5-7.5-7.5s-7.5 3.358-7.5 7.5zm-149.464 0v12c0 4.142 3.358 7.5 7.5 7.5s7.5-3.358 7.5-7.5v-12c0-4.142-3.358-7.5-7.5-7.5s-7.5 3.358-7.5 7.5z"/></g></svg>