<svg xmlns="http://www.w3.org/2000/svg" viewBox="0 0 487.992 487.992"><path d="M207.677 17.656l8.64 13.472a97.33 97.33 0 0 1 103.336 0l8.64-13.472a111.83 111.83 0 0 0-120.616 0zm-35.68 94.336h-16a111.21 111.21 0 0 0 8.624 43.112l14.768-6.176a95.18 95.18 0 0 1-7.392-36.936zm132.896 88.616a94.96 94.96 0 0 1-36.896 7.384v16a110.99 110.99 0 0 0 43.088-8.616l-6.192-14.768zm59.104-88.616c.022 12.673-2.5 25.223-7.384 36.912l14.768 6.176a111.03 111.03 0 0 0 8.616-43.088h-16zm-96-80c-44.183 0-80 35.817-80 80s35.817 80 80 80c44.163-.05 79.952-35.837 80-80 0-44.182-35.817-80-80-80zm0 144c-35.346 0-64-28.654-64-64s28.654-64 64-64 64 28.654 64 64c-.04 35.33-28.67 63.96-64 64zm17.6-66.552l-9.6-3.2V85.712a12 12 0 0 1 8 10.28h16c-.715-13.5-10.676-24.7-24-27.008v-4.992h-16v4.992c-13.324 2.297-23.285 13.507-24 27.008.314 8.636 6.112 16.106 14.4 18.552l9.6 3.2v20.512a12 12 0 0 1-8-10.264h-16c.715 13.5 10.676 24.7 24 27.008v4.992h16V155c13.324-2.297 23.285-13.507 24-27.008-.314-8.636-6.112-16.105-14.4-18.552zm-25.6-8.528l-4.56-1.536c-2.024-.68-3.44-2.072-3.44-3.384a12 12 0 0 1 8-10.28v15.2zm16 37.36v-15.2l4.56 1.536c2.024.68 3.44 2.072 3.44 3.384a12 12 0 0 1-8 10.28zm205.656 192.064l-26.344-26.344 26.344-26.344a8 8 0 0 0 0-11.312l-104-104a8 8 0 0 0-11.312 0L263.997 264.68 153.653 154.336a8 8 0 0 0-11.312 0l-104 104a8 8 0 0 0 0 11.312l58.344 58.344H3.997v16h104a7.89 7.89 0 0 0 3.152-.648l54.488-23.352h118.36v32h-88a8 8 0 0 0-3.352 15.264l104 48a8 8 0 0 0 8-.8l138.552-99.984 21.064 21.064-159.224 136.456H261.43l-150.664-55.504a8.02 8.02 0 0 0-2.768-.496h-104v16h102.568l150.664 55.504c.886.328 1.823.495 2.768.496h48a7.95 7.95 0 0 0 5.2-1.928l168-144a8 8 0 0 0 .87-11.28l-.414-.448zm-317.656-26.344c-1.084-.003-2.157.217-3.152.648l-1.944.8c7.9-20.498 30.92-30.712 51.418-22.813a39.78 39.78 0 0 1 22.222 21.365h-68.544zm85.64 0c-7.004-23.772-28.858-40.068-53.64-40-28.3.17-52.1 21.314-55.592 49.408l-24.984 10.704-60.112-60.112 92.688-92.688 132.688 132.688h-31.048zm49.472 94.776l-66.688-30.776h59.576a8 8 0 0 0 8-8v-36.688l43.44 43.44-44.328 32.024zm1.64-97.336c3.03-17.077 17.904-29.5 35.248-29.44 19.838-.036 35.95 16.016 35.986 35.854.032 17.358-12.354 32.255-29.426 35.394l-41.808-41.808zm54.792 54.776c3.2-1.302 6.278-2.926 9.165-4.84l-8.133 5.87-1.032-1.032zm83.264-58.336l-70.496 50.92c22.46-17.898 26.157-50.615 8.258-73.074s-50.615-26.157-73.074-8.258a52.03 52.03 0 0 0-15.73 20.996l-12.456-12.464 96.688-96.688 92.688 92.688-25.88 25.88z"/></svg>