<?xml version="1.0" encoding="iso-8859-1"?>
<!-- Generator: Adobe Illustrator 19.0.0, SVG Export Plug-In . SVG Version: 6.00 Build 0)  -->
<svg xmlns="http://www.w3.org/2000/svg" xmlns:xlink="http://www.w3.org/1999/xlink" version="1.1" id="Capa_1" x="0px" y="0px" viewBox="0 0 496 496" style="enable-background:new 0 0 496 496;" xml:space="preserve" width="512px" height="512px">
<g>
	<g>
		<g>
			<path d="M248,208.432l108.216-36.072L248,1.016L139.784,172.36L248,208.432z M256,43.648l75.784,119.992L256,188.904V43.648z      M240,188.904l-75.784-25.264L240,43.648V188.904z" fill="#47b475"/>
			<polygon points="240,224 240,296 158.4,187.2 145.6,196.8 248,333.336 350.4,196.8 337.6,187.2 256,296 256,224    " fill="#47b475"/>
			<path d="M384,168c0,63.864-43.496,118.36-105.776,132.496l3.544,15.608c30.376-6.904,56.752-22.392,76.832-43.592l20.696,17.592     C377.256,294.328,376,299,376,304c0,17.648,14.352,32,32,32s32-14.352,32-32s-14.352-32-32-32c-6.848,0-13.168,2.208-18.376,5.88     l-20.712-17.608C388.536,234.568,400,202.544,400,168s-11.464-66.568-31.096-92.28l20.712-17.608     C394.832,61.792,401.152,64,408,64c17.648,0,32-14.352,32-32S425.648,0,408,0s-32,14.352-32,32c0,5,1.256,9.672,3.304,13.896     l-20.696,17.592c-20.088-21.2-46.456-36.696-76.832-43.592l-3.544,15.608C340.504,49.64,384,104.136,384,168z M408,288     c8.824,0,16,7.176,16,16c0,8.824-7.176,16-16,16c-8.824,0-16-7.176-16-16C392,295.176,399.176,288,408,288z M408,16     c8.824,0,16,7.176,16,16s-7.176,16-16,16c-8.824,0-16-7.176-16-16S399.176,16,408,16z" fill="#47b475"/>
			<path d="M0,408c0,22.056,17.944,40,40,40h120v32h-32v16h240v-16h-32v-32h120c22.056,0,40-17.944,40-40v-24H0V408z M320,480H176     v-32h144V480z M16,400h464v8c0,13.232-10.768,24-24,24H40c-13.232,0-24-10.768-24-24V400z" fill="#47b475"/>
			<path d="M456,80h-64v16h64c13.232,0,24,10.768,24,24v248h16V120C496,97.944,478.056,80,456,80z" fill="#47b475"/>
			<path d="M16,120c0-13.232,10.768-24,24-24h64V80H40C17.944,80,0,97.944,0,120v248h16V120z" fill="#47b475"/>
			<path d="M88,64c6.848,0,13.168-2.208,18.376-5.88l20.712,17.608C107.464,101.432,96,133.456,96,168s11.464,66.568,31.096,92.28     l-20.712,17.608C101.168,274.208,94.848,272,88,272c-17.648,0-32,14.352-32,32s14.352,32,32,32s32-14.352,32-32     c0-5-1.256-9.672-3.304-13.896l20.696-17.592c20.088,21.2,46.456,36.696,76.832,43.592l3.544-15.608     C155.496,286.36,112,231.864,112,168S155.496,49.64,217.776,35.504l-3.544-15.608C183.856,26.8,157.48,42.288,137.4,63.488     l-20.696-17.592C118.744,41.672,120,37,120,32c0-17.648-14.352-32-32-32S56,14.352,56,32S70.352,64,88,64z M88,320     c-8.824,0-16-7.176-16-16c0-8.824,7.176-16,16-16s16,7.176,16,16C104,312.824,96.824,320,88,320z M88,16c8.824,0,16,7.176,16,16     s-7.176,16-16,16s-16-7.176-16-16S79.176,16,88,16z" fill="#47b475"/>
		</g>
	</g>
</g>
<g>
</g>
<g>
</g>
<g>
</g>
<g>
</g>
<g>
</g>
<g>
</g>
<g>
</g>
<g>
</g>
<g>
</g>
<g>
</g>
<g>
</g>
<g>
</g>
<g>
</g>
<g>
</g>
<g>
</g>
</svg>
