<svg id="color" enable-background="new 0 0 24 24" height="512" viewBox="0 0 24 24" width="512" xmlns="http://www.w3.org/2000/svg"><g><g><path d="m7.25 14.981c-.414 0-.75-.336-.75-.75v-2c0-.414.336-.75.75-.75s.75.336.75.75v2c0 .414-.336.75-.75.75z" fill="#ff9800"/></g></g><g><g><path d="m2.75 14.98c-.414 0-.75-.335-.75-.75v-2c0-.414.336-.75.75-.75s.75.336.75.75v2c0 .415-.336.75-.75.75z" fill="#ff9800"/></g></g><g><g><path d="m2.75 11.48c-.414 0-.75.336-.75.75v2c0 .414.336.75.75.75z" fill="#de8400"/></g></g><g><g><path d="m7.25 11.48c-.414 0-.75.336-.75.75v2c0 .414.336.75.75.75z" fill="#de8400"/></g></g><g><g><path d="m23.25 8.098c-.064 0-.13-.008-.194-.025l-4.098-1.098c-.293-.079-.51-.326-.549-.627-.04-.3.106-.596.369-.747l2.598-1.5c.357-.207.817-.085 1.024.274l1.5 2.598c.152.263.13.591-.054.832-.145.188-.367.293-.596.293z" fill="#4caf50"/></g></g><g><g><path d="m9.25 12.98h-8.5c-.414 0-.75-.335-.75-.75v-.92c0-.735.286-1.426.806-1.945l1.194-1.195v-2.627c0-1.175.354-2.307 1.021-3.273l1.362-1.966c.279-.405.953-.405 1.232 0l1.363 1.966c.668.966 1.022 2.098 1.022 3.273v2.627l1.194 1.194c.52.52.806 1.21.806 1.946v.921c0 .414-.336.749-.75.749z" fill="#eceff1"/></g></g><g><g><path d="m5 0c-.238 0-.477.101-.616.304l-1.363 1.966c-.667.966-1.021 2.098-1.021 3.273v2.627l-1.194 1.194c-.52.52-.806 1.21-.806 1.946v.921c0 .414.336.75.75.75h1.25 1.5 1.5z" fill="#cdd0d2"/></g></g><g><g><path d="m.856 20.081-.127-.001c-.414-.012-.74-.357-.729-.77.012-.415.345-.75.77-.73.044 0 4.206.092 8.768-1.611 6.033-2.252 9.888-6.424 11.456-12.399.105-.4.513-.639.916-.535.4.105.64.515.535.916-3.87 14.748-19.986 15.13-21.589 15.13z" fill="#4caf50"/></g></g><g><g><path d="m12 15.882c-.775.402-1.596.764-2.461 1.087-4.118 1.537-7.91 1.612-8.642 1.612-.079 0-.122-.001-.126-.001-.012-.001-.025-.001-.037-.001-.407 0-.722.327-.733.73-.011.413.314.759.729.77l.127.001c.869 0 6.006-.112 11.144-2.567v-1.631z" fill="#429846"/></g></g><g><g><path d="m3.75 24c-.552 0-1-.447-1-1v-.5c0-.553.448-1 1-1s1 .447 1 1v.5c0 .553-.448 1-1 1z" fill="#90caf9"/></g></g><g><g><path d="m3.75 21.5c-.552 0-1 .447-1 1v.5c0 .553.448 1 1 1z" fill="#7db0d9"/></g></g><g><g><path d="m21.75 24c-.552 0-1-.447-1-1v-12c0-.552.448-1 1-1s1 .448 1 1v12c0 .553-.448 1-1 1z" fill="#2196f3"/></g></g><g><g><path d="m15.75 24c-.552 0-1-.447-1-1v-5c0-.553.448-1 1-1s1 .447 1 1v5c0 .553-.448 1-1 1z" fill="#42a5f5"/></g></g><g><g><path d="m9.75 24c-.552 0-1-.447-1-1v-2c0-.553.448-1 1-1s1 .447 1 1v2c0 .553-.448 1-1 1z" fill="#64b5f6"/></g></g><g><g><path d="m9.75 20c-.552 0-1 .447-1 1v2c0 .553.448 1 1 1z" fill="#579ed6"/></g></g><g><g><path d="m15.75 17c-.552 0-1 .447-1 1v5c0 .553.448 1 1 1z" fill="#3990d5"/></g></g><g><g><path d="m21.75 10c-.552 0-1 .448-1 1v12c0 .553.448 1 1 1z" fill="#1d83d4"/></g></g></svg>