<svg height="512pt" viewBox="0 0 512.08756 512" width="512pt" xmlns="http://www.w3.org/2000/svg"><path d="m512.085938 491.242188-106.589844-160c-15.210938-22.8125-41.046875-36.246094-68.457032-35.597657-27.414062.648438-52.582031 15.289063-66.695312 38.800781l-106.527344 177.597657h348.269532zm0 0" fill="#53b787"/><path d="m.0859375 512.042969h349.8906245l-120.480468-180.800781c-15.210938-22.8125-41.046875-36.246094-68.457032-35.597657-27.414062.648438-52.582031 15.289063-66.695312 38.800781l-94.2578125 157.152344zm0 0" fill="#67ce91"/><path d="m240.085938 448.042969h32v32h-32zm0 0" fill="#fff"/><path d="m176.085938 448.042969h32v32h-32zm0 0" fill="#fff"/><g fill="#f7d260"><path d="m128.085938 256.042969c-55.160157.039062-104.144532-35.269531-121.546876-87.613281-17.40625-52.34375.683594-109.953126 44.886719-142.953126 44.199219-33 104.574219-33.972656 149.8125-2.410156l18.800781 13.136719-18.785156 13.121094c-25.789062 17.910156-41.171875 47.320312-41.171875 78.71875 0 31.402343 15.382813 60.808593 41.171875 78.722656l18.785156 13.117187-18.800781 13.136719c-21.433593 15.015625-46.980469 23.054688-73.152343 23.023438zm0 0"/><path d="m288.085938 128.042969h32v32h-32zm0 0"/><path d="m352.085938 128.042969h32v32h-32zm0 0"/></g></svg>