<svg id="Capa_1" enable-background="new 0 0 512.015 512.015" height="512" viewBox="0 0 512.015 512.015" width="512" xmlns="http://www.w3.org/2000/svg"><g><path d="m51.827 225.869h405.463c3.866 0 7-3.134 7-7v-211.865c0-3.866-3.134-7-7-7h-405.463c-3.866 0-7 3.134-7 7v211.865c0 3.866 3.134 7 7 7z" fill="#ade194"/><path d="m65.607 0v225.869h-13.775c-3.866 0-7-3.134-7-7v-211.869c0-3.866 3.134-7 7-7z" fill="#7dce6f"/><path d="m429.974 163.387-28.166 28.166c-1.313 1.313-3.093 2.05-4.95 2.05h-284.599c-1.857 0-3.637-.738-4.95-2.05l-28.166-28.166c-1.313-1.313-2.05-3.093-2.05-4.95v-91.007c0-1.852.734-3.629 2.042-4.941l28.173-28.268c1.313-1.318 3.097-2.059 4.958-2.059h284.585c1.861 0 3.645.741 4.958 2.059l28.173 28.268c1.308 1.312 2.042 3.089 2.042 4.941v91.007c0 1.857-.738 3.637-2.05 4.95z" fill="#7dce6f"/><path d="m97.871 161.341 32.264 32.264h-17.876c-1.857 0-3.637-.738-4.95-2.05l-28.164-28.164c-1.313-1.313-2.05-3.093-2.05-4.95v-91.01c0-1.852.734-3.629 2.042-4.941l28.171-28.27c1.313-1.318 3.098-2.059 4.958-2.059h17.869l-32.264 32.377z" fill="#79c469"/><ellipse cx="254.559" cy="112.882" fill="#ffde5c" rx="64.533" ry="80.721"/><g><g fill="#ffde5c"><circle cx="133.56" cy="112.937" r="16.133"/><circle cx="375.558" cy="112.937" r="16.133"/></g></g><g><path d="m287.928 104.228h-66.739c-4.303 0-7.791-3.488-7.791-7.791s3.488-7.791 7.791-7.791h47.931l-2.834-2.834c-3.042-3.042-3.042-7.975.001-11.018 3.042-3.042 7.975-3.041 11.018.001l16.132 16.133c2.228 2.228 2.894 5.578 1.688 8.49-1.205 2.912-4.046 4.81-7.197 4.81z" fill="#ffb952"/></g><g><path d="m237.322 152.628c-1.993 0-3.988-.761-5.509-2.281l-16.133-16.133c-2.228-2.229-2.894-5.579-1.688-8.491 1.205-2.911 4.047-4.809 7.197-4.809h66.74c4.303 0 7.791 3.488 7.791 7.791s-3.488 7.791-7.791 7.791h-47.931l2.834 2.833c3.042 3.043 3.042 7.975 0 11.019-1.523 1.519-3.517 2.28-5.51 2.28z" fill="#ffb952"/></g><g><path d="m479.529 304.125-131.32 102.64c-9.09 7.12-20.3 10.97-31.83 10.97h-130.44l-14.74-1.64-43.72-43.72-2.74-15.83s31.85-67.02 94.36-67.02c5.96 0 11.9.55 17.74 1.64s11.58 2.71 17.15 4.86l24.74 9.57h49c10.9 0 19.83 8.4 20.66 19.08.06.55.08 1.1.08 1.66 0 0-.32 4.15-.9 6.08l6.74-3.89 32.63-18.84 71.84-41.49c8.37-4.83 18.72-3.15 25.18 3.46 1.2 1.22 2.26 2.6 3.15 4.15 5.46 9.42 1.86 22.88-7.58 28.32z" fill="#ffcebf"/><path d="m159.568 360.207 57.532 57.533h-31.163l-14.736-1.641-43.719-43.719-2.739-15.834s31.838-67.021 94.351-67.021c5.391 0 10.762.447 16.049 1.34-43.211 7.776-68.948 47.202-76.72 60.947-1.548 2.739-1.081 6.169 1.145 8.395z" fill="#ffb09e"/><path d="m483.958 271.655-143.73 80.36c.58-1.92 4.71-13.12 7.34-19.6l39.37-22.73 71.84-41.49c8.371-4.83 18.721-3.15 25.18 3.46z" fill="#ffb09e"/><g><path d="m355.019 334.695c-3.7 12.06-14.66 20.17-27.29 20.17h-94.07c-4.3 0-7.79-3.49-7.79-7.79s3.49-7.79 7.79-7.79h94.07c5.73 0 10.71-3.68 12.39-9.15 1.11-3.63 4.63-5.86 8.27-5.46.06.55.08 1.1.08 1.66 0 0-.32 4.15-.9 6.08l6.74-3.89c1.05 1.8 1.37 4.02.71 6.17z" fill="#ffb09e"/></g><path d="m192.334 468.386 17.175-17.175c2.734-2.734 2.734-7.166 0-9.9l-102.423-102.422c-2.734-2.734-7.166-2.734-9.899 0l-17.175 17.175 2.17 12.854 97.644 97.644z" fill="#f5fcff"/><path d="m202.724 458.002-10.388 10.388-12.51-1.828-97.644-97.644-2.167-12.85 17.176-17.176c2.734-2.734 7.166-2.734 9.899 0l5.438 5.438-6.596 6.596c-2.84 2.84-2.84 7.444 0 10.283z" fill="#d8ecfe"/><path d="m24.393 383.602 36.629-36.629c2.734-2.734 7.166-2.734 9.899 0l121.413 121.413-41.578 41.578c-2.734 2.734-7.166 2.734-9.899 0l-116.464-116.463c-2.734-2.733-2.734-7.166 0-9.899z" fill="#8cbdf9"/><path d="m161.392 499.335-10.604 10.604c-2.749 2.749-7.207 2.749-9.956 0l-116.438-116.439c-2.734-2.734-2.734-7.166 0-9.9l36.627-36.627c2.734-2.734 7.166-2.734 9.899 0l10.632 10.632-19.927 19.927c-6.085 6.085-6.085 15.951 0 22.036z" fill="#73a2da"/><path d="m74.391 404.762c-4.303 0-7.791-3.488-7.791-7.791 0-4.303 3.488-7.791 7.791-7.791 4.303 0 7.791 3.488 7.791 7.791 0 4.303-3.488 7.791-7.791 7.791z" fill="#497090"/></g></g></svg>