<svg id="Capa_1" enable-background="new 0 0 512 512" height="512" viewBox="0 0 512 512" width="512" xmlns="http://www.w3.org/2000/svg"><g><path d="m455.589 334.539c0 5.812-4.711 10.523-10.523 10.523h-434.543c-5.812 0-10.523-4.711-10.523-10.523v-228.137c0-5.812 4.711-10.523 10.523-10.523h434.543c5.812 0 10.523 4.711 10.523 10.523z" fill="#78c2a4"/><path d="m455.59 106.402c0-5.812-4.711-10.523-10.523-10.523h-20.462c5.812 0 10.523 4.711 10.523 10.523v228.137c0 5.812-4.711 10.523-10.523 10.523h20.462c5.812 0 10.523-4.711 10.523-10.523z" fill="#66b394"/><path d="m424.684 268.436v-94.333c0-.876-.695-1.596-1.57-1.625-24.002-.81-43.313-20.121-44.124-44.123-.03-.876-.748-1.571-1.624-1.571h-299.141c-.876 0-1.596.695-1.625 1.57-.81 24.002-20.121 43.313-44.123 44.124-.876.03-1.571.748-1.571 1.624v92.736c0 .877.695 1.595 1.571 1.624 24.001.811 43.312 20.121 44.123 44.123.03.876.748 1.571 1.624 1.571h300.74c0-25.25 20.469-45.72 45.72-45.72z" fill="#e0f8c5"/><path d="m378.99 128.356c-.03-.876-.748-1.571-1.624-1.571h-26.378c0 19.999 12.841 36.999 30.727 43.205 8.969 3.112 14.993 11.57 14.993 21.063v58.835c0 9.5-6.018 17.949-14.993 21.063-17.887 6.206-30.727 23.206-30.727 43.205h27.976c0-25.251 20.47-45.721 45.721-45.721v-94.333c0-.876-.695-1.596-1.57-1.625-24.003-.809-43.314-20.12-44.125-44.121z" fill="#ccf49f"/><g><path d="m226.023 271.984c-10.049 0-16.207-.926-26.312-7.535-3.571-2.336-4.572-7.125-2.236-10.695 2.335-3.57 7.124-4.572 10.695-2.236 7.009 4.585 10.057 5.069 19.015 5.01 9.738-.064 15.389-7.326 16.518-14.044.444-2.641 1.08-11.544-9.363-15.235-13.653-4.827-21.525-8.603-27.175-13.034-6.61-5.182-9.625-14.186-7.87-23.497 1.913-10.159 8.981-18.241 18.444-21.092 18.12-5.458 35.894 3.293 36.643 3.666 3.814 1.913 5.355 6.557 3.442 10.371-1.909 3.806-6.536 5.35-10.346 3.454-.204-.1-13.177-6.344-25.282-2.694-4.682 1.41-7.055 5.654-7.715 9.156-.672 3.564.2 6.892 2.22 8.477 5.252 4.119 14.468 7.682 22.79 10.624 14.274 5.045 21.909 17.749 19.453 32.366-2.235 13.295-13.826 26.816-31.655 26.936-.429.001-.852.002-1.266.002z" fill="#2b4d66"/></g><g><path d="m227.236 284.857c-4.268 0-7.726-3.459-7.726-7.726v-113.322c0-4.268 3.459-7.726 7.726-7.726 4.268 0 7.726 3.459 7.726 7.726v113.322c0 4.268-3.459 7.726-7.726 7.726z" fill="#2b4d66"/></g><g><path d="m335.712 228.196h-21.404c-4.268 0-7.726-3.459-7.726-7.726 0-4.268 3.459-7.726 7.726-7.726h21.404c4.268 0 7.726 3.459 7.726 7.726 0 4.268-3.459 7.726-7.726 7.726z" fill="#2b4d66"/></g><g><path d="m141.282 228.196h-21.404c-4.268 0-7.726-3.459-7.726-7.726 0-4.268 3.459-7.726 7.726-7.726h21.404c4.268 0 7.726 3.459 7.726 7.726.001 4.268-3.458 7.726-7.726 7.726z" fill="#2b4d66"/></g><g><g><path d="m419.749 143.451c-4.268 0-7.726-3.459-7.726-7.726v-2.061c0-4.268 3.459-7.726 7.726-7.726 4.268 0 7.726 3.459 7.726 7.726v2.061c0 4.267-3.458 7.726-7.726 7.726z" fill="#e0f8c5"/></g><g><path d="m419.749 315.004c-4.268 0-7.726-3.459-7.726-7.726v-2.061c0-4.268 3.459-7.726 7.726-7.726 4.268 0 7.726 3.459 7.726 7.726v2.061c0 4.268-3.458 7.726-7.726 7.726z" fill="#e0f8c5"/></g><g><path d="m35.841 143.451c-4.268 0-7.726-3.459-7.726-7.726v-2.061c0-4.268 3.459-7.726 7.726-7.726s7.726 3.459 7.726 7.726v2.061c0 4.267-3.459 7.726-7.726 7.726z" fill="#e0f8c5"/></g><g><path d="m35.841 315.004c-4.268 0-7.726-3.459-7.726-7.726v-2.061c0-4.268 3.459-7.726 7.726-7.726s7.726 3.459 7.726 7.726v2.061c0 4.268-3.459 7.726-7.726 7.726z" fill="#e0f8c5"/></g></g><path d="m501.259 416.121h-154.807c-5.932 0-10.741-4.809-10.741-10.741v-154.806c0-5.932 4.809-10.741 10.741-10.741h154.807c5.932 0 10.741 4.809 10.741 10.741v154.807c0 5.932-4.809 10.74-10.741 10.74z" fill="#dd636e"/><path d="m501.259 239.832h-21.404c5.932 0 10.741 4.809 10.741 10.741v154.807c0 5.932-4.809 10.74-10.741 10.74h21.404c5.932 0 10.741-4.809 10.741-10.74v-154.807c0-5.932-4.809-10.741-10.741-10.741z" fill="#c63d4f"/><g><g><path d="m392.122 296.379c-4.268 0-7.726-3.459-7.726-7.726v-11.173c0-4.268 3.459-7.726 7.726-7.726s7.726 3.459 7.726 7.726v11.172c.001 4.268-3.458 7.727-7.726 7.727z" fill="#ecf4ff"/></g><g><path d="m392.122 341.29c-4.268 0-7.726-3.459-7.726-7.726v-11.173c0-4.268 3.459-7.726 7.726-7.726s7.726 3.459 7.726 7.726v11.173c.001 4.267-3.458 7.726-7.726 7.726z" fill="#ecf4ff"/></g><g><path d="m392.122 386.2c-4.268 0-7.726-3.459-7.726-7.726v-11.172c0-4.268 3.459-7.726 7.726-7.726s7.726 3.459 7.726 7.726v11.172c.001 4.268-3.458 7.726-7.726 7.726z" fill="#ecf4ff"/></g><g><path d="m455.59 296.379c-4.268 0-7.726-3.459-7.726-7.726v-11.173c0-4.268 3.459-7.726 7.726-7.726s7.726 3.459 7.726 7.726v11.172c0 4.268-3.458 7.727-7.726 7.727z" fill="#ecf4ff"/></g><g><path d="m455.59 341.29c-4.268 0-7.726-3.459-7.726-7.726v-11.173c0-4.268 3.459-7.726 7.726-7.726s7.726 3.459 7.726 7.726v11.173c0 4.267-3.458 7.726-7.726 7.726z" fill="#ecf4ff"/></g><g><path d="m455.59 386.2c-4.268 0-7.726-3.459-7.726-7.726v-11.172c0-4.268 3.459-7.726 7.726-7.726s7.726 3.459 7.726 7.726v11.172c0 4.268-3.458 7.726-7.726 7.726z" fill="#ecf4ff"/></g></g></g></svg>