<svg xmlns="http://www.w3.org/2000/svg" height="1613" viewBox="-1 0 1209 1209.999" width="1613" fill="rgb(0%,0%,0%)"><path d="M549.78 533.988c-82.973 24.348-140.016 100.4-140.137 186.883v175.336c0 10.762 8.72 19.488 19.477 19.488h350.695c10.762 0 19.48-8.727 19.48-19.488V720.87c-.13-86.473-57.172-162.535-140.133-186.883 59.133-25.887 92.016-89.684 78.797-152.867-13.223-63.195-68.937-108.445-133.492-108.445s-120.26 45.25-133.487 108.445c-13.223 63.184 19.664 126.98 78.8 152.867zM760.336 720.87v155.852H448.6V720.87c0-86.1 69.777-155.87 155.86-155.87 86.07 0 155.867 69.78 155.867 155.87zM604.47 311.727c53.797 0 97.414 43.613 97.414 97.414s-43.617 97.4-97.414 97.4c-53.805 0-97.414-43.6-97.414-97.4.074-53.777 43.645-97.348 97.414-97.414zM187.262 295.53l-.7 1.637 8.117 3.434a76.03 76.03 0 0 0 19.203 8.09l8.582 3.613.703-1.676c3.684.633 7.398 1 11.13 1.098a77.23 77.23 0 0 0 39.375-11.008l69.043 69.047 27.555-27.55-69.05-69.043c7.14-11.898 10.94-25.492 11.008-39.375a77.62 77.62 0 0 0-1.098-11.117l1.676-.715-3.63-8.586a75.61 75.61 0 0 0-8.078-19.215l-3.426-8.102-1.637.703a79.93 79.93 0 0 0-6.633-8.07c-30.836-29.465-79.38-29.465-110.207 0-30.422 30.43-30.422 79.766 0 110.195a79.08 79.08 0 0 0 8.066 6.641zm19.488-89.285a38.93 38.93 0 0 1 37.887-10.625 38.99 38.99 0 0 1 27.84 27.824c3.563 13.633-.508 28.102-10.633 37.898-15.422 14.73-39.7 14.73-55.094 0-15.22-15.223-15.22-39.88 0-55.098zm814.887 706.25l.73-1.727-10.895-4.594c-3.828-2.023-7.832-3.723-11.953-5.06l-13.047-5.488-.977 2.313a80.62 80.62 0 0 0-50.078 9.438l-69.195-69.2-27.555 27.55 69.05 69.05c-7.145 11.895-10.945 25.496-11.012 39.37.1 3.734.46 7.453 1.098 11.125l-1.684.707 3.633 8.578c1.805 6.754 4.516 13.207 8.078 19.207l3.434 8.117 1.64-.7a78.1 78.1 0 0 0 6.645 8.066c19.566 20.258 48.54 28.37 75.785 21.258 27.246-7.145 48.535-28.422 55.648-55.66a77.95 77.95 0 0 0-21.238-75.801c-2.54-2.37-5.246-4.562-8.1-6.543zm-19.484 89.2c-15.4 14.723-39.684 14.723-55.098 0-15.223-15.223-15.223-39.895-.008-55.1 15.227-15.223 39.895-15.223 55.105 0 15.23 15.215 15.23 39.887 0 55.1zm128.355-475.656a76 76 0 0 0-11.168 1.125l-1.05-2.488-17.008 7.207c-.738.3-1.484.598-2.207.938l-16.773 7.07 1.055 2.473a77.69 77.69 0 0 0-28.012 42.12H955.168v38.97h100.176a77.68 77.68 0 0 0 28.094 42.199l-1.062 2.477 16.8 7.066c.707.332 1.453.625 2.195.94l16.93 7.13 1.05-2.5a77.76 77.76 0 0 0 74.55-31.762c16.93-23.73 19.188-54.922 5.828-80.832-13.352-25.9-40.06-42.164-69.2-42.133zm0 116.9c-21.52 0-38.965-17.44-38.965-38.96s17.445-38.97 38.965-38.97 38.96 17.453 38.96 38.97-17.44 38.96-38.96 38.96zM896.12 221.965l1.684.715a78.45 78.45 0 0 0-1.098 11.117 77.18 77.18 0 0 0 11.012 39.375l-69.05 69.043 27.555 27.55 69.043-69.047c11.9 7.148 25.5 10.938 39.375 11.008a77.5 77.5 0 0 0 11.125-1.098l.707 1.676 8.594-3.613c6.73-1.805 13.2-4.527 19.188-8.1l8.113-3.434-.7-1.637c2.828-2.035 5.53-4.25 8.07-6.64 30.418-30.43 30.418-79.766 0-110.195-30.836-29.465-79.38-29.465-110.195 0a76.92 76.92 0 0 0-6.645 8.07l-1.64-.703-3.434 8.117c-3.562 6-6.273 12.453-8.078 19.2zm50.973-15.72a38.93 38.93 0 0 1 37.891-10.625c13.617 3.566 24.27 14.195 27.836 27.824s-.508 28.102-10.63 37.898c-15.418 14.73-39.68 14.73-55.098 0-15.2-15.223-15.2-39.88 0-55.098zM765.715 167.47l15.117-35.887 32.484 13.688-15.125 35.9zm-64.585-27.724l15.148-35.902 32.508 13.7-15.145 35.895zm129.534 55.14l15.117-35.88 32.473 13.68-15.113 35.87zm224.3 538.244l13.7-32.496 35.895 15.156-13.7 32.484zm-54.793 130l13.707-32.516 35.902 15.148-13.715 32.5zm27.383-65.013l13.7-32.48 35.898 15.14-13.703 32.492zM394.5 1062.7l15.1-35.887 32.48 13.684-15.113 35.883zm64.934 27.448l15.117-35.902 32.47 13.7-15.105 35.887zm-129.278-54.57l15.148-35.906 32.516 13.7-15.145 35.902zm-17.35-49.605l-1.676-.707a76.33 76.33 0 0 0 1.098-11.125 77.21 77.21 0 0 0-11.008-39.371l69.05-69.05-27.555-27.55-69.203 69.2a80.6 80.6 0 0 0-50.07-9.437l-.977-2.312-13.047 5.508a73.29 73.29 0 0 0-11.953 5.039l-10.902 4.594.734 1.727a71.31 71.31 0 0 0-8.102 6.543c-20.254 19.57-28.395 48.55-21.25 75.8 7.137 27.238 28.414 48.516 55.66 55.66 27.238 7.113 56.223-1 75.797-21.258a80.96 80.96 0 0 0 6.633-8.066l1.637.7 3.426-8.105a75.49 75.49 0 0 0 8.078-19.22zm-50.96 15.723c-15.422 14.723-39.7 14.723-55.094 0-15.223-15.223-15.223-39.895-.016-55.1 15.223-15.223 39.902-15.223 55.1 0 15.223 15.215 15.223 39.887 0 55.1zM131.742 427.152l13.707-32.484 35.9 15.152-13.7 32.488zm-27.394 65.016l13.7-32.504 35.9 15.145-13.72 32.508zm54.808-129.988l13.7-32.484 35.9 15.14-13.715 32.488zM104.34 715.758l35.898-15.145 13.723 32.504-35.906 15.148zm54.816 130.008l35.895-15.14 13.715 32.48-35.9 15.145zm-27.4-65.004l35.895-15.145 13.703 32.492-35.902 15.145zm-24.1-104.702l2.203-.94 16.78-7.07-1.062-2.47c13.777-10.52 23.648-25.352 28.02-42.125h100.188v-38.97H153.598a77.72 77.72 0 0 0-28.098-42.199l1.055-2.473-16.77-7.07c-.727-.336-1.47-.625-2.2-.934l-16.94-7.133-1.055 2.488a75.99 75.99 0 0 0-11.156-1.125C35.4 526.04.5 560.938.5 603.97s34.9 77.93 77.934 77.93c3.734-.102 7.473-.488 11.156-1.133l1.055 2.5zm-68.184-72.1c0-21.516 17.44-38.97 38.96-38.97s38.97 17.453 38.97 38.97-17.45 38.96-38.97 38.96-38.96-17.44-38.96-38.96zm791.648 409.4l32.496-13.7 15.148 35.895-32.5 13.7zm-130.013 54.835l32.504-13.715 15.145 35.902-32.508 13.723zm65-27.422l32.492-13.703 15.152 35.9-32.5 13.695zm-89.567 60.007l-.937-2.2-7.062-16.78-2.473 1.055a77.67 77.67 0 0 0-42.12-28.012V954.656H584.98v100.188a77.69 77.69 0 0 0-42.195 28.1l-2.477-1.06-15.145 35.915 2.508 1.047c-5.27 30.6 8.1 61.375 34.06 78.398a77.92 77.92 0 0 0 85.473 0 77.94 77.94 0 0 0 34.066-78.398l2.492-1.047zm-72.082 68.2c-21.516 0-38.957-17.445-38.957-38.965s17.44-38.965 38.957-38.965 38.97 17.44 38.97 38.965-17.453 38.965-38.97 38.965zm395.692-824.167l35.895-15.152 13.72 32.52-35.906 15.14zm54.8 129.997l35.9-15.145 13.703 32.488-35.906 15.145zm-27.386-65l35.9-15.14 13.688 32.484-35.898 15.145zm-495.2-302.648l.934 2.195 7.07 16.785 2.48-1.055a77.69 77.69 0 0 0 42.113 28.012v100.184h38.977V153.1a77.61 77.61 0 0 0 42.191-28.1l2.48 1.06 15.133-35.914-2.492-1.047a78.47 78.47 0 0 0 1.13-11.168c0-43.04-34.9-77.93-77.93-77.93s-77.934 34.9-77.934 77.93a78.06 78.06 0 0 0 1.137 11.168l-2.508 1.047zM604.47 38.97c21.516 0 38.97 17.44 38.97 38.96s-17.453 38.973-38.97 38.973-38.957-17.457-38.957-38.973 17.44-38.96 38.957-38.96zM330.172 172.352l32.488-13.7 15.14 35.906-32.484 13.7zm129.996-54.786l32.484-13.695 15.148 35.895-32.492 13.7zm-64.984 27.394l32.492-13.695 15.145 35.9-32.492 13.7zm0 0"/></svg>