<svg id="flat" height="512" viewBox="0 0 512 512" width="512" xmlns="http://www.w3.org/2000/svg"><path d="m472 382.85986a80.01241 80.01241 0 0 1 -23.43994 56.58008l-40.56006 40.56006-40 8h-224l-40-8-40.56006-40.56006a80.03436 80.03436 0 0 1 -18.10986-85.31006l24.63992-64.05981a64.00528 64.00528 0 0 1 35.97-36.44019l94.06-37.62988h112l94.06006 37.62988a64.00528 64.00528 0 0 1 35.97 36.44019l24.63989 64.05981a79.88453 79.88453 0 0 1 5.33005 28.72998z" fill="#517ef7"/><path d="m129.66846 445.22559-18.896-37.792a39.73765 39.73765 0 0 1 -2.17041-30.53808l11.80859-35.42578 15.17872 5.06054-11.8086 35.42578a23.84236 23.84236 0 0 0 1.30225 18.32129l18.896 37.792z" fill="#486be0"/><path d="m382.33154 445.22559-14.31054-7.15625 18.896-37.792a23.84236 23.84236 0 0 0 1.30225-18.32129l-11.8086-35.42578 15.17872-5.06054 11.80863 35.42578a39.73765 39.73765 0 0 1 -2.17041 30.53808z" fill="#486be0"/><path d="m256 488v-168l48-40 48 40v168z" fill="#d1e4ff"/><path d="m256 320h-96l48-40h96z" fill="#f6bb00"/><path d="m160 320h96v168h-96z" fill="#bdd1f2"/><g fill="#7acdde"><path d="m184 344h16v16h-16z"/><path d="m216 344h16v16h-16z"/><path d="m184 416h16v16h-16z"/><path d="m216 416h16v16h-16z"/></g><path d="m280 336h16v24h-16z" fill="#8be0f0"/><path d="m312 336h16v24h-16z" fill="#8be0f0"/><path d="m280 416h16v24h-16z" fill="#8be0f0"/><path d="m312 416h16v24h-16z" fill="#8be0f0"/><path d="m256 384h96v16h-96z" fill="#c8dbf7"/><path d="m160 384h96v16h-96z" fill="#b2c6eb"/><path d="m132.35426 426.91143 39.162-9.79049a8.16287 8.16287 0 0 1 7.75181 2.14712 8.16286 8.16286 0 0 1 1.0199 10.3l-12.28797 18.43194 46.07772 13.16506a13.68065 13.68065 0 0 1 9.92228 13.15427 13.68064 13.68064 0 0 1 -13.68065 13.68067h-66.31935l-40-8 4.5508-27.30477a32 32 0 0 1 23.80346-25.7838z" fill="#f5c99d"/><path d="m379.64574 426.91143-39.162-9.79049a8.16287 8.16287 0 0 0 -7.75181 2.14712 8.16286 8.16286 0 0 0 -1.0199 10.3l12.28797 18.43194-46.07772 13.16506a13.68065 13.68065 0 0 0 -9.92228 13.15427 13.68064 13.68064 0 0 0 13.68065 13.68067h66.31935l40-8-4.5508-27.30477a32 32 0 0 0 -23.80346-25.7838z" fill="#f5c99d"/><path d="m184 80v96.00023a71.99976 71.99976 0 0 0 71.99977 71.99977h.00014a71.99977 71.99977 0 0 0 71.99977-72.00009l-.00036-95.99991-23.99932-32h-88z" fill="#f5c99d"/><path d="m328 88h-68a36 36 0 0 1 -36-36v-4a24 24 0 0 1 24-24h24a56 56 0 0 1 56 56z" fill="#b1712c"/><path d="m184 88v-32a24 24 0 0 1 24-24 16 16 0 0 1 16 16v9.37a30.63 30.63 0 0 1 -30.63 30.63z" fill="#91591c"/><path d="m272 120h32v16h-32z" fill="#b1712c"/><path d="m208 120h32v16h-32z" fill="#b1712c"/><path d="m248 208h-8v-16h8a8.00917 8.00917 0 0 0 8-8v-16h16v16a24.0275 24.0275 0 0 1 -24 24z" fill="#c79369"/><circle cx="224" cy="152" fill="#91591c" r="8"/><circle cx="288" cy="152" fill="#91591c" r="8"/></svg>