<?xml version="1.0"?>
<svg xmlns="http://www.w3.org/2000/svg" height="512px" viewBox="0 -33 512 512" width="512px"><g><path d="m416.789062 27.972656h15v15h-15zm0 0" data-original="#000000" class="active-path" data-old_color="#47b475" fill="#47b475"/><path d="m441.789062 27.972656h15v15h-15zm0 0" data-original="#000000" class="active-path" data-old_color="#47b475" fill="#47b475"/><path d="m466.789062 27.972656h15v15h-15zm0 0" data-original="#000000" class="active-path" data-old_color="#47b475" fill="#47b475"/><path d="m0 0v15h497v32.804688h15v-47.804688zm0 0" data-original="#000000" class="active-path" data-old_color="#47b475" fill="#47b475"/><path d="m26.855469 132.890625h43.167969v-43.167969h-43.167969zm15-28.167969h13.167969v13.167969h-13.167969zm0 0" data-original="#000000" class="active-path" data-old_color="#47b475" fill="#47b475"/><path d="m78.476562 132.890625h43.167969v-43.167969h-43.167969zm15-28.167969h13.167969v13.167969h-13.167969zm0 0" data-original="#000000" class="active-path" data-old_color="#47b475" fill="#47b475"/><path d="m485.144531 89.722656h-349v43.167969h349zm-15 28.167969h-319v-13.167969h319zm0 0" data-original="#000000" class="active-path" data-old_color="#47b475" fill="#47b475"/><path d="m126.40625 30.304688h-126.40625v131.664062h512v-101.664062h-375.59375zm370.59375 116.664062h-482v-101.664062h100.59375l10 30h371.40625zm0 0" data-original="#000000" class="active-path" data-old_color="#47b475" fill="#47b475"/><path d="m497 431.238281h-482v-256.769531h-15v271.769531h512v-271.769531h-15zm0 0" data-original="#000000" class="active-path" data-old_color="#47b475" fill="#47b475"/><path d="m405.507812 244.007812h72.792969v-64.109374h-278.800781v235.980468h60.421875v-42.96875h57.792969v27.96875h-45.292969v15h205.878906v-159.371094h-15v15.46875h-57.792969zm-145.582031-49.109374h203.375v34.109374h-203.375zm57.789063 49.109374v27.96875h-57.792969v-27.96875zm72.792968 113.902344h-57.792968v-27.96875h57.792968zm15-27.96875h57.792969v27.96875h-57.792969zm-72.792968-15v-27.96875h57.792968v27.96875zm-15 0h-57.792969v-27.96875h57.792969zm-103.214844-120.042968h30.421875v34.109374h-30.421875zm30.421875 205.980468h-30.421875v-156.871094h30.421875zm15-42.96875v-27.96875h57.792969v27.96875zm72.792969 42.96875v-27.96875h57.792968v27.96875zm72.792968 0v-27.96875h57.792969v27.96875zm57.792969-113.90625v27.96875h-57.792969v-27.96875zm-72.792969-15h-57.792968v-27.964844h57.792968zm0 0" data-original="#000000" class="active-path" data-old_color="#47b475" fill="#47b475"/><path d="m41.398438 338.222656v54.976563h40.101562v25.128906h46.199219v-25.128906h39.125v-121.523438h-66.550781v-15.476562h66.550781v-54.976563h-39.125v-25.125h-46.199219v25.125h-40.101562v121.527344h66.550781v15.472656zm15-30.472656v-91.523438h40.101562v-25.128906h16.199219v25.128906h39.125v24.976563h-66.550781v45.472656h66.550781v91.523438h-39.125v25.128906h-16.199219v-25.128906h-40.101562v-24.976563h66.550781v-45.472656zm0 0" data-original="#000000" class="active-path" data-old_color="#47b475" fill="#47b475"/><path d="m326 42.308594h-90v-15h90zm-100 0h-15v-15h15zm-25 0h-15v-15h15zm0 0" data-original="#000000" class="active-path" data-old_color="#47b475" fill="#47b475"/><path d="m427.261719 219.453125h-98.441407v-15h98.441407zm-108.441407 0h-15v-15h15zm-25 0h-15v-15h15zm0 0" data-original="#000000" class="active-path" data-old_color="#47b475" fill="#47b475"/><path d="m141.101562 235.195312h-25.054687v-15h25.054687zm-35.054687 0h-15v-15h15zm-25 0h-15v-15h15zm0 0" data-original="#000000" class="active-path" data-old_color="#47b475" fill="#47b475"/></g> </svg>
