<svg id="Layer_3" enable-background="new 0 0 64 64" height="512" viewBox="0 0 64 64" width="512" xmlns="http://www.w3.org/2000/svg"><g><path d="m2 36h18v4h-18z" fill="#f6b940"/><path d="m2 40h18v4h-18z" fill="#fad85d"/><path d="m2 44h18v4h-18z" fill="#f6b940"/><path d="m2 25c0 4.971 4.029 9 9 9s9-4.029 9-9-4.029-9-9-9-9 4.029-9 9" fill="#f6b940"/><path d="m2 25c0 1.439.346 2.794.947 4h8.053c2.209 0 4-1.791 4-4v-8.053c-1.206-.601-2.561-.947-4-.947-4.971 0-9 4.029-9 9" fill="#fad85d"/><path d="m16 23c0-1.302-.839-2.402-2-2.816v-2.184h-2v2h-1v-2h-2v2h-2v2h1v6h-1v2h2v2h2v-2h1v2h2v-2.184c1.161-.414 2-1.514 2-2.816 0-.771-.301-1.468-.78-2 .479-.532.78-1.229.78-2zm-3-1c.552 0 1 .449 1 1s-.448 1-1 1h-3v-2zm0 6h-3v-2h3c.552 0 1 .449 1 1s-.448 1-1 1z" fill="#fff"/><path d="m23 36h18v4h-18z" fill="#f6b940"/><path d="m23 40h18v4h-18z" fill="#fad85d"/><path d="m23 44h18v4h-18z" fill="#f6b940"/><path d="m23 25c0 4.971 4.029 9 9 9s9-4.029 9-9-4.029-9-9-9-9 4.029-9 9" fill="#f6b940"/><path d="m23 25c0 1.439.346 2.794.947 4h8.053c2.209 0 4-1.791 4-4v-8.053c-1.206-.601-2.561-.947-4-.947-4.971 0-9 4.029-9 9" fill="#fad85d"/><path d="m37 23c0-1.302-.839-2.402-2-2.816v-2.184h-2v2h-1v-2h-2v2h-2v2h1v6h-1v2h2v2h2v-2h1v2h2v-2.184c1.161-.414 2-1.514 2-2.816 0-.771-.301-1.468-.78-2 .479-.532.78-1.229.78-2zm-3-1c.552 0 1 .449 1 1s-.448 1-1 1h-3v-2zm0 6h-3v-2h3c.552 0 1 .449 1 1s-.448 1-1 1z" fill="#fff"/><path d="m44 36h18v4h-18z" fill="#f6b940"/><path d="m44 40h18v4h-18z" fill="#fad85d"/><path d="m44 44h18v4h-18z" fill="#f6b940"/><path d="m44 25c0 4.971 4.029 9 9 9s9-4.029 9-9-4.029-9-9-9-9 4.029-9 9" fill="#f6b940"/><path d="m44 25c0 1.439.346 2.794.947 4h8.053c2.209 0 4-1.791 4-4v-8.053c-1.206-.601-2.561-.947-4-.947-4.971 0-9 4.029-9 9" fill="#fad85d"/><path d="m58 23c0-1.302-.839-2.402-2-2.816v-2.184h-2v2h-1v-2h-2v2h-2v2h1v6h-1v2h2v2h2v-2h1v2h2v-2.184c1.161-.414 2-1.514 2-2.816 0-.771-.301-1.468-.78-2 .479-.532.78-1.229.78-2zm-3-1c.552 0 1 .449 1 1s-.448 1-1 1h-3v-2zm0 6h-3v-2h3c.552 0 1 .449 1 1s-.448 1-1 1z" fill="#fff"/></g></svg>