<svg height="512" viewBox="0 0 58 58" width="512" xmlns="http://www.w3.org/2000/svg"><g id="Page-1" fill="none" fill-rule="evenodd"><g id="073---Government-Advice" fill-rule="nonzero"><path id="Shape" d="m47 18-5.59 4.79c-.2515517.2180168-.6070372.2695653-.9101542.1319803-.303117-.1375851-.4983454-.439103-.4998458-.7719803v-6.15z" fill="#efc319"/><path id="Shape" d="m29 13-6.646 2.49c-.213216.0791424-.354696.2825696-.354696.51s.14148.4308576.354696.51l6.646 2.49" fill="#e54c3c"/><path id="Shape" d="m29 23c-.5522847 0-1-.4477153-1-1v-10c0-.5522847.4477153-1 1-1s1 .4477153 1 1v10c0 .5522847-.4477153 1-1 1z" fill="#7f6e5d"/><path id="Shape" d="m40 33-11 2-11-2c0-6.0751322 4.9248678-11 11-11s11 4.9248678 11 11z" fill="#cab191"/><rect id="Rectangle-path" fill="#f2d45b" height="18" rx="2" width="24" x="34"/><path id="Shape" d="m44 35v4h-30v-4c.0032948-1.1032019.8967981-1.9967052 2-2h26c1.1032019.0032948 1.9967052.8967981 2 2z" fill="#a48f78"/><path id="Shape" d="m57 38v18h-56v-18c0-.5522847.44771525-1 1-1h54c.5522847 0 1 .4477153 1 1z" fill="#cab191"/><path id="Shape" d="m45 54v-10.96c-.0002317-.6519127-.3181777-1.2628021-.852-1.637l-14.581-10.224c-.3405574-.2379353-.7934426-.2379353-1.134 0l-14.581 10.221c-.5346906.374806-.8527472.9870276-.852 1.64l-.0000013 10.96" fill="#f4eec9"/><path id="Shape" d="m20 43c1.1045695 0 2 .8954305 2 2v9h-4v-9c0-1.1045695.8954305-2 2-2z" fill="#5f5346"/><path id="Shape" d="m38 43c1.1045695 0 2 .8954305 2 2v9h-4v-9c0-1.1045695.8954305-2 2-2z" fill="#5f5346"/><path id="Shape" d="m29 41c1.1045695 0 2 .8954305 2 2v11h-4v-11c0-1.1045695.8954305-2 2-2z" fill="#5f5346"/><g fill="#464f5d"><path id="Shape" d="m5 45c-.55228475 0-1-.4477153-1-1v-2c0-.5522847.44771525-1 1-1s1 .4477153 1 1v2c0 .5522847-.44771525 1-1 1z"/><path id="Shape" d="m9 45c-.55228475 0-1-.4477153-1-1v-2c0-.5522847.44771525-1 1-1s1 .4477153 1 1v2c0 .5522847-.44771525 1-1 1z"/><path id="Shape" d="m5 51c-.55228475 0-1-.4477153-1-1v-2c0-.5522847.44771525-1 1-1s1 .4477153 1 1v2c0 .5522847-.44771525 1-1 1z"/><path id="Shape" d="m9 51c-.55228475 0-1-.4477153-1-1v-2c0-.5522847.44771525-1 1-1s1 .4477153 1 1v2c0 .5522847-.44771525 1-1 1z"/><path id="Shape" d="m49 45c-.5522847 0-1-.4477153-1-1v-2c0-.5522847.4477153-1 1-1s1 .4477153 1 1v2c0 .5522847-.4477153 1-1 1z"/><path id="Shape" d="m53 45c-.5522847 0-1-.4477153-1-1v-2c0-.5522847.4477153-1 1-1s1 .4477153 1 1v2c0 .5522847-.4477153 1-1 1z"/><path id="Shape" d="m49 51c-.5522847 0-1-.4477153-1-1v-2c0-.5522847.4477153-1 1-1s1 .4477153 1 1v2c0 .5522847-.4477153 1-1 1z"/><path id="Shape" d="m53 51c-.5522847 0-1-.4477153-1-1v-2c0-.5522847.4477153-1 1-1s1 .4477153 1 1v2c0 .5522847-.4477153 1-1 1z"/></g><rect id="Rectangle-path" fill="#7ecf9d" height="4" rx="1" width="58" y="54"/><path id="Shape" d="m54 6h-16c-.5522847 0-1-.44771525-1-1s.4477153-1 1-1h16c.5522847 0 1 .44771525 1 1s-.4477153 1-1 1z" fill="#f4eec9"/><path id="Shape" d="m54 10h-11c-.5522847 0-1-.44771525-1-1s.4477153-1 1-1h11c.5522847 0 1 .44771525 1 1s-.4477153 1-1 1z" fill="#f4eec9"/><path id="Shape" d="m39 10h-1c-.5522847 0-1-.44771525-1-1s.4477153-1 1-1h1c.5522847 0 1 .44771525 1 1s-.4477153 1-1 1z" fill="#f4eec9"/><path id="Shape" d="m48 14h-10c-.5522847 0-1-.4477153-1-1s.4477153-1 1-1h10c.5522847 0 1 .4477153 1 1s-.4477153 1-1 1z" fill="#f4eec9"/></g></g></svg>