<svg height="437pt" viewBox="0 -24 437.824 437" width="437pt" xmlns="http://www.w3.org/2000/svg"><path d="m96.167969 6.066406-33.496094 33.488282-3.808594-34.367188-15.902343 1.769531 3.136718 28.238281-34.777344-34.785156-11.320312 11.320313 34.785156 34.777343-28.242187-3.136718-1.765625 15.90625 34.359375 3.816406-33.480469 33.484375 11.320312 11.3125 45.246094-45.253906 45.257813-45.25zm0 0" fill="#f7ba61"/><path d="m210.441406 376.898438-20.617187 13.335937-20.617188-13.335937c-71.941406-46.550782-115.382812-126.402344-115.382812-212.09375v-110.570313c42.433593-5.300781 83.855469-16.824219 122.9375-34.191406l13.0625-5.808594 13.0625 5.808594c39.082031 17.367187 80.503906 28.890625 122.9375 34.191406v110.570313c0 85.691406-43.441407 165.542968-115.382813 212.09375zm0 0" fill="#6cbae5"/><path d="m189.824219 206.234375c-4.417969 0-8-3.582031-8-8v-176c0-4.417969 3.582031-8 8-8s8 3.582031 8 8v176c0 4.417969-3.582031 8-8 8zm0 0" fill="#428dc5"/><path d="m429.824219 230.234375c0 70.695313-57.308594 128-128 128-70.691407 0-128-57.304687-128-128 0-70.691406 57.308593-128 128-128 70.691406 0 128 57.308594 128 128zm0 0" fill="#aae5c8"/><path d="m188.824219 366.234375c-2.410157.003906-4.6875-1.082031-6.207031-2.949219l-29.136719-35.863281c-6.679688-8.21875-13.074219-16.890625-18.992188-25.761719l-7.320312-10.984375c-2.453125-3.675781-1.460938-8.644531 2.214843-11.097656 3.675782-2.449219 8.644532-1.457031 11.097657 2.21875l7.320312 10.984375c5.640625 8.460938 11.726563 16.71875 18.09375 24.550781l16.992188 20.902344c1.539062-2.613281 4.40625-4.152344 7.433593-4 2.121094.128906 4.109376 1.097656 5.515626 2.691406 1.410156 1.59375 2.125 3.683594 1.988281 5.804688l-1 16c-.261719 4.226562-3.769531 7.511719-8 7.503906zm0 0" fill="#78cfff"/><path d="m117.824219 270.234375c-2.8125.003906-5.417969-1.46875-6.863281-3.878906-16.394532-27.394531-26.070313-58.28125-28.234376-90.136719l-5.0625-73.4375c-.300781-4.417969 3.039063-8.246094 7.457032-8.546875 4.417968-.296875 8.242187 3.039063 8.542968 7.457031l5.054688 73.449219c1.988281 29.320313 10.890625 57.753906 25.976562 82.976563 1.488282 2.472656 1.527344 5.554687.101563 8.066406-1.421875 2.507812-4.085937 4.058594-6.972656 4.050781zm0 0" fill="#78cfff"/><path d="m421.824219 118.234375h16v16h-16zm0 0" fill="#aae5c8"/><path d="m349.824219 62.234375h16v16h-16zm0 0" fill="#aae5c8"/><path d="m389.824219 86.234375h16v16h-16zm0 0" fill="#85bc94"/><path d="m213.824219 62.234375h16v16h-16zm0 0" fill="#428dc5"/><path d="m245.824219 62.234375h16v16h-16zm0 0" fill="#3a7dae"/><path d="m277.824219 62.234375h16v16h-16zm0 0" fill="#428dc5"/><path d="m325.824219 270.234375c-6.917969 5.207031-15.34375 8.015625-24 8-22.089844 0-40-17.90625-40-40v-16c0-22.089844 17.910156-40 40-40 12.59375-.007813 24.453125 5.921875 32 16h35.902343c-10.171874-28.773437-37.382812-48.007813-67.902343-48-39.765625 0-72 32.238281-72 72v16c0 39.765625 32.234375 72 72 72 26.949219.007813 51.644531-15.035156 64-38.980469zm0 0" fill="#85bc94"/></svg>