<svg xmlns="http://www.w3.org/2000/svg" height="662" viewBox="0 0 496 496" width="662"><path d="M382.512 133.902L14.617 348.938l40.46 143.184 215.066-125.695L237.754 496h244.492l-36-144h-151.43l189.96-111.023zM290.352 480l20.824-80h97.656l20.824 80zm171.402 0h-15.57L421.2 384H298.8l-24.984 96h-15.57l28-112h147.508zM45.68 400.008l278.36-162.695-8.078-13.816-274.777 160.6-7.8-27.6 346.3-202.398 19.72 20.645-59.102 34.547 8.078 13.816 62.387-36.465 48.46 50.742L64.855 467.88zM208 88v8h16v-8c0-17.648 14.352-32 32-32V40c-17.648 0-32-14.352-32-32V0h-16v8c0 17.648-14.352 32-32 32v16c17.648 0 32 14.352 32 32zm8-53.52A48.35 48.35 0 0 0 229.52 48 48.35 48.35 0 0 0 216 61.52 48.35 48.35 0 0 0 202.48 48 48.35 48.35 0 0 0 216 34.48zM32 248v8h16v-8c0-17.648 14.352-32 32-32v-16c-17.648 0-32-14.352-32-32v-8H32v8c0 17.648-14.352 32-32 32v16c17.648 0 32 14.352 32 32zm8-53.52A48.35 48.35 0 0 0 53.52 208 48.35 48.35 0 0 0 40 221.52 48.35 48.35 0 0 0 26.48 208 48.35 48.35 0 0 0 40 194.48zM464 48v-8h-16v8c0 17.648-14.352 32-32 32v16c17.648 0 32 14.352 32 32v8h16v-8c0-17.648 14.352-32 32-32V80c-17.648 0-32-14.352-32-32zm-8 53.52A48.35 48.35 0 0 0 442.48 88 48.35 48.35 0 0 0 456 74.48 48.35 48.35 0 0 0 469.52 88 48.35 48.35 0 0 0 456 101.52zm0 0"/></svg>