<?xml version="1.0"?>
<svg xmlns="http://www.w3.org/2000/svg" xmlns:xlink="http://www.w3.org/1999/xlink" version="1.1" id="Capa_1" x="0px" y="0px" viewBox="0 0 511.999 511.999" style="enable-background:new 0 0 511.999 511.999;" xml:space="preserve" width="512px" height="512px"><g><g>
	<g>
		<path d="M460.412,152.307h-32.566v-32.566c0-4.151-3.365-7.515-7.515-7.515h-48.097c-4.15,0-7.515,3.364-7.515,7.515    s3.365,7.515,7.515,7.515h40.582v217.439H75.134V127.256h262.029c4.15,0,7.515-3.364,7.515-7.515s-3.365-7.515-7.515-7.515H67.618    c-4.15,0-7.515,3.364-7.515,7.515V352.21c0,4.151,3.365,7.515,7.515,7.515h32.566v32.566c0,4.151,3.365,7.515,7.515,7.515h352.712    c4.15,0,7.515-3.364,7.515-7.515V159.822C467.927,155.67,464.562,152.307,460.412,152.307z M452.897,384.776H115.215v-25.051    h305.116c4.15,0,7.515-3.364,7.515-7.515V167.337h25.051V384.776z" data-original="#000000" class="active-path" data-old_color="#47b475" fill="#47b475"/>
	</g>
</g><g>
	<g>
		<path d="M388.266,192.388c-22.377,0-40.582-18.205-40.582-40.582c0-4.151-3.365-7.515-7.515-7.515H147.78    c-4.15,0-7.515,3.364-7.515,7.515c0,22.377-18.205,40.582-40.582,40.582c-4.15,0-7.515,3.364-7.515,7.515v72.146    c0,4.151,3.365,7.515,7.515,7.515c22.377,0,40.582,18.205,40.582,40.582c0,4.151,3.365,7.515,7.515,7.515h192.389    c4.15,0,7.515-3.364,7.515-7.515c0-22.377,18.205-40.582,40.582-40.582c4.15,0,7.515-3.364,7.515-7.515v-72.146    C395.781,195.751,392.416,192.388,388.266,192.388z M380.751,265.039c-24.668,3.346-44.246,22.924-47.591,47.591H154.79    c-3.345-24.667-22.923-44.245-47.591-47.591v-58.127c24.668-3.346,44.246-22.924,47.591-47.591h178.37    c3.345,24.667,22.923,44.245,47.591,47.591V265.039z" data-original="#000000" class="active-path" data-old_color="#47b475" fill="#47b475"/>
	</g>
</g><g>
	<g>
		<path d="M264.817,227.859c4.15,0,7.515-3.364,7.515-7.515v-5.211c0-11.985-9.157-21.871-20.842-23.032v-8.231    c0-4.151-3.365-7.515-7.515-7.515s-7.515,3.364-7.515,7.515v8.591c-11.859,2.3-20.842,12.757-20.842,25.277    c0,14.2,11.552,25.752,25.752,25.752h5.211c5.912,0,10.722,4.81,10.722,10.722s-4.81,10.722-10.722,10.722h-7.816    c-4.475,0-8.116-3.641-8.116-8.117c0-4.151-3.365-7.515-7.515-7.515s-7.515,3.364-7.515,7.515    c0,11.985,9.156,21.871,20.842,23.032v8.232c0,4.151,3.365,7.515,7.515,7.515s7.515-3.364,7.515-7.515v-8.591    c11.859-2.3,20.842-12.757,20.842-25.277c0-14.2-11.552-25.752-25.752-25.752h-5.211c-5.912,0-10.722-4.81-10.722-10.722    c0-5.912,4.81-10.722,10.722-10.722h7.816c4.475,0,8.116,3.641,8.116,8.117v5.211    C257.301,224.495,260.666,227.859,264.817,227.859z" data-original="#000000" class="active-path" data-old_color="#47b475" fill="#47b475"/>
	</g>
</g><g>
	<g>
		<path d="M420.331,32.064c-10.854,0-15.865-3.759-22.21-8.517c-7.202-5.402-15.364-11.523-31.228-11.523    c-15.864,0-24.028,6.121-31.228,11.523c-6.345,4.759-11.356,8.517-22.21,8.517c-10.855,0-15.866-3.759-22.212-8.517    c-7.201-5.402-15.363-11.523-31.228-11.523s-24.028,6.121-31.229,11.523c-6.345,4.759-11.356,8.517-22.211,8.517    c-10.857,0-15.869-3.759-22.215-8.517c-7.203-5.402-15.365-11.523-31.231-11.523s-24.03,6.121-31.232,11.523    c-6.346,4.759-11.357,8.517-22.214,8.517H69.73l19.236-19.235c2.935-2.936,2.935-7.694,0-10.628    c-2.935-2.934-7.694-2.934-10.627,0L46.273,34.265c-2.935,2.936-2.935,7.694,0,10.628l32.065,32.065    c1.466,1.466,3.389,2.2,5.313,2.2c6.572,0,9.943-8.2,5.314-12.83L69.73,47.094h29.953c15.866,0,24.03-6.121,31.231-11.523    c6.346-4.759,11.358-8.517,22.215-8.517c10.856,0,15.868,3.759,22.214,8.517c7.203,5.401,15.366,11.523,31.233,11.523    c15.865,0,24.028-6.121,31.229-11.523c6.345-4.759,11.356-8.517,22.211-8.517c10.855,0,15.866,3.759,22.211,8.517    c7.201,5.401,15.363,11.523,31.228,11.523s24.028-6.121,31.228-11.523c6.345-4.759,11.356-8.517,22.21-8.517    c10.854,0,15.865,3.759,22.21,8.517c7.202,5.401,15.363,11.523,31.228,11.523c4.15,0,7.515-3.364,7.515-7.515    S424.481,32.064,420.331,32.064z" data-original="#000000" class="active-path" data-old_color="#47b475" fill="#47b475"/>
	</g>
</g><g>
	<g>
		<path d="M441.676,467.139l-32.064-32.066c-2.935-2.934-7.694-2.934-10.627,0c-2.935,2.936-2.935,7.694,0,10.628l19.235,19.236    h-29.954c-10.856,0-15.868-3.759-22.214-8.517c-7.203-5.402-15.366-11.523-31.232-11.523c-15.866,0-24.029,6.121-31.231,11.523    c-6.346,4.759-11.358,8.517-22.215,8.517c-10.855,0-15.866-3.759-22.211-8.517c-7.202-5.402-15.364-11.523-31.229-11.523    c-15.865,0-24.028,6.121-31.229,11.523c-6.345,4.759-11.356,8.517-22.212,8.517c-10.855,0-15.865-3.759-22.21-8.517    c-7.202-5.402-15.364-11.523-31.228-11.523c-15.864,0-24.028,6.121-31.228,11.523c-6.345,4.759-11.356,8.517-22.21,8.517    c-4.15,0-7.515,3.364-7.515,7.515c0,4.151,3.365,7.515,7.515,7.515c15.865,0,24.027-6.121,31.228-11.523    c6.345-4.759,11.356-8.517,22.21-8.517c10.854,0,15.865,3.759,22.21,8.517c7.202,5.402,15.364,11.523,31.228,11.523    c15.865,0,24.028-6.121,31.23-11.523c6.345-4.759,11.356-8.517,22.211-8.517s15.866,3.759,22.211,8.517    c7.202,5.402,15.364,11.523,31.229,11.523c15.866,0,24.03-6.121,31.232-11.523c6.346-4.759,11.357-8.517,22.214-8.517    c10.857,0,15.869,3.759,22.215,8.517c7.203,5.402,15.365,11.523,31.231,11.523h29.953l-19.236,19.235    c-2.737,2.737-2.918,7.256-0.4,10.198c2.81,3.282,7.971,3.487,11.027,0.432l32.065-32.065    C444.611,474.832,444.611,470.074,441.676,467.139z" data-original="#000000" class="active-path" data-old_color="#47b475" fill="#47b475"/>
	</g>
</g></g> </svg>
