<?xml version="1.0" encoding="iso-8859-1"?>
<!-- Generator: Adobe Illustrator 19.0.0, SVG Export Plug-In . SVG Version: 6.00 Build 0)  -->
<svg version="1.1" id="Capa_1" xmlns="http://www.w3.org/2000/svg" xmlns:xlink="http://www.w3.org/1999/xlink" x="0px" y="0px"
	 viewBox="0 0 480 480" style="enable-background:new 0 0 480 480;" xml:space="preserve">
<g>
	<path style="fill:#666666;" d="M312,120H136c-4.416,0-8-3.576-8-8V40h-24V24h32c4.416,0,8,3.576,8,8v72h160V32c0-4.424,3.584-8,8-8
		h32v16h-24v72C320,116.424,316.416,120,312,120z"/>
	<path style="fill:#666666;" d="M472,312H272v-16h192V40h-24V24h32c4.416,0,8,3.576,8,8v272C480,308.424,476.416,312,472,312z"/>
	<rect x="216" y="56" style="fill:#666666;" width="16" height="96"/>
	<rect x="216" y="200" style="fill:#666666;" width="16" height="80"/>
	<rect x="216" y="328" style="fill:#666666;" width="16" height="56"/>
	<rect x="272" y="400" style="fill:#666666;" width="72" height="16"/>
	<rect x="104" y="232" style="fill:#666666;" width="120" height="16"/>
	<rect x="48" y="176" style="fill:#666666;" width="16" height="40"/>
</g>
<polygon style="fill:#60C4C2;" points="0,0 0,64 112,64 112,32 112,0 "/>
<polygon style="fill:#FF9F1C;" points="280,0 168,0 168,64 224,64 280,64 "/>
<polygon style="fill:#FFBF69;" points="280,144 224,144 168,144 168,208 224,208 280,208 "/>
<polygon style="fill:#CBF3F0;" points="224,272 168,272 168,336 224,336 280,336 280,304 280,272 "/>
<polygon style="fill:#60C4C2;" points="56,208 0,208 0,272 112,272 112,240 112,208 "/>
<polygon style="fill:#E8EDED;" points="112,120 0,120 0,184 56,184 112,184 "/>
<g>
	<polygon style="fill:#FF9F1C;" points="168,440 280,440 280,408 280,376 224,376 168,376 	"/>
	<polygon style="fill:#FF9F1C;" points="448,64 448,32 448,0 336,0 336,32 336,64 	"/>
</g>
<circle style="fill:#60C4C2;" cx="408" cy="408" r="72"/>
<circle style="fill:#CBF3F0;" cx="408" cy="408" r="56"/>
<path style="fill:#666666;" d="M400,432c-2.048,0-4.096-0.784-5.656-2.344l-24-24l11.312-11.312L400,412.688l34.344-34.344
	l11.312,11.312l-40,40C404.096,431.216,402.048,432,400,432z"/>
<g>
</g>
<g>
</g>
<g>
</g>
<g>
</g>
<g>
</g>
<g>
</g>
<g>
</g>
<g>
</g>
<g>
</g>
<g>
</g>
<g>
</g>
<g>
</g>
<g>
</g>
<g>
</g>
<g>
</g>
</svg>
