<svg id="flat" height="512" viewBox="0 0 512 512" width="512" xmlns="http://www.w3.org/2000/svg"><path d="m208 104v88l-48 32h-48l-48-32v-88z" fill="#ef5e3b"/><path d="m136 144 72-40-72-40-72 40z" fill="#d14521"/><g fill="#bdd1f2"><path d="m136 256h40v16h-40z"/><path d="m96 256h24v16h-24z"/><path d="m152 288h48v16h-48z"/><path d="m72 288h64v16h-64z"/></g><path d="m336 152h64v304h-64z" fill="#eda600"/><path d="m400 24h64v432h-64z" fill="#f6bb00"/><path d="m272 256h64v200h-64z" fill="#de9400"/><path d="m208 336h64v120h-64z" fill="#cf8300"/><path d="m352 480h32v16h-32z" fill="#fcd453"/><path d="m416 480h32v16h-32z" fill="#fcd453"/><path d="m304 448h192v16h-192z" fill="#fcd453"/><path d="m328 456v16.00031a15.9997 15.9997 0 0 1 -15.99969 15.99969h-80.90414a88 88 0 0 1 -73.22043-39.18638l-5.87574-8.81362v-64l24.79808 10.62775a176.219 176.219 0 0 1 55.20322 37.3788l31.99609-.00655a16 16 0 0 1 16.00261 16 16 16 0 0 1 -15.99736 16z" fill="#f5c99d"/><path d="m240 448h88v16h-88z" fill="#deae7e"/><path d="m264.00391 464h-24.00391v-16h24a8 8 0 1 0 -.002-16l-31.99512.00635h-.00188a7.99952 7.99952 0 0 1 -5.65723-2.34375 167.473 167.473 0 0 0 -52.69729-35.6816l-23.28808-9.981h-14.3584v-16h16a8.003 8.003 0 0 1 3.15137.647l24.79785 10.62793a183.3467 183.3467 0 0 1 55.32324 36.731l28.72266-.00593h.00488a24 24 0 0 1 .00391 48z" fill="#deae7e"/><path d="m24 360h128v96h-128z" fill="#548aff"/></svg>