<svg xmlns="http://www.w3.org/2000/svg" height="683" viewBox="0 0 512 512" width="683"><path d="M511.355 481.125a8.56 8.56 0 0 0 0-6.52c-.437-1.043-1.06-1.988-1.844-2.773L483.9 446.23c-3.336-3.336-8.73-3.336-12.066 0s-3.336 8.73 0 12.066l11.035 11.035h-30.602V170.66a8.54 8.54 0 0 0-8.535-8.535H409.6a8.54 8.54 0 0 0-8.535 8.535v298.672H384V221.86c0-4.7-3.824-8.53-8.53-8.53h-34.14a8.54 8.54 0 0 0-8.53 8.53v247.473h-17.066v-196.27a8.54 8.54 0 0 0-8.535-8.535h-34.133a8.54 8.54 0 0 0-8.535 8.535v196.27h-17.066v-145.07a8.54 8.54 0 0 0-8.535-8.535h-34.133a8.54 8.54 0 0 0-8.531 8.535v145.07H179.2v-93.87a8.54 8.54 0 0 0-8.535-8.531H136.54a8.54 8.54 0 0 0-8.535 8.531v93.87H110.94v-68.27a8.54 8.54 0 0 0-8.535-8.535H68.27a8.54 8.54 0 0 0-8.531 8.535v68.27H42.67V29.12l11.035 11.035a8.51 8.51 0 0 0 6.035 2.5 8.5 8.5 0 0 0 6.03-2.5c3.336-3.336 3.336-8.73 0-12.066l-25.6-25.6c-.773-.785-1.73-1.406-2.773-1.844a8.56 8.56 0 0 0-6.52 0c-1.047.438-1.988 1.06-2.773 1.844L2.504 28.1a8.52 8.52 0 0 0 0 12.066c3.336 3.336 8.727 3.336 12.066 0L25.6 29.13v448.742a8.54 8.54 0 0 0 8.535 8.535H482.88l-11.035 11.03c-3.336 3.34-3.336 8.73 0 12.066 1.664 1.664 3.848 2.5 6.03 2.5a8.51 8.51 0 0 0 6.035-2.5l25.602-25.598a8.61 8.61 0 0 0 1.844-2.773zm-434.55-11.793v-17.07H93.87v17.07zm68.266 0v-34.137h17.066v34.137zm68.27 0v-59.734h17.066v59.734zm68.266 0v-85.336h17.066v85.336zm68.27 0V366.93h17.066v102.402zm68.266 0v-136.54h17.07v136.54zm-315.74-281.605h34.137a8.54 8.54 0 0 0 8.531-8.535v-34.132a8.54 8.54 0 0 0-8.531-8.535h-34.137a8.54 8.54 0 0 0-8.531 8.535v34.133a8.54 8.54 0 0 0 8.531 8.535zm102.402-51.204h-34.133a8.54 8.54 0 0 0-8.535 8.535v34.133a8.54 8.54 0 0 0 8.535 8.535h34.133a8.54 8.54 0 0 0 8.535-8.535v-34.13a8.54 8.54 0 0 0-8.535-8.535zm-102.403-51.2h68.27a8.54 8.54 0 0 0 8.535-8.535 8.54 8.54 0 0 0-8.535-8.531h-68.27a8.54 8.54 0 0 0-8.531 8.531 8.54 8.54 0 0 0 8.531 8.535zm0 34.134h102.402a8.54 8.54 0 0 0 8.535-8.531 8.54 8.54 0 0 0-8.535-8.535h-102.402a8.54 8.54 0 0 0-8.531 8.535c0 4.7 3.824 8.53 8.53 8.53zm0 102.403h102.402a8.54 8.54 0 0 0 8.535-8.531 8.54 8.54 0 0 0-8.535-8.535H102.402a8.54 8.54 0 0 0-8.531 8.535 8.54 8.54 0 0 0 8.531 8.531zm0 0"/></svg>