<svg id="Capa_1" enable-background="new 0 0 512 512" height="512" viewBox="0 0 512 512" width="512" xmlns="http://www.w3.org/2000/svg"><g><g><g><path d="m268.047 58.105-43.215 10.085h-.01l-163.649-38.19h-15c-8.28 0-15 6.72-15 15v452c0 8.28 6.72 15 15 15h178.65l43.225-20.184v-433.711z" fill="#b4b9f2"/></g></g><path d="m418.482 45v423.995l-48.074 43.005h-145.586v-443.81h.01l163.65-38.19h15c8.285 0 15 6.716 15 15z" fill="#7c83e7"/><g><path d="m257.455 78.175-32.633-48.175h-163.65v416.13c0 8.28 6.72 15 15 15h148.65l32.632-51.136v-331.819z" fill="#f5f8f9"/></g><path d="m388.482 30v416.13c0 8.28-6.72 15-15 15h-148.66v-431.13z" fill="#dbe1e8"/><g><path d="m328.428 15v34.18c0 22.51-18.31 40.82-40.82 40.82h-125.56c-22.51 0-40.82-18.31-40.82-40.82v-34.18c0-8.28 6.71-15 15-15h177.2c8.289 0 15 6.72 15 15z" fill="#4d578c"/></g><g><path d="m173 209.383h-60c-8.284 0-15-6.716-15-15v-60c0-8.284 6.716-15 15-15h60c8.284 0 15 6.716 15 15v60c0 8.284-6.716 15-15 15zm-45-30h30v-30h-30z" fill="#2ee6a8"/></g><g><path d="m173 329.383h-60c-8.284 0-15-6.716-15-15v-60c0-8.284 6.716-15 15-15h60c8.284 0 15 6.716 15 15v60c0 8.284-6.716 15-15 15zm-45-30h30v-30h-30z" fill="#2ee6a8"/></g><g><path d="m480.827 401.58c0 59.56-48.27 110.42-110.42 110.42-60.93 0-110.41-49.38-110.41-110.42 0-60.88 49.53-110.41 110.41-110.41 62.141 0 110.42 50.84 110.42 110.41z" fill="#2ee6a8"/></g><g><g><g><path d="m357.802 149.38h-23.65c-8.284 0-15-6.716-15-15s6.716-15 15-15h23.65c8.284 0 15 6.716 15 15s-6.715 15-15 15z" fill="#7c83e7"/></g><g><path d="m280.152 149.38h-24.65c-8.284 0-15-6.716-15-15s6.716-15 15-15h24.65c8.284 0 15 6.716 15 15s-6.715 15-15 15z" fill="#7c83e7"/></g><g><path d="m357.802 209.383h-102.3c-8.284 0-15-6.716-15-15s6.716-15 15-15h102.3c8.284 0 15 6.716 15 15s-6.715 15-15 15z" fill="#7c83e7"/></g><g><path d="m357.802 271h-102.3c-8.284 0-15-6.716-15-15s6.716-15 15-15h102.3c8.284 0 15 6.716 15 15s-6.715 15-15 15z" fill="#7c83e7"/></g></g></g><path d="m328.428 15v34.18c0 22.51-18.31 40.82-40.82 40.82h-62.79v-90h88.61c8.289 0 15 6.72 15 15z" fill="#333e73"/><path d="m480.827 401.58c0 59.56-48.27 110.42-110.42 110.42v-220.83c62.141 0 110.42 50.84 110.42 110.41z" fill="#24b3b3"/><g><path d="m370.408 394.79-8.75 8.75-18.22-18.22c-5.86-5.85-15.35-5.85-21.21 0-5.86 5.86-5.86 15.36 0 21.22l28.82 28.82c2.93 2.93 6.77 4.39 10.61 4.39 3.627 0 6.289-1.073 8.73-2.848l8.478-25.417z" fill="#f5f8f9"/></g><path d="m418.598 389.02c-50.068 50.068-46.737 46.859-48.19 47.91v-42.14l26.98-26.98c5.85-5.86 15.35-5.86 21.21 0s5.859 15.36 0 21.21z" fill="#dbe1e8"/></g></svg>