<?xml version="1.0" encoding="iso-8859-1"?>
<!-- Generator: Adobe Illustrator 19.0.0, SVG Export Plug-In . SVG Version: 6.00 Build 0)  -->
<svg version="1.1" id="Capa_1" xmlns="http://www.w3.org/2000/svg" xmlns:xlink="http://www.w3.org/1999/xlink" x="0px" y="0px"
	 viewBox="0 0 512 512" style="enable-background:new 0 0 512 512;" xml:space="preserve">
<g>
	<g>
		<path d="M504.485,100.196H313.261l14.234-71.168c0.915-4.58-2.702-8.989-7.369-8.989h-128.25c-4.667,0-8.284,4.409-7.368,8.989
			l14.233,71.168H7.515c-4.151,0-7.515,3.364-7.515,7.515v376.736c0,4.151,3.364,7.515,7.515,7.515h496.971
			c4.151,0,7.515-3.364,7.515-7.515V107.71C512,103.559,508.636,100.196,504.485,100.196z M310.959,35.068l-21.041,105.206h-67.835
			L201.042,35.068H310.959z M496.971,476.932H15.029V115.225h186.716l5.01,25.049H47.593c-4.151,0-7.515,3.364-7.515,7.515v296.579
			c0,4.151,3.364,7.515,7.515,7.515h416.814c4.151,0,7.515-3.364,7.515-7.515v-83.831c0-4.151-3.364-7.515-7.515-7.515
			s-7.515,3.364-7.515,7.515v76.316h-97.19v-64.626c0-21.823-17.755-39.577-39.577-39.577h-15.089
			c23.296-15.776,38.635-42.451,38.635-72.642c0-48.342-39.329-87.671-87.671-87.671s-87.671,39.329-87.671,87.671
			c0,30.191,15.34,56.866,38.635,72.642h-15.089c-21.823,0-39.577,17.755-39.577,39.577v64.626h-97.19v-281.55h401.785v168.83
			c0,4.151,3.364,7.515,7.515,7.515s7.515-3.364,7.515-7.515V147.789c0-4.151-3.364-7.515-7.515-7.515H305.245l5.01-25.049h186.716
			V476.932z M256,332.65c-40.055,0-72.642-32.587-72.642-72.642s32.587-72.642,72.642-72.642s72.642,32.587,72.642,72.642
			S296.055,332.65,256,332.65z M290.821,347.679l-17.172,28.62l-1.914-11.482l5.712-17.137H290.821z M254.351,371.726h3.299
			l4.074,24.449l-5.724,9.54l-5.75-9.583c0.053-0.205,0.102-0.413,0.137-0.626L254.351,371.726z M250.395,347.679h11.211
			l-3.006,9.018h-5.199L250.395,347.679z M234.552,347.679l5.712,17.137l-1.914,11.482l-17.172-28.62H234.552z M249.555,424.186
			c2.866,4.777,10.023,4.777,12.888,0l45.905-76.507h11.777c13.536,0,24.548,11.011,24.548,24.548v64.626H167.327v-64.626
			c0-13.536,11.012-24.548,24.548-24.548h11.777L249.555,424.186z"/>
	</g>
</g>
<g>
	<g>
		<path d="M276.841,251.892c4.151,0,7.515-3.364,7.515-7.515v-5.21c0-11.984-9.156-21.87-20.841-23.03v-8.231
			c0-4.151-3.364-7.515-7.515-7.515s-7.515,3.364-7.515,7.515v8.591c-11.857,2.299-20.841,12.756-20.841,25.275
			c0,14.199,11.552,25.75,25.75,25.75h5.209c5.912,0,10.721,4.809,10.721,10.721s-4.809,10.721-10.721,10.721h-7.815
			c-4.475,0-8.116-3.641-8.116-8.117c0-4.151-3.364-7.515-7.515-7.515s-7.515,3.364-7.515,7.515c0,11.984,9.156,21.87,20.841,23.03
			v8.231c0,4.151,3.364,7.515,7.515,7.515c4.151,0,7.515-3.364,7.515-7.515v-8.591c11.857-2.3,20.841-12.756,20.841-25.275
			c0-14.199-11.552-25.75-25.75-25.75h-5.209c-5.912,0-10.721-4.809-10.721-10.721s4.809-10.721,10.721-10.721h7.815
			c4.475,0,8.116,3.641,8.116,8.117v5.21C269.326,248.528,272.69,251.892,276.841,251.892z"/>
	</g>
</g>
<g>
	<g>
		<path d="M256,52.102c-12.983,0-23.546,10.563-23.546,23.546c0,12.983,10.563,23.546,23.546,23.546s23.546-10.563,23.546-23.546
			C279.546,62.664,268.983,52.102,256,52.102z M256,84.164c-4.696,0-8.517-3.82-8.517-8.517s3.82-8.517,8.517-8.517
			s8.517,3.82,8.517,8.517S260.696,84.164,256,84.164z"/>
	</g>
</g>
<g>
</g>
<g>
</g>
<g>
</g>
<g>
</g>
<g>
</g>
<g>
</g>
<g>
</g>
<g>
</g>
<g>
</g>
<g>
</g>
<g>
</g>
<g>
</g>
<g>
</g>
<g>
</g>
<g>
</g>
</svg>
