<?xml version="1.0" encoding="iso-8859-1"?>
<!-- Generator: Adobe Illustrator 16.0.0, SVG Export Plug-In . SVG Version: 6.00 Build 0)  -->
<!DOCTYPE svg PUBLIC "-//W3C//DTD SVG 1.1//EN" "http://www.w3.org/Graphics/SVG/1.1/DTD/svg11.dtd">
<svg xmlns="http://www.w3.org/2000/svg" xmlns:xlink="http://www.w3.org/1999/xlink" version="1.1" id="Capa_1" x="0px" y="0px" width="512px" height="512px" viewBox="0 0 55.915 55.915" style="enable-background:new 0 0 55.915 55.915;" xml:space="preserve">
<g>
	<g>
		<path d="M1,53.132h43.75c0.553,0,1-0.448,1-1V37.929h9.165c0.554,0,1-0.448,1-1V3.783c0-0.552-0.446-1-1-1h-43.75    c-0.553,0-1,0.448-1,1v13.839c0,0.129,0.029,0.251,0.073,0.364H1c-0.553,0-1,0.448-1,1v33.146C0,52.686,0.447,53.132,1,53.132z     M12.165,17.622V4.783h41.75v31.146H45.75V18.986c0-0.552-0.447-1-1-1H12.092C12.136,17.873,12.165,17.751,12.165,17.622z     M2,19.986h41.75v31.146H2V19.986z" fill="#FFFFFF"/>
		<path d="M21.171,23.502H5.75c-0.553,0-1,0.448-1,1v15.42c0,0.553,0.447,1,1,1h15.421c0.553,0,1-0.447,1-1v-15.42    C22.171,23.95,21.724,23.502,21.171,23.502z M20.171,38.922H6.75v-13.42h13.421V38.922z" fill="#FFFFFF"/>
		<path d="M40.75,33.407H25.329c-0.553,0-1,0.448-1,1v13.45c0,0.553,0.447,1,1,1H40.75c0.553,0,1-0.447,1-1v-13.45    C41.75,33.855,41.303,33.407,40.75,33.407z M39.75,46.857H26.329v-11.45H39.75V46.857z" fill="#FFFFFF"/>
		<path d="M21.171,42.438H5.75c-0.553,0-1,0.448-1,1v3.547c0,0.552,0.447,1,1,1h15.421c0.553,0,1-0.448,1-1v-3.547    C22.171,42.886,21.724,42.438,21.171,42.438z M20.171,45.984H6.75v-1.545h13.421V45.984z" fill="#FFFFFF"/>
		<path d="M40.75,26.492H25.329c-0.553,0-1,0.448-1,1v3.546c0,0.552,0.447,1,1,1H40.75c0.553,0,1-0.448,1-1v-3.546    C41.75,26.939,41.303,26.492,40.75,26.492z M39.75,30.038H26.329v-1.546H39.75V30.038z" fill="#FFFFFF"/>
		<path d="M41.457,21.39c-0.391-0.391-1.023-0.391-1.414,0l-0.496,0.496l-0.494-0.496c-0.392-0.391-1.023-0.391-1.414,0    c-0.392,0.391-0.392,1.023,0,1.414l0.494,0.496l-0.494,0.496c-0.392,0.391-0.392,1.023,0,1.414    c0.194,0.195,0.45,0.293,0.707,0.293c0.256,0,0.512-0.098,0.707-0.293l0.494-0.496l0.496,0.496    c0.195,0.195,0.451,0.293,0.707,0.293s0.512-0.098,0.707-0.293c0.391-0.391,0.391-1.023,0-1.414L40.961,23.3l0.496-0.496    C41.848,22.413,41.848,21.78,41.457,21.39z" fill="#FFFFFF"/>
		<path d="M51.915,15.834v-3.546c0-0.552-0.446-1-1-1H35.493c-0.554,0-1,0.448-1,1v3.546c0,0.552,0.446,1,1,1h15.422    C51.469,16.834,51.915,16.387,51.915,15.834z M49.915,14.834H36.493v-1.546h13.422V14.834z" fill="#FFFFFF"/>
		<path d="M33.04,11.288H17.618c-0.553,0-1,0.448-1,1v3.546c0,0.552,0.447,1,1,1H33.04c0.554,0,1-0.448,1-1v-3.546    C34.04,11.736,33.594,11.288,33.04,11.288z M32.04,14.834H18.618v-1.546H32.04V14.834z" fill="#FFFFFF"/>
		<path d="M47.803,10.005c0.194,0.195,0.45,0.293,0.707,0.293c0.256,0,0.512-0.098,0.706-0.293l0.496-0.496l0.496,0.496    c0.194,0.195,0.451,0.293,0.707,0.293s0.513-0.098,0.707-0.293c0.392-0.391,0.392-1.024,0-1.414l-0.496-0.496l0.496-0.496    c0.392-0.39,0.392-1.023,0-1.414s-1.022-0.391-1.414,0l-0.496,0.496l-0.496-0.496c-0.391-0.391-1.022-0.391-1.413,0    c-0.392,0.391-0.392,1.024,0,1.414l0.495,0.496l-0.495,0.496C47.411,8.981,47.411,9.615,47.803,10.005z" fill="#FFFFFF"/>
	</g>
</g>
<g>
</g>
<g>
</g>
<g>
</g>
<g>
</g>
<g>
</g>
<g>
</g>
<g>
</g>
<g>
</g>
<g>
</g>
<g>
</g>
<g>
</g>
<g>
</g>
<g>
</g>
<g>
</g>
<g>
</g>
</svg>
