<?xml version="1.0"?>
<svg xmlns="http://www.w3.org/2000/svg" height="512px" viewBox="0 0 496 496" width="512px"><g><path d="m488 144c4.414062 0 8-3.585938 8-8v-48c0-4.414062-3.585938-8-8-8h-80c-4.414062 0-8 3.585938-8 8v88h-72c-3.03125 0-5.800781 1.710938-7.160156 4.425781l-29.785156 59.574219h-11.054688c-4.414062 0-8 3.585938-8 8v40h-8c-4.414062 0-8 3.585938-8 8v24h-64v-16h8c4.414062 0 8-3.585938 8-8v-32c0-4.414062-3.585938-8-8-8h-144c-4.414062 0-8 3.585938-8 8v24h-8c-4.414062 0-8 3.585938-8 8v24h-24c-4.414062 0-8 3.585938-8 8v32c0 4.414062 3.585938 8 8 8h12.6875l111.96875 111.96875c-.222656 0-.433594.03125-.65625.03125-15.921875 0-30.886719-6.199219-42.542969-17.855469-14.28125-14.28125-33.265625-22.144531-53.457031-22.144531h-36v16h36c15.921875 0 30.886719 6.199219 42.542969 17.855469 14.28125 14.28125 33.265625 22.144531 53.457031 22.144531s39.175781-7.863281 53.855469-22.542969c11.257812-11.257812 26.222656-17.457031 42.144531-17.457031s30.886719 6.199219 42.542969 17.855469c14.28125 14.28125 33.265625 22.144531 53.457031 22.144531s39.175781-7.863281 53.855469-22.542969c11.257812-11.257812 26.222656-17.457031 42.144531-17.457031s30.886719 6.199219 42.144531 17.457031l20.199219 20.199219 11.3125-11.3125-20.199219-20.199219c-13.425781-13.433593-31.03125-21.097656-49.871093-21.96875l52.484374-72.175781h11.929688c4.414062 0 8-3.585938 8-8v-32c0-4.414062-3.585938-8-8-8h-8v-24c0-4.414062-3.585938-8-8-8h-8v-40c0-4.414062-3.585938-8-8-8h-8v-56c0-4.414062-3.585938-8-8-8h-24v-32zm-424 128h128v16h-128zm-16 32h128v16h-128zm354.359375 138.152344c-13.472656 3.222656-25.917969 10.085937-36.214844 20.382812-11.257812 11.265625-26.222656 17.464844-42.144531 17.464844s-30.886719-6.199219-42.542969-17.855469c-14.28125-14.28125-33.265625-22.144531-53.457031-22.144531s-39.175781 7.863281-53.855469 22.542969c-6.390625 6.394531-14 11.089843-22.28125 14.007812l-76.550781-76.550781h164.6875v-16h-180.6875l-16-16h412.976562zm77.640625-90.152344h-464v-16h464zm-208-32v-16h192v16zm16-32v-32h160v32zm144-48h-123.054688l24-48h99.054688zm-16-144h64v32h-64zm0 0" data-original="#000000" class="active-path" data-old_color="#000000" fill="#47B475"/><path d="m112 208h16v-16h16c3.230469 0 6.152344-1.953125 7.390625-4.9375 1.242187-2.992188.554687-6.429688-1.734375-8.71875l-34.34375-34.34375h36.6875v-16h-24v-16h-16v16h-16c-3.230469 0-6.152344 1.953125-7.390625 4.9375-1.242187 2.992188-.554687 6.429688 1.734375 8.71875l34.34375 34.34375h-36.6875v16h24zm0 0" data-original="#000000" class="active-path" data-old_color="#000000" fill="#47B475"/><path d="m48 240h144c13.230469 0 24-10.769531 24-24 0-10.414062-6.710938-19.214844-16-22.527344v-41.472656c0-31.945312-18.863281-59.488281-45.992188-72.304688 3.679688-4.222656 5.992188-9.671874 5.992188-15.695312 0-9.910156-6.039062-18.433594-14.625-22.089844l6.472656-32.34375c.472656-2.351562-.136718-4.789062-1.65625-6.636718-1.527344-1.859376-3.792968-2.929688-6.191406-2.929688h-48c-2.398438 0-4.664062 1.070312-6.183594 2.929688-1.519531 1.847656-2.128906 4.285156-1.65625 6.636718l6.472656 32.34375c-8.59375 3.65625-14.632812 12.179688-14.632812 22.089844 0 6.023438 2.3125 11.472656 5.992188 15.695312-27.128907 12.816407-45.992188 40.359376-45.992188 72.304688v41.472656c-9.289062 3.3125-16 12.113282-16 22.527344 0 13.230469 10.769531 24 24 24zm86.238281-224-4.796875 24h-18.882812l-4.796875-24zm-30.238281 56c-4.40625 0-8-3.59375-8-8s3.59375-8 8-8h32c4.40625 0 8 3.59375 8 8s-3.59375 8-8 8zm-56 136h24v-16h-16v-40c0-35.289062 28.710938-64 64-64s64 28.710938 64 64v40h-16v16h24c4.40625 0 8 3.59375 8 8s-3.59375 8-8 8h-144c-4.40625 0-8-3.59375-8-8s3.59375-8 8-8zm0 0" data-original="#000000" class="active-path" data-old_color="#000000" fill="#47B475"/><path d="m344 448c17.648438 0 32-14.351562 32-32s-14.351562-32-32-32-32 14.351562-32 32 14.351562 32 32 32zm0-48c8.824219 0 16 7.175781 16 16s-7.175781 16-16 16-16-7.175781-16-16 7.175781-16 16-16zm0 0" data-original="#000000" class="active-path" data-old_color="#000000" fill="#47B475"/><path d="m256 384h16v16h-16zm0 0" data-original="#000000" class="active-path" data-old_color="#000000" fill="#47B475"/></g> </svg>
