<?xml version="1.0" encoding="iso-8859-1"?>
<!-- Generator: Adobe Illustrator 19.0.0, SVG Export Plug-In . SVG Version: 6.00 Build 0)  -->
<svg xmlns="http://www.w3.org/2000/svg" xmlns:xlink="http://www.w3.org/1999/xlink" version="1.1" id="Layer_1" x="0px" y="0px" viewBox="0 0 512 512" style="enable-background:new 0 0 512 512;" xml:space="preserve" width="512px" height="512px">
<g>
	<g>
		<path d="M414.25,0H97.736C73.568,0,53.907,19.661,53.907,43.829v424.342c0,24.167,19.661,43.829,43.829,43.829h316.528    c24.168,0,43.829-19.662,43.829-43.829V43.842C458.093,19.667,438.425,0,414.25,0z M440.311,468.171    c0,14.362-11.684,26.047-26.047,26.047H97.736c-14.362,0-26.047-11.684-26.047-26.047V43.829    c0-14.363,11.684-26.047,26.047-26.047h316.515c14.37,0,26.06,11.69,26.06,26.06V468.171z" fill="#FFFFFF"/>
	</g>
</g>
<g>
	<g>
		<path d="M404.306,82.011h-48.734V50.889c0-4.91-3.98-8.891-8.891-8.891H165.319c-4.91,0-8.891,3.981-8.891,8.891v31.122h-48.72    c-4.91,0-8.891,3.981-8.891,8.891V435.66c0,4.91,3.981,8.891,8.891,8.891h296.598c4.911,0,8.891-3.981,8.891-8.891V90.902    C413.197,85.992,409.216,82.011,404.306,82.011z M174.21,59.78L174.21,59.78h163.58v31.122c0,14.426-11.736,26.163-26.162,26.163    h-111.24c-14.434,0-26.178-11.736-26.178-26.163V59.78z M116.598,426.769V99.793h40.734c4.124,19.983,21.861,35.054,43.054,35.054    h111.24c21.187,0,38.918-15.071,43.04-35.054h40.748v326.977H116.598z" fill="#FFFFFF"/>
	</g>
</g>
<g>
	<g>
		<path d="M200.283,142.256h-50.975c-4.91,0-8.891,3.981-8.891,8.891v50.975c0,4.91,3.981,8.891,8.891,8.891h50.975    c4.91,0,8.891-3.981,8.891-8.891v-50.975C209.174,146.237,205.193,142.256,200.283,142.256z M191.392,193.232h-33.193v-33.193    h33.193V193.232z" fill="#FFFFFF"/>
	</g>
</g>
<g>
	<g>
		<path d="M356.765,193.232H235.847c-4.91,0-8.891,3.981-8.891,8.891s3.981,8.891,8.891,8.891h120.918    c4.911,0,8.891-3.981,8.891-8.891S361.676,193.232,356.765,193.232z" fill="#FFFFFF"/>
	</g>
</g>
<g>
	<g>
		<path d="M200.283,229.981h-50.975c-4.91,0-8.891,3.981-8.891,8.891v50.975c0,4.91,3.981,8.891,8.891,8.891h50.975    c4.91,0,8.891-3.981,8.891-8.891v-50.975C209.174,233.962,205.193,229.981,200.283,229.981z M191.392,280.957h-33.193v-33.193    h33.193V280.957z" fill="#FFFFFF"/>
	</g>
</g>
<g>
	<g>
		<path d="M356.765,280.957H235.847c-4.91,0-8.891,3.981-8.891,8.891s3.981,8.891,8.891,8.891h120.918    c4.911,0,8.891-3.981,8.891-8.891S361.676,280.957,356.765,280.957z" fill="#FFFFFF"/>
	</g>
</g>
<g>
	<g>
		<path d="M200.283,317.706h-50.975c-4.91,0-8.891,3.981-8.891,8.891v50.975c0,4.91,3.981,8.891,8.891,8.891h50.975    c4.91,0,8.891-3.981,8.891-8.891v-50.975C209.174,321.687,205.193,317.706,200.283,317.706z M191.392,368.681h-33.193v-33.193    h33.193V368.681z" fill="#FFFFFF"/>
	</g>
</g>
<g>
	<g>
		<path d="M356.765,368.681H235.847c-4.91,0-8.891,3.981-8.891,8.891s3.981,8.891,8.891,8.891h120.918    c4.911,0,8.891-3.981,8.891-8.891S361.676,368.681,356.765,368.681z" fill="#FFFFFF"/>
	</g>
</g>
<g>
</g>
<g>
</g>
<g>
</g>
<g>
</g>
<g>
</g>
<g>
</g>
<g>
</g>
<g>
</g>
<g>
</g>
<g>
</g>
<g>
</g>
<g>
</g>
<g>
</g>
<g>
</g>
<g>
</g>
</svg>
