<svg height="512" viewBox="0 0 64 64" width="512" xmlns="http://www.w3.org/2000/svg"><g id="Advertisment-Promote-Team-Marketing-Business"><path d="m61 42v-2a5.022 5.022 0 0 0 -1.46-3.54 5.172 5.172 0 0 0 -.62-.52 5 5 0 0 0 -7.92 4.06v2h3v1.5a1.5 1.5 0 0 1 -1.5 1.5h7a1.5 1.5 0 0 1 -1.5-1.5v-1.5z" fill="#3d9ae2"/><path d="m47 42v-2a5.022 5.022 0 0 0 -1.46-3.54 5.172 5.172 0 0 0 -.62-.52 5 5 0 0 0 -7.92 4.06v2h3v1.5a1.5 1.5 0 0 1 -1.5 1.5h7a1.5 1.5 0 0 1 -1.5-1.5v-1.5z" fill="#3d9ae2"/><path d="m53 57v-12h1 4 1v12z" fill="#898890"/><path d="m39 57v-12h1 4 1v12z" fill="#898890"/><path d="m61 42v1.5a1.5 1.5 0 0 1 -3 0v-1.5z" fill="#ffc477"/><path d="m61 59h-5v-3h2a3 3 0 0 1 3 3z" fill="#57565c"/><path d="m59 31v1a3 3 0 0 1 -6 0v-1h2.17a2.006 2.006 0 0 0 1.42-.59l.41-.41 1 1z" fill="#ffc477"/><path d="m59 30v1h-1l-1-1-.41.41a2.006 2.006 0 0 1 -1.42.59h-2.17v-1a3 3 0 0 1 6 0z" fill="#57565c"/><path d="m58.92 35.94-.14.18a3 3 0 0 1 -5.56 0l-.14-.18a5.005 5.005 0 0 1 5.84 0z" fill="#ffc477"/><path d="m56 56v3h-5a3 3 0 0 1 3-3z" fill="#57565c"/><path d="m54 42v1.5a1.5 1.5 0 0 1 -3 0v-1.5z" fill="#ffc477"/><path d="m47 42v1.5a1.5 1.5 0 0 1 -3 0v-1.5z" fill="#ffc477"/><path d="m47 59h-5v-3h2a3 3 0 0 1 3 3z" fill="#57565c"/><path d="m45 31v1a3 3 0 0 1 -6 0v-1h2.17a2.006 2.006 0 0 0 1.42-.59l.41-.41 1 1z" fill="#ffc477"/><path d="m45 30v1h-1l-1-1-.41.41a2.006 2.006 0 0 1 -1.42.59h-2.17v-1a3 3 0 0 1 6 0z" fill="#57565c"/><path d="m44.92 35.94-.14.18a3 3 0 0 1 -5.56 0l-.14-.18a5.005 5.005 0 0 1 5.84 0z" fill="#ffc477"/><path d="m42 56v3h-5a3 3 0 0 1 3-3z" fill="#57565c"/><path d="m40 42v1.5a1.5 1.5 0 0 1 -3 0v-1.5z" fill="#ffc477"/><path d="m26 33a2 2 0 1 1 -1 3.73v-3.46a2 2 0 0 1 1-.27z" fill="#ff5023"/><path d="m25 36.73v6.27a2 2 0 0 1 -4 0v-16a2.006 2.006 0 0 1 2-2 2.015 2.015 0 0 1 2 2z" fill="#ff9811"/><path d="m21 27v16l-9-3.6-1-.4v-8z" fill="#e6e7e8"/><path d="m12 39.4v7.6a2.006 2.006 0 0 1 -2 2h-2a2.006 2.006 0 0 1 -2-2v-8h5z" fill="#c6c5ca"/><path d="m7 31h4v8h-4z" fill="#ff5023"/><g fill="#ff9811"><path d="m7 31v8h-2a2.006 2.006 0 0 1 -2-2v-4a2.006 2.006 0 0 1 2-2z"/><path d="m31 34h4v2h-4z"/><path d="m29.379 28.5h4.243v2h-4.243z" transform="matrix(.707 -.707 .707 .707 -11.634 30.914)"/><path d="m30.5 38.379h2v4.243h-2z" transform="matrix(.707 -.707 .707 .707 -19.412 34.136)"/></g><path d="m41 48h2v8h-2z" fill="#787680"/><path d="m55 48h2v8h-2z" fill="#787680"/><path d="m60 12h-2v-2h-2v2h-2v2h2v2h2v-2h2z" fill="#ff9811"/><path d="m47 11v-2h2v-2h-2v-2h-2v2h-2v2h2v2z" fill="#ff9811"/><path d="m39 14h-2v2h-2v2h2v2h2v-2h2v-2h-2z" fill="#ff9811"/><path d="m51 18h-2v2h-2v2h2v2h2v-2h2v-2h-2z" fill="#ff9811"/></g></svg>