<?xml version="1.0" encoding="iso-8859-1"?>
<!-- Generator: Adobe Illustrator 19.0.0, SVG Export Plug-In . SVG Version: 6.00 Build 0)  -->
<svg xmlns="http://www.w3.org/2000/svg" xmlns:xlink="http://www.w3.org/1999/xlink" version="1.1" id="Capa_1" x="0px" y="0px" viewBox="0 0 512 512" style="enable-background:new 0 0 512 512;" xml:space="preserve" width="512px" height="512px">
<g>
	<g>
		<path d="M291.447,91.704H28.128c-15.357,0-27.851,12.494-27.851,27.851v364.594C0.277,499.506,12.772,512,28.128,512h263.318    c15.357,0,27.851-12.494,27.851-27.851V119.555C319.298,104.198,306.803,91.704,291.447,91.704z M228.149,147.406h45.574v319.02    H45.852v-319.02h45.574v20.255h136.723V147.406z M106.618,106.895c0,0,106.34,0,106.34,0v45.574h-106.34V106.895z     M304.106,484.149c0,6.981-5.679,12.66-12.66,12.66H28.128c-6.981,0-12.66-5.679-12.66-12.66V119.555    c0-6.981,5.679-12.659,12.66-12.659h63.298v25.319H30.66v349.403h258.254V132.214h-60.766v-25.319h63.298    c6.981,0,12.66,5.679,12.66,12.659V484.149z" fill="#FFFFFF"/>
	</g>
</g>
<g>
	<g>
		<rect x="60.537" y="223.365" width="117.48" height="15.191" fill="#FFFFFF"/>
	</g>
</g>
<g>
	<g>
		<rect x="139.528" y="253.748" width="15.191" height="15.191" fill="#FFFFFF"/>
	</g>
</g>
<g>
	<g>
		<rect x="109.145" y="253.748" width="15.191" height="15.191" fill="#FFFFFF"/>
	</g>
</g>
<g>
	<g>
		<rect x="60.537" y="253.748" width="33.421" height="15.191" fill="#FFFFFF"/>
	</g>
</g>
<g>
	<g>
		<rect x="182.571" y="122.089" width="15.191" height="15.191" fill="#FFFFFF"/>
	</g>
</g>
<g>
	<g>
		<rect x="152.188" y="122.089" width="15.191" height="15.191" fill="#FFFFFF"/>
	</g>
</g>
<g>
	<g>
		<rect x="121.805" y="122.089" width="15.191" height="15.191" fill="#FFFFFF"/>
	</g>
</g>
<g>
	<g>
		<rect x="112.69" y="182.854" width="48.613" height="15.191" fill="#FFFFFF"/>
	</g>
</g>
<g>
	<g>
		<rect x="176.494" y="182.854" width="30.383" height="15.191" fill="#FFFFFF"/>
	</g>
</g>
<g>
	<g>
		<polygon points="247.59,216.472 217.515,246.548 204.657,233.689 193.914,244.432 217.515,268.032 258.333,227.215   " fill="#FFFFFF"/>
	</g>
</g>
<g>
	<g>
		<rect x="60.537" y="294.258" width="117.48" height="15.191" fill="#FFFFFF"/>
	</g>
</g>
<g>
	<g>
		<rect x="139.528" y="324.641" width="15.191" height="15.191" fill="#FFFFFF"/>
	</g>
</g>
<g>
	<g>
		<rect x="109.145" y="324.641" width="15.191" height="15.191" fill="#FFFFFF"/>
	</g>
</g>
<g>
	<g>
		<rect x="60.537" y="324.641" width="33.421" height="15.191" fill="#FFFFFF"/>
	</g>
</g>
<g>
	<g>
		<polygon points="247.59,287.365 217.515,317.441 204.657,304.582 193.914,315.326 217.515,338.925 258.333,298.109   " fill="#FFFFFF"/>
	</g>
</g>
<g>
	<g>
		<rect x="60.537" y="365.151" width="117.48" height="15.191" fill="#FFFFFF"/>
	</g>
</g>
<g>
	<g>
		<rect x="139.528" y="395.534" width="15.191" height="15.191" fill="#FFFFFF"/>
	</g>
</g>
<g>
	<g>
		<rect x="60.537" y="395.534" width="33.421" height="15.191" fill="#FFFFFF"/>
	</g>
</g>
<g>
	<g>
		<rect x="109.145" y="395.534" width="15.191" height="15.191" fill="#FFFFFF"/>
	</g>
</g>
<g>
	<g>
		<path d="M198.779,365.149v45.574h45.574v-45.574H198.779z M229.162,395.532H213.97v-15.191h15.191V395.532z" fill="#FFFFFF"/>
	</g>
</g>
<g>
	<g>
		<rect x="307.501" y="57.842" transform="matrix(0.9971 -0.0759 0.0759 0.9971 -4.0359 24.6818)" width="30.382" height="15.191" fill="#FFFFFF"/>
	</g>
</g>
<g>
	<g>
		<rect x="243.861" y="61.991" transform="matrix(0.9971 -0.0759 0.0759 0.9971 -4.5082 20.555)" width="48.612" height="15.191" fill="#FFFFFF"/>
	</g>
</g>
<g>
	<g>
		<polygon points="380.412,87.151 352.705,119.422 338.907,107.577 329.011,119.103 354.335,140.844 391.938,97.047   " fill="#FFFFFF"/>
	</g>
</g>
<g>
	<g>
		<polygon points="385.791,157.841 358.083,190.112 344.287,178.265 334.39,189.791 359.713,211.534 397.317,167.737   " fill="#FFFFFF"/>
	</g>
</g>
<g>
	<g>
		<path d="M388.463,235.646l-45.443,3.457l3.459,45.444l45.443-3.459L388.463,235.646z M360.475,268.246l-1.153-15.148l15.147-1.153    l1.153,15.148L360.475,268.246z" fill="#FFFFFF"/>
	</g>
</g>
<g>
	<g>
		<polygon points="438.783,68.41 438.783,83.602 496.531,83.602 496.531,402.622 337.021,402.622 337.021,417.813 511.723,417.813     511.723,68.41   " fill="#FFFFFF"/>
	</g>
</g>
<g>
	<g>
		<polygon points="415.225,0 157.714,19.596 161.895,74.557 177.043,73.404 174.014,33.59 401.23,16.301 425.437,334.402     336.445,341.178 337.597,356.326 441.738,348.397   " fill="#FFFFFF"/>
	</g>
</g>
<g>
	<g>
		<g>
			<rect x="111.175" y="436.043" width="15.191" height="15.191" fill="#FFFFFF"/>
			<rect x="141.558" y="436.043" width="40.51" height="15.191" fill="#FFFFFF"/>
		</g>
	</g>
</g>
<g>
	<g>
		<g>
			<rect x="466.148" y="177.282" width="15.191" height="50.638" fill="#FFFFFF"/>
			<rect x="466.148" y="243.112" width="15.191" height="15.191" fill="#FFFFFF"/>
		</g>
	</g>
</g>
<g>
	<g>
		<polygon points="448.425,98.793 448.425,113.984 466.148,113.984 466.148,131.708 481.34,131.708 481.34,98.793   " fill="#FFFFFF"/>
	</g>
</g>
<g>
	<g>
		<g>
			<rect x="417.029" y="372.239" width="15.191" height="15.191" fill="#FFFFFF"/>
			<polygon points="466.148,354.515 466.148,372.239 447.412,372.239 447.412,387.43 481.34,387.43 481.34,354.515    " fill="#FFFFFF"/>
		</g>
	</g>
</g>
<g>
	<g>
		<polygon points="224.286,60.235 223.134,45.087 190.315,47.584 192.811,80.405 207.959,79.252 206.614,61.579   " fill="#FFFFFF"/>
	</g>
</g>
<g>
	<g>
		<polygon points="406.635,287.586 391.487,288.74 392.832,306.411 375.16,307.756 376.313,322.904 409.132,320.406   " fill="#FFFFFF"/>
	</g>
</g>
<g>
	<g>
		<polygon points="242.328,418.32 242.328,436.043 224.604,436.043 224.604,451.234 257.519,451.234 257.519,418.32   " fill="#FFFFFF"/>
	</g>
</g>
<g>
	<g>
		<rect x="61.039" y="170.195" width="15.191" height="24.306" fill="#FFFFFF"/>
	</g>
</g>
<g>
</g>
<g>
</g>
<g>
</g>
<g>
</g>
<g>
</g>
<g>
</g>
<g>
</g>
<g>
</g>
<g>
</g>
<g>
</g>
<g>
</g>
<g>
</g>
<g>
</g>
<g>
</g>
<g>
</g>
</svg>
