<svg xmlns="http://www.w3.org/2000/svg" viewBox="0 0 512 512"><path d="M108.512 275.94c4.15 0 7.515-3.364 7.515-7.515v-5.2c0-11.984-9.157-21.87-20.84-23.03v-8.23a7.52 7.52 0 0 0-7.515-7.515c-4.15 0-7.515 3.364-7.515 7.515v8.6c-11.858 2.3-20.84 12.756-20.84 25.275 0 14.2 11.552 25.75 25.75 25.75h5.2a10.73 10.73 0 0 1 10.72 10.72c0 5.92-4.8 10.72-10.72 10.72H82.46a8.13 8.13 0 0 1-8.116-8.117 7.52 7.52 0 0 0-7.515-7.515c-4.15 0-7.515 3.364-7.515 7.515 0 11.984 9.156 21.87 20.84 23.03v8.23a7.52 7.52 0 0 0 7.515 7.515c4.15 0 7.515-3.364 7.515-7.515v-8.6c11.858-2.3 20.84-12.756 20.84-25.275 0-14.2-11.552-25.75-25.75-25.75h-5.2a10.73 10.73 0 0 1-10.72-10.72c0-5.92 4.8-10.72 10.72-10.72h7.815a8.13 8.13 0 0 1 8.116 8.117v5.2a7.52 7.52 0 0 0 7.515 7.515zM276.84 83.563c4.15 0 7.515-3.364 7.515-7.515v-5.2c0-11.984-9.157-21.87-20.84-23.03v-8.23c0-4.15-3.364-7.515-7.515-7.515s-7.515 3.364-7.515 7.515v8.6c-11.858 2.3-20.84 12.756-20.84 25.275 0 14.2 11.552 25.75 25.75 25.75h5.2a10.73 10.73 0 0 1 10.72 10.72c0 5.92-4.8 10.72-10.72 10.72h-7.815a8.13 8.13 0 0 1-8.116-8.117 7.52 7.52 0 0 0-7.515-7.515c-4.15 0-7.515 3.364-7.515 7.515 0 11.984 9.156 21.87 20.84 23.03v8.23a7.52 7.52 0 0 0 7.515 7.515c4.15 0 7.515-3.364 7.515-7.515v-8.6c11.857-2.3 20.84-12.756 20.84-25.275 0-14.2-11.552-25.75-25.75-25.75h-5.2a10.73 10.73 0 0 1-10.72-10.72c0-5.92 4.8-10.72 10.72-10.72h7.815a8.13 8.13 0 0 1 8.116 8.117v5.2c0 4.152 3.364 7.515 7.515 7.515zm147.5 64.737c-21.722 0-41.622 7.945-56.954 21.076l-37.2-31a87.14 87.14 0 0 0 13.497-46.686c0-48.342-39.33-87.67-87.67-87.67s-87.67 39.33-87.67 87.67c0 25.365 10.83 48.243 28.107 64.266L135.174 210.4a87.13 87.13 0 0 0-47.503-14.017C39.33 196.384 0 235.712 0 284.055s39.33 87.67 87.67 87.67 87.67-39.33 87.67-87.67c0-25.365-10.83-48.243-28.107-64.267l61.262-54.455a87.13 87.13 0 0 0 47.503 14.017c25.798 0 49.027-11.203 65.084-28.996l35.713 29.76c-12.573 15.177-20.14 34.644-20.14 55.846 0 48.342 39.33 87.67 87.67 87.67S512 284.302 512 235.96s-39.33-87.67-87.67-87.67zM160.313 284.055c0 40.055-32.587 72.642-72.642 72.642S15.03 324.1 15.03 284.055s32.587-72.642 72.642-72.642 72.642 32.587 72.642 72.642zM256 164.32c-40.055 0-72.642-32.587-72.642-72.642s32.587-72.64 72.642-72.64 72.642 32.587 72.642 72.642-32.587 72.64-72.642 72.64zm168.33 144.282c-40.055 0-72.642-32.587-72.642-72.642 0-18.9 7.26-36.133 19.132-49.068 1.195-.44 2.298-1.182 3.173-2.23.565-.678.982-1.43 1.27-2.213 12.935-11.87 30.166-19.13 49.065-19.13 40.055 0 72.642 32.587 72.642 72.642s-32.586 72.64-72.64 72.64zm20.84-80.757c4.15 0 7.515-3.364 7.515-7.515v-5.2c0-11.984-9.157-21.87-20.84-23.03v-8.23c0-4.15-3.364-7.515-7.515-7.515s-7.515 3.364-7.515 7.515v8.6c-11.857 2.3-20.84 12.756-20.84 25.275 0 14.2 11.552 25.75 25.75 25.75h5.2a10.73 10.73 0 0 1 10.72 10.72c0 5.92-4.8 10.72-10.72 10.72H419.1a8.13 8.13 0 0 1-8.1-8.135c0-4.15-3.364-7.515-7.515-7.515s-7.515 3.364-7.515 7.515c0 11.984 9.156 21.87 20.84 23.03v8.23c0 4.15 3.364 7.515 7.515 7.515s7.515-3.364 7.515-7.515v-8.6c11.857-2.3 20.84-12.756 20.84-25.275 0-14.2-11.552-25.75-25.75-25.75h-5.2a10.73 10.73 0 0 1-10.72-10.72c0-5.92 4.8-10.72 10.72-10.72h7.815a8.13 8.13 0 0 1 8.116 8.117v5.2c.001 4.15 3.364 7.515 7.515 7.515zm-285.358 168.93H95.687c-4.15 0-7.515 3.364-7.515 7.515v96.188a7.52 7.52 0 0 0 7.515 7.515h64.125c4.15 0 7.515-3.364 7.515-7.515V404.3c0-4.152-3.365-7.515-7.515-7.515zm-7.515 96.188H103.2v-81.16h49.096v81.16zm320.126-96.188h-64.125c-4.15 0-7.515 3.364-7.515 7.515v96.188c0 4.15 3.364 7.515 7.515 7.515h64.125c4.15 0 7.515-3.364 7.515-7.515V404.3c-.001-4.152-3.364-7.515-7.515-7.515zm-7.515 96.188h-49.096v-81.16h49.096v81.16zM264.016 428.34c4.15 0 7.515-3.364 7.515-7.515V308.102c0-4.15-3.364-7.515-7.515-7.515H199.9c-4.15 0-7.515 3.364-7.515 7.515v192.376a7.52 7.52 0 0 0 7.515 7.515h64.125c4.15 0 7.515-3.364 7.515-7.515v-44.585c0-4.15-3.364-7.515-7.515-7.515s-7.515 3.364-7.515 7.515v37.07h-49.096V315.616H256.5v105.208a7.52 7.52 0 0 0 7.516 7.516zm104.204-79.66h-64.125c-4.15 0-7.515 3.364-7.515 7.515v144.282c0 4.15 3.364 7.515 7.515 7.515h64.125c4.15 0 7.515-3.364 7.515-7.515v-144.28c0-4.15-3.364-7.515-7.515-7.515zm-7.514 144.282H311.6V363.7h49.096v129.253z"/></svg>