<?xml version="1.0" encoding="utf-8"?>
<!-- Generator: Adobe Illustrator 23.0.2, SVG Export Plug-In . SVG Version: 6.00 Build 0)  -->
<svg version="1.1" xmlns="http://www.w3.org/2000/svg" xmlns:xlink="http://www.w3.org/1999/xlink" x="0px" y="0px"
	 viewBox="0 0 2846 4790" style="enable-background:new 0 0 2846 4790;" xml:space="preserve">
<style type="text/css">
	.st0{display:none;}
	.st1{display:inline;fill:#035A6E;}
	.st2{fill:#FFFFFF;}
	.st3{opacity:0.22;}
	.st4{fill:#A0BD03;}
	.st5{fill:#C8E700;}
	.st6{fill:#B24718;}
	.st7{fill:#22272B;}
	.st8{fill:#4E5255;}
	.st9{fill:#A83900;}
	.st10{fill:#541D00;}
	.st11{fill:#FBCA47;}
	.st12{fill:#F4AA10;}
	.st13{fill:#E7930F;}
</style>
<g id="Layer_2" class="st0">
	<rect x="-1242" y="-210" class="st1" width="5000" height="5000"/>
</g>
<g id="Layer_1">
	<path class="st2" d="M1528.8,2606.68l0.1-17.29l8.95-0.01l0.24-58.54l33.21-0.02v-5.65h5.5c13.47,0,15.71-21.71,16.04-31.04
		l-0.03-10.02h0.03l-0.02-67.68c-0.2-0.34-0.38-0.68-0.54-1.01c-0.07-0.14-0.14-0.29-0.21-0.41l-2.5-2.01
		c-9.86-5.01-18.8-12.59-26.58-22.53c-3.47-1.13-6.82-2.39-9.98-3.75c-67.78-29.02-69.21-107.01-69.22-107.79
		c0-10.35,8.15-15.12,12.47-16.2l0.36-0.09l28.82-0.01c-0.11-1.93-0.21-3.84-0.29-5.72c-4.71-1.82-8.01-6.44-8.02-11.61l0-12.45
		c0-3.31,1.3-6.44,3.65-8.8c2.36-2.36,5.48-3.66,8.79-3.66l152.93-0.04c0,0,0,0,0,0c3.31,0,6.44,1.3,8.79,3.65
		c2.36,2.36,3.66,5.48,3.66,8.79l0,12.45c0,5.17-3.3,9.79-8.01,11.61c-0.08,1.87-0.18,3.79-0.29,5.72l31.11-0.01l0.36,0.09
		c4.31,1.08,12.47,5.84,12.48,16.17c-0.01,0.87-0.27,20.91-9.48,44.57c-8.55,21.94-26.73,51.08-64.81,65.34
		c-2.44,0.91-5.08,1.8-7.87,2.63c-7.58,9.46-16.25,16.72-25.79,21.58l-2.28,1.95l-1.98-2.31l1.97,2.31
		c-0.17,0.15-0.33,0.36-0.51,0.56c-0.15,0.18-0.31,0.36-0.49,0.55l0.02,78.15c0.46,9.21,2.95,30.98,16.02,30.98h5.84v5.64l33.1,0.01
		l0.35,58.53l8.84,0l0.01,17.29L1528.8,2606.68z M1534.94,2595.47l-0.03,5.12l142.56-0.04l0-5.12l-8.81,0l-0.35-58.53l-33.13-0.01
		v-5.63c-12.93-0.16-20.69-13.25-21.86-36.91l-0.03-81.35l1.44-0.89c0.06-0.05,0.35-0.39,0.54-0.61c0.34-0.39,0.72-0.82,1.16-1.21
		l2.84-2.42l0.33-0.16c9.12-4.59,17.42-11.6,24.67-20.84l0.6-0.77l0.94-0.27c2.99-0.87,5.8-1.8,8.37-2.77
		c68.84-25.77,70.34-103.46,70.35-104.24c0-7.34-6.06-9.68-7.55-10.15l-36.8,0.01l0.21-3.24c0.25-3.76,0.44-7.47,0.57-11.01
		l0.09-2.49l2.46-0.4c3.06-0.49,5.36-3.19,5.36-6.27l0-12.45c0-1.69-0.67-3.29-1.87-4.49c-1.21-1.21-2.8-1.87-4.49-1.87c0,0,0,0,0,0
		l-152.94,0.04c-1.69,0-3.29,0.67-4.49,1.87c-1.21,1.21-1.87,2.8-1.87,4.49l0,12.45c0,3.09,2.31,5.78,5.36,6.27l2.46,0.4l0.09,2.49
		c0.13,3.55,0.33,7.25,0.58,11.01l0.22,3.24l-34.51,0.01c-1.58,0.5-7.55,2.87-7.55,10.18c0.01,0.72,1.46,74.79,65.53,102.23
		c3.26,1.4,6.74,2.69,10.34,3.83l0.91,0.29l0.58,0.76c7.43,9.68,15.96,16.98,25.36,21.7l0.54,0.35l3.02,2.43
		c0.76,0.61,1.17,1.42,1.56,2.21c0.06,0.13,0.13,0.26,0.19,0.38l1,0.63l0.02,76.49h-0.01l0.01,4.04
		c-0.84,23.57-8.48,36.64-21.54,37.02v5.65l-33.24,0.02l-0.24,58.54L1534.94,2595.47z M1653.4,2373.63l3.58-7.22
		c13.89-28.02,19.75-62.7,22.23-86.85l0.28-2.73l22.77-0.01l0.1,0.01c4.69,0.31,8.2,1.9,10.43,4.72c3.01,3.8,2.37,8.24,2.29,8.73
		c-6.43,45.37-28.29,66.42-45.5,76.08c-2.79,1.57-5.73,2.99-8.71,4.21L1653.4,2373.63z M1684.97,2282.91
		c-2.44,22.26-7.69,52.31-18.97,78.47c0.2-0.11,0.39-0.22,0.59-0.33c16.01-8.99,36.37-28.72,42.47-71.7
		c0.01-0.06,0.32-2.35-1.08-4.07c-1.11-1.37-3.11-2.17-5.93-2.37L1684.97,2282.91z M1558.28,2372.83l-7.7-3.53
		c-3.76-1.73-7.4-3.76-10.81-6.03l0,0c-22.03-14.67-35.63-39.23-40.43-72.99c-0.07-0.42-0.71-4.86,2.3-8.66
		c2.23-2.82,5.74-4.41,10.43-4.72l0.2-0.01l20.38,0l0.28,2.73c2.44,23.69,8.18,57.76,21.67,85.6L1558.28,2372.83z M1512.37,2282.96
		c-2.82,0.2-4.82,1-5.93,2.38c-1.4,1.72-1.09,4.01-1.09,4.04c4.55,32.01,17.26,55.15,37.79,68.83h0c0.75,0.5,1.51,0.98,2.28,1.46
		c-10.79-25.77-15.87-55.02-18.26-76.7L1512.37,2282.96z"/>
	<g>
		<path class="st2" d="M893.52,2492.27c-8.52,0-16.97-3.6-22.81-10.48c-0.52-0.61-1.01-1.24-1.46-1.86l-155.39-215.46
			c-0.2-0.28-0.39-0.56-0.58-0.84c-9.02-13.42-5.8-31.36,7.33-40.83l468.66-338c13.13-9.47,31.17-6.86,41.07,5.94
			c0.2,0.26,0.41,0.53,0.61,0.81L1386.34,2107c0.44,0.61,0.88,1.28,1.31,1.97c8.04,13.21,4.5,30.65-8.05,39.71l-468.66,338
			C905.71,2490.44,899.6,2492.27,893.52,2492.27z M1206.76,1884.44c-4.98,0-10.01,1.52-14.37,4.67l-468.66,338
			c-10.79,7.78-13.44,22.52-6.02,33.56c0.16,0.24,0.32,0.47,0.48,0.69l155.39,215.45c0.37,0.51,0.78,1.03,1.21,1.54
			c8.21,9.68,22.72,11.45,33.04,4.01l468.66-338c10.31-7.44,13.22-21.77,6.62-32.62c-0.35-0.57-0.71-1.12-1.08-1.62l-155.39-215.46
			c-0.16-0.22-0.32-0.44-0.49-0.65C1221.3,1887.73,1214.08,1884.44,1206.76,1884.44z"/>
		<path class="st2" d="M893.57,2492.31c-0.22,0-0.44,0-0.65-0.01c-0.23,0-0.45-0.01-0.67-0.02c-0.24-0.01-0.48-0.02-0.72-0.04
			c-0.23-0.01-0.44-0.03-0.66-0.05c-0.24-0.02-0.48-0.05-0.72-0.07c-0.22-0.03-0.44-0.05-0.65-0.08c-0.24-0.03-0.48-0.07-0.72-0.11
			c-0.21-0.03-0.43-0.07-0.64-0.11c-0.24-0.04-0.48-0.09-0.71-0.14c-0.22-0.04-0.43-0.09-0.65-0.14c-0.23-0.05-0.47-0.11-0.7-0.17
			c-0.21-0.05-0.42-0.11-0.63-0.17c-0.23-0.07-0.47-0.13-0.7-0.2c-0.21-0.06-0.42-0.13-0.63-0.2c-0.22-0.07-0.45-0.15-0.68-0.23
			c-0.21-0.08-0.42-0.15-0.63-0.23c-0.22-0.09-0.45-0.17-0.67-0.26c-0.19-0.08-0.38-0.16-0.58-0.25c-0.26-0.11-0.48-0.21-0.69-0.31
			c-0.2-0.1-0.41-0.2-0.62-0.3c-0.21-0.1-0.42-0.21-0.63-0.32c-0.21-0.11-0.41-0.22-0.62-0.34c-0.22-0.12-0.41-0.23-0.6-0.34
			c-0.18-0.11-0.37-0.22-0.56-0.34l-0.13-0.08c-0.17-0.1-0.34-0.21-0.5-0.31c-0.21-0.14-0.41-0.28-0.62-0.42l-0.1-0.06
			c-0.15-0.1-0.3-0.2-0.45-0.31c-0.19-0.14-0.38-0.28-0.57-0.43l-0.19-0.15c-0.12-0.09-0.24-0.18-0.35-0.27
			c-0.23-0.18-0.45-0.37-0.67-0.55l-0.1-0.08c-0.11-0.09-0.22-0.18-0.33-0.28c-0.23-0.2-0.46-0.42-0.69-0.63l-0.11-0.1
			c-0.09-0.08-0.17-0.16-0.25-0.24c-0.25-0.24-0.5-0.5-0.74-0.75l-0.07-0.07c-0.07-0.07-0.14-0.14-0.2-0.21
			c-0.28-0.3-0.55-0.6-0.82-0.91l-0.22-0.25c-0.28-0.33-0.54-0.66-0.81-1l-0.07-0.09c-0.18-0.23-0.38-0.5-0.58-0.78l-155.39-215.46
			c-0.2-0.28-0.39-0.56-0.58-0.84c-9.02-13.42-5.8-31.36,7.33-40.83l468.66-338c13.13-9.47,31.16-6.86,41.06,5.93
			c0.21,0.27,0.42,0.54,0.62,0.82L1386.34,2107c0.2,0.28,0.39,0.56,0.58,0.84c0.25,0.38,0.49,0.75,0.72,1.13l0.08,0.14l-0.04-0.06
			l0.11,0.18c0.23,0.38,0.43,0.74,0.63,1.1l0.17,0.33c0.17,0.32,0.33,0.64,0.48,0.95c0.06,0.12,0.11,0.23,0.16,0.34l0.05,0.11
			c0.13,0.27,0.26,0.56,0.38,0.86c0.05,0.11,0.09,0.22,0.13,0.33l0.1,0.24c0.1,0.25,0.2,0.5,0.29,0.75c0.05,0.13,0.09,0.27,0.14,0.4
			l0.05,0.15c0.09,0.26,0.18,0.52,0.26,0.79c0.04,0.14,0.09,0.3,0.13,0.45l0.08,0.27c0.06,0.21,0.12,0.42,0.17,0.63
			c0.04,0.17,0.08,0.33,0.12,0.49l0.03,0.13c0.06,0.25,0.12,0.5,0.17,0.75c0.04,0.19,0.07,0.37,0.11,0.56l0.01,0.08
			c0.05,0.28,0.09,0.51,0.13,0.73c0.03,0.2,0.06,0.4,0.09,0.6c0.04,0.31,0.08,0.55,0.1,0.79c0.03,0.22,0.05,0.45,0.07,0.68
			c0.02,0.24,0.04,0.48,0.06,0.71c0.01,0.21,0.03,0.44,0.04,0.67c0.01,0.24,0.02,0.47,0.02,0.7c0.01,0.23,0.01,0.47,0.01,0.7
			c0,0.23,0,0.46-0.01,0.7c-0.01,0.22-0.02,0.45-0.03,0.68c-0.01,0.24-0.02,0.47-0.04,0.69c-0.02,0.23-0.04,0.46-0.06,0.7
			c-0.02,0.22-0.05,0.45-0.07,0.68c-0.03,0.23-0.06,0.46-0.09,0.69c-0.03,0.23-0.07,0.45-0.1,0.67c-0.04,0.23-0.08,0.46-0.12,0.69
			c-0.04,0.23-0.09,0.45-0.14,0.68c-0.05,0.22-0.1,0.45-0.15,0.68c-0.05,0.22-0.11,0.45-0.17,0.67c-0.06,0.22-0.12,0.44-0.18,0.67
			c-0.06,0.22-0.13,0.44-0.2,0.65c-0.07,0.22-0.14,0.45-0.21,0.67c-0.07,0.21-0.15,0.43-0.23,0.65c-0.08,0.22-0.16,0.43-0.24,0.65
			c-0.09,0.23-0.18,0.44-0.27,0.65l-0.03,0.07c-0.08,0.19-0.16,0.37-0.24,0.56c-0.1,0.22-0.2,0.44-0.3,0.66
			c-0.09,0.19-0.19,0.4-0.29,0.6c-0.09,0.18-0.18,0.35-0.27,0.53l-0.14,0.27c-0.08,0.15-0.16,0.29-0.24,0.44
			c-0.12,0.22-0.25,0.43-0.37,0.64l-0.06,0.1c-0.09,0.16-0.19,0.32-0.29,0.47c-0.13,0.21-0.27,0.42-0.41,0.63l-0.07,0.11
			c-0.1,0.15-0.19,0.29-0.29,0.43c-0.12,0.17-0.25,0.35-0.38,0.52l-0.15,0.21c-0.1,0.14-0.2,0.28-0.31,0.42
			c-0.12,0.16-0.25,0.32-0.38,0.48l-0.21,0.26c-0.1,0.13-0.2,0.25-0.31,0.38c-0.14,0.17-0.29,0.34-0.45,0.51l-0.17,0.19
			c-0.11,0.12-0.22,0.24-0.33,0.36c-0.16,0.17-0.32,0.33-0.48,0.49l-0.21,0.22c-0.11,0.11-0.21,0.22-0.32,0.32
			c-0.16,0.15-0.32,0.3-0.48,0.45l-0.28,0.26c-0.1,0.09-0.2,0.19-0.31,0.28c-0.2,0.18-0.41,0.35-0.63,0.53l-0.22,0.18
			c-0.09,0.08-0.18,0.16-0.28,0.23c-0.38,0.3-0.77,0.6-1.17,0.89l-468.66,338c-0.41,0.3-0.82,0.57-1.23,0.84
			c-0.1,0.06-0.2,0.13-0.3,0.19l-0.21,0.13c-0.24,0.15-0.49,0.3-0.73,0.45c-0.13,0.08-0.26,0.15-0.39,0.21l-0.32,0.17
			c-0.19,0.11-0.38,0.21-0.58,0.31c-0.13,0.07-0.28,0.14-0.42,0.21l-0.3,0.15c-0.19,0.09-0.38,0.19-0.58,0.28
			c-0.15,0.07-0.29,0.13-0.44,0.19l-0.29,0.12c-0.2,0.09-0.4,0.17-0.59,0.25c-0.16,0.06-0.32,0.12-0.48,0.18l-0.27,0.1
			c-0.19,0.07-0.39,0.15-0.58,0.21c-0.17,0.06-0.35,0.11-0.52,0.17l-0.22,0.07c-0.2,0.07-0.41,0.13-0.61,0.19
			c-0.17,0.05-0.35,0.1-0.52,0.14l-0.27,0.07c-0.19,0.05-0.37,0.1-0.56,0.15c-0.17,0.04-0.35,0.08-0.53,0.12l-0.25,0.06
			c-0.2,0.04-0.39,0.08-0.59,0.12c-0.23,0.05-0.47,0.08-0.7,0.12l-0.09,0.02c-0.2,0.03-0.39,0.07-0.59,0.09
			c-0.21,0.03-0.43,0.06-0.65,0.08c-0.26,0.03-0.49,0.06-0.71,0.08c-0.21,0.02-0.41,0.04-0.61,0.05l-0.1,0.01
			c-0.28,0.02-0.48,0.04-0.69,0.05c-0.23,0.01-0.47,0.02-0.71,0.03c-0.22,0.01-0.44,0.01-0.67,0.01
			C893.61,2492.31,893.59,2492.31,893.57,2492.31z M874.04,2477.44l0.05,0.06c0.22,0.28,0.45,0.57,0.69,0.85l0.18,0.2
			c0.22,0.26,0.45,0.51,0.68,0.75l0.22,0.22c0.2,0.21,0.4,0.42,0.61,0.62l0.3,0.27c0.19,0.18,0.38,0.35,0.57,0.52
			c0.08,0.07,0.15,0.13,0.23,0.19l0.13,0.1c0.18,0.16,0.36,0.31,0.55,0.45l0.46,0.35c0.15,0.12,0.3,0.23,0.46,0.34
			c0.11,0.08,0.22,0.16,0.34,0.23l0.1,0.07c0.18,0.12,0.35,0.24,0.52,0.35c0.13,0.08,0.26,0.16,0.39,0.24l0.08,0.05
			c0.21,0.13,0.35,0.22,0.5,0.31c0.16,0.09,0.31,0.18,0.47,0.26c0.2,0.11,0.37,0.2,0.54,0.29c0.17,0.09,0.34,0.17,0.51,0.26
			c0.17,0.09,0.34,0.17,0.51,0.25c0.18,0.08,0.36,0.16,0.54,0.24c0.18,0.08,0.34,0.15,0.5,0.21c0.19,0.08,0.37,0.15,0.56,0.22
			c0.17,0.06,0.34,0.13,0.51,0.19c0.18,0.06,0.37,0.13,0.56,0.19c0.18,0.06,0.35,0.11,0.52,0.17c0.19,0.06,0.38,0.11,0.57,0.17
			c0.17,0.05,0.35,0.09,0.52,0.14c0.2,0.05,0.39,0.1,0.59,0.14c0.18,0.04,0.35,0.08,0.52,0.11c0.19,0.04,0.39,0.08,0.59,0.11
			c0.17,0.03,0.35,0.06,0.53,0.09c0.2,0.03,0.39,0.06,0.59,0.09c0.18,0.02,0.36,0.05,0.54,0.07c0.19,0.02,0.39,0.04,0.58,0.06
			c0.18,0.02,0.37,0.03,0.55,0.04c0.19,0.01,0.39,0.02,0.59,0.03c0.18,0.01,0.37,0.01,0.55,0.02c0.19,0,0.39,0.01,0.59,0.01
			c0.18,0,0.36-0.01,0.55-0.01c0.2-0.01,0.39-0.01,0.59-0.02c0.17-0.01,0.33-0.02,0.49-0.03l0.16-0.01
			c0.16-0.01,0.32-0.02,0.48-0.04c0.18-0.02,0.37-0.04,0.56-0.06c0.22-0.03,0.4-0.05,0.58-0.07c0.16-0.02,0.3-0.05,0.45-0.07
			l0.11-0.02c0.2-0.03,0.38-0.06,0.57-0.1c0.15-0.03,0.3-0.06,0.46-0.1l0.25-0.06c0.14-0.03,0.27-0.06,0.4-0.09
			c0.15-0.04,0.29-0.07,0.43-0.11l0.29-0.08c0.13-0.03,0.26-0.07,0.39-0.11c0.17-0.05,0.32-0.1,0.48-0.15l0.25-0.08
			c0.13-0.04,0.26-0.08,0.38-0.12c0.15-0.05,0.3-0.11,0.45-0.16l0.31-0.11c0.11-0.04,0.23-0.08,0.34-0.13
			c0.15-0.06,0.3-0.13,0.45-0.19l0.33-0.14c0.1-0.04,0.2-0.09,0.3-0.13c0.14-0.07,0.29-0.14,0.43-0.21l0.34-0.17
			c0.09-0.04,0.19-0.09,0.28-0.14c0.15-0.08,0.3-0.16,0.44-0.24l0.37-0.2c0.08-0.04,0.16-0.09,0.24-0.13
			c0.19-0.11,0.39-0.23,0.58-0.36l0.44-0.27c0.34-0.22,0.68-0.45,1.01-0.69l468.66-338.01c0.33-0.24,0.66-0.49,0.97-0.74l0.42-0.35
			c0.17-0.14,0.34-0.28,0.5-0.42c0.07-0.06,0.13-0.12,0.19-0.18l0.32-0.29c0.12-0.11,0.25-0.23,0.37-0.35
			c0.07-0.07,0.14-0.14,0.2-0.21l0.25-0.26c0.13-0.13,0.25-0.25,0.38-0.39c0.07-0.08,0.15-0.16,0.22-0.25l0.2-0.23
			c0.12-0.13,0.24-0.26,0.35-0.4c0.08-0.09,0.14-0.17,0.21-0.26l0.23-0.28c0.1-0.12,0.2-0.24,0.29-0.37
			c0.08-0.11,0.16-0.21,0.23-0.31l0.17-0.23c0.1-0.13,0.19-0.26,0.29-0.4c0.08-0.11,0.15-0.22,0.22-0.33l0.09-0.13
			c0.12-0.17,0.23-0.34,0.33-0.51c0.08-0.12,0.15-0.24,0.22-0.36l0.07-0.11c0.11-0.18,0.21-0.35,0.31-0.52
			c0.06-0.11,0.12-0.22,0.18-0.33l0.14-0.27c0.07-0.14,0.14-0.27,0.21-0.41c0.08-0.17,0.16-0.33,0.24-0.5
			c0.09-0.19,0.17-0.36,0.25-0.54c0.06-0.15,0.13-0.3,0.19-0.45c0.1-0.25,0.18-0.43,0.25-0.61c0.06-0.16,0.13-0.34,0.19-0.52
			c0.06-0.18,0.13-0.36,0.19-0.54c0.06-0.19,0.12-0.36,0.17-0.54c0.06-0.18,0.11-0.36,0.16-0.55c0.05-0.18,0.1-0.36,0.15-0.54
			c0.05-0.19,0.1-0.37,0.14-0.56c0.04-0.19,0.08-0.37,0.12-0.56c0.04-0.19,0.08-0.37,0.11-0.55c0.04-0.19,0.07-0.37,0.1-0.56
			c0.03-0.19,0.06-0.38,0.09-0.57c0.03-0.18,0.05-0.38,0.07-0.57c0.02-0.18,0.04-0.36,0.06-0.55c0.02-0.19,0.04-0.38,0.05-0.57
			c0.01-0.19,0.02-0.38,0.03-0.57c0.01-0.18,0.02-0.37,0.02-0.57c0.01-0.19,0.01-0.38,0.01-0.56c0-0.2,0-0.39,0-0.58
			c0-0.19-0.01-0.39-0.02-0.58c-0.01-0.18-0.02-0.36-0.03-0.55c-0.01-0.21-0.03-0.4-0.05-0.59c-0.02-0.18-0.03-0.37-0.05-0.55
			c-0.02-0.2-0.05-0.4-0.08-0.59c-0.03-0.22-0.05-0.38-0.08-0.54c-0.03-0.18-0.06-0.36-0.1-0.53l-0.03-0.14
			c-0.03-0.15-0.06-0.31-0.09-0.46c-0.04-0.19-0.09-0.39-0.13-0.59l-0.04-0.15c-0.03-0.13-0.06-0.26-0.09-0.38
			c-0.04-0.16-0.09-0.33-0.14-0.5l-0.07-0.26c-0.03-0.11-0.06-0.23-0.1-0.34c-0.07-0.22-0.14-0.43-0.21-0.64l-0.06-0.18
			c-0.03-0.09-0.06-0.19-0.1-0.28c-0.08-0.21-0.16-0.41-0.23-0.61l-0.19-0.48c-0.1-0.24-0.21-0.47-0.32-0.71l-0.17-0.37
			c-0.12-0.25-0.26-0.51-0.39-0.77l-0.14-0.28c-0.16-0.29-0.33-0.59-0.5-0.88l-0.17-0.29c-0.16-0.26-0.36-0.57-0.57-0.88
			c-0.16-0.24-0.32-0.47-0.48-0.7l-155.39-215.45c-0.16-0.23-0.33-0.44-0.49-0.66l-0.01-0.01c-8.13-10.52-22.95-12.66-33.74-4.88
			l-468.66,338c-10.79,7.78-13.44,22.52-6.02,33.56c0.16,0.24,0.32,0.47,0.48,0.69l155.39,215.45
			C873.72,2477.02,873.88,2477.23,874.04,2477.44z M958.6,2419.75l-1.46-0.76c-19.66-10.25-42.73-15.14-66.7-14.13
			c-14.01,0.58-27.59,3.16-40.38,7.67l-1.88,0.66l-77.65-107.66l1.22-1.57c8.31-10.71,15.05-22.79,20.02-35.9
			c8.54-22.48,11.17-45.95,7.62-67.88l-0.26-1.62l1.33-0.96l341.01-245.94l1.46,0.76c19.69,10.29,42.8,15.21,66.82,14.2
			c11.66-0.49,23.12-2.38,34.06-5.62l1.81-0.54l79.96,110.87l-1.08,1.55c-6.53,9.36-11.95,19.63-16.09,30.54
			c-8.52,22.43-11.16,45.86-7.64,67.75l0.26,1.62l-1.33,0.96L958.6,2419.75z M896.57,2399.41c22.04,0,43.17,4.83,61.58,14.11
			l337.13-243.14c-3.28-22.34-0.46-46.11,8.17-68.85c4.07-10.72,9.32-20.85,15.63-30.14l-75.56-104.77
			c-10.81,3.05-22.08,4.84-33.54,5.31c-24.35,1.02-47.85-3.84-68.04-14.05l-337.03,243.07c3.31,22.38,0.51,46.2-8.15,68.99
			c-4.92,12.96-11.5,24.95-19.58,35.68l73.01,101.23c12.73-4.28,26.19-6.74,40.04-7.31
			C892.35,2399.45,894.46,2399.41,896.57,2399.41z"/>
		<path class="st2" d="M1049.55,2306.54c-6.39,0-12.82-0.51-19.24-1.56c-31.32-5.07-58.78-22.04-77.34-47.77
			c-18.56-25.73-25.98-57.15-20.91-88.46c5.07-31.32,22.04-58.78,47.77-77.34c53.11-38.31,127.5-26.26,165.8,26.86
			c38.31,53.12,26.26,127.5-26.86,165.8C1098.32,2298.82,1074.28,2306.54,1049.55,2306.54z M1049.14,2074.34
			c-22.99,0-46.18,6.95-66.21,21.39c-24.58,17.73-40.78,43.96-45.63,73.88c-4.84,29.91,2.25,59.92,19.97,84.5
			c17.73,24.58,43.96,40.78,73.87,45.63c29.91,4.84,59.92-2.25,84.5-19.97c50.74-36.59,62.24-107.64,25.65-158.38l0,0
			C1119.16,2090.68,1084.39,2074.34,1049.14,2074.34z"/>
		<path class="st2" d="M1093.54,2272.69l-15.47-21.45c-11.94,7.46-25.02,12.78-38.92,15.83l-1.71,0.37l-23.08-32.01l4.29-0.67
			c8.41-1.31,17.11-3.55,25.85-6.67c8.66-3.08,15.77-6.61,21.15-10.49c5.29-3.82,7.34-6.47,8.13-8.03c0.89-1.76,0.71-3.35-0.59-5.15
			c-0.82-1.13-1.96-1.7-3.6-1.79c-2.19-0.11-5.59,0.32-10.1,1.29c-4.67,1.01-10.92,2.63-18.59,4.81c-8.97,2.49-16.94,3.68-23.7,3.55
			c-6.93-0.13-13.04-1.58-18.16-4.32c-5.11-2.73-9.96-7.24-14.41-13.42c-6.91-9.58-9.25-19.48-6.96-29.42
			c2.11-9.18,8.23-18.54,18.21-27.85l-13.22-18.33l21.19-15.29l13.03,18.07c10.96-6.66,23.45-11.57,37.18-14.61l2.57-0.57
			l8.28,35.46l-2.68,0.55c-14.61,3-26.47,7.72-35.24,14.06c-4.9,3.53-6.59,5.81-7.14,7.1c-0.64,1.48-0.51,2.68,0.44,3.99
			c0.86,1.19,1.9,1.82,3.27,1.98c1.26,0.15,3.78,0.12,8.64-0.85c4.09-0.81,9.63-2.29,16.48-4.39c14.63-4.28,26.6-5.61,35.62-3.98
			c9.31,1.69,17.19,6.93,23.42,15.56c6.99,9.69,9.62,19.96,7.83,30.52c-1.67,9.85-7.31,19.51-16.78,28.74l15.93,22.09
			L1093.54,2272.69z M1079.43,2244.02l15.31,21.23l12.56-9.06l-15.56-21.57l1.73-1.6c9.62-8.9,15.29-18.1,16.86-27.35
			c1.56-9.24-0.69-17.91-6.9-26.52c-5.47-7.59-12.03-11.98-20.06-13.44c-8.2-1.49-19.35-0.2-33.15,3.84
			c-6.99,2.14-12.71,3.66-16.97,4.51c-4.51,0.9-7.88,1.2-10.3,0.91c-2.84-0.33-5.25-1.77-6.97-4.15c-2.04-2.83-2.39-6.01-1.02-9.21
			c1.2-2.81,4.12-5.86,8.92-9.31c8.84-6.38,20.48-11.21,34.62-14.38l-5.84-25.01c-13,3.15-24.77,8.07-35.04,14.64l-2.12,1.36
			l-12.85-17.81l-12.56,9.06l12.9,17.88l-1.79,1.6c-10.19,9.09-16.36,18.07-18.34,26.69c-1.95,8.51,0.04,16.72,6.09,25.12
			c3.98,5.51,8.22,9.5,12.6,11.84c4.37,2.34,9.67,3.58,15.75,3.69c6.25,0.12,13.7-1.01,22.16-3.36c7.76-2.2,14.12-3.85,18.9-4.88
			c5.04-1.09,8.79-1.55,11.51-1.4c3.24,0.18,5.88,1.56,7.63,3.99c2.47,3.42,2.82,7.11,1.02,10.66c-1.55,3.08-4.75,6.33-9.76,9.95
			c-5.78,4.17-13.34,7.93-22.47,11.18c-7.6,2.71-15.17,4.78-22.58,6.18l16,22.19c13.47-3.15,26.1-8.56,37.59-16.07L1079.43,2244.02z
			"/>
		<path class="st2" d="M1204.27,2091.87c-1.42,0-2.84-0.11-4.27-0.35c-6.94-1.12-13.02-4.88-17.13-10.58
			c-4.11-5.7-5.75-12.66-4.63-19.59c1.12-6.94,4.88-13.02,10.58-17.13c11.76-8.48,28.24-5.81,36.72,5.95l0,0
			c4.11,5.7,5.75,12.66,4.63,19.59c-1.12,6.94-4.88,13.02-10.58,17.13C1215.07,2090.16,1209.74,2091.87,1204.27,2091.87z
			 M1204.18,2044.58c-4.25,0-8.54,1.28-12.24,3.95c-4.55,3.28-7.54,8.13-8.44,13.66c-0.9,5.53,0.41,11.08,3.69,15.63
			c3.28,4.55,8.13,7.54,13.66,8.44c5.53,0.9,11.08-0.41,15.63-3.69c4.55-3.28,7.54-8.13,8.44-13.66c0.9-5.53-0.41-11.08-3.69-15.63
			l0,0C1217.14,2047.61,1210.71,2044.58,1204.18,2044.58z"/>
		<path class="st2" d="M880.27,2325.43c-8.18,0-16.24-3.79-21.37-10.91c-8.48-11.77-5.81-28.24,5.95-36.72
			c5.7-4.11,12.66-5.75,19.59-4.63c6.94,1.12,13.02,4.88,17.13,10.58c4.11,5.7,5.75,12.66,4.63,19.59
			c-1.12,6.94-4.88,13.02-10.58,17.13C890.97,2323.81,885.6,2325.43,880.27,2325.43z M880.19,2278.14c-4.37,0-8.61,1.36-12.23,3.97
			c-4.55,3.28-7.54,8.13-8.44,13.66c-0.9,5.53,0.41,11.08,3.69,15.63c6.77,9.39,19.91,11.52,29.29,4.75
			c4.55-3.28,7.54-8.13,8.44-13.66c0.9-5.53-0.41-11.08-3.69-15.63c-3.28-4.55-8.13-7.54-13.66-8.44
			C882.45,2278.23,881.32,2278.14,880.19,2278.14z"/>
	</g>
	<g>
		<path class="st2" d="M2379.5,1625.6c-5,0-9.99-0.95-14.76-2.84l-407.81-162.24c-9.92-3.95-17.73-11.56-21.98-21.43
			c-4.25-9.87-4.42-20.77-0.47-30.69l83.14-208.97c3.95-9.92,11.56-17.73,21.43-21.98c9.87-4.25,20.77-4.42,30.69-0.47
			l407.81,162.24c20.56,8.18,30.63,31.56,22.45,52.12l-83.14,208.97c-3.95,9.92-11.56,17.73-21.43,21.98
			C2390.31,1624.49,2384.91,1625.6,2379.5,1625.6z M2055,1179.45c-4.69,0-9.38,0.96-13.83,2.88c-8.57,3.69-15.17,10.46-18.59,19.06
			l-83.14,208.97c-3.42,8.6-3.27,18.05,0.42,26.62c3.69,8.57,10.46,15.17,19.06,18.59l407.81,162.24c8.6,3.42,18.05,3.27,26.62-0.42
			c8.57-3.69,15.17-10.46,18.59-19.06l83.14-208.97c7.09-17.83-1.64-38.12-19.48-45.21l-407.81-162.24
			C2063.65,1180.27,2059.33,1179.45,2055,1179.45z"/>
		<path class="st2" d="M2477.97,1446.73l-482.38-191.91l20.79-52.25l482.38,191.91L2477.97,1446.73z M2002.5,1251.84l472.49,187.98
			l16.85-42.36l-472.49-187.98L2002.5,1251.84z"/>
		<path class="st2" d="M2222.73,1533.47l-97.97-38.98l7.45-18.74l97.98,38.98L2222.73,1533.47z M2131.67,1491.52l88.08,35.04
			l3.52-8.85l-88.08-35.04L2131.67,1491.52z"/>
		<path class="st2" d="M2334.49,1583.54l-90.26-35.91l7-17.59l90.26,35.91L2334.49,1583.54z M2251.14,1544.65l80.37,31.98l3.06-7.7
			l-80.37-31.97L2251.14,1544.65z"/>
		<path class="st2" d="M2170.34,1411.74l-186.18-74.07l24.73-62.15l186.18,74.07L2170.34,1411.74z M1991.07,1334.69l176.29,70.14
			l20.79-52.26l-176.29-70.14L1991.07,1334.69z"/>
		<path class="st2" d="M2405.75,1479.51l-188.14-74.85l9.43-23.7l188.14,74.85L2405.75,1479.51z M2224.52,1401.68l178.25,70.92
			l5.5-13.81l-178.25-70.92L2224.52,1401.68z"/>
		<path class="st2" d="M2392.34,1513.21l-188.14-74.85l9.43-23.7l188.14,74.85L2392.34,1513.21z M2211.11,1435.39l178.25,70.92
			l5.5-13.81l-178.25-70.92L2211.11,1435.39z"/>
		<path class="st2" d="M2378.73,1547.41l-188.14-74.85l9.43-23.7l188.14,74.85L2378.73,1547.41z M2197.51,1469.59l178.25,70.92
			l5.5-13.81L2203,1455.77L2197.51,1469.59z"/>
	</g>
	<g>
		<path class="st2" d="M337.07,3040.23c-8.19,0-15.97-2.81-22.23-8.11l-413.28-349.26c-12.59-10.64-15.94-28.58-8.16-43.62
			c0.7-1.35,1.49-2.69,2.36-3.95c0.29-0.43,0.6-0.85,0.93-1.28c0.37-0.5,0.8-1.05,1.29-1.62l287.4-340.09
			c0.49-0.58,0.95-1.09,1.41-1.57c0.34-0.37,0.71-0.74,1.09-1.11c1.09-1.06,2.27-2.07,3.5-2.98c13.53-10.18,31.78-9.87,44.36,0.77
			l413.28,349.26c7.22,6.1,11.53,14.74,12.13,24.33c0.6,9.48-2.48,18.74-8.66,26.06l-287.4,340.08c-6.19,7.32-14.8,11.9-24.25,12.89
			C339.59,3040.16,338.32,3040.23,337.07,3040.23z M213.3,2284.64c-6.55,0-13.17,2.08-18.71,6.25l-0.01,0
			c-1.05,0.78-2.05,1.64-2.99,2.55c-0.32,0.31-0.63,0.62-0.93,0.95c-0.4,0.42-0.79,0.85-1.2,1.34l-287.4,340.09
			c-0.41,0.49-0.77,0.94-1.1,1.38c-0.29,0.38-0.55,0.73-0.79,1.09c-0.75,1.09-1.43,2.22-2.02,3.38
			c-6.54,12.63-3.65,28.24,6.86,37.12l413.28,349.26c6.1,5.16,13.92,7.53,22.02,6.68c8.08-0.85,15.44-4.76,20.74-11.03l287.4-340.09
			c5.3-6.27,7.93-14.18,7.42-22.29c-0.51-8.13-4.16-15.45-10.26-20.6l-413.28-349.26C226.94,2286.93,220.16,2284.64,213.3,2284.64z
			 M22.5,2736.52l-99.1-83.75l288.5-341.38l99.1,83.75l-1.72,2.03L22.5,2736.52z M-69.1,2652.14l90.97,76.88l281.63-333.25
			l-90.97-76.88L-69.1,2652.14z"/>
		<path class="st2" d="M20.78,2738.55l-99.1-83.75l1.72-2.03l288.5-341.38l99.1,83.75l-1.72,2.03L20.78,2738.55z M-70.82,2654.17
			l90.97,76.88l283.35-335.28l-90.97-76.88L-70.82,2654.17z"/>
		<g>
			<path class="st2" d="M311.34,2672.56c-6.99,0-13.7-2.45-19.08-6.99l-77.69-65.65c-12.52-10.58-14.09-29.37-3.52-41.88
				l92.05-108.92c3.24-3.83,7.43-6.79,12.11-8.57c3.98-1.52,8.35-2.17,12.63-1.85c6.33,0.4,12.27,2.79,17.14,6.9l77.69,65.65
				c12.52,10.58,14.09,29.36,3.52,41.88l-92.05,108.92c-4.1,4.85-9.54,8.19-15.74,9.67c-1.56,0.39-3.27,0.65-5.03,0.77
				C312.69,2672.53,312.02,2672.56,311.34,2672.56z M325.72,2443.93c-2.95,0-5.89,0.54-8.61,1.58c-3.85,1.46-7.28,3.89-9.94,7.03
				l-92.05,108.92c-8.68,10.27-7.39,25.7,2.89,34.38l77.69,65.65c4.84,4.09,10.99,6.1,17.32,5.68c1.45-0.1,2.84-0.31,4.12-0.63
				c5.12-1.22,9.58-3.96,12.94-7.93l92.05-108.92c8.68-10.27,7.39-25.7-2.89-34.38l-77.69-65.65c-3.99-3.37-8.86-5.33-14.07-5.66
				C326.9,2443.96,326.31,2443.93,325.72,2443.93z"/>
			<path class="st2" d="M300.68,2597.3l-20.98-17.73l18.81-22.25l-24.96-21.09l16.22-19.19l24.96,21.09l18.91-22.38l20.98,17.73
				l-18.91,22.38l24.82,20.97l-16.22,19.19l-24.82-20.97L300.68,2597.3z M287.2,2578.93l12.85,10.86l18.81-22.26l24.82,20.97
				l9.35-11.06l-24.82-20.97l18.91-22.38l-12.85-10.86l-18.91,22.38l-24.96-21.09l-9.35,11.06l24.96,21.09L287.2,2578.93z"/>
		</g>
		<g>
			<path class="st2" d="M174.46,2836.53c-7.04,0-13.79-2.46-19.21-7.04L77,2763.36c-12.6-10.65-14.19-29.56-3.54-42.16l92.72-109.71
				c3.26-3.85,7.47-6.84,12.19-8.62c4.01-1.53,8.41-2.18,12.71-1.86c6.38,0.4,12.35,2.81,17.25,6.95l78.25,66.13
				c6.08,5.14,9.79,12.36,10.47,20.34c0.67,7.99-1.79,15.73-6.93,21.81l-92.72,109.71c-4.13,4.89-9.61,8.25-15.85,9.73
				c-1.57,0.4-3.29,0.66-5.06,0.78C175.82,2836.51,175.14,2836.53,174.46,2836.53z M188.94,2606.25c-2.97,0-5.94,0.54-8.68,1.59
				c-3.88,1.47-7.34,3.92-10.02,7.08l-92.72,109.71c-8.75,10.36-7.45,25.9,2.91,34.66l78.25,66.13c4.88,4.12,11.08,6.16,17.46,5.72
				c1.46-0.1,2.86-0.31,4.16-0.64c5.16-1.23,9.66-3.99,13.04-8l92.72-109.71c4.22-5,6.24-11.36,5.69-17.93
				c-0.55-6.57-3.61-12.51-8.6-16.72l-78.25-66.13c-4.02-3.4-8.93-5.37-14.18-5.71C190.13,2606.27,189.54,2606.25,188.94,2606.25z"
				/>
			<path class="st2" d="M163.82,2760.8l-21.78-18.41l54.3-64.26l21.78,18.41L163.82,2760.8z M149.54,2741.76l13.65,11.53
				l47.43-56.13l-13.65-11.53L149.54,2741.76z"/>
		</g>
		<g>
			<path class="st2" d="M471.09,2801.04c-6.99,0-13.7-2.44-19.08-6.99l-77.69-65.65c-6.04-5.11-9.74-12.29-10.4-20.21
				c-0.67-7.93,1.78-15.62,6.89-21.67l92.05-108.92c3.24-3.83,7.43-6.79,12.11-8.57c3.98-1.52,8.36-2.17,12.63-1.85
				c6.33,0.4,12.27,2.79,17.14,6.9l77.69,65.65c12.52,10.58,14.09,29.37,3.52,41.88l-92.05,108.92c-4.1,4.85-9.54,8.19-15.74,9.67
				c-1.56,0.39-3.27,0.65-5.03,0.77C472.44,2801.02,471.76,2801.04,471.09,2801.04z M485.47,2572.42c-2.95,0-5.89,0.54-8.61,1.58
				c-3.85,1.46-7.28,3.89-9.94,7.03l-92.05,108.92c-4.19,4.96-6.2,11.27-5.65,17.79c0.55,6.51,3.58,12.41,8.53,16.59l77.69,65.66
				c4.84,4.09,10.99,6.11,17.32,5.68c1.45-0.1,2.84-0.31,4.12-0.63c5.12-1.22,9.58-3.96,12.94-7.93l92.05-108.92
				c8.68-10.27,7.39-25.7-2.89-34.38l-77.69-65.65c-3.99-3.37-8.86-5.33-14.07-5.66C486.64,2572.44,486.05,2572.42,485.47,2572.42z"
				/>
			<path class="st2" d="M471.97,2731.21l-17.69-14.95l51.82-61.32l17.69,14.95L471.97,2731.21z M461.78,2715.63l9.56,8.08
				l44.95-53.19l-9.56-8.08L461.78,2715.63z M450.64,2713.18l-17.69-14.95l51.82-61.32l17.69,14.95L450.64,2713.18z M440.45,2697.61
				l9.56,8.08l44.95-53.19l-9.56-8.08L440.45,2697.61z"/>
		</g>
		<g>
			<path class="st2" d="M328.33,2964.48c-6.83,0-13.38-2.39-18.63-6.83l-75.68-63.96c-5.9-4.99-9.51-12-10.16-19.74
				c-0.65-7.74,1.74-15.26,6.72-21.16l89.67-106.11c3.16-3.74,7.25-6.63,11.83-8.37c3.89-1.49,8.16-2.11,12.33-1.81
				c6.18,0.39,11.98,2.72,16.74,6.74l75.68,63.96c5.9,4.98,9.5,11.99,10.15,19.73c0.65,7.75-1.73,15.26-6.72,21.16l-89.67,106.11
				c-4,4.74-9.32,8-15.37,9.44c-1.53,0.38-3.19,0.64-4.91,0.75C329.65,2964.46,328.99,2964.48,328.33,2964.48z M342.34,2741.76
				c-2.86,0-5.72,0.52-8.36,1.53c-3.74,1.42-7.08,3.78-9.65,6.83l-89.67,106.11c-4.07,4.81-6.02,10.95-5.49,17.28
				c0.53,6.33,3.47,12.05,8.29,16.12l75.68,63.96c4.7,3.97,10.67,5.93,16.82,5.51c1.41-0.09,2.75-0.3,4.01-0.61
				c4.97-1.18,9.3-3.84,12.57-7.71l89.67-106.11c4.07-4.81,6.01-10.95,5.48-17.28c-0.53-6.33-3.48-12.05-8.29-16.12l-75.68-63.96
				c-3.88-3.28-8.6-5.18-13.66-5.5C343.48,2741.79,342.91,2741.76,342.34,2741.76z"/>
			<path class="st2" d="M332.72,2890.76l-2.87-24l-17.22,15.59l-12.97-22.02l20.53-10.31l-21.01-12.94l17.68-20.97l16.29,18.51
				l6.57-21.8l24.05,8.88l-12.49,19.64l24.08-1.16l-2.57,25.97l-23.73-4.96l8.89,22.54L332.72,2890.76z M333.91,2855.9l3.36,28.07
				l13.56-3.77l-10.34-26.23l27.59,5.76l1.38-13.94l-28.17,1.35l14.46-22.74l-12.55-4.64l-7.7,25.56l-18.53-21.07l-9.72,11.52
				l23.88,14.7l-23.98,12.04l6.77,11.49L333.91,2855.9z"/>
		</g>
	</g>
	<path class="st2" d="M1291.14,1611.04c-12.78,0-19.4-4.42-19.99-4.83l-4.97-3.49l5.94-1.29c21-4.55,32.73-23.41,38.32-35.88
		c-22.26-8.27-41.17-21.03-54.82-37.02c-14.66-17.18-22.42-37.19-22.42-57.88c0-28.26,14.28-54.78,40.21-74.68
		c25.72-19.74,59.88-30.61,96.18-30.61c36.3,0,70.46,10.87,96.18,30.61c25.93,19.9,40.21,46.42,40.21,74.68
		c0,28.26-14.28,54.78-40.21,74.68c-25.72,19.74-59.88,30.61-96.18,30.61c-1.18,0-2.43-0.02-3.85-0.05
		C1331.54,1604.44,1306.75,1611.04,1291.14,1611.04z M1280.65,1604.4c3.59,0.93,8.68,1.62,15.26,1.04
		c13.48-1.19,36.08-8.11,67.18-34.27l0.77-0.65l1.01,0.03c1.82,0.05,3.32,0.07,4.72,0.07c72.27,0,131.07-44.84,131.07-99.96
		c0-55.12-58.8-99.96-131.07-99.96s-131.07,44.84-131.07,99.96c0,38.89,29.97,74.55,76.35,90.85l2.65,0.93l-1.07,2.6
		C1311.56,1576.87,1300.72,1596.55,1280.65,1604.4z"/>
	<g>
		<path class="st2" d="M1063.47,1335.9l-201.91-44.57l-19.22-47.06l250.33,57.92L1063.47,1335.9z M865.43,1286.74l196.09,43.29
			l21.34-24.64l-231.71-53.61L865.43,1286.74z"/>
		<path class="st2" d="M700.58,1539.94l-223.17-54.76l-17.74,20.47L385,1445.77l147.81-24.54l-25.31,29.22l172.08,41.13
			l-40.8-109.06l25.93-29.92l245.98,53.98l-30.87,35.63l-192.94-42.27l42.98,106.2L700.58,1539.94z M475.52,1479.24L698.69,1534
			l25.02-28.88l-45.55-112.54l199.71,43.75l22.94-26.47l-234.14-51.38l-21.78,25.14l43.2,115.46l-190.33-45.49l21.39-24.69
			l-121.51,20.17l61.38,49.23L475.52,1479.24z"/>
		<path class="st2" d="M910.05,1406.72l-48.32-8.25l-45.92-122.72l27.77-32.05L910.05,1406.72z M865.64,1393.73l35.87,6.13
			l-59.58-146.14l-20.02,23.11L865.64,1393.73z"/>
	</g>
	<g>
		<path class="st2" d="M2196.98,2754.86c-4.26,0-8.53-0.65-12.7-1.95l-354.37-110.85c-11.43-3.58-20.82-11.63-26.43-22.69
			c-5.57-10.97-6.66-23.35-3.06-34.84l80.29-256.68c7.21-23.05,31.85-35.16,56.11-27.58l40.92,12.8l-8.15,26.05
			c-4.56,14.57,3.45,30.1,17.86,34.6c7,2.19,14.42,1.49,20.92-1.97c6.48-3.45,11.27-9.24,13.47-16.3l8.15-26.05l166.9,52.21
			l-8.15,26.05c-4.56,14.57,3.46,30.1,17.87,34.61c14.39,4.5,29.82-3.69,34.38-18.26l8.15-26.05l42.06,13.16
			c24.01,7.51,36.58,30.84,29.25,54.28l-2.54-0.79l2.54,0.79l-80.29,256.68c-3.61,11.55-11.34,21.16-21.75,27.04
			C2211.68,2752.93,2204.35,2754.86,2196.98,2754.86z M1922.19,2303.34c-5.98,0-11.83,1.28-17.16,3.82
			c-9.3,4.43-16.14,12.35-19.25,22.29l-80.29,256.68c-3.18,10.16-2.21,21.12,2.73,30.85c4.96,9.76,13.22,16.87,23.27,20.02
			l354.37,110.85c9.96,3.12,20.59,1.93,29.91-3.34c9.23-5.22,16.08-13.74,19.29-24l80.29-256.68c6.42-20.54-4.65-41.01-25.76-47.61
			l-36.98-11.57l-6.56,20.97c-4.42,14.14-17.44,23.23-31.4,23.23c-3.2,0-6.44-0.48-9.65-1.48c-17.21-5.38-26.79-23.9-21.36-41.28
			l6.56-20.97l-156.74-49.03l-6.56,20.97c-2.63,8.4-8.33,15.29-16.05,19.4c-7.76,4.13-16.64,4.96-25.01,2.35
			c-17.2-5.38-26.78-23.9-21.35-41.27l6.56-20.97l-35.84-11.21C1930.91,2304.01,1926.52,2303.34,1922.19,2303.34z"/>
		<path class="st2" d="M2204.93,2718.59L1832.5,2602.1l58.77-187.89l372.43,116.49L2204.93,2718.59z M1839.17,2598.61l362.27,113.32
			l55.59-177.73l-362.27-113.32L1839.17,2598.61z"/>
		<g>
			<path class="st2" d="M1948.94,2528.28l-59.46-18.6l18.6-59.47l59.47,18.6L1948.94,2528.28z M1896.15,2506.19l49.31,15.42
				l15.42-49.31l-49.31-15.42L1896.15,2506.19z"/>
			<path class="st2" d="M2036.22,2555.58l-59.47-18.6l18.6-59.47l59.47,18.6L2036.22,2555.58z M1983.42,2533.49l49.31,15.42
				l15.42-49.31l-49.31-15.42L1983.42,2533.49z"/>
			<path class="st2" d="M2123.5,2582.88l-59.47-18.6l18.6-59.47l59.47,18.6L2123.5,2582.88z M2070.7,2560.79l49.31,15.42
				l15.42-49.31l-49.31-15.42L2070.7,2560.79z"/>
			<path class="st2" d="M2210.78,2610.18l-59.47-18.6l18.6-59.47l59.47,18.6L2210.78,2610.18z M2157.98,2588.09l49.31,15.42
				l15.42-49.31l-49.31-15.42L2157.98,2588.09z"/>
		</g>
		<g>
			<path class="st2" d="M1924.9,2605.14l-59.47-18.6l18.6-59.47l59.47,18.6L1924.9,2605.14z M1872.11,2583.05l49.31,15.42
				l15.42-49.31l-49.31-15.42L1872.11,2583.05z"/>
			<path class="st2" d="M2012.18,2632.44l-59.47-18.6l18.6-59.47l59.47,18.6L2012.18,2632.44z M1959.38,2610.35l49.31,15.42
				l15.42-49.31l-49.31-15.42L1959.38,2610.35z"/>
			<path class="st2" d="M2099.46,2659.74l-59.47-18.6l18.6-59.47l59.47,18.6L2099.46,2659.74z M2046.66,2637.65l49.31,15.42
				l15.42-49.31l-49.31-15.42L2046.66,2637.65z"/>
			<path class="st2" d="M2186.74,2687.04l-59.47-18.6l18.6-59.47l59.47,18.6L2186.74,2687.04z M2133.94,2664.95l49.31,15.42
				l15.42-49.31l-49.31-15.42L2133.94,2664.95z"/>
		</g>
		<path class="st2" d="M1997.46,2366.55c-1.78,0-3.59-0.27-5.37-0.82l-3.46-1.08c-9.49-2.97-14.79-13.1-11.83-22.59l10.74-34.33
			c1.43-4.58,4.58-8.34,8.86-10.58c4.28-2.24,9.16-2.68,13.74-1.25l3.46,1.08c9.49,2.97,14.79,13.1,11.83,22.59l-10.74,34.33
			C2012.27,2361.61,2005.13,2366.55,1997.46,2366.55z M2004.76,2300.4c-2.03,0-4.05,0.49-5.9,1.47c-3.02,1.58-5.24,4.23-6.24,7.45
			l-10.74,34.33c-2.09,6.69,1.65,13.83,8.34,15.92l3.46,1.08c6.68,2.09,13.83-1.65,15.92-8.33l10.74-34.33
			c1.01-3.22,0.69-6.66-0.89-9.68c-1.58-3.02-4.22-5.24-7.45-6.24l-3.46-1.08C2007.3,2300.59,2006.03,2300.4,2004.76,2300.4z"/>
		<path class="st2" d="M2216.59,2435.1c-1.78,0-3.59-0.27-5.37-0.82l-3.46-1.08c-4.58-1.43-8.34-4.58-10.58-8.85
			c-2.24-4.28-2.68-9.16-1.25-13.74l10.74-34.33c2.97-9.49,13.1-14.79,22.59-11.83l3.46,1.08c9.49,2.97,14.79,13.1,11.83,22.59
			l-10.74,34.33C2231.4,2430.15,2224.27,2435.1,2216.59,2435.1z M2212.81,2429.19c6.69,2.09,13.83-1.65,15.92-8.34l10.74-34.33
			c2.09-6.69-1.65-13.83-8.34-15.92l-3.46-1.08c-6.69-2.09-13.83,1.65-15.92,8.33l-10.74,34.33c-1.01,3.22-0.69,6.66,0.89,9.68
			c1.58,3.02,4.22,5.24,7.45,6.24L2212.81,2429.19z"/>
	</g>
	<path class="st2" d="M1686.52,1391.81c-11.17,0-21.82-1.53-31.6-4.6l-2.32-0.73l0.51-2.37c0.29-1.34,0.57-2.7,0.86-4.06
		c0.61-2.95,1.25-5.99,2-9c2.96-11.89,6.02-23.96,8.97-35.64c7.52-29.72,15.29-60.45,22.25-90.81c2.23-9.72,2.09-20.65-0.39-29.98
		c-8.23-31.08-17.34-62.49-26.15-92.88c-3.21-11.06-6.52-22.5-9.75-33.76l-4.4-15.35l2.71-0.64c31.75-7.5,64.84-4.77,95.71,7.89
		c30.72,12.6,56.54,33.92,74.66,61.66c18.38,28.14,27.38,60.71,26.02,94.2c-1.36,33.48-12.97,65.49-33.58,92.59
		c-17.73,23.31-43.76,42.28-73.3,53.41C1720.97,1388.43,1703.17,1391.81,1686.52,1391.81z M1658.83,1382.83
		c47.86,13.57,114.13-11.94,148.97-57.74c40.33-53.02,43.28-125.62,7.33-180.65c-35.42-54.22-100.21-81.27-161.96-67.89l2.86,9.96
		c3.22,11.25,6.54,22.69,9.75,33.75c8.82,30.41,17.93,61.86,26.18,93c2.69,10.14,2.84,22,0.43,32.53
		c-6.97,30.42-14.75,61.18-22.28,90.93c-2.95,11.67-6.01,23.74-8.97,35.62c-0.72,2.91-1.35,5.9-1.95,8.8
		C1659.07,1381.7,1658.95,1382.27,1658.83,1382.83z"/>
	<path class="st2" d="M1637.44,1384.95l-2.77-0.99c-50.69-18.22-84.32-50.7-102.8-99.28l-1.03-2.71l142.49-40.83L1637.44,1384.95z
		 M1537.9,1285.48c17.76,44.67,49.14,74.96,95.81,92.45l32.23-129.14L1537.9,1285.48z"/>
	<path class="st2" d="M1526.83,1266.12l-0.67-2.67c-9.07-36.23-2.89-77.46,16.96-113.13c19.85-35.68,51.27-62.04,86.22-72.34
		l2.57-0.76l42.05,146.74L1526.83,1266.12z M1628.28,1083.87c-68.08,21.76-113.86,104.12-97.6,175.61l136.69-39.17L1628.28,1083.87z
		"/>
	<path class="st2" d="M326.11,2001.35c-4.59,0-9.39-0.83-14.27-2.51c-11.99-4.13-23.07-12.91-31.21-24.74l-73.79-107.32l0.31-0.21
		c-0.94-2.94-0.05-6.15,2.43-7.85l4.76-3.27l-24.84-36.13c-16.83,6.94-34.45,10.27-51.88,10.27c-44.07,0-86.98-21.3-113.17-59.4
		c-42.81-62.26-26.98-147.75,35.28-190.57c62.27-42.81,147.76-26.98,190.57,35.28c18.43,26.81,26.74,59.37,23.39,91.68
		c-3.23,31.2-17.06,60.4-39.03,82.5l24.45,35.57l6.51-4.48c3.08-2.12,7.46-1.14,9.75,2.19l72.46,105.4
		c16.98,24.69,15.7,55.16-2.84,67.91C339.51,1999.44,333.06,2001.35,326.11,2001.35z M214.27,1868.18l70.75,102.9
		c7.49,10.9,17.63,18.97,28.55,22.72c10.63,3.66,20.72,2.76,28.41-2.52c16.13-11.09,16.79-38.23,1.47-60.51L271,1825.37
		c-0.62-0.9-1.69-1.27-2.35-0.82l-10.9,7.49l-30-43.63l1.61-1.57c46.07-44.83,53.03-115.87,16.56-168.93
		c-41.15-59.84-123.32-75.06-183.17-33.91c-59.85,41.16-75.06,123.33-33.91,183.17c35.54,51.68,103.07,71.2,160.58,46.4l2.01-0.87
		l30.32,44.1l-9.14,6.29c-0.56,0.38-0.69,1.59-0.01,2.58l1.7,2.5L214.27,1868.18z M137.48,1794.28c-0.53,0-1.05,0-1.57-0.01
		c-20.7-0.32-40.53-6.78-57.36-18.7c-9.75-6.9-18.17-15.45-25-25.39c-31.77-46.22-20.02-109.68,26.2-141.46
		c21.98-15.11,48.55-20.94,74.82-16.44c27.28,4.68,50.94,19.82,66.63,42.63c15.4,22.39,21.15,49.43,16.21,76.15
		c-4.95,26.72-20,49.91-42.39,65.3C177.94,1788.1,158.08,1794.28,137.48,1794.28z M137.22,1596.12c-19.33,0-38.22,5.82-54.46,16.98
		c-43.8,30.12-54.94,90.26-24.82,134.06c6.48,9.42,14.45,17.52,23.69,24.06l0,0c32.83,23.26,77.19,23.57,110.37,0.76
		c21.22-14.59,35.49-36.57,40.17-61.89c4.69-25.32-0.77-50.95-15.36-72.16c-14.86-21.62-37.29-35.96-63.14-40.4
		C148.18,1596.59,142.68,1596.12,137.22,1596.12z"/>
	<path class="st2" d="M137.22,1794.29c-24.51,0-47.93-8.73-66.61-24.97c-20.51-17.83-32.84-42.58-34.73-69.69
		c-1.89-27.11,6.89-53.33,24.72-73.84c17.83-20.51,42.58-32.84,69.69-34.73c55.97-3.89,104.67,38.45,108.57,94.41
		c1.89,27.11-6.89,53.33-24.72,73.84c-17.83,20.51-42.58,32.84-69.69,34.73C142.04,1794.2,139.62,1794.29,137.22,1794.29z
		 M137.44,1596.12c-2.24,0-4.5,0.08-6.77,0.24c-53.04,3.7-93.17,49.85-89.47,102.89c1.79,25.69,13.48,49.15,32.91,66.05
		c19.43,16.9,44.28,25.22,69.98,23.43c53.04-3.7,93.17-49.86,89.47-102.89C230.02,1635.07,187.58,1596.12,137.44,1596.12z"/>
	<path class="st2" d="M716.55,1172.29c-1.21,0-2.43-0.16-3.62-0.48l-46.93-12.63c-3.59-0.97-6.58-3.27-8.44-6.48
		c-1.86-3.22-2.36-6.96-1.39-10.54l6.4-25.53c-14.56-8.19-24.95-16.34-35.02-27.51l-22.44,12.89c-3.27,1.87-6.56,2.42-9.53,1.59
		c-2.93-0.83-5.47-2.99-7.35-6.26l-24.17-42.1c-1.88-3.27-2.55-6.63-1.94-9.71c0.65-3.32,2.73-6.06,6-7.94l22.35-12.84
		c-4.31-14.19-5.94-27.18-5.52-43.87l-25.16-6.86c-7.41-2-11.8-9.66-9.8-17.07l12.66-46.88c0.97-3.58,3.27-6.58,6.49-8.43
		c3.21-1.84,6.93-2.33,10.5-1.38l26.01,6.19c7.94-14.06,16.67-25.08,27.97-35.29l-12.89-22.44c-4.36-7.59-3.29-14.73,2.74-18.19
		l42.1-24.17c3.17-1.82,7.13-2.27,10.87-1.23c3.71,1.03,6.89,3.44,8.71,6.61l12.84,22.36c15.81-4.79,28.92-5.66,43.23-5.27
		l6.72-24.96c0.97-3.59,3.27-6.58,6.48-8.42c3.21-1.85,6.96-2.33,10.54-1.36l46.85,12.68c3.58,0.97,6.57,3.28,8.42,6.5
		c1.85,3.22,2.33,6.97,1.36,10.55l-6.67,25.09c11.72,6.71,23.89,16.23,34.62,27.07l22.53-12.94c3.18-1.83,7.14-2.54,10.84-1.96
		c4.13,0.65,7.43,2.79,9.28,6.02l24.17,42.1c3.94,6.87-0.82,14.53-7.31,18.26l-22.35,12.84c4.39,14.44,6.19,28.34,5.78,44.54
		l25.38,7.01c3.57,0.96,6.57,3.29,8.44,6.54s2.36,7.01,1.39,10.59l-12.65,46.9c-2.01,7.41-9.65,11.81-17.03,9.81l-24.64-6.88
		c-7.26,12.98-14.51,23.52-26.57,34.44l12.89,22.44c3.66,6.37,0.97,14.8-5.99,18.8l-42.1,24.17c-4.16,2.39-7.53,1.75-9.64,0.79
		c-2.52-1.15-4.77-3.43-6.69-6.78l-12.84-22.35c-14.8,4.5-29.25,6.43-45.17,6.03l-7.15,25.58c-0.96,3.56-3.29,6.57-6.56,8.44
		C721.37,1171.65,718.97,1172.29,716.55,1172.29z M628.66,1082.34l1.44,1.64c10.51,11.98,21.18,20.38,36.83,28.98l1.8,0.99
		l-7.41,29.55c-0.61,2.25-0.3,4.55,0.84,6.54c1.15,1.98,3,3.4,5.22,4l46.93,12.63c2.21,0.6,4.55,0.29,6.58-0.88
		c2.03-1.17,3.48-3.03,4.08-5.24l7.83-28.01l2.1-1.56l0.93,0.03c16.66,0.58,31.61-1.45,47.03-6.38l2.05-0.65l14.97,26.07
		c1.34,2.33,2.82,3.92,4.28,4.58c0.91,0.42,2.39,0.81,4.77-0.56l42.1-24.17c3.85-2.21,6.48-7.25,4.02-11.54l-15.05-26.21l1.64-1.44
		c13.05-11.45,20.42-22.38,28.07-36.3l1.02-1.85l28.68,8.01c4.53,1.23,9.24-1.49,10.48-6.07l12.65-46.9
		c0.6-2.21,0.29-4.54-0.87-6.56c-1.16-2.02-3.01-3.45-5.22-4.05l-27.87-7.7l-1.52-1.83l0.03-1.01c0.6-17.34-1.23-31.28-6.12-46.59
		l-0.65-2.05l26.07-14.97c4.25-2.44,7.57-7.12,5.34-10.99v0l-24.17-42.1c-1.4-2.44-4.04-3.18-5.49-3.41
		c-2.49-0.39-5.24,0.1-7.37,1.32l-26.11,14.99l-1.44-1.49c-11.27-11.66-24.28-21.82-36.63-28.61l-1.82-1l7.74-29.11
		c0.6-2.22,0.3-4.53-0.84-6.52c-1.14-1.99-2.98-3.41-5.19-4.01l-46.85-12.68c-2.21-0.6-4.52-0.3-6.5,0.83
		c-1.98,1.14-3.4,2.98-3.99,5.19l-6.92,25.69l2.49,3.45l-5.43-0.19c-15.25-0.53-28.84,0.22-45.67,5.6l-2.05,0.65l-14.97-26.07
		c-1.13-1.97-3.14-3.48-5.52-4.14c-2.37-0.66-4.85-0.4-6.79,0.72l-42.1,24.17c-4.78,2.75-2.13,8.56-0.77,10.93l15.05,26.21
		l-1.64,1.44c-12.25,10.75-21.05,21.84-29.43,37.07l-0.98,1.78l-30.06-7.16c-2.21-0.6-4.52-0.3-6.5,0.84
		c-1.98,1.14-3.41,2.99-4.01,5.2l-12.66,46.88c-1.24,4.58,1.48,9.31,6.06,10.55l27.54,7.51l1.65,1.37l-0.05,1.31
		c-0.62,17.81,1.08,31.17,5.85,46.11l0.65,2.05l-26.07,14.97c-1.92,1.1-3.08,2.57-3.43,4.36c-0.36,1.8,0.11,3.89,1.34,6.03
		l24.17,42.1c1.18,2.06,2.59,3.34,4.18,3.78c1.58,0.45,3.41,0.08,5.43-1.08L628.66,1082.34z M738.87,1055.24
		c-1.77,0-3.53-0.06-5.29-0.19c-1.16-0.08-2.33-0.2-3.47-0.34c-0.58-0.07-1.15-0.15-1.73-0.23c-1.72-0.25-3.44-0.57-5.14-0.94
		c-19.94-4.38-37.2-17.05-47.36-34.74c-4.93-8.59-8.02-17.9-9.16-27.66c-0.47-4.02-0.6-8.11-0.39-12.17
		c0.07-1.33,0.18-2.69,0.32-4.02c0.36-3.33,0.95-6.66,1.77-9.91c0.81-3.25,1.86-6.46,3.11-9.56c0.22-0.54,0.44-1.07,0.67-1.61
		c0.46-1.06,0.95-2.13,1.46-3.17c0.51-1.04,1.05-2.09,1.61-3.1c1.12-2.04,2.36-4.05,3.68-5.98c0.43-0.63,0.88-1.26,1.33-1.87
		c0.49-0.67,0.99-1.33,1.5-1.98l0,0c5.75-7.3,12.77-13.36,20.88-18.02c10.09-5.79,21.06-9.01,32.6-9.57
		c1.17-0.06,2.34-0.09,3.51-0.08c0.58,0,1.17,0.01,1.75,0.02c1.16,0.03,2.34,0.09,3.5,0.17c1.15,0.08,2.32,0.2,3.47,0.34
		c0.58,0.07,1.15,0.15,1.73,0.23c2.29,0.33,4.59,0.78,6.83,1.33c0.56,0.14,1.13,0.28,1.69,0.43c1.11,0.3,2.23,0.63,3.34,0.99
		c0.55,0.18,1.1,0.36,1.65,0.55c1.09,0.38,2.19,0.79,3.26,1.23c0.54,0.22,1.07,0.44,1.61,0.67c0.75,0.33,1.5,0.67,2.24,1.02
		c0.92,0.43,1.73,0.84,2.49,1.23c1.03,0.54,2.06,1.1,3.07,1.69c1.3,0.76,2.64,1.6,3.97,2.49c0.65,0.44,1.29,0.88,1.93,1.34
		c0.95,0.69,1.9,1.4,2.81,2.14c1.39,1.11,2.74,2.28,4.04,3.48c0.87,0.81,1.74,1.65,2.56,2.5c4.25,4.35,7.95,9.26,11.01,14.59
		c5.49,9.56,8.67,19.93,9.46,30.85c0.13,1.74,0.19,3.51,0.19,5.26c0,1.16-0.03,2.34-0.09,3.5c-0.06,1.15-0.14,2.32-0.25,3.48
		c-0.28,2.88-0.74,5.77-1.36,8.6c-0.25,1.13-0.53,2.26-0.83,3.38c-0.45,1.68-0.97,3.36-1.54,4.99c-0.38,1.09-0.79,2.19-1.23,3.26
		c-0.22,0.54-0.44,1.07-0.67,1.61c-0.46,1.06-0.95,2.13-1.46,3.17c-0.77,1.57-1.6,3.12-2.48,4.63c-0.58,1-1.2,2-1.84,2.99
		c-6.3,9.69-14.61,17.54-24.7,23.34c-8.49,4.88-17.69,7.95-27.33,9.12c-1.16,0.14-2.34,0.26-3.51,0.34
		C742.36,1055.17,740.62,1055.24,738.87,1055.24z M685.97,941.05c-0.47,0.6-0.94,1.21-1.39,1.83c-0.42,0.57-0.83,1.15-1.24,1.74
		c-1.22,1.78-2.37,3.65-3.41,5.54c-0.52,0.94-1.02,1.91-1.49,2.87c-0.47,0.97-0.93,1.96-1.35,2.94c-0.21,0.49-0.42,0.99-0.62,1.49
		c-1.16,2.88-2.13,5.86-2.88,8.87c-0.75,3.01-1.31,6.1-1.64,9.18c-0.13,1.24-0.23,2.49-0.3,3.73c-0.19,3.75-0.07,7.55,0.36,11.27
		c1.06,9.04,3.91,17.67,8.49,25.63c9.42,16.39,25.41,28.13,43.89,32.19c1.57,0.35,3.17,0.64,4.76,0.87c0.53,0.08,1.07,0.15,1.6,0.21
		c1.06,0.13,2.15,0.23,3.22,0.31c3.23,0.24,6.51,0.24,9.74,0c1.09-0.08,2.18-0.19,3.25-0.32c8.93-1.09,17.45-3.93,25.33-8.45
		c9.35-5.37,17.05-12.64,22.88-21.62c0.59-0.91,1.17-1.84,1.7-2.77c0.81-1.39,1.59-2.84,2.3-4.29c0.47-0.97,0.93-1.96,1.35-2.94
		c0.21-0.49,0.42-0.99,0.62-1.49c0.4-0.99,0.78-2.01,1.14-3.02c0.53-1.51,1.01-3.07,1.43-4.63c0.28-1.04,0.54-2.09,0.77-3.13
		c0.58-2.62,1-5.31,1.26-7.97c0.1-1.08,0.18-2.16,0.24-3.23c0.05-1.08,0.08-2.17,0.08-3.24c0-1.62-0.06-3.26-0.17-4.88
		c-0.73-10.11-3.68-19.72-8.77-28.58c-2.83-4.94-6.27-9.48-10.21-13.52c-0.77-0.79-1.56-1.56-2.37-2.32
		c-1.2-1.11-2.46-2.2-3.74-3.22c-0.85-0.68-1.72-1.34-2.61-1.98c-0.59-0.43-1.19-0.84-1.79-1.24c-1.23-0.83-2.47-1.61-3.67-2.31
		c-0.93-0.54-1.89-1.07-2.84-1.56c-0.7-0.36-1.45-0.73-2.31-1.14c-0.69-0.33-1.38-0.64-2.08-0.94c-0.49-0.21-0.99-0.42-1.49-0.62
		c-1-0.4-2.01-0.78-3.02-1.14c-0.51-0.18-1.02-0.35-1.53-0.51c-1.02-0.33-2.07-0.64-3.1-0.92c-0.52-0.14-1.04-0.28-1.56-0.4
		c-2.08-0.51-4.22-0.93-6.34-1.24c-0.53-0.08-1.07-0.15-1.6-0.21c-1.07-0.13-2.15-0.24-3.22-0.31c-1.07-0.08-2.16-0.13-3.24-0.16
		c-0.55-0.01-1.11-0.01-1.67-0.02c-1.06,0-2.14,0.03-3.21,0.08c-10.69,0.51-20.85,3.49-30.21,8.86
		C697.81,928.67,691.3,934.29,685.97,941.05L685.97,941.05z"/>
	<g>
		<path class="st2" d="M1920.56,2123.89c-4.93,0-9.92-0.69-14.82-2.11c-23.35-6.79-39.21-27.52-39.47-51.6
			c-0.04-3.86,0.29-8.12,0.62-12.25c0.05-0.63,0.1-1.25,0.15-1.88h-95.77c-0.15,2.52-0.25,4.95-0.35,7.33
			c-0.29,7.23-0.57,14.07-2.31,20.89c-5.65,22.12-25.62,38.22-48.57,39.15c-24.04,0.98-45.02-12.47-53.46-34.24
			c-8.55-22.03-2.13-46.83,15.62-60.31c7.25-5.51,7.39-9.23,4.14-17.64c-31.69-81.76-59.74-155.04-85.78-224.01
			c-3.09-8.19-6.42-10.5-14.24-9.85c-8.65,0.71-17.46,0.49-25.97,0.28c-1.99-0.05-3.98-0.1-5.97-0.14
			c-12.44-0.24-19.83-7.09-20.82-19.28c-0.42-5.21,1.18-10.12,4.52-13.81c3.87-4.28,9.76-6.72,16.58-6.86
			c8.73-0.18,17.6-0.14,26.17-0.11c8.74,0.04,17.77,0.08,26.63-0.12c11.76-0.25,19.42,5.05,23.46,16.23
			c1.68,4.65,3.53,9.34,5.32,13.89c2.98,7.55,6.06,15.36,8.49,23.28c2.31,7.5,5.76,9.78,14.68,9.75
			c85.48-0.26,172.39-0.24,256.43-0.21c21.91,0.01,43.82,0.01,65.73,0.01c1.08,0,2.17-0.01,3.25-0.03c2.88-0.04,5.86-0.07,8.83,0.15
			c7.71,0.58,13.85,3.68,17.29,8.71c3.36,4.92,4,11.25,1.84,18.32v0c-10.87,35.56-22.13,71.65-33.03,106.55
			c-4.76,15.25-9.52,30.5-14.26,45.75c-4.57,14.7-16.38,16.74-27.39,16.74c-0.07,0-0.14,0-0.21,0
			c-37.74-0.09-76.12,0.05-113.24,0.19c-29.09,0.11-59.17,0.21-88.76,0.21h-11.13c1.87,8.8,3.07,13.77,5.67,16.12
			c2.69,2.44,7.86,2.85,18.41,2.85c23.85-0.02,48.13-0.05,71.6-0.11c31.92-0.07,64.93-0.15,97.4-0.08
			c22.97,0.05,39.81,9.72,50.07,28.75c9.71,18.03,9.1,36.21-1.84,54.06C1956.22,2114.54,1938.77,2123.89,1920.56,2123.89z
			 M1766.31,2050.73h106.43l-0.19,2.84c-0.1,1.58-0.23,3.18-0.36,4.78c-0.32,4.01-0.64,8.16-0.6,11.78
			c0.23,21.71,14.55,40.42,35.63,46.54c20.72,6.02,43.04-2.6,54.3-20.97c9.87-16.11,10.44-32.51,1.69-48.75
			c-9.26-17.18-24.53-25.91-45.4-25.96c-32.46-0.06-65.46,0.01-97.38,0.08c-23.47,0.05-47.76,0.08-71.62,0.11
			c-23.6,0-24.92-2.51-29.74-25.33l-0.91-4.29h17.7c29.58,0,59.66-0.11,88.74-0.21c37.12-0.13,75.51-0.28,113.27-0.19
			c0.06,0,0.13,0,0.19,0c10.98,0,18.97-2.24,22.32-13c4.74-15.26,9.5-30.5,14.26-45.75c10.89-34.89,22.15-70.97,33.02-106.52
			c1.67-5.47,1.27-10.22-1.14-13.76c-2.51-3.67-7.23-5.94-13.3-6.4c-2.73-0.21-5.46-0.17-8.36-0.14c-1.11,0.01-2.21,0.03-3.32,0.03
			c-21.91,0-43.82-0.01-65.73-0.01c-84.04-0.02-170.95-0.04-256.42,0.21c-9.38,0.02-16.32-2.26-19.78-13.51
			c-2.38-7.72-5.42-15.44-8.36-22.9c-1.8-4.58-3.67-9.31-5.38-14.03c-3.26-9.01-8.91-12.93-18.34-12.72
			c-8.93,0.2-18,0.16-26.77,0.12c-8.54-0.04-17.37-0.07-26.04,0.11c-5.34,0.11-9.86,1.92-12.74,5.11c-2.38,2.63-3.47,6.03-3.16,9.81
			c0.76,9.36,6.02,14.21,15.62,14.39c2,0.04,4,0.09,6,0.14c8.37,0.21,17.03,0.43,25.4-0.26c11.78-0.98,16.38,4.6,19.66,13.27
			c26.03,68.96,54.08,142.22,85.76,223.97c3.75,9.69,3.93,16.35-5.88,23.8c-15.86,12.05-21.57,34.31-13.87,54.14
			c7.61,19.62,26.6,31.73,48.29,30.85c20.61-0.83,38.56-15.29,43.63-35.15c1.6-6.28,1.86-12.54,2.15-19.79
			c0.13-3.19,0.26-6.49,0.52-9.98L1766.31,2050.73z"/>
		<path class="st2" d="M1727.68,1960.07c-5.47,0-10.88-0.04-16.32-0.15c-3.42-0.07-7.9-3.09-9.2-6.22
			c-5.91-14.16-10.9-26.33-16.65-43.13l-1.21-3.52h82.31l0.19,2.46c0.86,11.35,1.73,21.16,2.65,31.54
			c0.45,5.07,0.91,10.29,1.4,15.92l0.25,2.89h-2.9c-7.21,0-14.25,0.06-21.06,0.11C1740.49,1960.02,1734.05,1960.07,1727.68,1960.07z
			 M1691.76,1912.37c5.2,14.87,9.86,26.23,15.31,39.29c0.48,1.16,3.11,2.92,4.39,2.95c11.71,0.23,23.32,0.14,35.62,0.04
			c5.9-0.05,11.98-0.1,18.2-0.11c-0.39-4.54-0.77-8.83-1.14-13.02c-0.86-9.64-1.67-18.78-2.47-29.14H1691.76z"/>
		<path class="st2" d="M1717.6,2088.72c-0.5,0-1-0.02-1.49-0.07c-10.81-1.09-17.35-7.95-17.95-18.82v0
			c-0.27-4.91,1.69-9.8,5.37-13.42c3.88-3.82,9.15-5.78,14.44-5.4c10.23,0.74,16.68,7.07,18.15,17.81l0.03,0.19l0,0.19
			c-0.03,5.53-2.52,10.92-6.81,14.78C1725.93,2087.03,1721.72,2088.72,1717.6,2088.72z M1716.66,2056.28c-3.45,0-6.84,1.4-9.4,3.92
			c-2.59,2.55-3.97,5.95-3.79,9.33v0c0.45,8.22,5,13,13.17,13.82c3.1,0.31,6.43-0.9,9.14-3.33c3.09-2.77,4.96-6.75,5.04-10.67
			c-1.18-8.21-5.51-12.48-13.24-13.04C1717.27,2056.29,1716.96,2056.28,1716.66,2056.28z"/>
		<path class="st2" d="M1919.71,2088.72c-4.49,0-9.03-1.95-12.64-5.47c-3.95-3.85-6.04-8.87-5.71-13.76
			c0.71-10.87,7.14-17.46,18.08-18.56l0.18-0.01c5.47-0.18,10.79,1.99,14.62,5.95c3.53,3.65,5.3,8.31,4.98,13.12
			c-0.72,10.88-7.32,17.69-18.11,18.68C1920.64,2088.7,1920.18,2088.72,1919.71,2088.72z M1919.89,2056.24
			c-8.23,0.86-12.68,5.44-13.22,13.61c-0.22,3.29,1.32,6.88,4.12,9.6c2.83,2.76,6.51,4.22,9.84,3.91l0,0
			c8.15-0.75,12.74-5.49,13.29-13.73c0.22-3.29-1.02-6.51-3.5-9.07C1927.65,2057.71,1923.79,2056.13,1919.89,2056.24z"/>
		<path class="st2" d="M1766.01,1895.46h-25.03c-5.92,0-11.92-0.06-17.74-0.12c-10.57-0.11-21.5-0.21-32.22,0.04
			c-8.71,0.2-13.57-3.09-16.21-10.99c-5.11-15.36-11.05-31.01-16.71-44.06l-1.62-3.72h104.47l0.21,2.43
			c1.47,16.91,2.91,33.81,4.59,53.53L1766.01,1895.46z M1705.59,1889.91c5.96,0,11.89,0.06,17.72,0.12
			c5.8,0.06,11.79,0.12,17.68,0.12h19.23c-1.49-17.56-2.81-32.94-4.13-48.21h-91.5c5.28,12.47,10.53,26.48,15.29,40.77
			c1.9,5.71,4.59,7.5,11.03,7.35C1695.78,1889.95,1700.69,1889.91,1705.59,1889.91z"/>
		<path class="st2" d="M1853.78,1960.26h-70.35l-0.19-2.46c-0.72-9.52-1.42-17.96-2.16-26.9c-0.56-6.77-1.12-13.61-1.71-20.99
			l-0.23-2.87H1858l-0.22,2.87c-0.61,8-1.22,15.47-1.81,22.69c-0.65,8.01-1.33,16.29-2,25.2L1853.78,1960.26z M1788.36,1954.94
			h60.48c0.61-7.99,1.23-15.49,1.82-22.77c0.52-6.35,1.05-12.89,1.59-19.8h-67.34c0.5,6.29,0.99,12.22,1.48,18.1
			C1787.06,1938.63,1787.7,1946.39,1788.36,1954.94z"/>
		<path class="st2" d="M1859.62,1895.46h-81.04l-0.2-2.44c-0.03-0.39-3.33-39.61-4.44-53.54l-0.23-2.87h89.85l-0.23,2.87
			c-1.09,13.91-3.02,42.89-3.04,43.18L1859.62,1895.46z M1783.47,1890.14h71.09l0.41-7.8c0.02-0.31,1.71-25.72,2.83-40.41h-78.33
			C1780.54,1855.26,1782.78,1881.96,1783.47,1890.14z"/>
		<path class="st2" d="M1908.64,1894.71c-5.5,0-11.05-0.01-16.71-0.03c-5.75-0.01-11.57-0.03-17.49-0.03h-2.86l0.21-2.85
			c0.43-5.92,0.85-11.85,1.27-17.73c0.86-12.18,1.68-23.68,2.55-35l0.19-2.46h97.2l-0.96,3.39c-5.47,19.22-9.63,32.51-14.38,45.86
			c-1.46,4.09-7.31,8.36-11.6,8.47C1933.64,1894.64,1921.3,1894.71,1908.64,1894.71z M1877.3,1889.33c4.94,0,9.82,0.02,14.64,0.03
			c18.64,0.04,36.25,0.09,53.97-0.35c2.11-0.05,6-2.91,6.72-4.93c4.42-12.44,8.34-24.84,13.31-42.14h-85.22
			c-0.8,10.51-1.56,21.22-2.36,32.51C1878.01,1879.39,1877.66,1884.36,1877.3,1889.33z"/>
		<path class="st2" d="M1904.65,1960.22c-5.59,0-11.25-0.02-17.05-0.05c-6.04-0.02-12.21-0.05-18.58-0.05h-2.89l0.24-2.88
			c0.46-5.49,0.9-10.66,1.34-15.71c0.91-10.6,1.77-20.61,2.65-32.03l0.19-2.46h80.38l-1.14,3.49c-1.99,6.11-3.95,12.65-5.85,18.96
			c-2.48,8.27-5.05,16.82-7.82,24.88c-1.16,3.39-6.6,5.63-9.84,5.69C1919.1,1960.18,1911.94,1960.22,1904.65,1960.22z
			 M1871.91,1954.81c5.36,0.01,10.58,0.03,15.71,0.05c13.34,0.05,25.94,0.1,38.57-0.12c1.78-0.03,4.44-1.41,4.92-2.15
			c2.73-7.94,5.27-16.42,7.73-24.62c1.55-5.16,3.14-10.47,4.77-15.6h-68.13c-0.81,10.44-1.61,19.78-2.46,29.62
			C1872.65,1946.15,1872.28,1950.38,1871.91,1954.81z"/>
	</g>
	<path class="st2" d="M2159.42,1030.89c-52.44,0-101.73-20.42-138.81-57.5c-37.08-37.08-57.5-86.38-57.5-138.81
		c0-52.44,20.42-101.73,57.5-138.81c37.08-37.08,86.38-57.5,138.81-57.5c52.44,0,101.74,20.42,138.81,57.5
		c37.08,37.08,57.5,86.38,57.5,138.81c0,52.44-20.42,101.73-57.5,138.81C2261.15,1010.47,2211.85,1030.89,2159.42,1030.89z
		 M2159.42,643.59c-105.31,0-190.99,85.68-190.99,190.99c0,105.31,85.68,190.99,190.99,190.99c105.31,0,190.99-85.68,190.99-190.99
		C2350.41,729.27,2264.73,643.59,2159.42,643.59z"/>
	<path class="st2" d="M2159.41,961.55c-70.01,0-126.97-56.96-126.97-126.98c0-70.02,56.96-126.98,126.97-126.98
		c70.02,0,126.98,56.96,126.98,126.98C2286.4,904.59,2229.43,961.55,2159.41,961.55z M2159.41,712.92
		c-67.08,0-121.65,54.58-121.65,121.66c0,67.08,54.57,121.65,121.65,121.65c67.08,0,121.66-54.57,121.66-121.65
		C2281.07,767.49,2226.5,712.92,2159.41,712.92z"/>
	<path class="st2" d="M2173.34,936.78h-27.12v-27.69c-14.74-0.96-29.13-4.46-42.83-10.39l-1.6-0.69v-41.04l3.87,1.97
		c7.96,4.05,16.73,7.47,26.07,10.19c9.25,2.69,17.47,4.05,24.42,4.05c5.51,0,9.5-0.63,11.88-1.86c1.88-0.98,2.72-2.47,2.72-4.85
		c0-1.5-0.64-2.72-2.01-3.83c-1.8-1.45-4.96-3.17-9.39-5.11c-4.59-2-10.9-4.46-18.74-7.31c-9.13-3.38-16.62-7.24-22.27-11.48
		c-5.79-4.34-10.08-9.31-12.74-14.75c-2.66-5.43-4.01-12.22-4.01-20.17c0-12.33,4.06-22.14,12.07-29.16
		c7.42-6.51,18.37-10.7,32.57-12.48v-23.65h27.12v23.32c13.41,1.05,27.06,4.53,40.61,10.36l2.42,1.04l-14.6,34.96l-2.49-1.12
		c-14.26-6.41-27.25-9.66-38.6-9.66c-6.35,0-9.2,0.91-10.48,1.67c-1.47,0.88-2.13,2.05-2.13,3.77c0,1.57,0.51,2.77,1.61,3.77
		c0.99,0.91,3.16,2.44,7.89,4.6c3.97,1.82,9.59,3.96,16.7,6.38c15.03,5.32,26,11.51,32.65,18.41c6.85,7.12,10.33,16.36,10.33,27.48
		c0,12.48-4.04,22.78-12.01,30.64c-7.45,7.35-18.17,12.09-31.9,14.12V936.78z M2151.55,931.45h16.47v-27.87l2.34-0.29
		c13.65-1.67,24.13-6.03,31.14-12.94c7.01-6.91,10.42-15.69,10.42-26.85c0-9.83-2.89-17.61-8.84-23.79
		c-6.07-6.3-16.35-12.05-30.56-17.08c-7.25-2.46-13.04-4.67-17.17-6.56c-4.37-1.99-7.4-3.8-9.27-5.51c-2.21-2.02-3.34-4.61-3.34-7.7
		c0-3.6,1.63-6.49,4.71-8.34c2.73-1.64,7.05-2.43,13.21-2.43c11.43,0,24.3,3.04,38.28,9.03l10.46-25.05
		c-13.02-5.32-26.09-8.38-38.89-9.09l-2.51-0.14v-23.01h-16.47v23.1l-2.39,0.25c-14.25,1.48-25.02,5.34-32,11.46
		c-6.9,6.05-10.25,14.28-10.25,25.16c0,7.14,1.17,13.14,3.47,17.83c2.29,4.68,6.04,9,11.16,12.83c5.25,3.93,12.28,7.55,20.91,10.74
		c7.93,2.88,14.34,5.38,19.04,7.43c4.93,2.15,8.4,4.06,10.61,5.84c2.61,2.11,3.99,4.86,3.99,7.97c0,4.37-1.93,7.68-5.6,9.57
		c-3.19,1.65-7.87,2.46-14.33,2.46c-7.45,0-16.17-1.44-25.91-4.27c-8.17-2.37-15.93-5.28-23.13-8.66v28.93
		c13.41,5.6,27.49,8.76,41.89,9.42l2.54,0.12V931.45z"/>
	<path class="st2" d="M448.25,429.87c-2.86,0-5.62-0.92-7.93-2.67l-17.25-13.05c-2.81-2.12-4.62-5.22-5.11-8.72
		c-0.49-3.5,0.41-6.98,2.54-9.79l61.03-80.71c4.4-5.81,12.7-6.96,18.51-2.57l17.25,13.05c2.81,2.12,4.62,5.22,5.11,8.72
		c0.49,3.5-0.41,6.98-2.54,9.79l-61.03,80.71c-2.12,2.81-5.22,4.62-8.72,5.11C449.48,429.83,448.86,429.87,448.25,429.87z
		 M443.53,422.96c1.67,1.26,3.75,1.8,5.84,1.51c2.1-0.29,3.95-1.37,5.21-3.04l61.03-80.71c1.27-1.67,1.8-3.75,1.51-5.84
		c-0.29-2.1-1.37-3.95-3.04-5.21l-17.25-13.05c-3.47-2.62-8.43-1.94-11.06,1.53l-61.03,80.71c-1.26,1.67-1.8,3.75-1.51,5.84
		c0.29,2.1,1.37,3.95,3.04,5.21L443.53,422.96z"/>
	<path class="st2" d="M706.04,461c-5.08,0-9.93-2.94-12.11-7.88l-40.56-91.97c-1.42-3.22-1.5-6.81-0.22-10.11
		c1.28-3.3,3.76-5.9,6.98-7.32l19.57-8.63c6.67-2.94,14.48,0.09,17.42,6.76l40.56,91.97c2.94,6.67-0.09,14.48-6.76,17.42
		l-19.58,8.63C709.62,460.64,707.82,461,706.04,461z M685.02,339.3c-1.06,0-2.14,0.22-3.17,0.67l-19.57,8.63
		c-1.92,0.85-3.4,2.4-4.16,4.37c-0.77,1.97-0.72,4.12,0.12,6.03l40.56,91.97c1.76,3.98,6.42,5.79,10.41,4.04l19.58-8.63
		c3.98-1.76,5.79-6.42,4.04-10.41L692.25,344C690.95,341.05,688.05,339.3,685.02,339.3z"/>
	<path class="st2" d="M583.45,522.77c-10.67,0-21.42-5.87-23.9-7.31c-2.63-0.36-5.33-0.97-8.06-1.82l-0.94,0.99
		c-5.76,6.08-15.4,6.33-21.48,0.57c-4.49-4.26-5.89-10.73-3.76-16.38c-0.55-0.44-1.1-0.9-1.65-1.36c-3.71,2.11-8.47,1.63-11.7-1.43
		c-1.91-1.81-3-4.27-3.07-6.93c-0.04-1.67,0.33-3.29,1.06-4.75c-0.21-0.22-0.42-0.45-0.62-0.67c-2.84,2.73-6.55,4.29-10.54,4.39
		c-4.23,0.11-8.24-1.42-11.29-4.31c-3.05-2.89-4.8-6.82-4.91-11.05c-0.09-3.49,0.94-6.84,2.93-9.62c-3.87,0.23-7.78-1.08-10.76-3.9
		c-2.77-2.63-4.35-6.19-4.46-10.03c-0.1-3.84,1.29-7.48,3.92-10.25l1.47-1.55c-1.53-2.63-2.43-4.29-2.63-4.67l-10.93-17.66
		l52.69-69.81l1.62,4.74c1.91,5.6,9.77,9.1,13.12,10.6c0.3,0.13,0.57,0.25,0.81,0.36c4.66,1.42,9.39,3.03,14.07,4.82
		c5.65-5.45,9.83-8.86,10.02-9.01l0.46-0.38l0.58-0.14c35.96-8.82,71.58,6.71,73.08,7.38c20.56,8.55,26.21,5.18,26.95,4.61
		l2.39-5.37l2.21,5.87l33.46,75.48l-1.4,1.29c-11.99,11.03-18.52,14.68-22.14,15.77l0.09,0.95c0.87,8.87-0.95,15.15-5.43,18.67
		c-6.08,4.77-14.7,2.44-16.5,1.88c-0.89,6.34-3.37,10.81-7.38,13.3c-4.68,2.91-10.07,2.19-12.89,1.5
		c-0.89,6.31-3.44,10.77-7.59,13.26c-6.02,3.62-13.31,1.65-15.34,0.99c-1.38,2.71-5.1,5.53-11.52,8.74
		C590.36,522.16,586.91,522.77,583.45,522.77z M549.97,507.52l1.62,0.56c3.13,1.08,6.22,1.81,9.19,2.18l0.57,0.07l0.49,0.3
		c0.18,0.11,17.98,10.85,29.29,5.19c5.87-2.94,8.02-4.92,8.79-5.87l-26.99-21.13l3.21-4.25l30.55,22.21
		c1.32,0.43,6.85,1.97,10.97-0.51c2.49-1.51,4.13-4.34,4.88-8.43l-36.63-29.35l3.21-4.24l39.12,27.89c1.19,0.39,6.1,1.76,9.83-0.58
		c2.65-1.66,4.31-4.96,4.94-9.81L602,448.07l3.29-4.18l44.74,33.87c1.53,0.45,7.63,1.96,11.44-1.05c2.81-2.22,3.98-6.58,3.49-12.98
		c-2.48-2.38-11.12-10.64-21.95-20.77l3.51-3.99l21,17.39c1.05-0.03,5.85-0.97,19.69-13.48l-30.67-69.18
		c-4.12,1.56-12.71,2.02-30.03-5.19c-0.41-0.18-35.16-15.3-69.12-7.24c-1.33,1.11-5.43,4.6-10.42,9.49l-1.23,1.21l-1.6-0.63
		c-5.13-2-10.33-3.8-15.45-5.35l-0.35-0.13c-0.26-0.12-0.56-0.26-0.91-0.41c-3.23-1.44-9.98-4.46-13.84-9.69l-44.98,59.6l9.14,14.78
		c0.01,0.02,1.29,2.41,3.57,6.28l1.02,1.73l-4.23,4.46c-1.65,1.74-2.52,4.03-2.46,6.45c0.06,2.42,1.06,4.66,2.8,6.31
		c3.28,3.11,8.4,3.3,11.91,0.44l2.21-1.8l1.64,2.33c0.27,0.39,0.55,0.77,0.82,1.16l1.27,1.79l-5.52,5.83
		c-3.98,4.19-3.8,10.84,0.39,14.81c2.02,1.92,4.69,2.93,7.49,2.86c2.81-0.07,5.41-1.23,7.33-3.25l3.46-3.65l1.93,2.15
		c1.29,1.44,2.6,2.86,3.9,4.22l1.68,1.76l-1.6,1.83c-0.77,0.88-1.16,1.96-1.13,3.14c0.03,1.23,0.53,2.37,1.41,3.21
		c1.77,1.68,4.55,1.68,6.32-0.02l1.75-1.67l1.83,1.59c1.59,1.38,3.18,2.69,4.71,3.88l1.8,1.41l-1.12,1.99
		c-2.22,3.96-1.47,8.89,1.81,12c3.95,3.75,10.21,3.58,13.95-0.37L549.97,507.52z M655.51,368.33L655.51,368.33L655.51,368.33z"/>
	<path class="st2" d="M2127.26,468.19l-2.45,1.04l-329.37,139.6l-82.78-195.31l2.45-1.04l329.37-139.6L2127.26,468.19z
		 M1798.26,601.85l322.02-136.48l-78.63-185.51l-322.02,136.48L1798.26,601.85z"/>
	<path class="st2" d="M2047.16,271.74L1930.02,466.8l-218.71-52.71L2047.16,271.74z M1927.47,460.71l106.71-177.69l-305.93,129.67
		L1927.47,460.71z"/>
	<path class="st2" d="M2129.31,467.32l-334.1,141.61l80.65-161.45l51.41,12.65l26.08-43.67L2129.31,467.32z M1806.42,598.39
		l307.01-130.12l-157.62-45.55l-25.99,43.53l-51.1-12.58L1806.42,598.39z"/>
	<ellipse class="st3" cx="1315.76" cy="4409.29" rx="1047.74" ry="232.82"/>
	<path class="st4" d="M1772.4,1539.85c-323.31-20.04-337.36,217.6-331.96,303.71L1290.99,1993l25.91,25.91l142.84-142.84
		C1812.27,1914.97,1772.4,1539.85,1772.4,1539.85z"/>
	<g>
		<path class="st5" d="M1772.4,1539.85c-323.31-20.04-337.36,217.6-331.96,303.71L1290.99,1993l12.78,12.78l468.72-464.89
			C1772.44,1540.21,1772.4,1539.85,1772.4,1539.85z"/>
	</g>
	<path class="st5" d="M1317.83,1754.7l-138.93-138.93c5.02-80.05-8.04-300.98-308.62-282.35c0,0-37.06,348.74,290.66,312.58
		l132.79,132.79L1317.83,1754.7z"/>
	<g>
		<g>
			<path class="st4" d="M870.71,1333.41c300.57-18.63,313.63,202.3,308.62,282.35l138.93,138.93l-11.88,11.88l-435.76-432.19
				C870.67,1333.75,870.71,1333.41,870.71,1333.41z"/>
		</g>
	</g>
	<polygon class="st6" points="2052.75,3154.35 2019.69,3477.15 2019.62,3477.96 2011.37,3579.25 1943.73,4409.29 694.37,4409.29 
		626.73,3579.25 618.48,3477.96 618.41,3477.15 595.23,3154.35 	"/>
	
		<rect x="1052.36" y="1977.09" transform="matrix(0.6772 -0.7358 0.7358 0.6772 -1331.0908 1528.4144)" class="st7" width="48.26" height="608.5"/>
	
		<rect x="1072.83" y="1968.58" transform="matrix(0.6772 -0.7358 0.7358 0.6772 -1322.099 1531.7883)" class="st8" width="24.13" height="608.5"/>
	
		<rect x="1622.54" y="1824.56" transform="matrix(-0.6772 -0.7358 0.7358 -0.6772 1077.0176 5061.1738)" class="st7" width="52.2" height="939.59"/>
	
		<rect x="1626.35" y="1815.49" transform="matrix(-0.6772 -0.7358 0.7358 -0.6772 1068.1963 5039.1704)" class="st8" width="26.1" height="939.59"/>
	<g>
		<g>
			<g>
				<polygon class="st9" points="595.23,3154.35 618.41,3477.15 618.48,3477.96 626.73,3579.25 694.37,4409.29 1323.99,4409.29 
					1323.99,3154.35 				"/>
			</g>
		</g>
	</g>
	<polygon class="st10" points="2019.62,3473.94 2011.37,3579.11 626.73,3579.11 618.41,3473.94 	"/>
	<rect x="1285.34" y="1205.48" class="st7" width="37.41" height="1969.51"/>
	<rect x="1304.05" y="1205.48" class="st8" width="18.7" height="1969.51"/>
	<path class="st6" d="M2041.34,3498.55H590.17c-39.04,0-70.7-31.65-70.7-70.7v-203.63c0-39.04,31.65-70.7,70.7-70.7h1451.17
		c39.04,0,70.7,31.65,70.7,70.7v203.63C2112.03,3466.9,2080.38,3498.55,2041.34,3498.55z"/>
	<path class="st9" d="M1315.76,3498.55H590.09c-39,0-70.61-31.61-70.61-70.61v-203.8c0-39,31.61-70.61,70.61-70.61h725.67V3498.55z"
		/>
	<g>
		<polygon class="st11" points="577.83,3148.42 682.89,3226.71 861.03,3227.71 989.9,3142.91 989.06,3092.68 577.01,3099.61 		"/>
		<path class="st12" d="M577.61,3139.41l0.07,3.49c1.13,32.54,18.54,56.96,47.51,75.91c1.98,1.3,4,2.56,6.07,3.78
			c83.65,49.92,233.19,46.62,312.07-7.82c33.22-22.93,53.11-52.1,44.44-98.53c-54.11,104.06-255.86,121.15-357.31,58.56
			c-23.24-14.34-43.34-30.24-53.07-52.85C577.51,3129.45,577.61,3133.03,577.61,3139.41z"/>
		<path class="st12" d="M574.45,3083.74c1.06,62.94,95.12,112.39,210.1,110.46c114.98-1.93,207.38-54.52,206.32-117.46
			c-1.06-62.94-95.18-112.39-210.15-110.46C665.74,2968.21,573.39,3020.8,574.45,3083.74z"/>
		<path class="st2" d="M661.13,3141.33c-34.07-15.83-53.06-37.67-53.46-61.52c-0.4-23.85,17.84-46.32,51.36-63.28
			c32.53-16.46,75.88-25.95,122.09-26.73c46.2-0.78,89.85,7.25,122.92,22.61c34.07,15.83,53.06,37.67,53.46,61.52
			c0.4,23.85-17.84,46.32-51.36,63.28c-32.53,16.46-75.89,25.95-122.09,26.73C737.84,3164.72,694.19,3156.69,661.13,3141.33z
			 M663.04,3024.3c-30.36,15.36-46.89,35.03-46.55,55.36c0.34,20.34,17.53,39.43,48.39,53.77c31.87,14.8,74.14,22.54,119.02,21.78
			c44.88-0.75,86.87-9.91,118.22-25.77c30.36-15.36,46.89-35.02,46.55-55.36c-0.34-20.34-17.53-39.43-48.39-53.77
			c-31.87-14.8-74.14-22.54-119.02-21.78C736.38,2999.28,694.39,3008.43,663.04,3024.3z"/>
		<path class="st2" d="M700.01,3077.03c-2.33,14.31-1.54,29.33,2.79,45.07l42.8-0.72c-4.35-9.14-7.63-18.57-9.89-28.21
			c-2.14-9.11-2.79-16.72-2.08-23.03c0.57-5.01,1.7-8.59,3.41-10.84c1.68-2.21,4.19-3.34,7.57-3.39c2.32-0.04,4.23,0.71,5.76,2.25
			c1.54,1.56,3.26,4.22,5.18,8.02c1.97,3.91,4.4,9.34,7.35,16.47c3.55,8.41,7.76,15.52,12.58,21.11
			c4.99,5.78,10.66,10.08,16.97,12.78c6.4,2.74,14.29,4.05,23.58,3.9c14.19-0.24,24.42-4.68,30.47-13.04
			c5.78-7.97,7.53-19.17,5.59-32.93l25.02-0.42l-6.3-18.12l-23.35,0.39c-3.58-10.55-9.44-20.4-17.33-29.61l-26.15,8.66
			c7.73,10.17,12.56,20.06,14.1,29.54c0.77,4.73,0.6,8.16-0.54,10.19c-1.16,2.06-3.18,3.12-6.07,3.17
			c-2.51,0.04-4.66-0.67-6.46-2.12c-1.78-1.43-3.85-3.91-6.16-7.38c-2.27-3.39-4.9-7.97-7.84-13.65
			c-5.85-10.87-11.83-18.15-18.13-22.33c-6.1-4.06-13.81-5.96-23.25-5.8c-10.65,0.18-19.65,2.71-27.19,7.73
			c-7.83,5.21-13.77,13.06-17.82,23.99l-28.42,0.48l-5.69,18.32L700.01,3077.03z"/>
		<path class="st13" d="M577.61,3139.41l0.07,3.49c1.13,32.54,18.54,56.96,47.51,75.91c1.98,1.3,4,2.56,6.07,3.78l-0.8-47.8
			c-46.37-28.19-53.07-52.85-53.07-52.85S577.61,3133.03,577.61,3139.41z"/>
	</g>
	<g>
		<polygon class="st11" points="1353.38,2972.72 1458.44,3051.01 1636.57,3052.01 1765.45,2967.21 1764.61,2916.98 1352.56,2923.9 
					"/>
		<path class="st12" d="M1353.15,2963.71l0.07,3.49c1.13,32.54,18.54,56.96,47.51,75.91c1.98,1.3,4,2.56,6.07,3.78
			c83.65,49.92,233.19,46.62,312.07-7.82c33.22-22.93,53.11-52.1,44.44-98.53c-54.11,104.06-255.86,121.15-357.31,58.56
			c-23.24-14.34-43.34-30.23-53.07-52.85C1353.05,2953.75,1353.16,2957.32,1353.15,2963.71z"/>
		<path class="st12" d="M1350,2908.03c1.06,62.94,95.12,112.39,210.1,110.46c114.98-1.93,207.38-54.52,206.32-117.46
			c-1.06-62.94-95.18-112.39-210.15-110.46C1441.29,2792.51,1348.94,2845.1,1350,2908.03z"/>
		<path class="st2" d="M1436.67,2965.63c-34.07-15.83-53.06-37.67-53.46-61.52c-0.4-23.85,17.84-46.32,51.36-63.28
			c32.53-16.46,75.88-25.95,122.09-26.73c46.2-0.78,89.85,7.25,122.92,22.61c34.07,15.83,53.06,37.67,53.46,61.52
			c0.4,23.85-17.84,46.32-51.36,63.28c-32.53,16.46-75.89,25.95-122.09,26.73C1513.39,2989.02,1469.74,2980.99,1436.67,2965.63z
			 M1438.59,2848.6c-30.36,15.36-46.89,35.03-46.55,55.36c0.34,20.34,17.53,39.43,48.39,53.77c31.87,14.8,74.14,22.54,119.02,21.78
			c44.88-0.75,86.87-9.91,118.22-25.77c30.36-15.36,46.89-35.02,46.55-55.36c-0.34-20.34-17.53-39.43-48.39-53.77
			c-31.87-14.8-74.14-22.54-119.02-21.78C1511.93,2823.58,1469.94,2832.73,1438.59,2848.6z"/>
		<path class="st2" d="M1475.56,2901.33c-2.33,14.31-1.54,29.33,2.79,45.07l42.8-0.72c-4.35-9.14-7.63-18.57-9.89-28.21
			c-2.14-9.11-2.79-16.72-2.08-23.03c0.57-5.01,1.7-8.59,3.41-10.84c1.68-2.21,4.19-3.34,7.57-3.39c2.32-0.04,4.23,0.71,5.76,2.25
			c1.54,1.56,3.26,4.22,5.18,8.02c1.97,3.91,4.4,9.34,7.35,16.47c3.55,8.41,7.76,15.52,12.58,21.11
			c4.99,5.78,10.66,10.08,16.97,12.78c6.4,2.74,14.29,4.05,23.58,3.9c14.19-0.24,24.42-4.68,30.47-13.04
			c5.78-7.97,7.53-19.17,5.59-32.93l25.02-0.42l-6.3-18.12l-23.35,0.39c-3.58-10.55-9.44-20.4-17.33-29.61l-26.15,8.66
			c7.73,10.17,12.56,20.06,14.1,29.54c0.77,4.73,0.6,8.16-0.54,10.19c-1.16,2.06-3.18,3.12-6.07,3.17
			c-2.51,0.04-4.66-0.67-6.46-2.12c-1.78-1.44-3.85-3.91-6.16-7.38c-2.27-3.39-4.9-7.97-7.84-13.65
			c-5.85-10.87-11.83-18.15-18.13-22.33c-6.1-4.06-13.81-5.96-23.25-5.8c-10.65,0.18-19.65,2.71-27.19,7.73
			c-7.82,5.21-13.77,13.06-17.82,23.99l-28.42,0.48l-5.69,18.32L1475.56,2901.33z"/>
		<path class="st13" d="M1353.15,2963.71l0.07,3.49c1.13,32.54,18.54,56.96,47.51,75.91c1.98,1.3,4,2.56,6.07,3.78l-0.8-47.8
			c-46.37-28.19-53.07-52.85-53.07-52.85S1353.16,2957.32,1353.15,2963.71z"/>
	</g>
	<g>
		<polygon class="st11" points="1099.1,3007.26 1204.16,3085.55 1382.3,3086.55 1511.18,3001.75 1510.33,2951.52 1098.28,2958.45 		
			"/>
		<path class="st12" d="M1098.88,2998.25l0.07,3.49c1.13,32.54,18.54,56.96,47.51,75.91c1.98,1.3,4,2.56,6.07,3.78
			c83.65,49.92,233.19,46.62,312.07-7.82c33.22-22.93,53.11-52.1,44.44-98.53c-54.11,104.06-255.86,121.15-357.31,58.55
			c-23.24-14.34-43.34-30.23-53.07-52.85C1098.78,2988.29,1098.89,2991.87,1098.88,2998.25z"/>
		<path class="st12" d="M1095.73,2942.58c1.06,62.94,95.12,112.39,210.1,110.46c114.98-1.93,207.38-54.52,206.32-117.46
			c-1.06-62.94-95.18-112.39-210.15-110.46C1187.02,2827.05,1094.67,2879.64,1095.73,2942.58z"/>
		<path class="st2" d="M1182.4,3000.18c-34.07-15.83-53.06-37.67-53.46-61.52c-0.4-23.85,17.84-46.32,51.36-63.28
			c32.53-16.46,75.88-25.95,122.09-26.73c46.2-0.78,89.85,7.25,122.92,22.61c34.07,15.83,53.06,37.67,53.46,61.52
			c0.4,23.85-17.84,46.32-51.36,63.28c-32.53,16.46-75.89,25.95-122.09,26.73C1259.11,3023.56,1215.46,3015.53,1182.4,3000.18z
			 M1184.31,2883.14c-30.36,15.36-46.89,35.03-46.55,55.36c0.34,20.34,17.53,39.43,48.39,53.77c31.87,14.8,74.14,22.54,119.02,21.78
			c44.88-0.75,86.87-9.91,118.22-25.77c30.36-15.36,46.89-35.02,46.55-55.36c-0.34-20.34-17.53-39.43-48.39-53.77
			c-31.87-14.8-74.14-22.54-119.02-21.78C1257.65,2858.12,1215.67,2867.28,1184.31,2883.14z"/>
		<path class="st2" d="M1221.28,2935.88c-2.33,14.31-1.54,29.33,2.79,45.07l42.8-0.72c-4.35-9.14-7.63-18.57-9.89-28.21
			c-2.14-9.11-2.79-16.72-2.08-23.03c0.57-5.01,1.7-8.59,3.41-10.84c1.68-2.21,4.19-3.34,7.57-3.39c2.32-0.04,4.23,0.71,5.76,2.25
			c1.54,1.56,3.26,4.22,5.18,8.02c1.97,3.91,4.4,9.34,7.35,16.47c3.55,8.41,7.76,15.52,12.58,21.11
			c4.99,5.78,10.66,10.08,16.96,12.78c6.4,2.74,14.29,4.05,23.58,3.9c14.19-0.24,24.42-4.68,30.47-13.04
			c5.78-7.97,7.53-19.17,5.59-32.93l25.02-0.42l-6.3-18.12l-23.35,0.39c-3.58-10.55-9.44-20.4-17.33-29.61l-26.15,8.66
			c7.73,10.17,12.56,20.06,14.1,29.54c0.77,4.73,0.6,8.16-0.54,10.19c-1.16,2.06-3.18,3.12-6.07,3.17
			c-2.51,0.04-4.66-0.67-6.46-2.12c-1.78-1.44-3.85-3.91-6.16-7.38c-2.27-3.39-4.9-7.97-7.84-13.65
			c-5.85-10.87-11.83-18.15-18.13-22.33c-6.1-4.06-13.81-5.96-23.25-5.8c-10.65,0.18-19.65,2.71-27.19,7.73
			c-7.83,5.21-13.77,13.06-17.82,23.99l-28.42,0.48l-5.69,18.32L1221.28,2935.88z"/>
		<path class="st13" d="M1098.88,2998.25l0.07,3.49c1.13,32.54,18.54,56.96,47.51,75.91c1.98,1.3,4,2.56,6.07,3.78l-0.8-47.8
			c-46.37-28.19-53.07-52.85-53.07-52.85S1098.89,2991.87,1098.88,2998.25z"/>
	</g>
	<g>
		<polygon class="st11" points="1325.16,3146.41 1205.26,3199.24 1031.41,3160.39 924.75,3048.93 936.8,3000.16 1336.87,3099.02 		
			"/>
		<path class="st12" d="M1327.4,3137.68l-0.84,3.39c-8.37,31.47-30.81,51.37-63.28,63.37c-2.22,0.82-4.47,1.6-6.76,2.33
			c-92.69,29.96-237.72-6.68-302.43-77.38c-27.25-29.78-40.11-62.65-21.29-105.97c29.48,113.52,222.31,175.28,335.18,136.95
			c25.86-8.78,49-19.78,63.54-39.65C1329.72,3128,1328.81,3131.46,1327.4,3137.68z"/>
		<path class="st12" d="M1342.91,3084.12c-15.1,61.11-117.84,88.29-229.47,60.7c-111.63-27.59-189.94-99.5-174.84-160.61
			c15.1-61.11,117.89-88.27,229.53-60.69C1279.76,2951.11,1358.02,3023.01,1342.91,3084.12z"/>
		<path class="st2" d="M1120.7,3115.45c-44.86-11.08-85-30.03-113.02-53.34c-28.88-24.03-41.63-50.01-35.91-73.16
			c5.72-23.15,29.11-40.21,65.86-48.02c35.66-7.58,80-5.65,124.86,5.44c44.86,11.08,85,30.03,113.02,53.34
			c28.88,24.03,41.63,50.01,35.91,73.16c-5.72,23.15-29.11,40.21-65.86,48.01C1209.9,3128.47,1165.56,3126.53,1120.7,3115.45z
			 M1160.39,2954.84c-43.58-10.77-86.51-12.68-120.88-5.37c-33.28,7.07-54.3,21.84-59.18,41.59c-4.88,19.75,6.84,42.61,33,64.37
			c27.01,22.47,65.89,40.78,109.47,51.55c43.58,10.77,86.51,12.68,120.88,5.37c33.28-7.07,54.3-21.84,59.18-41.59
			c4.88-19.75-6.84-42.61-33-64.37C1242.84,2983.92,1203.97,2965.61,1160.39,2954.84z"/>
		<path class="st2" d="M1222.03,3049.52c-0.93,14.47-5.05,28.93-12.8,43.31l-41.56-10.27c6.29-7.93,11.59-16.4,15.94-25.29
			c4.12-8.4,6.46-15.68,7.17-21.98c0.57-5.01,0.26-8.76-0.9-11.33c-1.14-2.53-3.34-4.19-6.62-5c-2.25-0.56-4.29-0.26-6.12,0.91
			c-1.85,1.18-4.12,3.38-6.84,6.66c-2.79,3.37-6.38,8.12-10.85,14.41c-5.34,7.41-11.03,13.39-16.98,17.76
			c-6.16,4.52-12.65,7.44-19.39,8.67c-6.85,1.24-14.83,0.76-23.85-1.47c-13.78-3.41-22.76-10.03-26.79-19.52
			c-3.85-9.06-3.05-20.37,1.92-33.35l-24.29-6l10.19-16.26l22.67,5.6c5.85-9.48,13.76-17.77,23.51-24.99l23.55,14.29
			c-9.81,8.19-16.72,16.75-20.35,25.64c-1.81,4.44-2.41,7.82-1.75,10.05c0.67,2.27,2.41,3.76,5.21,4.45
			c2.43,0.6,4.69,0.39,6.77-0.62c2.06-1,4.62-2.95,7.66-5.81c2.97-2.8,6.56-6.68,10.69-11.55c8.13-9.29,15.59-15.04,22.66-17.72
			c6.86-2.59,14.79-2.72,23.96-0.46c10.34,2.56,18.54,7.04,24.77,13.62c6.46,6.83,10.5,15.81,12,27.37l27.59,6.82l1.45,19.13
			L1222.03,3049.52z"/>
		<path class="st13" d="M1327.4,3137.68l-0.84,3.39c-8.37,31.47-30.81,51.37-63.28,63.37c-2.22,0.82-4.47,1.6-6.76,2.33l11.47-46.41
			c51.5-17.11,63.54-39.65,63.54-39.65S1328.81,3131.46,1327.4,3137.68z"/>
	</g>
	<g>
		<polygon class="st11" points="2081.66,3142.55 1961.76,3195.38 1787.91,3156.53 1681.25,3045.07 1693.3,2996.29 2093.37,3095.16 
					"/>
		<path class="st12" d="M2083.89,3133.82l-0.84,3.39c-8.37,31.47-30.81,51.37-63.28,63.37c-2.22,0.82-4.47,1.6-6.76,2.33
			c-92.69,29.96-237.72-6.68-302.43-77.38c-27.25-29.78-40.11-62.65-21.29-105.97c29.48,113.52,222.31,175.28,335.18,136.95
			c25.86-8.78,49-19.78,63.54-39.65C2086.22,3124.14,2085.31,3127.6,2083.89,3133.82z"/>
		<path class="st12" d="M2099.41,3080.26c-15.1,61.11-117.84,88.29-229.47,60.7c-111.63-27.59-189.94-99.5-174.84-160.61
			c15.1-61.11,117.89-88.27,229.53-60.69C2036.26,2947.25,2114.51,3019.15,2099.41,3080.26z"/>
		<path class="st2" d="M1877.2,3111.58c-44.86-11.08-85-30.03-113.02-53.34c-28.88-24.03-41.63-50.01-35.91-73.16
			c5.72-23.15,29.11-40.21,65.86-48.02c35.66-7.58,80-5.65,124.86,5.44c44.86,11.09,85,30.03,113.02,53.34
			c28.88,24.03,41.63,50.01,35.91,73.16c-5.72,23.15-29.11,40.21-65.86,48.01C1966.4,3124.6,1922.06,3122.67,1877.2,3111.58z
			 M1916.89,2950.98c-43.58-10.77-86.51-12.68-120.88-5.37c-33.28,7.07-54.3,21.84-59.18,41.59c-4.88,19.75,6.84,42.61,33,64.37
			c27.01,22.47,65.89,40.78,109.47,51.55c43.58,10.77,86.51,12.68,120.88,5.37c33.28-7.07,54.3-21.84,59.18-41.59
			c4.88-19.75-6.84-42.61-33-64.37C1999.34,2980.05,1960.46,2961.74,1916.89,2950.98z"/>
		<path class="st2" d="M1978.53,3045.66c-0.93,14.47-5.05,28.93-12.8,43.31l-41.56-10.27c6.29-7.93,11.59-16.39,15.94-25.29
			c4.12-8.4,6.46-15.68,7.17-21.98c0.57-5.01,0.26-8.76-0.9-11.33c-1.14-2.53-3.34-4.19-6.62-5c-2.25-0.56-4.29-0.26-6.12,0.91
			c-1.85,1.18-4.12,3.38-6.84,6.66c-2.79,3.37-6.38,8.12-10.85,14.41c-5.34,7.41-11.03,13.39-16.98,17.76
			c-6.16,4.52-12.65,7.44-19.39,8.67c-6.85,1.24-14.83,0.76-23.85-1.47c-13.78-3.4-22.76-10.02-26.79-19.52
			c-3.85-9.06-3.05-20.37,1.92-33.35l-24.29-6l10.19-16.26l22.67,5.6c5.85-9.48,13.76-17.77,23.51-24.99l23.55,14.29
			c-9.81,8.19-16.72,16.75-20.35,25.64c-1.81,4.44-2.41,7.82-1.75,10.05c0.67,2.27,2.41,3.76,5.21,4.45
			c2.43,0.6,4.69,0.39,6.77-0.62c2.06-1,4.62-2.95,7.66-5.81c2.97-2.8,6.56-6.68,10.69-11.55c8.13-9.29,15.59-15.04,22.66-17.72
			c6.86-2.59,14.79-2.72,23.96-0.46c10.34,2.56,18.54,7.04,24.77,13.62c6.46,6.83,10.5,15.81,12,27.37l27.59,6.82l1.45,19.13
			L1978.53,3045.66z"/>
		<path class="st13" d="M2083.89,3133.82l-0.84,3.39c-8.37,31.47-30.81,51.37-63.28,63.37c-2.22,0.82-4.47,1.6-6.76,2.33
			l11.47-46.41c51.5-17.11,63.54-39.65,63.54-39.65S2085.31,3127.6,2083.89,3133.82z"/>
	</g>
	<g>
		<polygon class="st11" points="705.83,3017.63 825.73,3070.46 999.58,3031.61 1106.24,2920.15 1094.19,2871.38 694.12,2970.24 		
			"/>
		<path class="st12" d="M703.6,3008.9l0.84,3.39c8.37,31.47,30.8,51.37,63.28,63.37c2.22,0.82,4.47,1.6,6.76,2.33
			c92.69,29.96,237.72-6.68,302.43-77.38c27.25-29.78,40.11-62.65,21.29-105.97c-29.48,113.52-222.31,175.28-335.18,136.95
			c-25.86-8.78-49-19.78-63.54-39.65C701.28,2999.22,702.18,3002.68,703.6,3008.9z"/>
		<path class="st12" d="M688.08,2955.34c15.1,61.11,117.84,88.29,229.47,60.7c111.63-27.59,189.94-99.5,174.84-160.61
			c-15.1-61.11-117.89-88.27-229.53-60.69C751.23,2822.33,672.98,2894.23,688.08,2955.34z"/>
		<path class="st2" d="M785.44,2992.11c-36.75-7.81-60.13-24.86-65.86-48.02c-5.72-23.15,7.03-49.14,35.91-73.16
			c28.02-23.31,68.16-42.26,113.02-53.34c44.86-11.08,89.2-13.02,124.86-5.44c36.75,7.81,60.14,24.86,65.86,48.02
			s-7.03,49.14-35.91,73.16c-28.02,23.31-68.16,42.26-113.02,53.34C865.44,2997.75,821.09,2999.69,785.44,2992.11z M761.14,2877.61
			c-26.16,21.76-37.88,44.62-33,64.37c4.88,19.75,25.9,34.52,59.18,41.59c34.37,7.3,77.3,5.4,120.88-5.37
			c43.58-10.77,82.45-29.08,109.47-51.55c26.16-21.76,37.88-44.62,33-64.37c-4.88-19.75-25.9-34.52-59.18-41.59
			c-34.37-7.3-77.3-5.4-120.88,5.37C827.03,2836.83,788.15,2855.14,761.14,2877.61z"/>
		<path class="st2" d="M808.96,2920.74c0.93,14.47,5.05,28.93,12.8,43.31l41.56-10.27c-6.29-7.93-11.59-16.4-15.94-25.29
			c-4.12-8.4-6.46-15.68-7.17-21.98c-0.57-5.01-0.26-8.76,0.9-11.33c1.14-2.53,3.34-4.19,6.62-5c2.25-0.56,4.28-0.26,6.12,0.91
			c1.85,1.18,4.12,3.38,6.84,6.66c2.79,3.37,6.38,8.12,10.85,14.41c5.34,7.41,11.03,13.39,16.98,17.76
			c6.16,4.52,12.65,7.44,19.39,8.67c6.85,1.24,14.83,0.76,23.85-1.47c13.78-3.4,22.76-10.03,26.79-19.52
			c3.85-9.06,3.05-20.37-1.92-33.35l24.29-6l-10.19-16.26l-22.67,5.6c-5.85-9.48-13.76-17.77-23.51-24.99l-23.55,14.29
			c9.81,8.19,16.72,16.75,20.35,25.64c1.81,4.44,2.41,7.82,1.75,10.05c-0.67,2.27-2.41,3.76-5.21,4.45c-2.43,0.6-4.7,0.39-6.77-0.62
			c-2.06-1-4.62-2.95-7.66-5.81c-2.97-2.8-6.56-6.68-10.69-11.55c-8.13-9.29-15.59-15.04-22.66-17.72
			c-6.86-2.59-14.79-2.72-23.96-0.46c-10.34,2.55-18.54,7.04-24.77,13.62c-6.46,6.83-10.5,15.81-12,27.37l-27.59,6.82l-1.45,19.13
			L808.96,2920.74z"/>
		<path class="st13" d="M703.6,3008.9l0.84,3.39c8.37,31.47,30.8,51.37,63.28,63.37c2.22,0.82,4.47,1.6,6.76,2.33l-11.47-46.41
			c-51.5-17.11-63.54-39.65-63.54-39.65S702.18,3002.68,703.6,3008.9z"/>
	</g>
	<g>
		<polygon class="st11" points="1489.56,3139.21 1609.46,3192.03 1783.31,3153.19 1889.97,3041.72 1877.92,2992.95 1477.85,3091.81 
					"/>
		<path class="st12" d="M1487.33,3130.48l0.84,3.39c8.37,31.47,30.81,51.37,63.28,63.37c2.22,0.82,4.47,1.6,6.76,2.33
			c92.69,29.96,237.72-6.68,302.43-77.38c27.25-29.78,40.11-62.65,21.29-105.97c-29.48,113.52-222.31,175.28-335.18,136.95
			c-25.86-8.78-49-19.78-63.54-39.65C1485.01,3120.79,1485.91,3124.25,1487.33,3130.48z"/>
		<path class="st12" d="M1471.81,3076.92c15.1,61.11,117.84,88.29,229.47,60.7s189.94-99.5,174.84-160.61
			c-15.1-61.11-117.89-88.27-229.53-60.69C1534.97,2943.91,1456.71,3015.81,1471.81,3076.92z"/>
		<path class="st2" d="M1569.17,3113.68c-36.75-7.81-60.13-24.86-65.86-48.01c-5.72-23.15,7.03-49.14,35.91-73.16
			c28.02-23.32,68.16-42.26,113.02-53.35c44.86-11.08,89.2-13.02,124.86-5.44c36.75,7.81,60.13,24.86,65.86,48.02
			c5.72,23.15-7.03,49.14-35.91,73.16c-28.02,23.31-68.16,42.26-113.02,53.34C1649.17,3119.33,1604.83,3121.26,1569.17,3113.68z
			 M1544.87,2999.18c-26.16,21.76-37.88,44.62-33,64.37c4.88,19.75,25.9,34.52,59.18,41.59c34.37,7.3,77.3,5.4,120.88-5.37
			c43.58-10.77,82.45-29.08,109.47-51.55c26.16-21.76,37.88-44.62,33-64.37c-4.88-19.75-25.9-34.52-59.18-41.59
			c-34.37-7.3-77.3-5.4-120.88,5.37C1610.76,2958.4,1571.88,2976.71,1544.87,2999.18z"/>
		<path class="st2" d="M1592.69,3042.32c0.93,14.47,5.05,28.93,12.8,43.31l41.56-10.27c-6.29-7.93-11.59-16.4-15.94-25.29
			c-4.12-8.4-6.46-15.68-7.17-21.98c-0.57-5.01-0.26-8.76,0.9-11.33c1.14-2.53,3.34-4.19,6.62-5c2.25-0.56,4.29-0.26,6.12,0.91
			c1.85,1.18,4.12,3.38,6.84,6.66c2.79,3.37,6.38,8.12,10.85,14.41c5.34,7.41,11.03,13.39,16.98,17.76
			c6.16,4.52,12.65,7.44,19.39,8.67c6.85,1.24,14.83,0.76,23.85-1.47c13.78-3.41,22.76-10.03,26.79-19.52
			c3.85-9.06,3.05-20.37-1.92-33.35l24.29-6l-10.19-16.26l-22.67,5.6c-5.85-9.48-13.76-17.77-23.51-24.99l-23.55,14.29
			c9.81,8.19,16.72,16.75,20.35,25.64c1.81,4.44,2.41,7.82,1.75,10.05c-0.67,2.27-2.41,3.76-5.21,4.45c-2.43,0.6-4.7,0.39-6.77-0.62
			c-2.06-1-4.62-2.95-7.66-5.81c-2.97-2.8-6.56-6.68-10.69-11.55c-8.13-9.29-15.59-15.04-22.66-17.72
			c-6.86-2.59-14.79-2.72-23.96-0.46c-10.34,2.56-18.54,7.04-24.77,13.62c-6.46,6.83-10.5,15.81-12,27.37l-27.59,6.82l-1.45,19.13
			L1592.69,3042.32z"/>
		<path class="st13" d="M1487.33,3130.48l0.84,3.39c8.37,31.47,30.81,51.37,63.28,63.37c2.22,0.82,4.47,1.6,6.76,2.33l-11.47-46.41
			c-51.5-17.11-63.54-39.65-63.54-39.65S1485.91,3124.25,1487.33,3130.48z"/>
	</g>
	<g>
		<polygon class="st11" points="1603.69,3032.18 1483.22,2980.67 1309.8,3021.41 1204.36,3134.03 1216.95,3182.66 1615.92,3079.44 
					"/>
		<path class="st12" d="M1606.02,3040.89l-0.88-3.38c-8.72-31.38-31.36-51.03-63.96-62.67c-2.23-0.8-4.49-1.55-6.78-2.26
			c-93.01-28.95-237.63,9.28-301.57,80.68c-26.93,30.07-39.43,63.09-20.13,106.2c28.24-113.84,220.38-177.7,333.67-140.59
			c25.95,8.5,49.21,19.25,63.97,38.95C1608.44,3050.54,1607.5,3047.09,1606.02,3040.89z"/>
		<path class="st12" d="M1622.12,3094.27c-15.77-60.94-118.8-86.99-230.12-58.19c-111.33,28.8-188.85,101.57-173.08,162.51
			c15.77,60.94,118.85,86.98,230.17,58.18C1560.42,3227.96,1637.88,3155.21,1622.12,3094.27z"/>
		<path class="st2" d="M1524.37,3058.57c36.83,7.41,60.4,24.2,66.38,47.29c5.97,23.09-6.5,49.21-35.11,73.55
			c-27.77,23.62-67.7,43-112.43,54.57c-44.74,11.57-89.05,13.99-124.79,6.8c-36.83-7.41-60.4-24.2-66.38-47.29
			c-5.97-23.09,6.5-49.21,35.11-73.55c27.77-23.62,67.7-43,112.43-54.57C1444.31,3053.8,1488.63,3051.38,1524.37,3058.57z
			 M1549.91,3172.8c25.92-22.05,37.39-45.03,32.29-64.72c-5.09-19.69-26.27-34.23-59.63-40.94c-34.45-6.93-77.35-4.55-120.81,6.69
			c-43.46,11.24-82.13,29.97-108.9,52.74c-25.92,22.05-37.39,45.03-32.29,64.72c5.09,19.69,26.27,34.23,59.63,40.94
			c34.45,6.93,77.35,4.55,120.81-6.69C1484.47,3214.3,1523.14,3195.57,1549.91,3172.8z"/>
		<path class="st2" d="M1501.62,3130.19c-1.09-14.46-5.37-28.87-13.27-43.16l-41.45,10.72c6.37,7.87,11.76,16.27,16.22,25.11
			c4.21,8.35,6.63,15.61,7.41,21.9c0.62,5.01,0.36,8.75-0.77,11.34c-1.11,2.54-3.3,4.23-6.56,5.07c-2.25,0.58-4.28,0.3-6.13-0.84
			c-1.86-1.16-4.16-3.33-6.91-6.58c-2.83-3.34-6.47-8.05-11.01-14.29c-5.42-7.35-11.17-13.27-17.17-17.57
			c-6.21-4.45-12.73-7.31-19.49-8.45c-6.87-1.17-14.84-0.6-23.83,1.73c-13.74,3.55-22.65,10.27-26.57,19.81
			c-3.75,9.1-2.83,20.4,2.28,33.32l-24.22,6.27l10.37,16.14l22.61-5.85c5.95,9.42,13.95,17.62,23.78,24.73l23.39-14.54
			c-9.9-8.08-16.91-16.57-20.63-25.41c-1.86-4.42-2.5-7.79-1.86-10.03c0.64-2.27,2.36-3.78,5.16-4.5c2.43-0.63,4.69-0.44,6.78,0.54
			c2.07,0.98,4.66,2.9,7.72,5.73c3,2.76,6.63,6.61,10.82,11.43c8.23,9.2,15.75,14.87,22.85,17.47c6.88,2.51,14.82,2.56,23.96,0.2
			c10.31-2.67,18.46-7.24,24.62-13.89c6.39-6.9,10.33-15.92,11.7-27.5l27.52-7.12l1.24-19.15L1501.62,3130.19z"/>
		<path class="st13" d="M1606.02,3040.89l-0.88-3.38c-8.72-31.38-31.36-51.03-63.96-62.67c-2.23-0.8-4.49-1.55-6.78-2.26
			l11.97,46.28c51.68,16.55,63.97,38.95,63.97,38.95S1607.5,3047.09,1606.02,3040.89z"/>
	</g>
	<path class="st12" d="M2619.63,1746.51c0,197.81-160.36,358.17-358.17,358.17c-197.81,0-358.17-160.36-358.17-358.17
		c0-197.8,160.36-358.16,358.17-358.16C2459.27,1388.34,2619.63,1548.7,2619.63,1746.51z"/>
	<path class="st2" d="M2261.46,1406.95c-187.53,0-339.55,152.02-339.55,339.56c0,187.53,152.02,339.55,339.55,339.55
		c187.54,0,339.56-152.02,339.56-339.55C2601.01,1558.97,2448.99,1406.95,2261.46,1406.95z M2261.46,2073.76
		c-180.73,0-327.25-146.51-327.25-327.25c0-180.73,146.51-327.25,327.25-327.25c180.73,0,327.25,146.52,327.25,327.25
		C2588.71,1927.25,2442.19,2073.76,2261.46,2073.76z"/>
	
		<ellipse transform="matrix(0.0726 -0.9974 0.9974 0.0726 355.3965 3875.2202)" class="st13" cx="2261.46" cy="1746.51" rx="244.47" ry="244.47"/>
	<path class="st11" d="M2491.39,1746.51c0,126.98-102.94,229.93-229.94,229.93c-126.98,0-229.93-102.95-229.93-229.93
		c0-126.99,102.94-229.94,229.93-229.94C2388.45,1516.57,2491.39,1619.52,2491.39,1746.51z"/>
	<path class="st2" d="M2241.98,1879.67c-28.43-1.3-55.82-7.66-82.18-19.08v-64.65c15.06,7.66,31.42,14.05,49.07,19.18
		c17.65,5.13,33.17,7.69,46.54,7.69c11.03,0,19.11-1.33,24.24-3.99c5.13-2.66,7.69-7.11,7.69-13.34c0-4.28-1.85-7.92-5.55-10.9
		c-3.7-2.99-9.87-6.36-18.5-10.13c-8.64-3.76-20.29-8.31-34.95-13.63c-16.49-6.1-29.79-12.95-39.92-20.54
		c-10.13-7.59-17.49-16.09-22.1-25.51c-4.61-9.41-6.91-21.13-6.91-35.15c0-21.42,6.88-38.17,20.64-50.24
		c13.76-12.07,34.4-19.54,61.92-22.39v-43.21h40.31v42.82c25.83,1.43,51.86,7.79,78.09,19.08l-23.17,55.5
		c-27.13-12.2-51.6-18.3-73.41-18.3c-10.39,0-17.69,1.27-21.91,3.8c-4.22,2.53-6.33,6.27-6.33,11.2c0,4.28,1.52,7.82,4.58,10.61
		c3.05,2.79,8.34,5.91,15.87,9.35c7.53,3.44,17.98,7.43,31.35,11.98c27.13,9.61,46.6,20.54,58.42,32.81
		c11.81,12.27,17.72,28.08,17.72,47.42c0,21.81-6.91,39.53-20.74,53.16c-13.82,13.63-33.98,22.07-60.46,25.31v52.11h-40.31V1879.67z
		"/>
	<path class="st12" d="M972.96,1890.84c0,197.81-160.36,358.17-358.17,358.17c-197.81,0-358.17-160.36-358.17-358.17
		c0-197.8,160.36-358.16,358.17-358.16C812.6,1532.68,972.96,1693.04,972.96,1890.84z"/>
	<path class="st2" d="M614.79,1551.29c-187.53,0-339.55,152.02-339.55,339.56c0,187.53,152.02,339.55,339.55,339.55
		c187.54,0,339.56-152.02,339.56-339.55C954.35,1703.31,802.33,1551.29,614.79,1551.29z M614.79,2218.09
		c-180.73,0-327.25-146.51-327.25-327.25c0-180.73,146.51-327.25,327.25-327.25c180.73,0,327.25,146.52,327.25,327.25
		C942.05,2071.58,795.52,2218.09,614.79,2218.09z"/>
	
		<ellipse transform="matrix(0.0717 -0.9974 0.9974 0.0717 -1315.2771 2368.425)" class="st13" cx="614.79" cy="1890.84" rx="244.47" ry="244.47"/>
	<path class="st11" d="M844.73,1890.84c0,126.98-102.94,229.93-229.94,229.93c-126.98,0-229.93-102.95-229.93-229.93
		c0-126.99,102.94-229.94,229.93-229.94C741.79,1660.91,844.73,1763.86,844.73,1890.84z"/>
	<path class="st2" d="M595.32,2024.01c-28.43-1.3-55.82-7.66-82.18-19.08v-64.65c15.06,7.66,31.42,14.05,49.07,19.18
		c17.65,5.13,33.17,7.69,46.54,7.69c11.03,0,19.11-1.33,24.24-3.99c5.13-2.66,7.69-7.11,7.69-13.34c0-4.28-1.85-7.92-5.55-10.9
		c-3.7-2.99-9.87-6.36-18.5-10.13c-8.64-3.76-20.29-8.31-34.96-13.63c-16.49-6.1-29.79-12.95-39.92-20.54
		c-10.13-7.59-17.49-16.1-22.1-25.51c-4.61-9.41-6.91-21.13-6.91-35.15c0-21.42,6.88-38.17,20.64-50.24
		c13.76-12.07,34.4-19.54,61.92-22.39v-43.21h40.31v42.82c25.83,1.43,51.86,7.79,78.09,19.08l-23.17,55.5
		c-27.13-12.2-51.6-18.3-73.41-18.3c-10.39,0-17.69,1.27-21.91,3.8c-4.22,2.53-6.33,6.27-6.33,11.2c0,4.28,1.52,7.82,4.58,10.61
		c3.05,2.79,8.34,5.91,15.87,9.35c7.53,3.44,17.98,7.43,31.35,11.98c27.13,9.61,46.6,20.54,58.42,32.81
		c11.81,12.27,17.72,28.08,17.72,47.42c0,21.81-6.91,39.53-20.74,53.16c-13.82,13.63-33.98,22.07-60.46,25.31v52.11h-40.31V2024.01z
		"/>
	<path class="st12" d="M1872.87,690.57c0,314.15-254.67,568.82-568.83,568.82c-314.15,0-568.82-254.67-568.82-568.82
		c0-314.14,254.67-568.81,568.82-568.81C1618.2,121.76,1872.87,376.43,1872.87,690.57z"/>
	<path class="st2" d="M1304.04,151.31c-297.82,0-539.26,241.43-539.26,539.26c0,297.82,241.43,539.26,539.26,539.26
		c297.83,0,539.27-241.43,539.27-539.26C1843.31,392.74,1601.88,151.31,1304.04,151.31z M1304.04,1210.29
		c-287.03,0-519.72-232.68-519.72-519.72c0-287.03,232.68-519.72,519.72-519.72c287.03,0,519.72,232.69,519.72,519.72
		C1823.77,977.61,1591.07,1210.29,1304.04,1210.29z"/>
	
		<ellipse transform="matrix(0.7071 -0.7071 0.7071 0.7071 -106.3623 1124.3651)" class="st13" cx="1304.05" cy="690.57" rx="388.25" ry="388.25"/>
	<path class="st11" d="M1669.21,690.57c0,201.67-163.48,365.16-365.18,365.16c-201.67,0-365.16-163.49-365.16-365.16
		c0-201.67,163.49-365.17,365.16-365.17C1505.73,325.4,1669.21,488.9,1669.21,690.57z"/>
	<path class="st2" d="M1273.12,902.05c-45.15-2.06-88.66-12.16-130.51-30.31V769.07c23.91,12.17,49.89,22.32,77.93,30.46
		c28.04,8.15,52.68,12.22,73.91,12.22c17.52,0,30.35-2.11,38.5-6.34c8.14-4.22,12.22-11.29,12.22-21.18c0-6.8-2.94-12.57-8.81-17.32
		c-5.88-4.74-15.67-10.1-29.38-16.08c-13.72-5.98-32.22-13.19-55.51-21.65c-26.18-9.69-47.32-20.57-63.4-32.63
		c-16.08-12.06-27.78-25.56-35.1-40.51c-7.32-14.95-10.98-33.55-10.98-55.82c0-34.02,10.92-60.61,32.78-79.79
		c21.85-19.17,54.63-31.03,98.35-35.57v-68.62h64.02v68.01c41.02,2.27,82.36,12.37,124.01,30.31l-36.8,88.14
		c-43.09-19.38-81.95-29.07-116.59-29.07c-16.5,0-28.1,2.01-34.79,6.03c-6.7,4.02-10.05,9.95-10.05,17.78
		c0,6.8,2.42,12.42,7.27,16.86c4.84,4.44,13.24,9.38,25.2,14.84c11.96,5.46,28.55,11.81,49.79,19.02
		c43.09,15.26,74.01,32.63,92.78,52.11c18.76,19.48,28.14,44.59,28.14,75.31c0,34.64-10.98,62.78-32.94,84.43
		c-21.95,21.65-53.97,35.05-96.02,40.2v82.76h-64.02V902.05z"/>
	<path class="st2" d="M1097.82,2836.96c-47.24,0.35-57.79,11.03-57.58,58.26c-0.22-47.23-10.88-57.75-58.11-57.41
		c47.23-0.34,57.79-11.03,57.58-58.26C1039.93,2826.78,1050.59,2837.31,1097.82,2836.96z"/>
	<path class="st2" d="M1441.05,3070.03c-47.24,0.35-57.79,11.03-57.58,58.26c-0.22-47.22-10.88-57.75-58.11-57.41
		c47.23-0.34,57.79-11.03,57.58-58.26C1383.16,3059.85,1393.82,3070.39,1441.05,3070.03z"/>
	<path class="st2" d="M1665.05,2827.3c-47.24,0.35-57.79,11.03-57.58,58.26c-0.22-47.22-10.88-57.75-58.11-57.41
		c47.23-0.34,57.79-11.03,57.58-58.26C1607.15,2817.11,1617.81,2827.65,1665.05,2827.3z"/>
	<path class="st2" d="M2118.28,3057.38c-47.24,0.35-57.79,11.03-57.58,58.26c-0.22-47.22-10.88-57.75-58.11-57.41
		c47.23-0.34,57.79-11.03,57.58-58.26C2060.38,3047.2,2071.04,3057.74,2118.28,3057.38z"/>
	<path class="st2" d="M665.51,3081.81c-47.24,0.35-57.79,11.03-57.58,58.26c-0.22-47.22-10.88-57.75-58.11-57.41
		c47.23-0.34,57.79-11.03,57.58-58.26C607.61,3071.63,618.27,3082.16,665.51,3081.81z"/>
	<path class="st2" d="M463.15,1634.24c-47.24,0.35-57.79,11.03-57.58,58.26c-0.22-47.22-10.88-57.75-58.11-57.41
		c47.23-0.34,57.79-11.03,57.58-58.26C405.26,1624.06,415.92,1634.59,463.15,1634.24z"/>
	<path class="st2" d="M1753.01,291.89c-86.97,0.65-106.41,20.32-106.01,107.26c-0.4-86.95-20.03-106.33-106.98-105.7
		c86.95-0.62,106.4-20.3,106.02-107.26C1646.42,273.14,1666.04,292.53,1753.01,291.89z"/>
</g>
</svg>
