<svg id="Capa_1" enable-background="new 0 0 512 512" height="512" viewBox="0 0 512 512" width="512" xmlns="http://www.w3.org/2000/svg"><g><path d="m241 26.33h30v55.17h-30z" fill="#393d9d"/><path d="m241 430.47h30v55.16h-30z" fill="#393d9d"/><g fill="#350d65"><path d="m256 26.33h15v55.17h-15z"/><path d="m256 430.47h15v55.16h-15z"/><path d="m430.483 240.984h55.167v30h-55.167z"/></g><path d="m26.35 240.984h55.167v30h-55.167z" fill="#393d9d"/><circle cx="256" cy="256" fill="#fe4945" r="189.5"/><path d="m445.5 256c0 104.49-85.01 189.5-189.5 189.5v-379c104.49 0 189.5 85.01 189.5 189.5z" fill="#fa185e"/><path d="m373.81 256c0 34-14.47 64.67-37.59 86.19-21.04 19.61-49.26-28.38-80.22-28.38s-59.18 47.99-80.22 28.38c-23.12-21.52-37.59-52.19-37.59-86.19 0-64.96 52.85-117.81 117.81-117.81s117.81 52.85 117.81 117.81z" fill="#f0f9ff"/><path d="m373.81 256c0 34-14.47 64.67-37.59 86.19-21.04 19.61-49.26-28.38-80.22-28.38v-175.62c64.96 0 117.81 52.85 117.81 117.81z" fill="#bce4f4"/><path d="m336.22 342.19c-21.04 19.61-49.26 31.62-80.22 31.62s-59.18-12.01-80.22-31.62c.82-20.89 9.63-39.74 23.45-53.56 9.78-9.78 22.07-17.05 35.83-20.75-15.52-7.72-26.2-23.73-26.2-42.24 0-26.04 21.11-47.14 47.14-47.14s47.14 21.1 47.14 47.14c0 18.51-10.68 34.52-26.2 42.24 33.19 8.94 57.88 38.63 59.28 74.31z" fill="#393d9d"/><path d="m30 95.583h-30v-95.583h95.583v30h-65.583z" fill="#fe4945"/><path d="m95.583 512h-95.583v-95.583h30v65.583h65.583z" fill="#fe4945"/><path d="m512 95.583h-30v-65.583h-65.583v-30h95.583z" fill="#fa185e"/><path d="m512 512h-95.583v-30h65.583v-65.583h30z" fill="#fa185e"/><path d="m336.22 342.19c-21.04 19.61-49.26 31.62-80.22 31.62v-195.31c26.03 0 47.14 21.1 47.14 47.14 0 18.51-10.68 34.52-26.2 42.24 33.19 8.94 57.88 38.63 59.28 74.31z" fill="#350d65"/></g></svg>