<svg id="Layer_1_1_" enable-background="new 0 0 64 64" height="512" viewBox="0 0 64 64" width="512" xmlns="http://www.w3.org/2000/svg"><path d="m48.379 34c0 5.307-2.535 10.009-6.449 13h11.405c.689-1.128 1.28-2.319 1.788-3.554 1.199-2.915 1.877-6.098 1.877-9.446z" fill="#f74f2e"/><path d="m49.678 16.322-6.096 6.096c1.49 1.49 2.693 3.267 3.522 5.239.82 1.951 1.275 4.093 1.275 6.343h8.621c0-6.904-2.798-13.154-7.322-17.678z" fill="#fbf5fc"/><path d="m32 9v8.621c4.523 0 8.618 1.833 11.582 4.797l6.096-6.096c-4.524-4.524-10.774-7.322-17.678-7.322z" fill="#f74f2e"/><path d="m14.322 16.322 6.096 6.096c1.49-1.49 3.267-2.693 5.239-3.522 1.951-.82 4.093-1.275 6.343-1.275v-8.621c-6.904 0-13.154 2.798-17.678 7.322z" fill="#fbf5fc"/><path d="m14.322 16.322c-4.524 4.524-7.322 10.774-7.322 17.678h8.621c0-4.523 1.833-8.618 4.797-11.582z" fill="#f74f2e"/><path d="m15.621 34h-8.621c0 3.434.71 6.696 1.968 9.672.488 1.154 1.05 2.269 1.697 3.328h11.405c-3.914-2.991-6.449-7.693-6.449-13z" fill="#fbf5fc"/><path d="m48.379 34c0-2.249-.455-4.392-1.275-6.343l-.002.001.002-.001c-.829-1.972-2.032-3.749-3.522-5.239-2.964-2.964-7.059-4.797-11.582-4.797-2.249 0-4.392.455-6.343 1.275l.001.002-.001-.002c-1.972.829-3.749 2.032-5.239 3.522-2.964 2.964-4.797 7.059-4.797 11.582 0 5.307 2.535 10.009 6.449 13h19.86c3.914-2.991 6.449-7.693 6.449-13zm-9.943 7.79-6.3-2.8h-.124l-6.3 2.8 2.1-5.6-4.2-4.2h5.254l3.138-6h.138l3.138 6h5.254l-4.2 4.2z" fill="#fdb62f"/><path d="m35.282 31.99-3.139-6h-.138l-3.139 6h-5.254l4.2 4.2-2.1 5.6 6.3-2.8h.124l6.3 2.8-2.1-5.6 4.2-4.2z" fill="#f74f2e"/><path d="m35.883 47h17.475c2.31-3.788 3.642-8.238 3.642-13 0-8.56-4.305-16.112-10.865-20.618 1.827 3.472 2.865 7.423 2.865 11.618 0 9.506-5.306 17.772-13.117 22z" fill="#656366" opacity=".13"/><path d="m3 48v6c0 .552.448 1 1 1h56c.552 0 1-.448 1-1v-6c0-.552-.448-1-1-1h-56c-.552 0-1 .448-1 1z" fill="#656366"/><path d="m3 52v2c0 .552.448 1 1 1h56c.552 0 1-.448 1-1v-2z" fill="#3a393b"/></svg>