<svg id="Layer_5" enable-background="new 0 0 64 64" height="512" viewBox="0 0 64 64" width="512" xmlns="http://www.w3.org/2000/svg"><path d="m31 25v2h-2v10h2v2h2v-2.184c1.161-.414 2-1.514 2-2.816 0-.768-.29-1.469-.766-2 .476-.531.766-1.232.766-2 0-1.302-.839-2.402-2-2.816v-2.184zm1 10h-1v-2h1c.552 0 1 .449 1 1s-.448 1-1 1zm0-4h-1v-2h1c.552 0 1 .449 1 1s-.448 1-1 1z"/><path d="m32 41c-4.963 0-9-4.038-9-9 0-2.074.724-4.099 2.038-5.701l-1.547-1.269c-1.606 1.959-2.491 4.434-2.491 6.97 0 6.065 4.935 11 11 11 2.535 0 5.01-.885 6.969-2.491l-1.268-1.547c-1.602 1.314-3.627 2.038-5.701 2.038z"/><path d="m32 21c-2.535 0-5.01.885-6.969 2.491l1.268 1.547c1.602-1.314 3.627-2.038 5.701-2.038 4.963 0 9 4.038 9 9 0 2.074-.724 4.099-2.038 5.701l1.547 1.269c1.606-1.959 2.491-4.434 2.491-6.97 0-6.065-4.935-11-11-11z"/><path d="m16 57c-4.963 0-9-4.038-9-9 0-2.074.724-4.099 2.038-5.701l-1.547-1.269c-1.606 1.959-2.491 4.434-2.491 6.97 0 6.065 4.935 11 11 11 2.535 0 5.01-.885 6.969-2.491l-1.268-1.547c-1.602 1.314-3.627 2.038-5.701 2.038z"/><path d="m63 16c0-8.271-6.729-15-15-15s-15 6.729-15 15c0 .339.017.69.046 1.053-.347-.024-.693-.053-1.046-.053-2.513 0-4.879.628-6.961 1.725l-2.255-7.327c.734-.547 1.216-1.414 1.216-2.398 0-1.654-1.346-3-3-3s-3 1.346-3 3c0 1.611 1.278 2.919 2.872 2.987l2.41 7.83c-.396.284-.777.587-1.143.907l-8.706-8.706c.352-.594.567-1.278.567-2.018 0-2.206-1.794-4-4-4s-4 1.794-4 4 1.794 4 4 4c.74 0 1.424-.215 2.019-.567l8.706 8.706c-.321.366-.623.747-.908 1.143l-7.83-2.409c-.068-1.594-1.376-2.873-2.987-2.873-1.654 0-3 1.346-3 3s1.346 3 3 3c.984 0 1.851-.482 2.398-1.216l7.327 2.254c-1.097 2.083-1.725 4.449-1.725 6.962 0 .353.029.699.053 1.047-.363-.03-.714-.047-1.053-.047-8.271 0-15 6.729-15 15s6.729 15 15 15 15-6.729 15-15c0-.339-.017-.69-.046-1.053.347.024.693.053 1.046.053 2.513 0 4.879-.628 6.961-1.725l2.254 7.327c-.733.548-1.215 1.414-1.215 2.398 0 1.654 1.346 3 3 3s3-1.346 3-3c0-1.611-1.279-2.919-2.873-2.987l-2.409-7.83c.396-.284.777-.587 1.143-.908l8.706 8.706c-.352.595-.567 1.279-.567 2.019 0 2.206 1.794 4 4 4s4-1.794 4-4-1.794-4-4-4c-.74 0-1.424.215-2.019.567l-8.706-8.706c.321-.366.623-.747.908-1.143l7.83 2.409c.068 1.594 1.376 2.873 2.987 2.873 1.654 0 3-1.346 3-3s-1.346-3-3-3c-.984 0-1.851.482-2.398 1.216l-7.327-2.255c1.097-2.082 1.725-4.448 1.725-6.961 0-.353-.029-.699-.053-1.047.363.03.714.047 1.053.047 8.271 0 15-6.729 15-15zm-43-7c0-.551.448-1 1-1s1 .449 1 1-.448 1-1 1-1-.449-1-1zm-11 13c-.552 0-1-.449-1-1s.448-1 1-1 1 .449 1 1-.448 1-1 1zm35 33c0 .551-.448 1-1 1s-1-.449-1-1 .448-1 1-1 1 .449 1 1zm11-13c.552 0 1 .449 1 1s-.448 1-1 1-1-.449-1-1 .448-1 1-1zm-45-30c-1.103 0-2-.897-2-2s.897-2 2-2 2 .897 2 2-.897 2-2 2zm19 36c0 7.168-5.832 13-13 13s-13-5.832-13-13 5.832-13 13-13c.411 0 .857.035 1.323.088.154.731.374 1.436.63 2.124-3.134-.55-6.451.255-8.921 2.279l1.268 1.547c2.412-1.978 5.808-2.551 8.767-1.477 1.304 2.222 3.16 4.077 5.383 5.379.359.989.55 2.015.55 3.06 0 2.074-.724 4.099-2.038 5.701l1.547 1.269c1.606-1.959 2.491-4.434 2.491-6.97 0-.654-.064-1.302-.18-1.941.678.251 1.372.467 2.092.618.052.466.088.911.088 1.323zm3-3c-7.168 0-13-5.832-13-13s5.832-13 13-13 13 5.832 13 13-5.832 13-13 13zm22 7c1.103 0 2 .897 2 2s-.897 2-2 2-2-.897-2-2 .897-2 2-2zm-7.941-25.18c.639.116 1.287.18 1.941.18 2.535 0 5.01-.885 6.969-2.491l-1.268-1.547c-2.412 1.977-5.808 2.551-8.767 1.477-.752-1.281-1.686-2.437-2.77-3.44h11.683l1.399-8.396-4.526 1.293-2.724-2.178-2.721 2.177-4.521-1.293 1.398 8.385c-.794-.732-1.664-1.38-2.601-1.929-.36-.987-.551-2.013-.551-3.058 0-2.074.724-4.099 2.038-5.701l-1.547-1.269c-1.606 1.959-2.491 4.434-2.491 6.97 0 .654.064 1.302.18 1.941-.678-.251-1.372-.467-2.092-.618-.052-.466-.088-.911-.088-1.323 0-7.168 5.832-13 13-13s13 5.832 13 13-5.832 13-13 13c-.411 0-.857-.035-1.323-.088-.151-.719-.367-1.414-.618-2.092zm-2.813-11.424 2.473.707 2.277-1.823 2.28 1.822 2.478-.707-.601 3.605h-8.307z"/><path d="m59 16c0-6.065-4.935-11-11-11-2.535 0-5.01.885-6.969 2.491l1.268 1.547c1.602-1.314 3.627-2.038 5.701-2.038 4.963 0 9 4.038 9 9 0 2.074-.724 4.099-2.038 5.701l1.547 1.269c1.606-1.959 2.491-4.434 2.491-6.97z"/><path d="m16 56.667 7.25-9.667-3.75-5h-7l-3.75 5zm1-8.667h3l-3 4zm1-2 1-1.333 1 1.333zm-2-.667-1-1.333h2zm-2 .667h-2l1-1.333zm1 2v4l-3-4z"/></svg>