<svg id="Layer_1" enable-background="new 0 0 496.124 496.124" height="512" viewBox="0 0 496.124 496.124" width="512" xmlns="http://www.w3.org/2000/svg"><path d="m430.215 277.06v48.44c0 21.97-18.74 41.69-48.45 55.17.04.1.02-1.91.02 41.71 0 40.66-64.19 73.62-143.38 73.62-79.18 0-143.37-32.96-143.37-73.62v-95.91c0-8.67 2.91-16.979 8.27-24.71-5.36-7.72-8.27-16.04-8.27-24.7v-33.05c-18.24-12.35-29.06-27.75-29.06-44.45v-48.44c0-16.69 10.82-32.09 29.06-44.44v-33.06c0-40.66 64.19-73.62 143.37-73.62 79.19 0 143.38 32.96 143.38 73.62v48.44c0 16.7-10.83 32.1-29.07 44.45 0 17.894-.094 17.67.01 17.67 15.65 10.6 25.84 23.44 28.41 37.42 30.08 13.49 49.08 33.34 49.08 55.46z" fill="#ffb446"/><g fill="#fedf84"><path d="m381.135 221.6c30.08 13.49 49.08 33.34 49.08 55.46 0 47.809-84.174 79.893-167.59 72.58 67.66-5.91 119.16-36.16 119.16-72.58 0-52.803.231-50.73-.65-55.46z"/><path d="m238.405 302.25c-66.92 0-123.14-23.55-138.94-55.39 86.093 52.671 253.25 20.906 253.25-47.3 0-15.563-.09-15.38.01-15.38 71.29 48.286 4.08 118.07-114.32 118.07z"/><path d="m238.405 0c79.19 0 143.38 32.96 143.38 73.62 0 40.67-64.19 73.63-143.38 73.63-79.18 0-143.37-32.96-143.37-73.63 0-40.66 64.19-73.62 143.37-73.62zm93 73.62c0-18.72-41.64-33.9-93-33.9s-93 15.18-93 33.9c0 18.73 41.64 33.91 93 33.91s93-15.18 93-33.91z"/></g><path d="m381.785 73.62v48.44c0 20.892-15.905 35.961-33.49 47.3-.797 0-16.804 12.13-52.2 20.12 30.84-12.335 55.24-38.5 59.15-73.17 16.71-12.04 26.54-26.77 26.54-42.69z" fill="#fba930"/><path d="m352.715 166.51v33.06c0 36.96-49.286 59.207-85.69 67.42 30.841-12.338 55.239-38.499 59.15-73.17 10.1-7.28 17.69-15.54 22.1-24.45.1 0 1.585-1.019 4.44-2.86z" fill="#fba930"/><path d="m238.405 195.69c44.12 0 83.59-10.24 109.89-26.33-15.8 31.84-72.02 55.39-138.95 55.39-119.42 0-184.956-70.237-114.31-118.07v15.38c0 40.66 64.19 73.63 143.37 73.63z" fill="#fedf84"/><path d="m268.165 398.49v.02c-110.017 11.919-202.257-42.817-164.86-96.75 13.221 19.076 40.81 31.024 40.81 30.77 6.31 34.19 58.15 61.57 124.05 65.96z" fill="#fed66b"/><path d="m186.675 101.8c-12.591-3.753-21.218-15.437-21.08-28.466.141-13.314 9.402-24.996 22.44-28.213-56.267 13.226-56.912 43.109-1.36 56.679z" fill="#fba930"/><path d="m186.575 142.28c-53.57-10.66-91.54-37.38-91.54-68.66 0-30.73 36.67-57.07 88.77-68.09-28.37 7.32-57.994 34.794-59.96 62.97-2.25 32.25 26.03 65.31 62.73 73.78z" fill="#fee59b"/><path d="m199.625 224.59c-113.2-3.68-173.3-71.39-104.59-117.91v15.38c0 22.582 20.641 37.793 18.37 36.09 10.526 40.255 45.801 63.22 86.22 66.44z" fill="#fee59b"/><path d="m229.065 302.1c25.213-2.66 47.441-17.248 58.46-40.99 38.05-12.5 65.19-34.06 65.19-61.55 0-15.563-.09-15.38.01-15.38 73.242 49.612.108 121.929-123.66 117.92z" fill="#fed66b"/><path d="m229.155 302.1c79.676 2.606 148.718-28.578 152.64-70.41.05 6.77-.01 19.47-.01 45.37 0 36.42-51.5 66.67-119.16 72.58 84.842 7.438 167.59-25.631 167.59-72.58v48.44c0 21.97-18.74 41.69-48.45 55.17-69.838 26.39-141.477 22.273-190.52-.32-.435-.146-3.168 5.79 37.91-78.25z" fill="#fba930"/><path d="m381.785 422.38c0 62.309-144.23 97.38-237.67 55.46l15.56-4.7c27.51-8.3 46.96-32.83 48.77-61.51l.82-12.96c29.735 3.162 58.9.096 58.9-.18 35.65 2.06 74.9-3.2 113.6-17.82.04.1.02-1.91.02 41.71z" fill="#fba930"/></svg>