<svg xmlns="http://www.w3.org/2000/svg" viewBox="0 0 512 512"><path d="M336 336c-5.52 0-10 4.48-10 10s4.48 10 10 10 10-4.48 10-10-4.48-10-10-10zm-136-10a10.01 10.01 0 0 1-10-10 10.01 10.01 0 0 1 10-10c3.543 0 7.28 1.8 10.816 5.227a10 10 0 0 0 13.906-14.371c-5.074-4.914-10.152-7.7-14.723-9.207V276a10 10 0 1 0-20 0v11.72c-11.64 4.13-20 15.246-20 28.28 0 16.543 13.457 30 30 30 5.512 0 10 4.484 10 10s-4.488 10-10 10c-4.273 0-8.887-2.687-12.988-7.566a10 10 0 0 0-14.086-1.219c-4.23 3.555-4.773 9.863-1.223 14.1 5.348 6.36 11.633 10.8 18.297 13.023V396a10 10 0 1 0 20 0v-11.72c11.637-4.13 20-15.246 20-28.28 0-16.543-13.457-30-30-30zm-80-160a10 10 0 0 0 10-10v-40a10 10 0 1 0-20 0v40a10 10 0 0 0 10 10zm352 70v-80c0-27.57-22.43-50-50-50h-56V30c0-16.543-13.457-30-30-30H150c-16.543 0-30 13.457-30 30v36H90c-16.543 0-30 13.457-30 30v10H50c-27.57 0-50 22.43-50 50v306c0 27.57 22.43 50 50 50h306c24.145 0 44.348-17.203 48.992-40H422c27.57 0 50-22.43 50-50v-26h10c16.543 0 30-13.457 30-30v-90c0-22.055-17.945-40-40-40zm20 40c0 11.047-8.953 20-20 20v-40c11.027 0 20 8.973 20 20zm-70-150c16.543 0 30 13.457 30 30v140h-46v-60c0-24.145-17.203-44.348-40-48.992V126zM140 30a10.01 10.01 0 0 1 10-10h186a10.01 10.01 0 0 1 10 10v156h-46V96c0-16.543-13.457-30-30-30H140zm100 156V86h30a10.01 10.01 0 0 1 10 10v90zm-60 0V86h40v100zM80 96a10.01 10.01 0 0 1 10-10h70v100H80zm-30 30h10v60h-7.86C35.613 186 20 174.03 20 156c0-16.543 13.457-30 30-30zm306 366H50c-16.543 0-30-13.457-30-30V195.383C28.94 202.043 40.172 206 52.14 206H356c16.543 0 30 13.457 30 30v60h-70c-16.543 0-30 13.457-30 30v40c0 16.543 13.457 30 30 30h70v66c0 16.543-13.457 30-30 30zm96-70c0 16.543-13.457 30-30 30h-16v-56h46zm30-46H316a10.01 10.01 0 0 1-10-10v-40a10.01 10.01 0 0 1 10-10h156c7.137 0 13.984-1.867 20-5.355V366a10.01 10.01 0 0 1-10 10zm-60-40h-46a10 10 0 1 0 0 20h46a10 10 0 1 0 0-20zm0 0"/></svg>