<svg width="173" height="38" viewBox="0 0 173 38" fill="none" xmlns="http://www.w3.org/2000/svg">
<path d="M65.4707 2.25145C64.9147 2.06611 64.448 1.97688 64.0704 1.97688C63.7753 1.97688 63.535 2.03179 63.3634 2.14162C63.1918 2.25145 63.1095 2.40932 63.1095 2.62211C63.1095 2.8349 63.185 2.99278 63.336 3.13006C63.487 3.26734 63.6723 3.37717 63.892 3.45954C64.1116 3.54191 64.4343 3.65174 64.8667 3.78216C65.5051 3.96749 66.0336 4.15282 66.4523 4.33129C66.871 4.51662 67.228 4.79805 67.5231 5.18245C67.8183 5.56684 67.9693 6.06106 67.9693 6.67883C67.9693 7.29661 67.8046 7.81829 67.4819 8.25073C67.1593 8.68317 66.7132 9.01265 66.1434 9.2323C65.5737 9.45196 64.9491 9.56178 64.2558 9.56178C63.4939 9.56178 62.7319 9.4245 61.97 9.16366C61.2081 8.89596 60.556 8.53216 60 8.0654L60.9335 6.18461C61.4003 6.59646 61.9494 6.93281 62.5878 7.20051C63.2262 7.46135 63.789 7.59177 64.2764 7.59177C64.6333 7.59177 64.9216 7.52313 65.1275 7.39271C65.3335 7.26229 65.4364 7.07009 65.4364 6.81612C65.4364 6.60333 65.3609 6.43172 65.2099 6.28758C65.0589 6.15029 64.8598 6.0336 64.6333 5.95123C64.3999 5.86886 64.0773 5.7659 63.6517 5.65607C63.0202 5.4776 62.4986 5.306 62.0867 5.12067C61.6749 4.9422 61.3179 4.66763 61.0296 4.30383C60.7345 3.94003 60.5903 3.45268 60.5903 2.84863C60.5903 2.2789 60.7413 1.77782 61.0434 1.34538C61.3454 0.912934 61.7778 0.583454 62.3338 0.350072C62.8898 0.116691 63.535 0 64.2764 0C64.9422 0 65.6012 0.0960983 66.2533 0.281431C66.9053 0.466763 67.4751 0.720737 67.9624 1.03649L67.0564 2.95846C66.5621 2.67016 66.0405 2.42991 65.4845 2.24458L65.4707 2.25145Z" fill="white"/>
<path d="M69.1911 0.185547H71.8064L74.4765 5.58078L77.133 0.185547H79.7482V9.41099H77.6135L77.5997 3.56958L75.2453 8.49119H73.694L71.3259 3.56958V9.41099H69.1843V0.185547H69.1911Z" fill="white"/>
<path d="M88.3215 9.41099L87.69 7.77731H83.702L83.0567 9.41099H80.5856L84.5463 0.185547H87.0174L90.8887 9.41099H88.3215ZM84.4296 5.93772H86.983L85.72 2.64978L84.4296 5.93772Z" fill="white"/>
<path d="M97.2518 9.41099L95.9065 6.85752H94.1149V9.41099H91.7056V0.185547H95.8515C97.0734 0.185547 98.0137 0.466978 98.6864 1.0367C99.3591 1.60643 99.6955 2.39581 99.6955 3.42543C99.6955 4.11871 99.5513 4.7159 99.2768 5.22385C98.9953 5.73179 98.5903 6.12305 98.0549 6.40448L99.9769 9.41785H97.2518V9.41099ZM94.1218 4.93555H95.8721C96.3595 4.93555 96.7439 4.812 97.0116 4.56489C97.2793 4.31778 97.4097 3.96084 97.4097 3.50094C97.4097 3.04104 97.2793 2.71156 97.0116 2.47131C96.7439 2.23107 96.3664 2.10751 95.8721 2.10751H94.1218V4.93555Z" fill="white"/>
<path d="M100.437 0.185547H108.344V2.16929H105.578V9.40412H103.169V2.16929H100.43V0.185547H100.437Z" fill="white"/>
<path d="M64.7157 32.0625C65.1687 32.4537 65.3884 33.0097 65.3884 33.7236C65.3884 34.4787 65.1619 35.069 64.7157 35.4808C64.2626 35.8996 63.6311 36.1055 62.8143 36.1055H61.6749V37.8764H60V31.4722H62.8143C63.6311 31.4722 64.2626 31.6712 64.7157 32.0625ZM63.5213 34.513C63.7066 34.3414 63.8027 34.0943 63.8027 33.7717C63.8027 33.449 63.7135 33.2225 63.5213 33.0578C63.336 32.8931 63.0683 32.8038 62.7319 32.8038H61.6749V34.767H62.7319C63.0751 34.767 63.336 34.6846 63.5213 34.513Z" fill="#30D4D1"/>
<path d="M70.0629 37.8764L69.1293 36.1055H67.8869V37.8764H66.2121V31.4722H69.0881C69.9324 31.4722 70.5914 31.6712 71.0582 32.0625C71.5249 32.4537 71.7583 33.0097 71.7583 33.7236C71.7583 34.2041 71.6622 34.6228 71.4631 34.9729C71.271 35.323 70.9827 35.5975 70.612 35.7897L71.9436 37.8833H70.0491L70.0629 37.8764ZM67.8869 34.767H69.1019C69.4451 34.767 69.7059 34.6846 69.8913 34.513C70.0766 34.3414 70.1727 34.0943 70.1727 33.7717C70.1727 33.449 70.0766 33.2225 69.8913 33.0578C69.7059 32.8931 69.4451 32.8038 69.1019 32.8038H67.8869V34.767Z" fill="#30D4D1"/>
<path d="M77.6546 31.8016C78.1832 32.0899 78.595 32.4811 78.897 32.9822C79.1991 33.4833 79.3501 34.0393 79.3501 34.6639C79.3501 35.2886 79.1991 35.8583 78.897 36.3662C78.595 36.8742 78.1832 37.2723 77.6546 37.5606C77.1261 37.8489 76.5358 37.9999 75.8837 37.9999C75.2316 37.9999 74.6413 37.8558 74.1127 37.5675C73.5842 37.2792 73.1723 36.881 72.8703 36.3731C72.5683 35.8651 72.4173 35.2954 72.4173 34.6708C72.4173 34.0461 72.5683 33.4901 72.8703 32.9891C73.1723 32.488 73.5842 32.0967 74.1127 31.8084C74.6413 31.5201 75.2316 31.376 75.8837 31.376C76.5358 31.376 77.1261 31.5201 77.6546 31.8084V31.8016ZM75.0256 33.0371C74.7511 33.2018 74.5383 33.4284 74.3804 33.7167C74.2225 34.005 74.1402 34.3276 74.1402 34.6708C74.1402 35.014 74.2225 35.3435 74.3804 35.6318C74.5383 35.9201 74.7579 36.1466 75.0256 36.3182C75.2933 36.4898 75.5885 36.5722 75.9043 36.5722C76.22 36.5722 76.5152 36.4898 76.776 36.3182C77.0437 36.1534 77.2496 35.9201 77.4006 35.6318C77.5517 35.3435 77.6272 35.0208 77.6272 34.6708C77.6272 34.3207 77.5517 34.005 77.4006 33.7167C77.2496 33.4284 77.0368 33.2018 76.776 33.0371C76.5083 32.8724 76.22 32.79 75.9043 32.79C75.5885 32.79 75.2933 32.8724 75.0256 33.0371Z" fill="#30D4D1"/>
<path d="M69.3765 17.1672C68.7518 16.8308 68.134 16.6592 67.5231 16.6592C66.8161 16.6592 66.1777 16.8377 65.6012 17.1878C65.0246 17.5378 64.5715 18.0252 64.2352 18.643C63.9057 19.2607 63.7341 19.9472 63.7341 20.7022C63.7341 21.4573 63.8988 22.1437 64.2352 22.7615C64.5647 23.3792 65.0246 23.8666 65.6012 24.2167C66.1777 24.5667 66.823 24.7452 67.5231 24.7452C68.0929 24.7452 68.69 24.6011 69.3147 24.3059C69.9393 24.0176 70.4953 23.6126 70.9895 23.1115L73.1243 25.4042C72.3692 26.2004 71.4632 26.8388 70.4267 27.3055C69.3833 27.7792 68.3537 28.0125 67.3309 28.0125C65.9512 28.0125 64.702 27.6968 63.5831 27.0584C62.4642 26.4201 61.5925 25.5483 60.9541 24.45C60.3158 23.3449 60 22.1094 60 20.7434C60 19.3774 60.3226 18.1693 60.9747 17.0779C61.6268 15.9865 62.5191 15.1285 63.6586 14.5039C64.7912 13.8792 66.0679 13.5635 67.4751 13.5635C68.5116 13.5635 69.5343 13.7831 70.5434 14.2087C71.5524 14.6412 72.4104 15.2315 73.1174 15.9728L71.0033 18.5263C70.5502 17.9565 70.0148 17.4966 69.3902 17.1603L69.3765 17.1672Z" fill="white"/>
<path d="M84.9581 14.5107C86.1044 15.1354 87.0105 15.9934 87.6695 17.0848C88.3284 18.1762 88.6579 19.398 88.6579 20.7503C88.6579 22.1025 88.3284 23.3518 87.6695 24.4569C87.0105 25.562 86.1044 26.4338 84.9581 27.0653C83.8118 27.7037 82.5213 28.0194 81.1005 28.0194C79.6796 28.0194 78.396 27.7037 77.2428 27.0722C76.0965 26.4407 75.1904 25.5689 74.5315 24.4638C73.8725 23.3518 73.543 22.1162 73.543 20.7434C73.543 19.3706 73.8725 18.1693 74.5315 17.0779C75.1904 15.9865 76.0896 15.1285 77.2428 14.5039C78.3891 13.8792 79.6796 13.5635 81.1005 13.5635C82.5213 13.5635 83.8049 13.8792 84.9581 14.5039V14.5107ZM79.2197 17.2015C78.6294 17.5584 78.1626 18.0526 77.8125 18.6841C77.4693 19.3156 77.2977 20.0089 77.2977 20.764C77.2977 21.519 77.4762 22.2329 77.8263 22.8644C78.1763 23.4959 78.65 23.997 79.2334 24.3608C79.8169 24.7246 80.4552 24.9099 81.1485 24.9099C81.8418 24.9099 82.4733 24.7246 83.0499 24.3608C83.6265 23.997 84.0795 23.4959 84.4159 22.8644C84.7453 22.2329 84.9169 21.5328 84.9169 20.764C84.9169 19.9952 84.7522 19.3156 84.4159 18.6841C84.0864 18.0526 83.6265 17.5584 83.0499 17.2015C82.4733 16.8445 81.8349 16.6661 81.1485 16.6661C80.4621 16.6661 79.8169 16.8445 79.2265 17.2015H79.2197Z" fill="white"/>
<path d="M100.011 13.79H103.402V27.7586H100.21L93.8747 19.4049V27.7586H90.4632V13.79H93.6687L100.025 22.1986L100.004 13.79H100.011Z" fill="white"/>
<path d="M104.912 13.79H116.89V16.7965H112.703V27.7586H109.058V16.7965H104.912V13.79Z" fill="white"/>
<path d="M126.754 27.7586L124.722 23.8941H122.011V27.7586H118.366V13.79H124.647C126.493 13.79 127.928 14.2156 128.944 15.0736C129.96 15.9317 130.468 17.1329 130.468 18.6911C130.468 19.7413 130.255 20.6473 129.829 21.4093C129.404 22.1712 128.786 22.7684 127.976 23.1939L130.886 27.7586H126.761H126.754ZM122.011 20.9837H124.66C125.402 20.9837 125.978 20.7984 126.383 20.4277C126.788 20.057 126.994 19.5148 126.994 18.8146C126.994 18.1145 126.788 17.6134 126.383 17.2496C125.978 16.8858 125.402 16.7004 124.66 16.7004H122.011V20.9837Z" fill="white"/>
<path d="M143.056 27.7586L142.102 25.2875H136.062L135.087 27.7586H131.339L137.339 13.79H141.086L146.948 27.7586H143.063H143.056ZM137.16 22.4938H141.025L139.11 17.5104L137.16 22.4938Z" fill="white"/>
<path d="M156.311 17.1672C155.686 16.8308 155.069 16.6592 154.458 16.6592C153.751 16.6592 153.112 16.8377 152.536 17.1878C151.959 17.5378 151.506 18.0252 151.17 18.643C150.84 19.2607 150.669 19.9472 150.669 20.7022C150.669 21.4573 150.834 22.1437 151.17 22.7615C151.499 23.3792 151.959 23.8666 152.536 24.2167C153.112 24.5667 153.758 24.7452 154.458 24.7452C155.028 24.7452 155.625 24.6011 156.249 24.3059C156.874 24.0176 157.43 23.6126 157.924 23.1115L160.059 25.4042C159.304 26.2004 158.405 26.8388 157.361 27.3055C156.318 27.7792 155.288 28.0125 154.266 28.0125C152.886 28.0125 151.637 27.6968 150.518 27.0584C149.399 26.4201 148.527 25.5483 147.889 24.45C147.25 23.3449 146.935 22.1094 146.935 20.7434C146.935 19.3774 147.257 18.1693 147.909 17.0779C148.561 15.9865 149.454 15.1285 150.593 14.5039C151.733 13.8792 153.003 13.5635 154.41 13.5635C155.446 13.5635 156.469 13.7831 157.478 14.2087C158.487 14.6412 159.345 15.2315 160.052 15.9728L157.938 18.5263C157.485 17.9565 156.949 17.4966 156.325 17.1603L156.311 17.1672Z" fill="white"/>
<path d="M160.395 13.79H172.373V16.7965H168.186V27.7586H164.541V16.7965H160.395V13.79Z" fill="white"/>
<g clip-path="url(#clip0_238_3730)">
<path d="M24.8491 13.9766H14.1643C13.5919 13.9766 13.1222 14.442 13.1222 15.0193C13.1222 15.5966 13.5874 16.0621 14.1643 16.0621H24.8491C25.4216 16.0621 25.8912 15.5966 25.8912 15.0193C25.8912 14.442 25.426 13.9766 24.8491 13.9766Z" fill="#30D4D1"/>
<path d="M24.8491 21.5933H14.1643C13.5919 21.5933 13.1222 22.0587 13.1222 22.636C13.1222 23.2133 13.5874 23.6788 14.1643 23.6788H24.8491C25.4216 23.6788 25.8912 23.2133 25.8912 22.636C25.8912 22.0587 25.426 21.5933 24.8491 21.5933Z" fill="#30D4D1"/>
<path d="M37.2826 8.14957H30.1624V1.71853C30.1624 0.769756 29.3931 0 28.445 0H9.84839C9.38773 0 8.93601 0.187964 8.61846 0.519138L0.4875 8.86562C0.169954 9.18785 0 9.613 0 10.065V28.1319C0 29.0807 0.769266 29.8504 1.71743 29.8504H8.83762V36.2815C8.83762 37.2302 9.60688 38 10.555 38H29.1471C29.6078 38 30.0595 37.812 30.3771 37.4809L38.508 29.1344C38.8256 28.8122 38.9955 28.387 38.9955 27.935V9.86809C38.9955 8.91933 38.2263 8.14957 37.2781 8.14957H37.2826ZM8.70791 3.31174V8.2167H3.92683L8.70791 3.31174ZM10.8502 29.8504H24.867C25.4216 29.8504 25.8733 29.3984 25.8733 28.8435C25.8733 28.2885 25.4216 27.8365 24.867 27.8365H10.8502V19.7138C11.8923 19.311 12.6303 18.2996 12.6303 17.1136C12.6303 15.5741 11.3825 14.3255 9.84392 14.3255C8.30539 14.3255 7.05757 15.5741 7.05757 17.1136C7.05757 18.2996 7.79553 19.3066 8.83762 19.7138V27.8365H2.01261V10.2351H10.7205V2.0139H28.1498V8.14957H14.133C13.5784 8.14957 13.1267 8.60158 13.1267 9.15652C13.1267 9.71146 13.5784 10.1635 14.133 10.1635H28.1498V18.2862C27.1077 18.689 26.3697 19.7004 26.3697 20.8863C26.3697 22.4259 27.6175 23.6745 29.1561 23.6745C30.6946 23.6745 31.9424 22.4259 31.9424 20.8863C31.9424 19.7004 31.2045 18.6934 30.1624 18.2862V10.1635H36.9874V27.7694H28.2795V35.9906H10.8502V29.8549V29.8504ZM30.2921 34.6838V29.7788H35.0732L30.2921 34.6838Z" fill="white"/>
</g>
<defs>
<clipPath id="clip0_238_3730">
<rect width="39" height="38" fill="white"/>
</clipPath>
</defs>
</svg>
